<?xml version="1.0" encoding="UTF-8"?>
<svg xmlns:xlink="http://www.w3.org/1999/xlink" xmlns="http://www.w3.org/2000/svg" contentScriptType="text/ecmascript" width="2029px" zoomAndPan="magnify" contentStyleType="text/css" viewBox="0 0 2029 3277" height="3277px" preserveAspectRatio="xMidYMid meet" version="1.0">
  <path fill="none" d="M 1742.00 96.00 L 1739.00 143.00 L 1715.54 145.05 L 1735.00 147.00 L 1875.00 147.00 L 1895.00 149.00 L 1987.08 149.00 L 1965.00 107.00 L 1966.91 65.00 L 1935.00 65.00 L 1915.00 63.00 L 1895.00 67.00 L 1875.00 65.00 L 1855.00 61.00 L 1835.00 59.00 L 1825.07 57.51 L 1812.11 57.01 L 1812.11 57.01 L 1795.00 63.00 L 1775.00 67.00 L 1773.90 67.00 Z" stroke-width="1" id="305-01-01" stroke="black"/>
  <path fill="none" d="M 351.00 110.00 L 281.00 182.00 L 269.00 197.00 L 275.88 219.00 L 375.00 219.00 L 395.00 215.00 L 435.00 215.00 L 455.00 217.00 L 514.00 217.00 L 546.00 119.91 L 384.00 102.00 Z" stroke-width="1" id="305-02-01" stroke="black"/>
  <path fill="none" d="M 535.00 217.00 L 555.00 220.00 L 575.00 220.00 L 595.00 221.00 L 635.00 221.00 L 655.00 222.00 L 675.00 222.00 L 695.00 223.00 L 735.00 223.00 L 755.00 224.00 L 775.00 224.00 L 801.00 131.00 L 755.00 131.00 L 735.00 129.00 L 715.00 127.00 L 695.00 125.00 L 690.56 123.22 L 583.00 124.00 L 546.00 119.91 L 514.00 217.00 Z" stroke-width="1" id="305-02-02" stroke="black"/>
  <path fill="none" d="M 795.00 225.00 L 815.00 225.00 L 835.00 226.00 L 875.00 226.00 L 895.00 227.00 L 915.00 227.00 L 935.00 228.00 L 963.00 228.00 L 1013.00 131.00 L 801.00 131.00 L 775.00 224.00 Z" stroke-width="1" id="305-02-03" stroke="black"/>
  <path fill="none" d="M 975.00 228.00 L 995.00 229.00 L 1015.00 229.00 L 1035.00 230.00 L 1075.00 230.00 L 1095.00 231.00 L 1115.00 231.00 L 1135.00 232.00 L 1175.00 232.00 L 1195.00 233.00 L 1215.00 233.00 L 1235.00 234.00 L 1275.00 234.00 L 1295.00 235.00 L 1315.00 235.00 L 1335.00 236.00 L 1355.00 236.00 L 1375.00 237.00 L 1415.00 237.00 L 1435.00 238.00 L 1455.00 238.00 L 1475.00 239.00 L 1515.00 239.00 L 1530.00 239.75 L 1541.00 150.76 L 1386.00 140.00 L 1148.22 128.36 L 1135.00 131.00 L 1013.00 131.00 L 963.00 228.00 Z" stroke-width="1" id="305-02-04" stroke="black"/>
  <path fill="none" d="M 1535.00 240.00 L 1555.00 240.00 L 1575.00 241.00 L 1615.00 241.00 L 1635.00 242.00 L 1655.00 242.00 L 1675.00 243.00 L 1715.00 243.00 L 1735.00 244.00 L 1755.00 244.00 L 1775.00 245.00 L 1815.00 245.00 L 1835.00 246.00 L 1855.00 246.00 L 1873.00 246.90 L 1917.08 149.00 L 1895.00 149.00 L 1875.00 147.00 L 1735.00 147.00 L 1715.54 145.05 L 1602.00 155.00 L 1541.00 150.76 L 1530.00 239.75 Z" stroke-width="1" id="305-02-05" stroke="black"/>
  <path fill="none" d="M 1875.00 247.00 L 1895.00 247.00 L 1915.00 248.00 L 1955.00 248.00 L 1975.00 249.00 L 1995.00 249.00 L 2005.41 249.61 L 2006.00 231.00 L 2012.00 201.00 L 2006.00 185.00 L 1987.08 149.00 L 1917.08 149.00 L 1873.00 246.90 Z" stroke-width="1" id="305-02-06" stroke="black"/>
  <path fill="none" d="M 281.42 311.00 L 279.00 357.00 L 277.81 390.00 L 295.00 390.00 L 302.00 404.00 L 405.00 307.00 L 395.00 307.00 L 375.00 311.00 Z" stroke-width="1" id="305-04-01" stroke="black"/>
  <path fill="none" d="M 315.00 430.00 L 335.00 411.00 L 355.00 411.00 L 375.00 391.00 L 395.00 392.00 L 423.00 392.00 L 450.00 307.00 L 405.00 307.00 L 302.00 404.00 Z" stroke-width="1" id="305-04-02" stroke="black"/>
  <path fill="none" d="M 435.00 392.00 L 455.00 393.00 L 499.00 393.00 L 531.00 307.00 L 450.00 307.00 L 423.00 392.00 Z" stroke-width="1" id="305-04-03" stroke="black"/>
  <path fill="none" d="M 515.00 393.00 L 535.00 394.00 L 555.00 394.00 L 563.00 402.00 L 611.00 307.00 L 531.00 307.00 L 499.00 393.00 Z" stroke-width="1" id="305-04-04" stroke="black"/>
  <path fill="none" d="M 575.00 414.00 L 595.00 435.00 L 615.00 395.00 L 635.00 395.00 L 655.00 396.00 L 695.00 396.00 L 715.00 397.00 L 775.00 397.00 L 795.00 398.00 L 813.00 398.00 L 852.00 301.00 L 735.00 301.00 L 715.00 299.00 L 695.00 303.00 L 675.00 307.00 L 611.00 307.00 L 563.00 402.00 Z" stroke-width="1" id="305-04-05" stroke="black"/>
  <path fill="none" d="M 835.00 398.00 L 855.00 399.00 L 875.00 379.00 L 895.00 399.00 L 915.00 400.00 L 955.00 400.00 L 975.00 401.00 L 1035.00 401.00 L 1049.00 401.70 L 1077.00 294.60 L 1075.00 295.00 L 1055.00 295.00 L 1035.00 293.00 L 995.00 293.00 L 975.00 297.00 L 955.00 301.00 L 852.00 301.00 L 813.00 398.00 Z" stroke-width="1" id="305-04-06" stroke="black"/>
  <path fill="none" d="M 1055.00 402.00 L 1095.00 402.00 L 1100.00 402.25 L 1211.00 293.00 L 1175.00 293.00 L 1155.00 291.00 L 1095.00 291.00 L 1077.00 294.60 L 1049.00 401.70 Z" stroke-width="1" id="305-04-07" stroke="black"/>
  <path fill="none" d="M 1115.00 403.00 L 1155.00 403.00 L 1175.00 384.00 L 1195.00 404.00 L 1215.00 404.00 L 1235.00 405.00 L 1271.00 405.00 L 1293.00 293.00 L 1211.00 293.00 L 1100.00 402.25 Z" stroke-width="1" id="305-04-08" stroke="black"/>
  <path fill="none" d="M 1275.00 405.00 L 1295.00 406.00 L 1355.00 406.00 L 1360.00 406.25 L 1445.00 295.00 L 1375.00 295.00 L 1355.00 293.00 L 1293.00 293.00 L 1271.00 405.00 Z" stroke-width="1" id="305-04-09" stroke="black"/>
  <path fill="none" d="M 1375.00 407.00 L 1395.00 407.00 L 1415.00 387.00 L 1435.00 408.00 L 1472.00 408.00 L 1496.00 297.00 L 1495.00 297.00 L 1475.00 295.00 L 1445.00 295.00 L 1360.00 406.25 Z" stroke-width="1" id="305-04-10" stroke="black"/>
  <path fill="none" d="M 1475.00 408.00 L 1495.00 409.00 L 1535.00 409.00 L 1555.00 410.00 L 1615.00 410.00 L 1635.00 411.00 L 1675.00 411.00 L 1695.00 412.00 L 1735.00 412.00 L 1755.00 413.00 L 1795.00 413.00 L 1815.00 414.00 L 1875.00 414.00 L 1895.00 415.00 L 1935.00 415.00 L 1955.00 416.00 L 1979.49 416.00 L 2003.00 362.00 L 2003.00 325.00 L 2003.06 323.00 L 1995.00 323.00 L 1975.00 321.00 L 1935.00 321.00 L 1915.00 313.00 L 1895.00 311.00 L 1775.00 311.00 L 1755.00 309.00 L 1735.00 309.00 L 1715.00 305.00 L 1695.00 299.00 L 1675.00 299.00 L 1655.00 297.00 L 1496.00 297.00 L 1472.00 408.00 Z" stroke-width="1" id="305-04-11" stroke="black"/>
  <path fill="none" d="M 277.81 390.00 L 275.00 468.00 L 275.00 475.00 L 335.00 475.00 L 355.00 476.00 L 415.00 476.00 L 435.00 477.00 L 460.00 477.00 L 479.00 393.00 L 455.00 393.00 L 435.00 392.00 L 395.00 392.00 L 375.00 391.00 L 355.00 411.00 L 335.00 411.00 L 315.00 430.00 L 295.00 390.00 Z" stroke-width="1" id="305-05-01" stroke="black"/>
  <path fill="none" d="M 475.00 477.00 L 495.00 478.00 L 555.00 478.00 L 575.00 479.00 L 635.00 479.00 L 655.00 480.00 L 715.00 480.00 L 735.00 481.00 L 773.00 481.00 L 815.00 398.00 L 795.00 398.00 L 775.00 397.00 L 715.00 397.00 L 695.00 396.00 L 655.00 396.00 L 635.00 395.00 L 615.00 395.00 L 595.00 435.00 L 575.00 414.00 L 555.00 394.00 L 535.00 394.00 L 515.00 393.00 L 479.00 393.00 L 460.00 477.00 Z" stroke-width="1" id="305-05-02" stroke="black"/>
  <path fill="none" d="M 775.00 481.00 L 795.00 502.00 L 855.00 502.00 L 875.00 483.00 L 879.00 483.00 L 926.00 400.00 L 915.00 400.00 L 895.00 399.00 L 875.00 379.00 L 855.00 399.00 L 835.00 398.00 L 815.00 398.00 L 773.00 481.00 Z" stroke-width="1" id="305-05-03" stroke="black"/>
  <path fill="none" d="M 935.00 483.00 L 955.00 484.00 L 995.00 484.00 L 1015.00 485.00 L 1075.00 485.00 L 1095.00 486.00 L 1155.00 486.00 L 1175.00 487.00 L 1235.00 487.00 L 1243.00 487.40 L 1259.00 405.00 L 1235.00 405.00 L 1215.00 404.00 L 1195.00 404.00 L 1175.00 384.00 L 1155.00 403.00 L 1115.00 403.00 L 1095.00 402.00 L 1055.00 402.00 L 1035.00 401.00 L 975.00 401.00 L 955.00 400.00 L 926.00 400.00 L 879.00 483.00 Z" stroke-width="1" id="305-05-04" stroke="black"/>
  <path fill="none" d="M 1255.00 488.00 L 1295.00 488.00 L 1315.00 489.00 L 1375.00 489.00 L 1395.00 490.00 L 1435.00 490.00 L 1456.00 408.00 L 1435.00 408.00 L 1415.00 387.00 L 1395.00 407.00 L 1375.00 407.00 L 1355.00 406.00 L 1295.00 406.00 L 1275.00 405.00 L 1259.00 405.00 L 1243.00 487.40 Z" stroke-width="1" id="305-05-05" stroke="black"/>
  <path fill="none" d="M 1455.00 490.00 L 1475.00 491.00 L 1515.00 491.00 L 1535.00 492.00 L 1595.00 492.00 L 1615.00 493.00 L 1628.00 493.00 L 1657.00 411.00 L 1635.00 411.00 L 1615.00 410.00 L 1555.00 410.00 L 1535.00 409.00 L 1495.00 409.00 L 1475.00 408.00 L 1456.00 408.00 L 1435.00 490.00 Z" stroke-width="1" id="305-05-06" stroke="black"/>
  <path fill="none" d="M 1675.00 493.00 L 1695.00 494.00 L 1755.00 494.00 L 1775.00 495.00 L 1815.00 495.00 L 1835.00 496.00 L 1854.00 496.00 L 1875.00 414.00 L 1815.00 414.00 L 1795.00 413.00 L 1755.00 413.00 L 1735.00 412.00 L 1695.00 412.00 L 1675.00 411.00 L 1657.00 411.00 L 1628.00 493.00 Z" stroke-width="1" id="305-05-07" stroke="black"/>
  <path fill="none" d="M 1895.00 496.00 L 1915.00 497.00 L 1975.00 497.00 L 1994.62 497.98 L 1966.00 447.00 L 1979.49 416.00 L 1955.00 416.00 L 1935.00 415.00 L 1895.00 415.00 L 1875.00 414.00 L 1854.00 496.00 Z" stroke-width="1" id="305-05-08" stroke="black"/>
  <path fill="none" d="M 275.00 475.00 L 275.00 562.00 L 295.00 562.00 L 315.00 563.00 L 395.00 563.00 L 415.00 564.00 L 435.00 564.00 L 439.00 568.00 L 497.00 478.00 L 495.00 478.00 L 475.00 477.00 L 435.00 477.00 L 415.00 476.00 L 355.00 476.00 L 335.00 475.00 Z" stroke-width="1" id="305-06-01" stroke="black"/>
  <path fill="none" d="M 455.00 584.00 L 475.00 584.00 L 495.00 564.00 L 515.00 565.00 L 615.00 565.00 L 635.00 566.00 L 715.00 566.00 L 735.00 567.00 L 776.00 567.00 L 795.00 502.00 L 775.00 481.00 L 735.00 481.00 L 715.00 480.00 L 655.00 480.00 L 635.00 479.00 L 575.00 479.00 L 555.00 478.00 L 497.00 478.00 L 439.00 568.00 Z" stroke-width="1" id="305-06-02" stroke="black"/>
  <path fill="none" d="M 815.00 567.00 L 835.00 548.00 L 855.00 568.00 L 935.00 568.00 L 955.00 569.00 L 1008.00 569.00 L 1037.00 485.00 L 1015.00 485.00 L 995.00 484.00 L 955.00 484.00 L 935.00 483.00 L 875.00 483.00 L 855.00 502.00 L 795.00 502.00 L 776.00 567.00 Z" stroke-width="1" id="305-06-03" stroke="black"/>
  <path fill="none" d="M 1035.00 569.00 L 1055.00 570.00 L 1135.00 570.00 L 1155.00 571.00 L 1228.00 571.00 L 1271.00 488.00 L 1255.00 488.00 L 1235.00 487.00 L 1175.00 487.00 L 1155.00 486.00 L 1095.00 486.00 L 1075.00 485.00 L 1037.00 485.00 L 1008.00 569.00 Z" stroke-width="1" id="305-06-04" stroke="black"/>
  <path fill="none" d="M 1235.00 571.00 L 1250.67 587.46 L 1278.60 588.40 L 1295.00 572.00 L 1317.00 572.00 L 1371.00 489.00 L 1315.00 489.00 L 1295.00 488.00 L 1271.00 488.00 L 1228.00 571.00 Z" stroke-width="1" id="305-06-05" stroke="black"/>
  <path fill="none" d="M 1355.00 572.00 L 1375.00 573.00 L 1455.00 573.00 L 1475.00 574.00 L 1535.00 574.00 L 1548.33 587.33 L 1583.08 586.92 L 1595.00 575.00 L 1602.00 575.00 L 1614.00 492.95 L 1595.00 492.00 L 1535.00 492.00 L 1515.00 491.00 L 1475.00 491.00 L 1455.00 490.00 L 1395.00 490.00 L 1375.00 489.00 L 1371.00 489.00 L 1317.00 572.00 Z" stroke-width="1" id="305-06-06" stroke="black"/>
  <path fill="none" d="M 1675.00 575.00 L 1685.00 575.50 L 1707.00 494.00 L 1695.00 494.00 L 1675.00 493.00 L 1615.00 493.00 L 1614.00 492.95 L 1602.00 575.00 Z" stroke-width="1" id="305-06-07" stroke="black"/>
  <path fill="none" d="M 1695.00 576.00 L 1775.00 576.00 L 1795.00 577.00 L 1835.00 577.00 L 1855.00 557.00 L 1875.00 577.00 L 1886.90 589.50 L 1941.79 591.21 L 1955.00 578.00 L 1995.00 578.00 L 2000.67 578.33 L 2004.00 549.00 L 1998.00 504.00 L 1994.62 497.98 L 1975.00 497.00 L 1915.00 497.00 L 1895.00 496.00 L 1835.00 496.00 L 1815.00 495.00 L 1775.00 495.00 L 1755.00 494.00 L 1707.00 494.00 L 1685.00 575.50 Z" stroke-width="1" id="305-06-08" stroke="black"/>
  <path fill="none" d="M 275.00 562.00 L 275.00 632.00 L 364.12 649.00 L 395.00 649.00 L 415.00 650.00 L 475.00 584.00 L 455.00 584.00 L 435.00 564.00 L 415.00 564.00 L 395.00 563.00 L 315.00 563.00 L 295.00 562.00 Z" stroke-width="1" id="305-07-01" stroke="black"/>
  <path fill="none" d="M 425.76 660.76 L 448.00 665.00 L 460.48 664.52 L 475.00 650.00 L 495.00 650.00 L 515.00 651.00 L 615.00 651.00 L 635.00 652.00 L 643.00 652.00 L 645.00 566.00 L 635.00 566.00 L 615.00 565.00 L 515.00 565.00 L 495.00 564.00 L 475.00 584.00 L 415.00 650.00 Z" stroke-width="1" id="305-07-02" stroke="black"/>
  <path fill="none" d="M 715.00 652.00 L 735.00 653.00 L 759.14 653.00 L 786.14 651.96 L 776.00 567.00 L 735.00 567.00 L 715.00 566.00 L 645.00 566.00 L 643.00 652.00 Z" stroke-width="1" id="305-07-03" stroke="black"/>
  <path fill="none" d="M 811.00 651.00 L 809.45 653.00 L 815.00 653.00 L 835.00 654.00 L 855.00 634.00 L 875.00 654.00 L 895.00 654.00 L 915.00 674.00 L 935.00 674.00 L 955.00 675.00 L 975.00 655.00 L 1005.00 655.00 L 1025.00 569.00 L 955.00 569.00 L 935.00 568.00 L 855.00 568.00 L 835.00 548.00 L 815.00 567.00 L 776.00 567.00 L 786.14 651.96 Z" stroke-width="1" id="305-07-04" stroke="black"/>
  <path fill="none" d="M 809.45 653.00 L 777.00 695.00 L 771.93 734.85 L 775.00 735.00 L 855.00 735.00 L 871.00 735.80 L 904.00 663.00 L 895.00 654.00 L 875.00 654.00 L 855.00 634.00 L 835.00 654.00 L 815.00 653.00 Z" stroke-width="1" id="305-08-01" stroke="black"/>
  <path fill="none" d="M 875.00 736.00 L 955.00 736.00 L 975.00 737.00 L 1055.00 737.00 L 1059.00 737.20 L 1108.00 656.00 L 1055.00 656.00 L 1035.00 655.00 L 975.00 655.00 L 955.00 675.00 L 935.00 674.00 L 915.00 674.00 L 904.00 663.00 L 871.00 735.80 Z" stroke-width="1" id="305-08-02" stroke="black"/>
  <path fill="none" d="M 1075.00 738.00 L 1115.00 738.00 L 1135.00 758.00 L 1155.00 759.00 L 1175.00 739.00 L 1235.00 739.00 L 1255.00 740.00 L 1258.00 740.00 L 1289.31 658.00 L 1255.00 658.00 L 1235.00 657.00 L 1155.00 657.00 L 1135.00 656.00 L 1108.00 656.00 L 1059.00 737.20 Z" stroke-width="1" id="305-08-03" stroke="black"/>
  <path fill="none" d="M 1295.00 740.00 L 1315.00 760.00 L 1335.00 780.00 L 1355.00 761.00 L 1374.00 761.00 L 1439.00 660.23 L 1307.31 658.00 L 1289.31 658.00 L 1258.00 740.00 Z" stroke-width="1" id="305-08-04" stroke="black"/>
  <path fill="none" d="M 1415.00 761.00 L 1435.00 741.00 L 1455.00 742.00 L 1515.00 742.00 L 1535.00 743.00 L 1555.00 743.00 L 1575.00 763.00 L 1595.00 763.00 L 1615.00 743.00 L 1630.00 743.75 L 1650.00 663.80 L 1439.00 660.23 L 1374.00 761.00 Z" stroke-width="1" id="305-08-05" stroke="black"/>
  <path fill="none" d="M 1635.00 744.00 L 1715.00 744.00 L 1735.00 745.00 L 1761.00 665.68 L 1650.00 663.80 L 1630.00 743.75 Z" stroke-width="1" id="305-08-06" stroke="black"/>
  <path fill="none" d="M 1809.00 745.00 L 1822.00 666.71 L 1761.00 665.68 L 1735.00 745.00 Z" stroke-width="1" id="305-08-07" stroke="black"/>
  <path fill="none" d="M 1815.00 745.00 L 1835.00 746.00 L 1915.00 746.00 L 1935.00 747.00 L 1979.71 747.00 L 1982.00 704.00 L 1957.00 669.00 L 1822.00 666.71 L 1809.00 745.00 Z" stroke-width="1" id="305-08-08" stroke="black"/>
  <path fill="none" d="M 263.00 794.00 L 291.00 804.00 L 287.60 824.00 L 335.00 824.00 L 355.00 825.00 L 395.00 825.00 L 415.00 826.00 L 420.00 826.00 L 446.00 743.05 L 309.00 753.00 Z" stroke-width="1" id="305-09-01" stroke="black"/>
  <path fill="none" d="M 475.00 826.00 L 495.00 807.00 L 515.00 807.00 L 535.00 827.00 L 545.00 827.50 L 560.00 742.55 L 488.00 740.00 L 446.00 743.05 L 420.00 826.00 Z" stroke-width="1" id="305-09-02" stroke="black"/>
  <path fill="none" d="M 555.00 828.00 L 595.00 828.00 L 615.00 808.00 L 635.00 809.00 L 655.00 829.00 L 675.00 829.00 L 695.00 830.00 L 715.00 830.00 L 735.00 810.00 L 763.00 749.75 L 560.00 742.55 L 545.00 827.50 Z" stroke-width="1" id="305-09-03" stroke="black"/>
  <path fill="none" d="M 755.00 830.00 L 775.00 831.00 L 795.00 811.00 L 802.00 811.00 L 846.00 735.00 L 775.00 735.00 L 771.93 734.85 L 770.00 750.00 L 763.00 749.75 L 735.00 810.00 Z" stroke-width="1" id="305-09-04" stroke="black"/>
  <path fill="none" d="M 815.00 811.00 L 835.00 832.00 L 895.00 832.00 L 915.00 833.00 L 955.00 833.00 L 975.00 834.00 L 1035.00 834.00 L 1055.00 835.00 L 1070.00 835.00 L 1130.00 753.00 L 1115.00 738.00 L 1075.00 738.00 L 1055.00 737.00 L 975.00 737.00 L 955.00 736.00 L 875.00 736.00 L 855.00 735.00 L 846.00 735.00 L 802.00 811.00 Z" stroke-width="1" id="305-09-05" stroke="black"/>
  <path fill="none" d="M 1095.00 835.00 L 1115.00 836.00 L 1175.00 836.00 L 1195.00 837.00 L 1210.00 837.00 L 1216.00 739.00 L 1175.00 739.00 L 1155.00 759.00 L 1135.00 758.00 L 1130.00 753.00 L 1070.00 835.00 Z" stroke-width="1" id="305-09-06" stroke="black"/>
  <path fill="none" d="M 1235.00 837.00 L 1255.00 838.00 L 1275.00 838.00 L 1295.00 818.00 L 1309.00 832.00 L 1335.00 780.00 L 1315.00 760.00 L 1295.00 740.00 L 1255.00 740.00 L 1235.00 739.00 L 1216.00 739.00 L 1210.00 837.00 Z" stroke-width="1" id="305-09-07" stroke="black"/>
  <path fill="none" d="M 1315.00 838.00 L 1335.00 839.00 L 1395.00 839.00 L 1415.00 840.00 L 1455.00 840.00 L 1475.00 821.00 L 1495.00 821.00 L 1515.00 841.00 L 1535.00 821.00 L 1555.00 842.00 L 1590.00 842.00 L 1612.00 746.00 L 1595.00 763.00 L 1575.00 763.00 L 1555.00 743.00 L 1535.00 743.00 L 1515.00 742.00 L 1455.00 742.00 L 1435.00 741.00 L 1415.00 761.00 L 1355.00 761.00 L 1335.00 780.00 L 1309.00 832.00 Z" stroke-width="1" id="305-09-08" stroke="black"/>
  <path fill="none" d="M 1595.00 842.00 L 1615.00 843.00 L 1675.00 843.00 L 1695.00 844.00 L 1735.00 844.00 L 1755.00 845.00 L 1767.00 845.00 L 1809.00 745.00 L 1735.00 745.00 L 1715.00 744.00 L 1635.00 744.00 L 1615.00 743.00 L 1612.00 746.00 L 1590.00 842.00 Z" stroke-width="1" id="305-09-09" stroke="black"/>
  <path fill="none" d="M 1815.00 845.00 L 1835.00 846.00 L 1875.00 846.00 L 1895.00 847.00 L 1955.00 847.00 L 1969.80 847.74 L 1977.00 798.00 L 1979.71 747.00 L 1935.00 747.00 L 1915.00 746.00 L 1835.00 746.00 L 1815.00 745.00 L 1809.00 745.00 L 1767.00 845.00 Z" stroke-width="1" id="305-09-10" stroke="black"/>
  <path fill="none" d="M 287.60 824.00 L 282.00 857.00 L 272.00 882.00 L 278.86 900.00 L 335.00 900.00 L 355.00 901.00 L 390.00 901.00 L 449.00 826.00 L 415.00 826.00 L 395.00 825.00 L 355.00 825.00 L 335.00 824.00 Z" stroke-width="1" id="305-10-01" stroke="black"/>
  <path fill="none" d="M 415.00 901.00 L 435.00 902.00 L 475.00 902.00 L 495.00 903.00 L 514.00 903.00 L 541.00 827.30 L 535.00 827.00 L 515.00 807.00 L 495.00 807.00 L 475.00 826.00 L 449.00 826.00 L 390.00 901.00 Z" stroke-width="1" id="305-10-02" stroke="black"/>
  <path fill="none" d="M 555.00 903.00 L 575.00 904.00 L 635.00 904.00 L 655.00 905.00 L 698.00 905.00 L 747.00 822.00 L 735.00 810.00 L 715.00 830.00 L 695.00 830.00 L 675.00 829.00 L 655.00 829.00 L 635.00 809.00 L 615.00 808.00 L 595.00 828.00 L 555.00 828.00 L 541.00 827.30 L 514.00 903.00 Z" stroke-width="1" id="305-10-03" stroke="black"/>
  <path fill="none" d="M 715.00 905.00 L 735.00 906.00 L 775.00 906.00 L 795.00 907.00 L 855.00 907.00 L 875.00 908.00 L 898.00 908.00 L 925.00 833.00 L 915.00 833.00 L 895.00 832.00 L 835.00 832.00 L 815.00 811.00 L 795.00 811.00 L 775.00 831.00 L 755.00 830.00 L 747.00 822.00 L 698.00 905.00 Z" stroke-width="1" id="305-10-04" stroke="black"/>
  <path fill="none" d="M 935.00 908.00 L 955.00 909.00 L 1015.00 909.00 L 1035.00 910.00 L 1075.00 910.00 L 1081.00 910.30 L 1095.00 835.00 L 1055.00 835.00 L 1035.00 834.00 L 975.00 834.00 L 955.00 833.00 L 925.00 833.00 L 898.00 908.00 Z" stroke-width="1" id="305-10-05" stroke="black"/>
  <path fill="none" d="M 1095.00 911.00 L 1155.00 911.00 L 1175.00 912.00 L 1182.00 912.00 L 1191.00 836.80 L 1175.00 836.00 L 1115.00 836.00 L 1095.00 835.00 L 1081.00 910.30 Z" stroke-width="1" id="305-10-06" stroke="black"/>
  <path fill="none" d="M 1235.00 912.00 L 1255.00 913.00 L 1295.00 913.00 L 1315.00 914.00 L 1375.00 914.00 L 1395.00 915.00 L 1399.00 915.00 L 1428.00 840.00 L 1415.00 840.00 L 1395.00 839.00 L 1335.00 839.00 L 1315.00 838.00 L 1295.00 818.00 L 1275.00 838.00 L 1255.00 838.00 L 1235.00 837.00 L 1195.00 837.00 L 1191.00 836.80 L 1182.00 912.00 Z" stroke-width="1" id="305-10-07" stroke="black"/>
  <path fill="none" d="M 1447.00 915.00 L 1510.00 836.00 L 1495.00 821.00 L 1475.00 821.00 L 1455.00 840.00 L 1428.00 840.00 L 1399.00 915.00 Z" stroke-width="1" id="305-10-08" stroke="black"/>
  <path fill="none" d="M 1455.00 915.00 L 1475.00 916.00 L 1535.00 916.00 L 1555.00 917.00 L 1595.00 917.00 L 1615.00 918.00 L 1675.00 918.00 L 1695.00 919.00 L 1730.00 919.00 L 1748.00 844.65 L 1735.00 844.00 L 1695.00 844.00 L 1675.00 843.00 L 1615.00 843.00 L 1595.00 842.00 L 1555.00 842.00 L 1535.00 821.00 L 1515.00 841.00 L 1510.00 836.00 L 1447.00 915.00 Z" stroke-width="1" id="305-10-09" stroke="black"/>
  <path fill="none" d="M 1755.00 919.00 L 1775.00 920.00 L 1835.00 920.00 L 1842.00 920.35 L 1850.00 846.00 L 1835.00 846.00 L 1815.00 845.00 L 1755.00 845.00 L 1748.00 844.65 L 1730.00 919.00 Z" stroke-width="1" id="305-10-10" stroke="black"/>
  <path fill="none" d="M 1855.00 921.00 L 1895.00 921.00 L 1915.00 922.00 L 1975.00 922.00 L 1982.79 922.39 L 1966.00 874.00 L 1969.80 847.74 L 1955.00 847.00 L 1895.00 847.00 L 1875.00 846.00 L 1850.00 846.00 L 1842.00 920.35 Z" stroke-width="1" id="305-10-11" stroke="black"/>
  <path fill="none" d="M 278.86 900.00 L 280.00 903.00 L 281.00 941.00 L 268.00 971.00 L 281.00 983.00 L 281.30 991.31 L 295.00 992.00 L 355.00 992.00 L 375.00 993.00 L 435.00 993.00 L 455.00 994.00 L 475.00 994.00 L 495.00 1014.00 L 515.00 1014.00 L 535.00 995.00 L 595.00 995.00 L 607.00 995.60 L 622.00 904.00 L 575.00 904.00 L 555.00 903.00 L 495.00 903.00 L 475.00 902.00 L 435.00 902.00 L 415.00 901.00 L 355.00 901.00 L 335.00 900.00 Z" stroke-width="1" id="305-11-01" stroke="black"/>
  <path fill="none" d="M 615.00 996.00 L 695.00 996.00 L 715.00 997.00 L 775.00 997.00 L 795.00 998.00 L 849.00 998.00 L 903.00 908.00 L 875.00 908.00 L 855.00 907.00 L 795.00 907.00 L 775.00 906.00 L 735.00 906.00 L 715.00 905.00 L 655.00 905.00 L 635.00 904.00 L 622.00 904.00 L 607.00 995.60 Z" stroke-width="1" id="305-11-02" stroke="black"/>
  <path fill="none" d="M 855.00 998.00 L 875.00 999.00 L 935.00 999.00 L 955.00 1000.00 L 1015.00 1000.00 L 1035.00 1001.00 L 1109.00 1001.00 L 1144.00 911.00 L 1095.00 911.00 L 1075.00 910.00 L 1035.00 910.00 L 1015.00 909.00 L 955.00 909.00 L 935.00 908.00 L 903.00 908.00 L 849.00 998.00 Z" stroke-width="1" id="305-11-03" stroke="black"/>
  <path fill="none" d="M 1115.00 1001.00 L 1135.00 1002.00 L 1195.00 1002.00 L 1215.00 1003.00 L 1235.00 1003.00 L 1255.00 1023.00 L 1275.00 1043.00 L 1295.00 1024.00 L 1315.00 1013.00 L 1335.00 1004.00 L 1355.00 1004.00 L 1375.00 1005.00 L 1412.00 1005.00 L 1447.00 915.00 L 1395.00 915.00 L 1375.00 914.00 L 1315.00 914.00 L 1295.00 913.00 L 1255.00 913.00 L 1235.00 912.00 L 1175.00 912.00 L 1155.00 911.00 L 1144.00 911.00 L 1109.00 1001.00 Z" stroke-width="1" id="305-11-04" stroke="black"/>
  <path fill="none" d="M 1435.00 1005.00 L 1455.00 1006.00 L 1535.00 1006.00 L 1555.00 1007.00 L 1569.00 1007.00 L 1599.00 917.20 L 1595.00 917.00 L 1555.00 917.00 L 1535.00 916.00 L 1475.00 916.00 L 1455.00 915.00 L 1447.00 915.00 L 1412.00 1005.00 Z" stroke-width="1" id="305-11-05" stroke="black"/>
  <path fill="none" d="M 1615.00 1007.00 L 1635.00 1008.00 L 1695.00 1008.00 L 1715.00 1009.00 L 1775.00 1009.00 L 1795.00 1010.00 L 1855.00 1010.00 L 1868.00 1010.65 L 1904.00 921.45 L 1895.00 921.00 L 1855.00 921.00 L 1835.00 920.00 L 1775.00 920.00 L 1755.00 919.00 L 1695.00 919.00 L 1675.00 918.00 L 1615.00 918.00 L 1599.00 917.20 L 1569.00 1007.00 Z" stroke-width="1" id="305-11-06" stroke="black"/>
  <path fill="none" d="M 1875.00 1011.00 L 1955.00 1011.00 L 1975.00 1012.00 L 1998.87 1012.00 L 2007.00 983.00 L 1983.00 923.00 L 1982.79 922.39 L 1975.00 922.00 L 1915.00 922.00 L 1904.00 921.45 L 1868.00 1010.65 Z" stroke-width="1" id="305-11-07" stroke="black"/>
  <path fill="none" d="M 281.30 991.31 L 282.00 1011.00 L 265.00 1030.00 L 289.00 1063.00 L 287.16 1078.00 L 335.00 1078.00 L 355.00 1079.00 L 375.00 1059.00 L 395.00 1079.00 L 415.00 1079.00 L 435.00 1080.00 L 495.00 1080.00 L 515.00 1081.00 L 543.00 1081.00 L 556.00 995.00 L 535.00 995.00 L 515.00 1014.00 L 495.00 1014.00 L 475.00 994.00 L 455.00 994.00 L 435.00 993.00 L 375.00 993.00 L 355.00 992.00 L 295.00 992.00 Z" stroke-width="1" id="305-12-01" stroke="black"/>
  <path fill="none" d="M 575.00 1081.00 L 595.00 1082.00 L 629.00 1082.00 L 688.00 996.00 L 615.00 996.00 L 595.00 995.00 L 556.00 995.00 L 543.00 1081.00 Z" stroke-width="1" id="305-12-02" stroke="black"/>
  <path fill="none" d="M 635.00 1082.00 L 655.00 1102.00 L 675.00 1083.00 L 695.00 1063.00 L 715.00 1083.00 L 735.00 1083.00 L 755.00 1084.00 L 815.00 1084.00 L 835.00 1085.00 L 855.00 1065.00 L 875.00 1085.00 L 895.00 1085.00 L 915.00 1086.00 L 961.00 1086.00 L 973.00 1000.00 L 955.00 1000.00 L 935.00 999.00 L 875.00 999.00 L 855.00 998.00 L 795.00 998.00 L 775.00 997.00 L 715.00 997.00 L 695.00 996.00 L 688.00 996.00 L 629.00 1082.00 Z" stroke-width="1" id="305-12-03" stroke="black"/>
  <path fill="none" d="M 975.00 1086.00 L 995.00 1087.00 L 1055.00 1087.00 L 1075.00 1088.00 L 1087.00 1088.00 L 1110.00 1001.00 L 1035.00 1001.00 L 1015.00 1000.00 L 973.00 1000.00 L 961.00 1086.00 Z" stroke-width="1" id="305-12-04" stroke="black"/>
  <path fill="none" d="M 1135.00 1088.00 L 1155.00 1089.00 L 1215.00 1089.00 L 1220.00 1089.25 L 1258.00 1026.00 L 1255.00 1023.00 L 1235.00 1003.00 L 1215.00 1003.00 L 1195.00 1002.00 L 1135.00 1002.00 L 1115.00 1001.00 L 1110.00 1001.00 L 1087.00 1088.00 Z" stroke-width="1" id="305-12-05" stroke="black"/>
  <path fill="none" d="M 1235.00 1090.00 L 1295.00 1090.00 L 1315.00 1091.00 L 1355.00 1091.00 L 1375.00 1111.00 L 1395.00 1092.00 L 1415.00 1112.00 L 1435.00 1092.00 L 1455.00 1092.00 L 1475.00 1093.00 L 1535.00 1093.00 L 1555.00 1094.00 L 1615.00 1094.00 L 1635.00 1075.00 L 1655.00 1095.00 L 1695.00 1095.00 L 1711.00 1095.80 L 1751.00 1009.00 L 1715.00 1009.00 L 1695.00 1008.00 L 1635.00 1008.00 L 1615.00 1007.00 L 1555.00 1007.00 L 1535.00 1006.00 L 1455.00 1006.00 L 1435.00 1005.00 L 1375.00 1005.00 L 1355.00 1004.00 L 1335.00 1004.00 L 1315.00 1013.00 L 1295.00 1024.00 L 1275.00 1043.00 L 1258.00 1026.00 L 1220.00 1089.25 Z" stroke-width="1" id="305-12-06" stroke="black"/>
  <path fill="none" d="M 1715.00 1096.00 L 1775.00 1096.00 L 1795.00 1097.00 L 1834.00 1097.00 L 1869.00 1010.70 L 1855.00 1010.00 L 1795.00 1010.00 L 1775.00 1009.00 L 1751.00 1009.00 L 1711.00 1095.80 Z" stroke-width="1" id="305-12-07" stroke="black"/>
  <path fill="none" d="M 1855.00 1097.00 L 1875.00 1098.00 L 1935.00 1098.00 L 1949.77 1098.74 L 1984.00 1065.00 L 1998.87 1012.00 L 1975.00 1012.00 L 1955.00 1011.00 L 1875.00 1011.00 L 1869.00 1010.70 L 1834.00 1097.00 Z" stroke-width="1" id="305-12-08" stroke="black"/>
  <path fill="none" d="M 287.16 1078.00 L 283.00 1112.00 L 270.00 1124.00 L 285.00 1153.00 L 285.14 1171.51 L 295.00 1172.00 L 355.00 1172.00 L 375.00 1173.00 L 409.00 1173.00 L 445.00 1080.00 L 435.00 1080.00 L 415.00 1079.00 L 395.00 1079.00 L 375.00 1059.00 L 355.00 1079.00 L 335.00 1078.00 Z" stroke-width="1" id="305-13-01" stroke="black"/>
  <path fill="none" d="M 435.00 1173.00 L 455.00 1174.00 L 515.00 1174.00 L 535.00 1175.00 L 555.00 1155.00 L 575.00 1175.00 L 582.00 1175.00 L 586.00 1081.55 L 575.00 1081.00 L 515.00 1081.00 L 495.00 1080.00 L 445.00 1080.00 L 409.00 1173.00 Z" stroke-width="1" id="305-13-02" stroke="black"/>
  <path fill="none" d="M 595.00 1175.00 L 615.00 1176.00 L 655.00 1176.00 L 675.00 1196.00 L 695.00 1176.00 L 715.00 1177.00 L 762.00 1177.00 L 776.00 1084.00 L 755.00 1084.00 L 735.00 1083.00 L 715.00 1083.00 L 695.00 1063.00 L 675.00 1083.00 L 655.00 1102.00 L 635.00 1082.00 L 595.00 1082.00 L 586.00 1081.55 L 582.00 1175.00 Z" stroke-width="1" id="305-13-03" stroke="black"/>
  <path fill="none" d="M 775.00 1177.00 L 795.00 1178.00 L 855.00 1178.00 L 875.00 1179.00 L 935.00 1179.00 L 955.00 1180.00 L 975.00 1160.00 L 988.00 1086.65 L 975.00 1086.00 L 915.00 1086.00 L 895.00 1085.00 L 875.00 1085.00 L 855.00 1065.00 L 835.00 1085.00 L 815.00 1084.00 L 776.00 1084.00 L 762.00 1177.00 Z" stroke-width="1" id="305-13-04" stroke="black"/>
  <path fill="none" d="M 995.00 1160.00 L 1015.00 1180.00 L 1035.00 1181.00 L 1115.00 1181.00 L 1135.00 1182.00 L 1195.00 1182.00 L 1215.00 1163.00 L 1235.00 1183.00 L 1275.00 1183.00 L 1295.00 1184.00 L 1339.00 1184.00 L 1375.00 1111.00 L 1355.00 1091.00 L 1315.00 1091.00 L 1295.00 1090.00 L 1235.00 1090.00 L 1215.00 1089.00 L 1155.00 1089.00 L 1135.00 1088.00 L 1075.00 1088.00 L 1055.00 1087.00 L 995.00 1087.00 L 988.00 1086.65 L 975.00 1160.00 Z" stroke-width="1" id="305-13-05" stroke="black"/>
  <path fill="none" d="M 1355.00 1184.00 L 1375.00 1185.00 L 1435.00 1185.00 L 1455.00 1186.00 L 1479.00 1186.00 L 1515.00 1093.00 L 1475.00 1093.00 L 1455.00 1092.00 L 1435.00 1092.00 L 1415.00 1112.00 L 1395.00 1092.00 L 1375.00 1111.00 L 1339.00 1184.00 Z" stroke-width="1" id="305-13-06" stroke="black"/>
  <path fill="none" d="M 1515.00 1186.00 L 1535.00 1166.00 L 1555.00 1187.00 L 1575.00 1187.00 L 1595.00 1167.00 L 1648.00 1088.00 L 1635.00 1075.00 L 1615.00 1094.00 L 1555.00 1094.00 L 1535.00 1093.00 L 1515.00 1093.00 L 1479.00 1186.00 Z" stroke-width="1" id="305-13-07" stroke="black"/>
  <path fill="none" d="M 1615.00 1187.00 L 1635.00 1167.00 L 1655.00 1165.00 L 1675.00 1169.00 L 1695.00 1169.00 L 1715.00 1171.00 L 1795.00 1171.00 L 1812.00 1172.70 L 1819.00 1097.00 L 1795.00 1097.00 L 1775.00 1096.00 L 1715.00 1096.00 L 1695.00 1095.00 L 1655.00 1095.00 L 1648.00 1088.00 L 1595.00 1167.00 Z" stroke-width="1" id="305-13-08" stroke="black"/>
  <path fill="none" d="M 1815.00 1173.00 L 1875.00 1173.00 L 1895.00 1175.00 L 1941.09 1175.00 L 1914.00 1134.00 L 1949.77 1098.74 L 1935.00 1098.00 L 1875.00 1098.00 L 1855.00 1097.00 L 1819.00 1097.00 L 1812.00 1172.70 Z" stroke-width="1" id="305-13-09" stroke="black"/>
  <path fill="none" d="M 285.14 1171.51 L 285.67 1243.00 L 315.00 1243.00 L 335.00 1244.00 L 395.00 1244.00 L 415.00 1264.00 L 435.00 1284.00 L 455.00 1265.00 L 475.00 1245.00 L 555.00 1245.00 L 575.00 1246.00 L 675.00 1246.00 L 695.00 1247.00 L 699.00 1247.00 L 712.00 1176.85 L 695.00 1176.00 L 675.00 1196.00 L 655.00 1176.00 L 615.00 1176.00 L 595.00 1175.00 L 575.00 1175.00 L 555.00 1155.00 L 535.00 1175.00 L 515.00 1174.00 L 455.00 1174.00 L 435.00 1173.00 L 375.00 1173.00 L 355.00 1172.00 L 295.00 1172.00 Z" stroke-width="1" id="305-14-01" stroke="black"/>
  <path fill="none" d="M 795.00 1247.00 L 808.00 1178.00 L 795.00 1178.00 L 775.00 1177.00 L 715.00 1177.00 L 712.00 1176.85 L 699.00 1247.00 Z" stroke-width="1" id="305-14-02" stroke="black"/>
  <path fill="none" d="M 815.00 1248.00 L 915.00 1248.00 L 935.00 1249.00 L 995.00 1249.00 L 1037.00 1181.00 L 1035.00 1181.00 L 1015.00 1180.00 L 995.00 1160.00 L 975.00 1160.00 L 955.00 1180.00 L 935.00 1179.00 L 875.00 1179.00 L 855.00 1178.00 L 808.00 1178.00 L 795.00 1247.00 Z" stroke-width="1" id="305-14-03" stroke="black"/>
  <path fill="none" d="M 1035.00 1249.00 L 1055.00 1250.00 L 1105.00 1250.00 L 1121.00 1181.30 L 1115.00 1181.00 L 1037.00 1181.00 L 995.00 1249.00 Z" stroke-width="1" id="305-14-04" stroke="black"/>
  <path fill="none" d="M 1155.00 1250.00 L 1175.00 1251.00 L 1233.00 1251.00 L 1287.00 1183.60 L 1275.00 1183.00 L 1235.00 1183.00 L 1215.00 1163.00 L 1195.00 1182.00 L 1135.00 1182.00 L 1121.00 1181.30 L 1105.00 1250.00 Z" stroke-width="1" id="305-14-05" stroke="black"/>
  <path fill="none" d="M 1235.00 1251.00 L 1255.00 1271.00 L 1275.00 1251.00 L 1295.00 1252.00 L 1395.00 1252.00 L 1415.00 1253.00 L 1423.00 1253.00 L 1447.00 1185.60 L 1435.00 1185.00 L 1375.00 1185.00 L 1355.00 1184.00 L 1295.00 1184.00 L 1287.00 1183.60 L 1233.00 1251.00 Z" stroke-width="1" id="305-14-06" stroke="black"/>
  <path fill="none" d="M 1515.00 1253.00 L 1521.00 1253.30 L 1568.00 1187.00 L 1555.00 1187.00 L 1535.00 1166.00 L 1515.00 1186.00 L 1455.00 1186.00 L 1447.00 1185.60 L 1423.00 1253.00 Z" stroke-width="1" id="305-14-07" stroke="black"/>
  <path fill="none" d="M 1535.00 1254.00 L 1615.00 1254.00 L 1635.00 1274.00 L 1655.00 1275.00 L 1675.00 1255.00 L 1755.00 1255.00 L 1775.00 1256.00 L 1864.00 1256.00 L 1885.00 1174.00 L 1875.00 1173.00 L 1815.00 1173.00 L 1795.00 1171.00 L 1715.00 1171.00 L 1695.00 1169.00 L 1675.00 1169.00 L 1655.00 1165.00 L 1635.00 1167.00 L 1615.00 1187.00 L 1595.00 1167.00 L 1575.00 1187.00 L 1568.00 1187.00 L 1521.00 1253.30 Z" stroke-width="1" id="305-14-08" stroke="black"/>
  <path fill="none" d="M 1875.00 1256.00 L 1895.00 1257.00 L 1984.56 1257.00 L 2000.00 1229.00 L 1951.00 1190.00 L 1941.09 1175.00 L 1895.00 1175.00 L 1885.00 1174.00 L 1864.00 1256.00 Z" stroke-width="1" id="305-14-09" stroke="black"/>
  <path fill="none" d="M 285.67 1243.00 L 286.00 1288.00 L 276.00 1304.00 L 277.82 1331.00 L 295.00 1331.00 L 315.00 1332.00 L 395.00 1332.00 L 415.00 1333.00 L 459.00 1333.00 L 515.00 1245.00 L 475.00 1245.00 L 455.00 1265.00 L 435.00 1284.00 L 415.00 1264.00 L 395.00 1244.00 L 335.00 1244.00 L 315.00 1243.00 Z" stroke-width="1" id="305-15-01" stroke="black"/>
  <path fill="none" d="M 495.00 1333.00 L 515.00 1334.00 L 595.00 1334.00 L 615.00 1335.00 L 635.00 1335.00 L 659.00 1246.00 L 575.00 1246.00 L 555.00 1245.00 L 515.00 1245.00 L 459.00 1333.00 Z" stroke-width="1" id="305-15-02" stroke="black"/>
  <path fill="none" d="M 695.00 1335.00 L 715.00 1336.00 L 795.00 1336.00 L 815.00 1337.00 L 829.00 1337.00 L 845.00 1248.00 L 815.00 1248.00 L 795.00 1247.00 L 695.00 1247.00 L 675.00 1246.00 L 659.00 1246.00 L 635.00 1335.00 Z" stroke-width="1" id="305-15-03" stroke="black"/>
  <path fill="none" d="M 905.00 1337.00 L 957.00 1249.00 L 935.00 1249.00 L 915.00 1248.00 L 845.00 1248.00 L 829.00 1337.00 Z" stroke-width="1" id="305-15-04" stroke="black"/>
  <path fill="none" d="M 915.00 1337.00 L 935.00 1338.00 L 1015.00 1338.00 L 1035.00 1339.00 L 1115.00 1339.00 L 1135.00 1340.00 L 1209.00 1340.00 L 1250.00 1266.00 L 1235.00 1251.00 L 1175.00 1251.00 L 1155.00 1250.00 L 1055.00 1250.00 L 1035.00 1249.00 L 957.00 1249.00 L 905.00 1337.00 Z" stroke-width="1" id="305-15-05" stroke="black"/>
  <path fill="none" d="M 1215.00 1340.00 L 1235.00 1341.00 L 1315.00 1341.00 L 1335.00 1342.00 L 1415.00 1342.00 L 1435.00 1343.00 L 1512.00 1343.00 L 1524.00 1253.45 L 1515.00 1253.00 L 1415.00 1253.00 L 1395.00 1252.00 L 1295.00 1252.00 L 1275.00 1251.00 L 1255.00 1271.00 L 1250.00 1266.00 L 1209.00 1340.00 Z" stroke-width="1" id="305-15-06" stroke="black"/>
  <path fill="none" d="M 1635.00 1344.00 L 1655.00 1345.00 L 1708.00 1345.00 L 1742.00 1255.00 L 1675.00 1255.00 L 1655.00 1275.00 L 1635.00 1274.00 L 1615.00 1254.00 L 1581.00 1254.00 L 1562.00 1344.00 Z" stroke-width="1" id="305-15-07" stroke="black"/>
  <path fill="none" d="M 1735.00 1345.00 L 1755.00 1346.00 L 1835.00 1346.00 L 1855.00 1347.00 L 1935.00 1347.00 L 1955.00 1348.00 L 1982.97 1348.00 L 1957.00 1307.00 L 1984.56 1257.00 L 1895.00 1257.00 L 1875.00 1256.00 L 1775.00 1256.00 L 1755.00 1255.00 L 1742.00 1255.00 L 1708.00 1345.00 Z" stroke-width="1" id="305-15-08" stroke="black"/>
  <path fill="none" d="M 277.82 1331.00 L 281.00 1378.00 L 272.00 1393.00 L 277.22 1417.00 L 295.00 1417.00 L 315.00 1418.00 L 355.00 1418.00 L 375.00 1419.00 L 415.00 1419.00 L 435.00 1420.00 L 475.00 1420.00 L 495.00 1421.00 L 535.00 1421.00 L 555.00 1422.00 L 595.00 1422.00 L 615.00 1423.00 L 655.00 1423.00 L 675.00 1424.00 L 681.00 1424.00 L 705.00 1335.50 L 695.00 1335.00 L 615.00 1335.00 L 595.00 1334.00 L 515.00 1334.00 L 495.00 1333.00 L 415.00 1333.00 L 395.00 1332.00 L 315.00 1332.00 L 295.00 1331.00 Z" stroke-width="1" id="305-16-01" stroke="black"/>
  <path fill="none" d="M 715.00 1424.00 L 735.00 1425.00 L 775.00 1425.00 L 795.00 1426.00 L 835.00 1426.00 L 855.00 1427.00 L 895.00 1427.00 L 915.00 1428.00 L 955.00 1428.00 L 975.00 1429.00 L 1015.00 1429.00 L 1035.00 1430.00 L 1075.00 1430.00 L 1095.00 1431.00 L 1135.00 1431.00 L 1155.00 1432.00 L 1195.00 1432.00 L 1215.00 1433.00 L 1255.00 1433.00 L 1258.00 1433.15 L 1291.00 1341.00 L 1235.00 1341.00 L 1215.00 1340.00 L 1135.00 1340.00 L 1115.00 1339.00 L 1035.00 1339.00 L 1015.00 1338.00 L 935.00 1338.00 L 915.00 1337.00 L 815.00 1337.00 L 795.00 1336.00 L 715.00 1336.00 L 705.00 1335.50 L 681.00 1424.00 Z" stroke-width="1" id="305-16-02" stroke="black"/>
  <path fill="none" d="M 1275.00 1434.00 L 1315.00 1434.00 L 1335.00 1435.00 L 1375.00 1435.00 L 1395.00 1436.00 L 1435.00 1436.00 L 1455.00 1437.00 L 1466.00 1437.00 L 1500.00 1343.00 L 1435.00 1343.00 L 1415.00 1342.00 L 1335.00 1342.00 L 1315.00 1341.00 L 1291.00 1341.00 L 1258.00 1433.15 Z" stroke-width="1" id="305-16-03" stroke="black"/>
  <path fill="none" d="M 1475.00 1437.00 L 1495.00 1457.00 L 1515.00 1458.00 L 1535.00 1438.00 L 1555.00 1438.00 L 1565.00 1438.50 L 1589.00 1344.00 L 1555.00 1344.00 L 1535.00 1343.00 L 1500.00 1343.00 L 1466.00 1437.00 Z" stroke-width="1" id="305-16-04" stroke="black"/>
  <path fill="none" d="M 1575.00 1439.00 L 1595.00 1439.00 L 1615.00 1440.00 L 1655.00 1440.00 L 1675.00 1441.00 L 1709.00 1441.00 L 1745.00 1345.50 L 1735.00 1345.00 L 1655.00 1345.00 L 1635.00 1344.00 L 1589.00 1344.00 L 1565.00 1438.50 Z" stroke-width="1" id="305-16-05" stroke="black"/>
  <path fill="none" d="M 1715.00 1441.00 L 1735.00 1442.00 L 1775.00 1442.00 L 1795.00 1443.00 L 1835.00 1443.00 L 1855.00 1444.00 L 1895.00 1444.00 L 1915.00 1465.00 L 1935.00 1465.00 L 1955.00 1445.00 L 1975.00 1446.00 L 1988.15 1446.00 L 2003.00 1412.00 L 1995.00 1367.00 L 1982.97 1348.00 L 1955.00 1348.00 L 1935.00 1347.00 L 1855.00 1347.00 L 1835.00 1346.00 L 1755.00 1346.00 L 1745.00 1345.50 L 1709.00 1441.00 Z" stroke-width="1" id="305-16-06" stroke="black"/>
  <path fill="none" d="M 277.22 1417.00 L 287.00 1462.00 L 272.00 1482.00 L 283.00 1494.00 L 283.22 1507.00 L 295.00 1507.00 L 315.00 1508.00 L 355.00 1508.00 L 375.00 1509.00 L 415.00 1509.00 L 435.00 1510.00 L 455.00 1510.00 L 475.00 1511.00 L 492.00 1511.00 L 502.00 1421.00 L 495.00 1421.00 L 475.00 1420.00 L 435.00 1420.00 L 415.00 1419.00 L 375.00 1419.00 L 355.00 1418.00 L 315.00 1418.00 L 295.00 1417.00 Z" stroke-width="1" id="305-17-01" stroke="black"/>
  <path fill="none" d="M 515.00 1511.00 L 535.00 1512.00 L 575.00 1512.00 L 595.00 1513.00 L 635.00 1513.00 L 655.00 1534.00 L 675.00 1534.00 L 695.00 1515.00 L 735.00 1515.00 L 755.00 1516.00 L 775.00 1496.00 L 795.00 1496.00 L 807.00 1508.60 L 846.00 1426.55 L 835.00 1426.00 L 795.00 1426.00 L 775.00 1425.00 L 735.00 1425.00 L 715.00 1424.00 L 675.00 1424.00 L 655.00 1423.00 L 615.00 1423.00 L 595.00 1422.00 L 555.00 1422.00 L 535.00 1421.00 L 502.00 1421.00 L 492.00 1511.00 Z" stroke-width="1" id="305-17-02" stroke="black"/>
  <path fill="none" d="M 815.00 1517.00 L 855.00 1517.00 L 875.00 1518.00 L 915.00 1518.00 L 935.00 1519.00 L 955.00 1519.00 L 975.00 1500.00 L 995.00 1540.00 L 1015.00 1540.00 L 1035.00 1521.00 L 1066.00 1521.00 L 1117.00 1431.00 L 1095.00 1431.00 L 1075.00 1430.00 L 1035.00 1430.00 L 1015.00 1429.00 L 975.00 1429.00 L 955.00 1428.00 L 915.00 1428.00 L 895.00 1427.00 L 855.00 1427.00 L 846.00 1426.55 L 807.00 1508.60 Z" stroke-width="1" id="305-17-03" stroke="black"/>
  <path fill="none" d="M 1075.00 1521.00 L 1095.00 1522.00 L 1135.00 1522.00 L 1155.00 1523.00 L 1165.00 1523.00 L 1227.00 1433.00 L 1215.00 1433.00 L 1195.00 1432.00 L 1155.00 1432.00 L 1135.00 1431.00 L 1117.00 1431.00 L 1066.00 1521.00 Z" stroke-width="1" id="305-17-04" stroke="black"/>
  <path fill="none" d="M 1175.00 1523.00 L 1195.00 1524.00 L 1235.00 1524.00 L 1255.00 1525.00 L 1295.00 1525.00 L 1298.00 1525.15 L 1352.00 1435.00 L 1335.00 1435.00 L 1315.00 1434.00 L 1275.00 1434.00 L 1255.00 1433.00 L 1227.00 1433.00 L 1165.00 1523.00 Z" stroke-width="1" id="305-17-05" stroke="black"/>
  <path fill="none" d="M 1315.00 1526.00 L 1355.00 1526.00 L 1375.00 1527.00 L 1415.00 1527.00 L 1435.00 1528.00 L 1455.00 1528.00 L 1475.00 1529.00 L 1515.00 1529.00 L 1535.00 1530.00 L 1575.00 1530.00 L 1595.00 1531.00 L 1635.00 1531.00 L 1655.00 1532.00 L 1675.00 1532.00 L 1695.00 1533.00 L 1708.00 1533.00 L 1740.00 1442.00 L 1735.00 1442.00 L 1715.00 1441.00 L 1675.00 1441.00 L 1655.00 1440.00 L 1615.00 1440.00 L 1595.00 1439.00 L 1575.00 1439.00 L 1555.00 1438.00 L 1535.00 1438.00 L 1515.00 1458.00 L 1495.00 1457.00 L 1475.00 1437.00 L 1455.00 1437.00 L 1435.00 1436.00 L 1395.00 1436.00 L 1375.00 1435.00 L 1352.00 1435.00 L 1298.00 1525.15 Z" stroke-width="1" id="305-17-06" stroke="black"/>
  <path fill="none" d="M 1735.00 1533.00 L 1755.00 1534.00 L 1795.00 1534.00 L 1815.00 1535.00 L 1855.00 1535.00 L 1875.00 1536.00 L 1895.00 1536.00 L 1915.00 1537.00 L 1955.00 1537.00 L 1975.00 1538.00 L 1977.91 1538.00 L 1972.00 1483.00 L 1988.15 1446.00 L 1975.00 1446.00 L 1955.00 1445.00 L 1935.00 1465.00 L 1915.00 1465.00 L 1895.00 1444.00 L 1855.00 1444.00 L 1835.00 1443.00 L 1795.00 1443.00 L 1775.00 1442.00 L 1740.00 1442.00 L 1708.00 1533.00 Z" stroke-width="1" id="305-17-07" stroke="black"/>
  <path fill="none" d="M 283.22 1507.00 L 284.00 1554.00 L 279.00 1572.00 L 280.47 1593.00 L 335.00 1593.00 L 355.00 1594.00 L 395.00 1594.00 L 415.00 1595.00 L 417.00 1595.00 L 432.00 1509.85 L 415.00 1509.00 L 375.00 1509.00 L 355.00 1508.00 L 315.00 1508.00 L 295.00 1507.00 Z" stroke-width="1" id="305-18-01" stroke="black"/>
  <path fill="none" d="M 475.00 1595.00 L 495.00 1596.00 L 535.00 1596.00 L 555.00 1597.00 L 615.00 1597.00 L 635.00 1598.00 L 664.00 1598.00 L 676.00 1533.05 L 675.00 1534.00 L 655.00 1534.00 L 635.00 1513.00 L 595.00 1513.00 L 575.00 1512.00 L 535.00 1512.00 L 515.00 1511.00 L 475.00 1511.00 L 455.00 1510.00 L 435.00 1510.00 L 432.00 1509.85 L 417.00 1595.00 Z" stroke-width="1" id="305-18-02" stroke="black"/>
  <path fill="none" d="M 675.00 1598.00 L 695.00 1599.00 L 755.00 1599.00 L 775.00 1600.00 L 815.00 1600.00 L 835.00 1601.00 L 855.00 1601.00 L 875.00 1621.00 L 895.00 1621.00 L 915.00 1602.00 L 955.00 1602.00 L 968.00 1606.55 L 1004.00 1540.00 L 995.00 1540.00 L 975.00 1500.00 L 955.00 1519.00 L 935.00 1519.00 L 915.00 1518.00 L 875.00 1518.00 L 855.00 1517.00 L 815.00 1517.00 L 795.00 1496.00 L 775.00 1496.00 L 755.00 1516.00 L 735.00 1515.00 L 695.00 1515.00 L 676.00 1533.05 L 664.00 1598.00 Z" stroke-width="1" id="305-18-03" stroke="black"/>
  <path fill="none" d="M 975.00 1609.00 L 995.00 1609.00 L 1015.00 1601.00 L 1035.00 1597.00 L 1055.00 1604.00 L 1095.00 1604.00 L 1115.00 1605.00 L 1175.00 1605.00 L 1195.00 1606.00 L 1235.00 1606.00 L 1254.00 1606.95 L 1301.00 1525.30 L 1295.00 1525.00 L 1255.00 1525.00 L 1235.00 1524.00 L 1195.00 1524.00 L 1175.00 1523.00 L 1155.00 1523.00 L 1135.00 1522.00 L 1095.00 1522.00 L 1075.00 1521.00 L 1035.00 1521.00 L 1015.00 1540.00 L 1004.00 1540.00 L 968.00 1606.55 Z" stroke-width="1" id="305-18-04" stroke="black"/>
  <path fill="none" d="M 1255.00 1607.00 L 1275.00 1607.00 L 1295.00 1587.00 L 1315.00 1607.00 L 1335.00 1608.00 L 1395.00 1608.00 L 1415.00 1609.00 L 1445.00 1609.00 L 1474.00 1528.95 L 1455.00 1528.00 L 1435.00 1528.00 L 1415.00 1527.00 L 1375.00 1527.00 L 1355.00 1526.00 L 1315.00 1526.00 L 1301.00 1525.30 L 1254.00 1606.95 Z" stroke-width="1" id="305-18-05" stroke="black"/>
  <path fill="none" d="M 1455.00 1609.00 L 1475.00 1610.00 L 1535.00 1610.00 L 1555.00 1611.00 L 1595.00 1611.00 L 1606.00 1611.55 L 1635.00 1531.00 L 1595.00 1531.00 L 1575.00 1530.00 L 1535.00 1530.00 L 1515.00 1529.00 L 1475.00 1529.00 L 1474.00 1528.95 L 1445.00 1609.00 Z" stroke-width="1" id="305-18-06" stroke="black"/>
  <path fill="none" d="M 1615.00 1612.00 L 1675.00 1612.00 L 1695.00 1613.00 L 1735.00 1613.00 L 1755.00 1614.00 L 1815.00 1614.00 L 1835.00 1615.00 L 1875.00 1615.00 L 1895.00 1616.00 L 1951.09 1616.00 L 1982.00 1576.00 L 1977.91 1538.00 L 1975.00 1538.00 L 1955.00 1537.00 L 1915.00 1537.00 L 1895.00 1536.00 L 1875.00 1536.00 L 1855.00 1535.00 L 1815.00 1535.00 L 1795.00 1534.00 L 1755.00 1534.00 L 1735.00 1533.00 L 1695.00 1533.00 L 1675.00 1532.00 L 1655.00 1532.00 L 1635.00 1531.00 L 1606.00 1611.55 Z" stroke-width="1" id="305-18-07" stroke="black"/>
  <path fill="none" d="M 280.47 1593.00 L 283.00 1629.00 L 267.00 1650.00 L 278.30 1672.00 L 295.00 1672.00 L 315.00 1673.00 L 355.00 1673.00 L 375.00 1674.00 L 415.00 1674.00 L 435.00 1675.00 L 475.00 1675.00 L 495.00 1676.00 L 496.00 1676.00 L 545.00 1596.50 L 535.00 1596.00 L 495.00 1596.00 L 475.00 1595.00 L 415.00 1595.00 L 395.00 1594.00 L 355.00 1594.00 L 335.00 1593.00 Z" stroke-width="1" id="305-19-01" stroke="black"/>
  <path fill="none" d="M 535.00 1676.00 L 555.00 1677.00 L 595.00 1677.00 L 615.00 1678.00 L 655.00 1678.00 L 675.00 1679.00 L 700.00 1679.00 L 747.00 1599.00 L 695.00 1599.00 L 675.00 1598.00 L 635.00 1598.00 L 615.00 1597.00 L 555.00 1597.00 L 545.00 1596.50 L 496.00 1676.00 Z" stroke-width="1" id="305-19-02" stroke="black"/>
  <path fill="none" d="M 715.00 1679.00 L 735.00 1680.00 L 775.00 1680.00 L 795.00 1681.00 L 835.00 1681.00 L 841.00 1681.30 L 875.00 1621.00 L 855.00 1601.00 L 835.00 1601.00 L 815.00 1600.00 L 775.00 1600.00 L 755.00 1599.00 L 747.00 1599.00 L 700.00 1679.00 Z" stroke-width="1" id="305-19-03" stroke="black"/>
  <path fill="none" d="M 855.00 1682.00 L 895.00 1682.00 L 915.00 1683.00 L 955.00 1683.00 L 975.00 1664.00 L 995.00 1664.00 L 1015.00 1684.00 L 1035.00 1685.00 L 1060.00 1685.00 L 1109.00 1604.70 L 1095.00 1604.00 L 1055.00 1604.00 L 1035.00 1597.00 L 1015.00 1601.00 L 995.00 1609.00 L 975.00 1609.00 L 955.00 1602.00 L 915.00 1602.00 L 895.00 1621.00 L 875.00 1621.00 L 841.00 1681.30 Z" stroke-width="1" id="305-19-04" stroke="black"/>
  <path fill="none" d="M 1075.00 1685.00 L 1095.00 1686.00 L 1135.00 1686.00 L 1155.00 1687.00 L 1160.00 1687.00 L 1215.00 1606.00 L 1195.00 1606.00 L 1175.00 1605.00 L 1115.00 1605.00 L 1109.00 1604.70 L 1060.00 1685.00 Z" stroke-width="1" id="305-19-05" stroke="black"/>
  <path fill="none" d="M 1195.00 1687.00 L 1215.00 1688.00 L 1235.00 1688.00 L 1255.00 1689.00 L 1295.00 1689.00 L 1315.00 1690.00 L 1335.00 1670.00 L 1355.00 1690.00 L 1375.00 1691.00 L 1398.00 1691.00 L 1407.00 1608.60 L 1395.00 1608.00 L 1335.00 1608.00 L 1315.00 1607.00 L 1295.00 1587.00 L 1275.00 1607.00 L 1255.00 1607.00 L 1235.00 1606.00 L 1215.00 1606.00 L 1160.00 1687.00 Z" stroke-width="1" id="305-19-06" stroke="black"/>
  <path fill="none" d="M 1415.00 1691.00 L 1435.00 1692.00 L 1475.00 1692.00 L 1495.00 1693.00 L 1535.00 1693.00 L 1537.00 1693.10 L 1540.00 1610.25 L 1535.00 1610.00 L 1475.00 1610.00 L 1455.00 1609.00 L 1415.00 1609.00 L 1407.00 1608.60 L 1398.00 1691.00 Z" stroke-width="1" id="305-19-07" stroke="black"/>
  <path fill="none" d="M 1555.00 1694.00 L 1595.00 1694.00 L 1615.00 1695.00 L 1655.00 1695.00 L 1656.00 1695.05 L 1690.00 1612.75 L 1675.00 1612.00 L 1615.00 1612.00 L 1595.00 1611.00 L 1555.00 1611.00 L 1540.00 1610.25 L 1537.00 1693.10 Z" stroke-width="1" id="305-19-08" stroke="black"/>
  <path fill="none" d="M 1675.00 1696.00 L 1715.00 1696.00 L 1735.00 1697.00 L 1775.00 1697.00 L 1795.00 1698.00 L 1835.00 1698.00 L 1855.00 1699.00 L 1858.00 1699.00 L 1825.00 1614.50 L 1815.00 1614.00 L 1755.00 1614.00 L 1735.00 1613.00 L 1695.00 1613.00 L 1690.00 1612.75 L 1656.00 1695.05 Z" stroke-width="1" id="305-19-09" stroke="black"/>
  <path fill="none" d="M 1895.00 1699.00 L 1915.00 1700.00 L 1955.00 1700.00 L 1973.21 1700.91 L 1914.00 1664.00 L 1951.09 1616.00 L 1895.00 1616.00 L 1875.00 1615.00 L 1835.00 1615.00 L 1825.00 1614.50 L 1858.00 1699.00 Z" stroke-width="1" id="305-19-10" stroke="black"/>
  <path fill="none" d="M 278.30 1672.00 L 286.00 1687.00 L 284.00 1719.00 L 271.00 1733.00 L 287.00 1748.00 L 286.84 1751.00 L 295.00 1751.00 L 315.00 1752.00 L 355.00 1752.00 L 375.00 1753.00 L 395.00 1753.00 L 415.00 1754.00 L 435.00 1754.00 L 455.00 1794.00 L 475.00 1775.00 L 495.00 1775.00 L 515.00 1755.00 L 535.00 1756.00 L 555.00 1756.00 L 575.00 1757.00 L 615.00 1757.00 L 635.00 1758.00 L 675.00 1758.00 L 695.00 1759.00 L 735.00 1759.00 L 748.00 1759.65 L 750.00 1680.00 L 735.00 1680.00 L 715.00 1679.00 L 675.00 1679.00 L 655.00 1678.00 L 615.00 1678.00 L 595.00 1677.00 L 555.00 1677.00 L 535.00 1676.00 L 495.00 1676.00 L 475.00 1675.00 L 435.00 1675.00 L 415.00 1674.00 L 375.00 1674.00 L 355.00 1673.00 L 315.00 1673.00 L 295.00 1672.00 Z" stroke-width="1" id="305-20-01" stroke="black"/>
  <path fill="none" d="M 915.00 1763.00 L 935.00 1763.00 L 955.00 1764.00 L 975.00 1744.00 L 995.00 1764.00 L 1015.00 1785.00 L 1035.00 1785.00 L 1055.00 1765.00 L 1075.00 1766.00 L 1085.00 1766.00 L 1121.00 1686.00 L 1095.00 1686.00 L 1075.00 1685.00 L 1035.00 1685.00 L 1015.00 1684.00 L 995.00 1664.00 L 975.00 1664.00 L 955.00 1683.00 L 915.00 1683.00 L 913.00 1682.90 L 908.00 1762.65 Z" stroke-width="1" id="305-20-02" stroke="black"/>
  <path fill="none" d="M 1095.00 1766.00 L 1115.00 1767.00 L 1155.00 1767.00 L 1175.00 1768.00 L 1215.00 1768.00 L 1235.00 1769.00 L 1275.00 1769.00 L 1295.00 1770.00 L 1315.00 1770.00 L 1335.00 1771.00 L 1361.00 1771.00 L 1374.00 1690.95 L 1355.00 1690.00 L 1335.00 1670.00 L 1315.00 1690.00 L 1295.00 1689.00 L 1255.00 1689.00 L 1235.00 1688.00 L 1215.00 1688.00 L 1195.00 1687.00 L 1155.00 1687.00 L 1135.00 1686.00 L 1121.00 1686.00 L 1085.00 1766.00 Z" stroke-width="1" id="305-20-03" stroke="black"/>
  <path fill="none" d="M 1375.00 1771.00 L 1395.00 1772.00 L 1415.00 1772.00 L 1435.00 1792.00 L 1455.00 1793.00 L 1475.00 1793.00 L 1495.00 1774.00 L 1505.00 1774.00 L 1550.00 1693.75 L 1535.00 1693.00 L 1495.00 1693.00 L 1475.00 1692.00 L 1435.00 1692.00 L 1415.00 1691.00 L 1375.00 1691.00 L 1374.00 1690.95 L 1361.00 1771.00 Z" stroke-width="1" id="305-20-04" stroke="black"/>
  <path fill="none" d="M 1535.00 1774.00 L 1555.00 1775.00 L 1595.00 1775.00 L 1615.00 1776.00 L 1655.00 1776.00 L 1675.00 1777.00 L 1695.00 1797.00 L 1715.00 1798.00 L 1735.00 1778.00 L 1755.00 1778.00 L 1775.00 1779.00 L 1815.00 1779.00 L 1835.00 1780.00 L 1855.00 1780.00 L 1875.00 1781.00 L 1915.00 1781.00 L 1935.00 1782.00 L 1955.18 1782.00 L 1994.00 1758.00 L 1991.00 1712.00 L 1973.21 1700.91 L 1955.00 1700.00 L 1915.00 1700.00 L 1895.00 1699.00 L 1855.00 1699.00 L 1835.00 1698.00 L 1795.00 1698.00 L 1775.00 1697.00 L 1735.00 1697.00 L 1715.00 1696.00 L 1675.00 1696.00 L 1655.00 1695.00 L 1615.00 1695.00 L 1595.00 1694.00 L 1555.00 1694.00 L 1550.00 1693.75 L 1505.00 1774.00 Z" stroke-width="1" id="305-20-05" stroke="black"/>
  <path fill="none" d="M 286.84 1751.00 L 285.00 1786.00 L 271.00 1808.00 L 292.00 1825.00 L 328.00 1839.06 L 382.00 1753.00 L 375.00 1753.00 L 355.00 1752.00 L 315.00 1752.00 L 295.00 1751.00 Z" stroke-width="1" id="305-21-01" stroke="black"/>
  <path fill="none" d="M 397.00 1866.00 L 439.00 1870.00 L 529.00 1851.66 L 531.00 1755.80 L 515.00 1755.00 L 495.00 1775.00 L 475.00 1775.00 L 455.00 1794.00 L 435.00 1754.00 L 415.00 1754.00 L 395.00 1753.00 L 382.00 1753.00 L 328.00 1839.06 Z" stroke-width="1" id="305-21-02" stroke="black"/>
  <path fill="none" d="M 596.00 1838.00 L 857.00 1843.84 L 872.00 1762.00 L 855.00 1762.00 L 835.00 1761.00 L 795.00 1761.00 L 775.00 1760.00 L 755.00 1760.00 L 735.00 1759.00 L 695.00 1759.00 L 675.00 1758.00 L 635.00 1758.00 L 615.00 1757.00 L 575.00 1757.00 L 555.00 1756.00 L 535.00 1756.00 L 531.00 1755.80 L 529.00 1851.66 Z" stroke-width="1" id="305-21-03" stroke="black"/>
  <path fill="none" d="M 1111.00 1849.52 L 1130.00 1767.00 L 1115.00 1767.00 L 1095.00 1766.00 L 1075.00 1766.00 L 1055.00 1765.00 L 1035.00 1785.00 L 1015.00 1785.00 L 995.00 1764.00 L 975.00 1744.00 L 955.00 1764.00 L 935.00 1763.00 L 915.00 1763.00 L 895.00 1762.00 L 872.00 1762.00 L 857.00 1843.84 Z" stroke-width="1" id="305-21-04" stroke="black"/>
  <path fill="none" d="M 1112.27 1849.55 L 1115.00 1849.00 L 1135.00 1849.00 L 1148.58 1850.36 L 1177.29 1851.00 L 1255.00 1851.00 L 1275.00 1847.00 L 1302.00 1847.00 L 1330.00 1770.75 L 1315.00 1770.00 L 1295.00 1770.00 L 1275.00 1769.00 L 1235.00 1769.00 L 1215.00 1768.00 L 1175.00 1768.00 L 1155.00 1767.00 L 1130.00 1767.00 L 1111.00 1849.52 Z" stroke-width="1" id="305-21-05" stroke="black"/>
  <path fill="none" d="M 1335.00 1847.00 L 1355.00 1843.00 L 1372.67 1855.37 L 1454.66 1857.20 L 1455.00 1857.00 L 1495.00 1857.00 L 1515.00 1853.00 L 1535.00 1853.00 L 1555.00 1845.00 L 1575.00 1849.00 L 1581.00 1849.60 L 1591.00 1775.00 L 1555.00 1775.00 L 1535.00 1774.00 L 1495.00 1774.00 L 1475.00 1793.00 L 1455.00 1793.00 L 1435.00 1792.00 L 1415.00 1772.00 L 1395.00 1772.00 L 1375.00 1771.00 L 1335.00 1771.00 L 1330.00 1770.75 L 1302.00 1847.00 Z" stroke-width="1" id="305-21-06" stroke="black"/>
  <path fill="none" d="M 1595.00 1851.00 L 1715.00 1851.00 L 1735.00 1853.00 L 1753.00 1853.00 L 1771.00 1778.80 L 1755.00 1778.00 L 1735.00 1778.00 L 1715.00 1798.00 L 1695.00 1797.00 L 1675.00 1777.00 L 1655.00 1776.00 L 1615.00 1776.00 L 1595.00 1775.00 L 1591.00 1775.00 L 1581.00 1849.60 Z" stroke-width="1" id="305-21-07" stroke="black"/>
  <path fill="none" d="M 1755.00 1853.00 L 1764.43 1856.77 L 1878.00 1854.00 L 1884.00 1826.00 L 1955.18 1782.00 L 1935.00 1782.00 L 1915.00 1781.00 L 1875.00 1781.00 L 1855.00 1780.00 L 1835.00 1780.00 L 1815.00 1779.00 L 1775.00 1779.00 L 1771.00 1778.80 L 1753.00 1853.00 Z" stroke-width="1" id="305-21-08" stroke="black"/>
  <path fill="none" d="M 1495.00 1961.00 L 1515.00 1963.00 L 1575.00 1963.00 L 1594.73 1964.97 L 1652.00 1931.00 L 1673.00 1859.00 L 1764.43 1856.77 L 1755.00 1853.00 L 1735.00 1853.00 L 1715.00 1851.00 L 1595.00 1851.00 L 1575.00 1849.00 L 1555.00 1845.00 L 1535.00 1853.00 L 1515.00 1853.00 L 1495.00 1857.00 L 1455.00 1857.00 L 1454.66 1857.20 L 1535.00 1859.00 L 1492.00 1898.00 L 1484.00 1931.00 L 1493.00 1961.00 Z" stroke-width="1" id="305-22-01" stroke="black"/>
  <path fill="none" d="M 295.00 1953.00 L 293.00 1994.00 L 290.71 2010.00 L 335.00 2010.00 L 355.00 2011.00 L 396.00 2011.00 L 447.00 1923.31 L 344.00 1922.00 Z" stroke-width="1" id="305-23-01" stroke="black"/>
  <path fill="none" d="M 415.00 2011.00 L 435.00 2012.00 L 495.00 2012.00 L 515.00 2013.00 L 555.00 2013.00 L 558.00 2013.15 L 582.00 1925.04 L 447.00 1923.31 L 396.00 2011.00 Z" stroke-width="1" id="305-23-02" stroke="black"/>
  <path fill="none" d="M 575.00 2014.00 L 635.00 2014.00 L 655.00 2015.00 L 715.00 2015.00 L 735.00 2016.00 L 795.00 2016.00 L 815.00 2017.00 L 875.00 2017.00 L 895.00 2018.00 L 935.00 2018.00 L 955.00 2019.00 L 983.00 2019.00 L 1009.00 1925.64 L 814.00 1928.00 L 582.00 1925.04 L 558.00 2013.15 Z" stroke-width="1" id="305-23-03" stroke="black"/>
  <path fill="none" d="M 1015.00 2019.00 L 1017.00 2019.10 L 1087.38 1925.36 L 1062.00 1925.00 L 1009.00 1925.64 L 983.00 2019.00 Z" stroke-width="1" id="305-23-04" stroke="black"/>
  <path fill="none" d="M 1035.00 2020.00 L 1095.00 2020.00 L 1115.00 2021.00 L 1175.00 2021.00 L 1195.00 2022.00 L 1255.00 2022.00 L 1275.00 2023.00 L 1315.00 2023.00 L 1335.00 2024.00 L 1359.17 2024.00 L 1338.17 1978.37 L 1242.00 1927.80 L 1241.38 1927.55 L 1087.38 1925.36 L 1017.00 2019.10 Z" stroke-width="1" id="305-23-05" stroke="black"/>
  <path fill="none" d="M 290.71 2010.00 L 284.00 2057.00 L 268.00 2085.00 L 296.00 2088.00 L 294.67 2093.98 L 295.00 2094.00 L 375.00 2094.00 L 395.00 2095.00 L 455.00 2095.00 L 456.00 2095.05 L 479.00 2012.00 L 435.00 2012.00 L 415.00 2011.00 L 355.00 2011.00 L 335.00 2010.00 Z" stroke-width="1" id="305-24-01" stroke="black"/>
  <path fill="none" d="M 475.00 2096.00 L 555.00 2096.00 L 575.00 2097.00 L 594.00 2097.00 L 641.00 2014.30 L 635.00 2014.00 L 575.00 2014.00 L 555.00 2013.00 L 515.00 2013.00 L 495.00 2012.00 L 479.00 2012.00 L 456.00 2095.05 Z" stroke-width="1" id="305-24-02" stroke="black"/>
  <path fill="none" d="M 595.00 2097.00 L 615.00 2117.00 L 655.00 2117.00 L 675.00 2098.00 L 735.00 2098.00 L 752.00 2098.85 L 784.00 2016.00 L 735.00 2016.00 L 715.00 2015.00 L 655.00 2015.00 L 641.00 2014.30 L 594.00 2097.00 Z" stroke-width="1" id="305-24-03" stroke="black"/>
  <path fill="none" d="M 755.00 2099.00 L 775.00 2119.00 L 795.00 2099.00 L 835.00 2099.00 L 855.00 2100.00 L 915.00 2100.00 L 935.00 2101.00 L 993.00 2101.00 L 1002.00 2019.00 L 955.00 2019.00 L 935.00 2018.00 L 895.00 2018.00 L 875.00 2017.00 L 815.00 2017.00 L 795.00 2016.00 L 784.00 2016.00 L 752.00 2098.85 Z" stroke-width="1" id="305-24-04" stroke="black"/>
  <path fill="none" d="M 1015.00 2101.00 L 1035.00 2102.00 L 1075.00 2102.00 L 1082.00 2109.00 L 1147.00 2021.00 L 1115.00 2021.00 L 1095.00 2020.00 L 1035.00 2020.00 L 1015.00 2019.00 L 1002.00 2019.00 L 993.00 2101.00 Z" stroke-width="1" id="305-24-05" stroke="black"/>
  <path fill="none" d="M 1095.00 2122.00 L 1115.00 2122.00 L 1135.00 2103.00 L 1155.00 2103.00 L 1175.00 2123.00 L 1195.00 2143.00 L 1215.00 2124.00 L 1235.00 2104.00 L 1255.00 2104.00 L 1259.00 2108.00 L 1298.00 2023.00 L 1275.00 2023.00 L 1255.00 2022.00 L 1195.00 2022.00 L 1175.00 2021.00 L 1147.00 2021.00 L 1082.00 2109.00 Z" stroke-width="1" id="305-24-06" stroke="black"/>
  <path fill="none" d="M 1275.00 2124.00 L 1295.00 2124.00 L 1315.00 2125.00 L 1335.00 2105.00 L 1357.00 2105.00 L 1383.25 2054.00 L 1367.00 2041.00 L 1359.17 2024.00 L 1335.00 2024.00 L 1315.00 2023.00 L 1298.00 2023.00 L 1259.00 2108.00 Z" stroke-width="1" id="305-24-07" stroke="black"/>
  <path fill="none" d="M 294.67 2093.98 L 286.00 2133.00 L 261.00 2148.00 L 303.00 2181.00 L 315.00 2181.00 L 335.00 2182.00 L 398.00 2182.00 L 402.00 2095.00 L 395.00 2095.00 L 375.00 2094.00 L 295.00 2094.00 Z" stroke-width="1" id="305-25-01" stroke="black"/>
  <path fill="none" d="M 435.00 2182.00 L 455.00 2183.00 L 555.00 2183.00 L 575.00 2184.00 L 675.00 2184.00 L 695.00 2185.00 L 814.00 2185.00 L 861.00 2100.00 L 855.00 2100.00 L 835.00 2099.00 L 795.00 2099.00 L 775.00 2119.00 L 755.00 2099.00 L 735.00 2098.00 L 675.00 2098.00 L 655.00 2117.00 L 615.00 2117.00 L 595.00 2097.00 L 575.00 2097.00 L 555.00 2096.00 L 475.00 2096.00 L 455.00 2095.00 L 402.00 2095.00 L 398.00 2182.00 Z" stroke-width="1" id="305-25-02" stroke="black"/>
  <path fill="none" d="M 815.00 2185.00 L 835.00 2186.00 L 935.00 2186.00 L 955.00 2187.00 L 1055.00 2187.00 L 1075.00 2188.00 L 1118.00 2188.00 L 1150.00 2103.00 L 1135.00 2103.00 L 1115.00 2122.00 L 1095.00 2122.00 L 1075.00 2102.00 L 1035.00 2102.00 L 1015.00 2101.00 L 935.00 2101.00 L 915.00 2100.00 L 861.00 2100.00 L 814.00 2185.00 Z" stroke-width="1" id="305-25-03" stroke="black"/>
  <path fill="none" d="M 1175.00 2188.00 L 1195.00 2189.00 L 1266.00 2189.00 L 1281.00 2124.00 L 1275.00 2124.00 L 1255.00 2104.00 L 1235.00 2104.00 L 1215.00 2124.00 L 1195.00 2143.00 L 1175.00 2123.00 L 1155.00 2103.00 L 1150.00 2103.00 L 1118.00 2188.00 Z" stroke-width="1" id="305-25-04" stroke="black"/>
  <path fill="none" d="M 1295.00 2189.00 L 1315.00 2190.00 L 1335.00 2190.00 L 1355.00 2203.00 L 1375.00 2197.00 L 1395.00 2203.00 L 1415.00 2190.00 L 1435.00 2190.00 L 1455.00 2191.00 L 1499.67 2191.00 L 1502.00 2149.00 L 1448.25 2106.00 L 1415.00 2106.00 L 1395.00 2105.00 L 1335.00 2105.00 L 1315.00 2125.00 L 1295.00 2124.00 L 1281.00 2124.00 L 1266.00 2189.00 Z" stroke-width="1" id="305-25-05" stroke="black"/>
  <path fill="none" d="M 344.00 2213.00 L 314.00 2241.00 L 312.84 2270.00 L 335.00 2270.00 L 355.00 2250.00 L 375.00 2270.00 L 395.00 2270.00 L 415.00 2290.00 L 455.00 2290.00 L 475.00 2270.00 L 483.00 2278.00 L 541.00 2183.00 L 455.00 2183.00 L 435.00 2182.00 L 354.00 2182.00 L 342.00 2211.44 Z" stroke-width="1" id="305-26-01" stroke="black"/>
  <path fill="none" d="M 495.00 2290.00 L 515.00 2290.00 L 535.00 2270.00 L 575.00 2270.00 L 595.00 2290.00 L 615.00 2290.00 L 635.00 2270.00 L 775.00 2270.00 L 785.00 2185.00 L 695.00 2185.00 L 675.00 2184.00 L 575.00 2184.00 L 555.00 2183.00 L 541.00 2183.00 L 483.00 2278.00 Z" stroke-width="1" id="305-26-02" stroke="black"/>
  <path fill="none" d="M 815.00 2270.00 L 829.03 2284.03 L 841.48 2283.52 L 855.00 2270.00 L 864.00 2270.00 L 884.00 2186.00 L 835.00 2186.00 L 815.00 2185.00 L 785.00 2185.00 L 775.00 2270.00 Z" stroke-width="1" id="305-26-03" stroke="black"/>
  <path fill="none" d="M 1018.00 2270.00 L 1039.00 2187.00 L 955.00 2187.00 L 935.00 2186.00 L 884.00 2186.00 L 864.00 2270.00 Z" stroke-width="1" id="305-26-04" stroke="black"/>
  <path fill="none" d="M 1035.00 2270.00 L 1055.00 2269.00 L 1141.00 2269.00 L 1182.00 2188.35 L 1175.00 2188.00 L 1075.00 2188.00 L 1055.00 2187.00 L 1039.00 2187.00 L 1018.00 2270.00 Z" stroke-width="1" id="305-26-05" stroke="black"/>
  <path fill="none" d="M 1199.86 2269.00 L 1285.86 2265.52 L 1298.00 2189.15 L 1295.00 2189.00 L 1195.00 2189.00 L 1182.00 2188.35 L 1141.00 2269.00 Z" stroke-width="1" id="305-26-06" stroke="black"/>
  <path fill="none" d="M 1496.00 2257.00 L 1499.67 2191.00 L 1455.00 2191.00 L 1435.00 2190.00 L 1415.00 2190.00 L 1395.00 2203.00 L 1375.00 2197.00 L 1355.00 2203.00 L 1335.00 2190.00 L 1315.00 2190.00 L 1298.00 2189.15 L 1285.86 2265.52 Z" stroke-width="1" id="305-26-07" stroke="black"/>
  <path fill="none" d="M 266.00 2313.00 L 302.00 2338.00 L 374.50 2342.00 L 395.00 2342.00 L 415.00 2343.00 L 455.00 2343.00 L 455.00 2290.00 L 415.00 2290.00 L 395.00 2270.00 L 375.00 2270.00 L 355.00 2250.00 L 335.00 2270.00 L 312.84 2270.00 L 312.00 2291.00 Z" stroke-width="1" id="305-27-01" stroke="black"/>
  <path fill="none" d="M 595.00 2343.00 L 615.00 2344.00 L 785.00 2344.00 L 800.00 2270.00 L 635.00 2270.00 L 615.00 2290.00 L 595.00 2290.00 L 575.00 2270.00 L 535.00 2270.00 L 515.00 2290.00 L 495.00 2290.00 L 475.00 2270.00 L 455.00 2290.00 L 455.00 2343.00 Z" stroke-width="1" id="305-27-02" stroke="black"/>
  <path fill="none" d="M 374.50 2342.00 L 447.00 2346.00 L 407.00 2398.00 L 402.31 2432.00 L 435.00 2432.00 L 455.00 2433.00 L 675.00 2433.00 L 695.00 2434.00 L 915.00 2434.00 L 918.00 2434.15 L 957.00 2345.00 L 826.10 2345.00 L 794.00 2347.00 L 794.53 2344.00 L 615.00 2344.00 L 595.00 2343.00 L 415.00 2343.00 L 395.00 2342.00 Z" stroke-width="1" id="305-28-01" stroke="black"/>
  <path fill="none" d="M 935.00 2435.00 L 1175.00 2435.00 L 1195.00 2436.00 L 1348.00 2436.00 L 1364.00 2323.00 L 1335.00 2323.00 L 1315.00 2327.00 L 1295.00 2335.00 L 1275.00 2339.00 L 1255.00 2347.00 L 1215.00 2347.00 L 1195.00 2346.00 L 1015.00 2346.00 L 995.00 2345.00 L 957.00 2345.00 L 918.00 2434.15 Z" stroke-width="1" id="305-28-02" stroke="black"/>
  <path fill="none" d="M 1412.00 2436.00 L 1479.00 2340.61 L 1485.86 2307.69 L 1485.02 2307.01 L 1443.17 2307.65 L 1435.00 2315.00 L 1415.00 2319.00 L 1395.00 2321.00 L 1375.00 2323.00 L 1364.00 2323.00 L 1348.00 2436.00 Z" stroke-width="1" id="305-28-03" stroke="black"/>
  <path fill="none" d="M 1415.00 2436.00 L 1435.00 2437.00 L 1590.60 2437.00 L 1595.00 2426.00 L 1621.00 2375.00 L 1476.00 2355.00 L 1479.00 2340.61 L 1412.00 2436.00 Z" stroke-width="1" id="305-28-04" stroke="black"/>
  <path fill="none" d="M 207.00 2492.00 L 195.00 2594.00 L 271.00 2583.49 L 310.00 2497.00 L 295.00 2491.00 L 275.00 2483.00 L 269.55 2480.27 Z" stroke-width="1" id="305-30-01" stroke="black"/>
  <path fill="none" d="M 289.00 2581.00 L 401.00 2597.21 L 435.00 2495.00 L 415.00 2493.00 L 335.00 2493.00 L 315.00 2499.00 L 310.00 2497.00 L 271.00 2583.49 Z" stroke-width="1" id="305-30-02" stroke="black"/>
  <path fill="none" d="M 444.17 2603.46 L 455.00 2604.00 L 495.00 2604.00 L 515.00 2605.00 L 575.00 2605.00 L 595.00 2606.00 L 635.00 2606.00 L 655.00 2607.00 L 695.00 2607.00 L 715.00 2608.00 L 735.00 2588.00 L 755.00 2588.00 L 775.00 2609.00 L 815.00 2609.00 L 835.00 2610.00 L 875.00 2610.00 L 894.00 2610.95 L 968.00 2510.30 L 955.00 2509.00 L 935.00 2509.00 L 915.00 2507.00 L 875.00 2507.00 L 855.00 2505.00 L 835.00 2505.00 L 815.00 2503.00 L 795.00 2501.00 L 695.00 2501.00 L 675.00 2497.00 L 615.00 2497.00 L 595.00 2495.00 L 555.00 2495.00 L 535.00 2499.00 L 515.00 2497.00 L 455.00 2497.00 L 435.00 2495.00 L 401.00 2597.21 Z" stroke-width="1" id="305-30-03" stroke="black"/>
  <path fill="none" d="M 895.00 2611.00 L 915.00 2643.00 L 935.00 2637.00 L 955.00 2623.00 L 975.00 2615.00 L 995.00 2612.00 L 1015.00 2612.00 L 1035.00 2613.00 L 1055.00 2593.00 L 1075.00 2613.00 L 1095.00 2634.00 L 1115.00 2634.00 L 1135.00 2614.00 L 1155.00 2615.00 L 1195.00 2615.00 L 1215.00 2616.00 L 1218.00 2616.00 L 1228.00 2521.00 L 1215.00 2521.00 L 1195.00 2519.00 L 1175.00 2517.00 L 1055.00 2517.00 L 1035.00 2515.00 L 1015.00 2513.00 L 995.00 2511.00 L 975.00 2511.00 L 968.00 2510.30 L 894.00 2610.95 Z" stroke-width="1" id="305-30-04" stroke="black"/>
  <path fill="none" d="M 1275.00 2616.00 L 1295.00 2617.00 L 1335.00 2617.00 L 1355.00 2618.00 L 1375.00 2638.00 L 1395.00 2638.00 L 1413.05 2638.90 L 1416.00 2636.00 L 1418.17 2635.83 L 1435.00 2619.00 L 1455.00 2619.00 L 1475.00 2620.00 L 1515.00 2620.00 L 1535.00 2621.00 L 1559.34 2621.00 L 1547.00 2546.00 L 1553.80 2529.00 L 1475.00 2529.00 L 1455.00 2527.00 L 1435.00 2527.00 L 1415.00 2525.00 L 1275.00 2525.00 L 1255.00 2523.00 L 1235.00 2521.00 L 1228.00 2521.00 L 1218.00 2616.00 Z" stroke-width="1" id="305-30-05" stroke="black"/>
  <path fill="none" d="M 501.00 2671.00 L 634.00 2683.38 L 657.00 2607.00 L 655.00 2607.00 L 635.00 2606.00 L 595.00 2606.00 L 575.00 2605.00 L 552.00 2605.00 L 511.00 2635.38 Z" stroke-width="1" id="305-31-01" stroke="black"/>
  <path fill="none" d="M 791.00 2698.00 L 787.37 2703.00 L 835.00 2703.00 L 855.00 2704.00 L 915.00 2704.00 L 935.00 2705.00 L 995.00 2705.00 L 1015.00 2706.00 L 1075.00 2706.00 L 1095.00 2707.00 L 1155.00 2707.00 L 1175.00 2708.00 L 1195.00 2728.00 L 1215.00 2728.00 L 1235.00 2708.00 L 1255.00 2709.00 L 1315.00 2709.00 L 1330.00 2709.75 L 1374.00 2637.00 L 1355.00 2618.00 L 1335.00 2617.00 L 1295.00 2617.00 L 1275.00 2616.00 L 1215.00 2616.00 L 1195.00 2615.00 L 1155.00 2615.00 L 1135.00 2614.00 L 1115.00 2634.00 L 1095.00 2634.00 L 1075.00 2613.00 L 1055.00 2593.00 L 1035.00 2613.00 L 1015.00 2612.00 L 995.00 2612.00 L 975.00 2615.00 L 955.00 2623.00 L 935.00 2637.00 L 915.00 2643.00 L 895.00 2611.00 L 875.00 2610.00 L 835.00 2610.00 L 815.00 2609.00 L 775.00 2609.00 L 755.00 2588.00 L 735.00 2588.00 L 715.00 2608.00 L 695.00 2607.00 L 657.00 2607.00 L 634.00 2683.38 Z" stroke-width="1" id="305-31-02" stroke="black"/>
  <path fill="none" d="M 623.86 2770.44 L 635.00 2771.00 L 675.00 2771.00 L 695.00 2772.00 L 755.00 2772.00 L 775.00 2773.00 L 835.00 2773.00 L 851.00 2773.80 L 882.00 2704.00 L 855.00 2704.00 L 835.00 2703.00 L 787.37 2703.00 L 738.00 2771.00 Z" stroke-width="1" id="305-32-01" stroke="black"/>
  <path fill="none" d="M 855.00 2774.00 L 895.00 2774.00 L 915.00 2775.00 L 926.00 2786.00 L 950.00 2705.00 L 935.00 2705.00 L 915.00 2704.00 L 882.00 2704.00 L 851.00 2773.80 Z" stroke-width="1" id="305-32-02" stroke="black"/>
  <path fill="none" d="M 935.00 2795.00 L 975.00 2795.00 L 995.00 2776.00 L 1035.00 2776.00 L 1055.00 2777.00 L 1115.00 2777.00 L 1135.00 2778.00 L 1175.00 2778.00 L 1195.00 2779.00 L 1215.00 2819.00 L 1235.00 2819.00 L 1255.00 2799.00 L 1275.00 2780.00 L 1292.00 2780.00 L 1305.00 2709.00 L 1255.00 2709.00 L 1235.00 2708.00 L 1215.00 2728.00 L 1195.00 2728.00 L 1175.00 2708.00 L 1155.00 2707.00 L 1095.00 2707.00 L 1075.00 2706.00 L 1015.00 2706.00 L 995.00 2705.00 L 950.00 2705.00 L 926.00 2786.00 Z" stroke-width="1" id="305-32-03" stroke="black"/>
  <path fill="none" d="M 1295.00 2780.00 L 1315.00 2800.00 L 1335.00 2801.00 L 1355.00 2781.00 L 1365.00 2781.00 L 1426.00 2711.00 L 1415.00 2711.00 L 1395.00 2710.00 L 1335.00 2710.00 L 1315.00 2709.00 L 1305.00 2709.00 L 1292.00 2780.00 Z" stroke-width="1" id="305-32-04" stroke="black"/>
  <path fill="none" d="M 1395.00 2781.00 L 1415.00 2782.00 L 1475.00 2782.00 L 1495.00 2783.00 L 1535.00 2783.00 L 1550.00 2783.75 L 1571.00 2712.80 L 1555.00 2712.00 L 1495.00 2712.00 L 1483.98 2700.42 L 1447.14 2698.86 L 1435.00 2711.00 L 1426.00 2711.00 L 1365.00 2781.00 Z" stroke-width="1" id="305-32-05" stroke="black"/>
  <path fill="none" d="M 1555.00 2784.00 L 1615.00 2784.00 L 1625.00 2784.50 L 1648.00 2713.65 L 1635.00 2713.00 L 1575.00 2713.00 L 1571.00 2712.80 L 1550.00 2783.75 Z" stroke-width="1" id="305-32-06" stroke="black"/>
  <path fill="none" d="M 1635.00 2785.00 L 1675.00 2785.00 L 1695.00 2786.00 L 1755.00 2786.00 L 1775.00 2787.00 L 1815.00 2787.00 L 1835.00 2788.00 L 1895.00 2788.00 L 1904.00 2788.45 L 1947.00 2720.05 L 1851.44 2716.00 L 1815.00 2716.00 L 1795.00 2715.00 L 1735.00 2715.00 L 1715.00 2714.00 L 1655.00 2714.00 L 1648.00 2713.65 L 1625.00 2784.50 Z" stroke-width="1" id="305-32-07" stroke="black"/>
  <path fill="none" d="M 1915.00 2789.00 L 1955.00 2789.00 L 1975.00 2790.00 L 1994.00 2790.00 L 1994.00 2760.00 L 1993.00 2722.00 L 1947.00 2720.05 L 1904.00 2788.45 Z" stroke-width="1" id="305-32-08" stroke="black"/>
  <path fill="none" d="M 308.00 2776.00 L 284.00 2812.00 L 300.78 2865.00 L 315.00 2865.00 L 335.00 2866.00 L 375.00 2866.00 L 395.00 2867.00 L 435.00 2867.00 L 450.00 2867.75 L 496.00 2770.99 Z" stroke-width="1" id="305-33-01" stroke="black"/>
  <path fill="none" d="M 455.00 2868.00 L 495.00 2868.00 L 515.00 2869.00 L 575.00 2869.00 L 595.00 2870.00 L 635.00 2870.00 L 655.00 2871.00 L 695.00 2871.00 L 715.00 2872.00 L 755.00 2872.00 L 775.00 2873.00 L 815.00 2873.00 L 835.00 2874.00 L 875.00 2874.00 L 895.00 2875.00 L 948.00 2875.00 L 975.00 2795.00 L 935.00 2795.00 L 915.00 2775.00 L 895.00 2774.00 L 855.00 2774.00 L 835.00 2773.00 L 775.00 2773.00 L 755.00 2772.00 L 695.00 2772.00 L 675.00 2771.00 L 635.00 2771.00 L 623.86 2770.44 L 533.00 2770.00 L 496.00 2770.99 L 450.00 2867.75 Z" stroke-width="1" id="305-33-02" stroke="black"/>
  <path fill="none" d="M 955.00 2875.00 L 975.00 2876.00 L 1015.00 2876.00 L 1035.00 2877.00 L 1075.00 2877.00 L 1089.00 2877.70 L 1099.00 2777.00 L 1055.00 2777.00 L 1035.00 2776.00 L 995.00 2776.00 L 975.00 2795.00 L 948.00 2875.00 Z" stroke-width="1" id="305-33-03" stroke="black"/>
  <path fill="none" d="M 1095.00 2878.00 L 1135.00 2878.00 L 1155.00 2879.00 L 1195.00 2879.00 L 1215.00 2880.00 L 1235.00 2860.00 L 1255.00 2880.00 L 1275.00 2880.00 L 1295.00 2881.00 L 1315.00 2901.00 L 1335.00 2881.00 L 1355.00 2882.00 L 1366.00 2882.00 L 1375.00 2781.00 L 1355.00 2781.00 L 1335.00 2801.00 L 1315.00 2800.00 L 1295.00 2780.00 L 1275.00 2780.00 L 1255.00 2799.00 L 1235.00 2819.00 L 1215.00 2819.00 L 1195.00 2779.00 L 1175.00 2778.00 L 1135.00 2778.00 L 1115.00 2777.00 L 1099.00 2777.00 L 1089.00 2877.70 Z" stroke-width="1" id="305-33-04" stroke="black"/>
  <path fill="none" d="M 1395.00 2882.00 L 1415.00 2883.00 L 1455.00 2883.00 L 1475.00 2884.00 L 1487.00 2884.00 L 1509.00 2783.00 L 1495.00 2783.00 L 1475.00 2782.00 L 1415.00 2782.00 L 1395.00 2781.00 L 1375.00 2781.00 L 1366.00 2882.00 Z" stroke-width="1" id="305-33-05" stroke="black"/>
  <path fill="none" d="M 1515.00 2884.00 L 1535.00 2885.00 L 1575.00 2885.00 L 1595.00 2886.00 L 1655.00 2886.00 L 1675.00 2887.00 L 1715.00 2887.00 L 1735.00 2888.00 L 1775.00 2888.00 L 1795.00 2889.00 L 1835.00 2889.00 L 1855.00 2890.00 L 1871.00 2890.00 L 1883.00 2788.00 L 1835.00 2788.00 L 1815.00 2787.00 L 1775.00 2787.00 L 1755.00 2786.00 L 1695.00 2786.00 L 1675.00 2785.00 L 1635.00 2785.00 L 1615.00 2784.00 L 1555.00 2784.00 L 1535.00 2783.00 L 1509.00 2783.00 L 1487.00 2884.00 Z" stroke-width="1" id="305-33-06" stroke="black"/>
  <path fill="none" d="M 1895.00 2890.00 L 1915.00 2891.00 L 1975.00 2891.00 L 1979.18 2891.21 L 1994.00 2862.00 L 1994.00 2790.00 L 1975.00 2790.00 L 1955.00 2789.00 L 1915.00 2789.00 L 1895.00 2788.00 L 1883.00 2788.00 L 1871.00 2890.00 Z" stroke-width="1" id="305-33-07" stroke="black"/>
  <path fill="none" d="M 300.78 2865.00 L 303.00 2872.00 L 280.00 2910.00 L 303.00 2948.00 L 298.80 2956.00 L 315.00 2956.00 L 335.00 2957.00 L 375.00 2957.00 L 395.00 2958.00 L 435.00 2958.00 L 450.00 2958.75 L 490.00 2868.00 L 455.00 2868.00 L 435.00 2867.00 L 395.00 2867.00 L 375.00 2866.00 L 335.00 2866.00 L 315.00 2865.00 Z" stroke-width="1" id="305-34-01" stroke="black"/>
  <path fill="none" d="M 455.00 2959.00 L 495.00 2959.00 L 515.00 2960.00 L 575.00 2960.00 L 595.00 2961.00 L 635.00 2961.00 L 655.00 2962.00 L 695.00 2962.00 L 715.00 2963.00 L 755.00 2963.00 L 775.00 2964.00 L 815.00 2964.00 L 835.00 2965.00 L 875.00 2965.00 L 895.00 2966.00 L 901.00 2966.00 L 893.00 2874.90 L 875.00 2874.00 L 835.00 2874.00 L 815.00 2873.00 L 775.00 2873.00 L 755.00 2872.00 L 715.00 2872.00 L 695.00 2871.00 L 655.00 2871.00 L 635.00 2870.00 L 595.00 2870.00 L 575.00 2869.00 L 515.00 2869.00 L 495.00 2868.00 L 490.00 2868.00 L 450.00 2958.75 Z" stroke-width="1" id="305-34-02" stroke="black"/>
  <path fill="none" d="M 955.00 2966.00 L 959.00 2966.20 L 1004.00 2876.00 L 975.00 2876.00 L 955.00 2875.00 L 895.00 2875.00 L 893.00 2874.90 L 901.00 2966.00 Z" stroke-width="1" id="305-34-03" stroke="black"/>
  <path fill="none" d="M 975.00 2967.00 L 1015.00 2967.00 L 1035.00 2968.00 L 1075.00 2968.00 L 1095.00 2969.00 L 1135.00 2969.00 L 1155.00 2950.00 L 1195.00 2950.00 L 1215.00 2951.00 L 1235.00 2971.00 L 1255.00 2951.00 L 1275.00 2971.00 L 1295.00 2972.00 L 1335.00 2972.00 L 1347.00 2972.60 L 1347.00 2881.60 L 1335.00 2881.00 L 1315.00 2901.00 L 1295.00 2881.00 L 1275.00 2880.00 L 1255.00 2880.00 L 1235.00 2860.00 L 1215.00 2880.00 L 1195.00 2879.00 L 1155.00 2879.00 L 1135.00 2878.00 L 1095.00 2878.00 L 1075.00 2877.00 L 1035.00 2877.00 L 1015.00 2876.00 L 1004.00 2876.00 L 959.00 2966.20 Z" stroke-width="1" id="305-34-04" stroke="black"/>
  <path fill="none" d="M 1355.00 2973.00 L 1395.00 2973.00 L 1415.00 2974.00 L 1434.00 2955.00 L 1469.00 2883.70 L 1455.00 2883.00 L 1415.00 2883.00 L 1395.00 2882.00 L 1355.00 2882.00 L 1347.00 2881.60 L 1347.00 2972.60 Z" stroke-width="1" id="305-34-05" stroke="black"/>
  <path fill="none" d="M 1435.00 2954.00 L 1455.00 2974.00 L 1475.00 2975.00 L 1515.00 2975.00 L 1535.00 2976.00 L 1575.00 2976.00 L 1595.00 2977.00 L 1646.00 2977.00 L 1679.00 2887.00 L 1675.00 2887.00 L 1655.00 2886.00 L 1595.00 2886.00 L 1575.00 2885.00 L 1535.00 2885.00 L 1515.00 2884.00 L 1475.00 2884.00 L 1469.00 2883.70 L 1434.00 2955.00 Z" stroke-width="1" id="305-34-06" stroke="black"/>
  <path fill="none" d="M 1655.00 2977.00 L 1675.00 2978.00 L 1715.00 2978.00 L 1735.00 2979.00 L 1775.00 2979.00 L 1795.00 2980.00 L 1795.00 2889.00 L 1775.00 2888.00 L 1735.00 2888.00 L 1715.00 2887.00 L 1679.00 2887.00 L 1646.00 2977.00 Z" stroke-width="1" id="305-34-07" stroke="black"/>
  <path fill="none" d="M 1835.00 2980.00 L 1855.00 2981.00 L 1895.00 2981.00 L 1915.00 2982.00 L 1975.00 2982.00 L 1981.17 2982.31 L 1959.00 2931.00 L 1979.18 2891.21 L 1975.00 2891.00 L 1915.00 2891.00 L 1895.00 2890.00 L 1855.00 2890.00 L 1835.00 2889.00 L 1795.00 2889.00 L 1795.00 2980.00 Z" stroke-width="1" id="305-34-08" stroke="black"/>
  <path fill="none" d="M 298.80 2956.00 L 282.00 2988.00 L 302.00 3028.00 L 298.07 3040.00 L 315.00 3040.00 L 335.00 3041.00 L 375.00 3041.00 L 395.00 3042.00 L 435.00 3042.00 L 455.00 3043.00 L 463.00 3043.00 L 494.00 2959.00 L 455.00 2959.00 L 435.00 2958.00 L 395.00 2958.00 L 375.00 2957.00 L 335.00 2957.00 L 315.00 2956.00 Z" stroke-width="1" id="305-35-01" stroke="black"/>
  <path fill="none" d="M 495.00 3043.00 L 515.00 3044.00 L 555.00 3044.00 L 575.00 3045.00 L 615.00 3045.00 L 635.00 3046.00 L 654.00 3046.00 L 674.00 2962.00 L 655.00 2962.00 L 635.00 2961.00 L 595.00 2961.00 L 575.00 2960.00 L 515.00 2960.00 L 495.00 2959.00 L 494.00 2959.00 L 463.00 3043.00 Z" stroke-width="1" id="305-35-02" stroke="black"/>
  <path fill="none" d="M 675.00 3046.00 L 695.00 3047.00 L 735.00 3047.00 L 755.00 3048.00 L 795.00 3048.00 L 815.00 3049.00 L 855.00 3049.00 L 860.00 3049.25 L 867.00 2965.00 L 835.00 2965.00 L 815.00 2964.00 L 775.00 2964.00 L 755.00 2963.00 L 715.00 2963.00 L 695.00 2962.00 L 674.00 2962.00 L 654.00 3046.00 Z" stroke-width="1" id="305-35-03" stroke="black"/>
  <path fill="none" d="M 875.00 3050.00 L 915.00 3050.00 L 935.00 3051.00 L 975.00 3051.00 L 995.00 3052.00 L 1034.00 3052.00 L 1094.00 2968.95 L 1075.00 2968.00 L 1035.00 2968.00 L 1015.00 2967.00 L 975.00 2967.00 L 955.00 2966.00 L 895.00 2966.00 L 875.00 2965.00 L 867.00 2965.00 L 860.00 3049.25 Z" stroke-width="1" id="305-35-04" stroke="black"/>
  <path fill="none" d="M 1035.00 3052.00 L 1055.00 3053.00 L 1095.00 3053.00 L 1115.00 3034.00 L 1118.00 3034.00 L 1208.00 2950.65 L 1195.00 2950.00 L 1155.00 2950.00 L 1135.00 2969.00 L 1095.00 2969.00 L 1094.00 2968.95 L 1034.00 3052.00 Z" stroke-width="1" id="305-35-05" stroke="black"/>
  <path fill="none" d="M 1155.00 3034.00 L 1175.00 3055.00 L 1195.00 3035.00 L 1215.00 3035.00 L 1235.00 3056.00 L 1275.00 3056.00 L 1295.00 3057.00 L 1335.00 3057.00 L 1349.00 3043.70 L 1378.00 2973.00 L 1355.00 2973.00 L 1335.00 2972.00 L 1295.00 2972.00 L 1275.00 2971.00 L 1255.00 2951.00 L 1235.00 2971.00 L 1215.00 2951.00 L 1208.00 2950.65 L 1118.00 3034.00 Z" stroke-width="1" id="305-35-06" stroke="black"/>
  <path fill="none" d="M 1355.00 3038.00 L 1375.00 3058.00 L 1395.00 3038.00 L 1415.00 3039.00 L 1435.00 3039.00 L 1455.00 3059.00 L 1475.00 3060.00 L 1515.00 3060.00 L 1535.00 3061.00 L 1575.00 3061.00 L 1589.00 3061.70 L 1606.00 2977.00 L 1595.00 2977.00 L 1575.00 2976.00 L 1535.00 2976.00 L 1515.00 2975.00 L 1475.00 2975.00 L 1455.00 2974.00 L 1435.00 2954.00 L 1415.00 2974.00 L 1395.00 2973.00 L 1378.00 2973.00 L 1349.00 3043.70 Z" stroke-width="1" id="305-35-07" stroke="black"/>
  <path fill="none" d="M 1595.00 3062.00 L 1635.00 3062.00 L 1655.00 3063.00 L 1695.00 3063.00 L 1715.00 3064.00 L 1749.00 3064.00 L 1759.00 2979.00 L 1735.00 2979.00 L 1715.00 2978.00 L 1675.00 2978.00 L 1655.00 2977.00 L 1606.00 2977.00 L 1589.00 3061.70 Z" stroke-width="1" id="305-35-08" stroke="black"/>
  <path fill="none" d="M 1755.00 3064.00 L 1775.00 3065.00 L 1815.00 3065.00 L 1835.00 3066.00 L 1875.00 3066.00 L 1895.00 3067.00 L 1915.00 3047.00 L 1935.00 3047.00 L 1955.00 3068.00 L 1992.74 3068.00 L 1994.00 3012.00 L 1981.17 2982.31 L 1975.00 2982.00 L 1915.00 2982.00 L 1895.00 2981.00 L 1855.00 2981.00 L 1835.00 2980.00 L 1795.00 2980.00 L 1775.00 2979.00 L 1759.00 2979.00 L 1749.00 3064.00 Z" stroke-width="1" id="305-35-09" stroke="black"/>
  <path fill="none" d="M 298.07 3040.00 L 284.00 3083.00 L 286.00 3125.00 L 295.00 3125.00 L 315.00 3126.00 L 355.00 3126.00 L 375.00 3127.00 L 412.00 3127.00 L 461.00 3043.00 L 455.00 3043.00 L 435.00 3042.00 L 395.00 3042.00 L 375.00 3041.00 L 335.00 3041.00 L 315.00 3040.00 Z" stroke-width="1" id="305-36-01" stroke="black"/>
  <path fill="none" d="M 415.00 3127.00 L 435.00 3128.00 L 475.00 3128.00 L 495.00 3129.00 L 535.00 3129.00 L 555.00 3130.00 L 568.48 3143.48 L 599.71 3145.52 L 615.00 3131.00 L 655.00 3131.00 L 656.00 3131.05 L 669.00 3046.00 L 635.00 3046.00 L 615.00 3045.00 L 575.00 3045.00 L 555.00 3044.00 L 515.00 3044.00 L 495.00 3043.00 L 461.00 3043.00 L 412.00 3127.00 Z" stroke-width="1" id="305-36-02" stroke="black"/>
  <path fill="none" d="M 675.00 3132.00 L 715.00 3132.00 L 735.00 3133.00 L 755.00 3133.00 L 775.00 3134.00 L 786.25 3134.00 L 841.25 3130.32 L 858.00 3049.15 L 855.00 3049.00 L 815.00 3049.00 L 795.00 3048.00 L 755.00 3048.00 L 735.00 3047.00 L 695.00 3047.00 L 675.00 3046.00 L 669.00 3046.00 L 656.00 3131.05 Z" stroke-width="1" id="305-36-03" stroke="black"/>
  <path fill="none" d="M 1046.25 3116.59 L 1072.00 3053.00 L 1055.00 3053.00 L 1035.00 3052.00 L 995.00 3052.00 L 975.00 3051.00 L 935.00 3051.00 L 915.00 3050.00 L 875.00 3050.00 L 858.00 3049.15 L 841.25 3130.32 Z" stroke-width="1" id="305-36-04" stroke="black"/>
  <path fill="none" d="M 1085.00 3114.00 L 1259.00 3127.72 L 1318.00 3057.00 L 1295.00 3057.00 L 1275.00 3056.00 L 1235.00 3056.00 L 1215.00 3035.00 L 1195.00 3035.00 L 1175.00 3055.00 L 1155.00 3034.00 L 1115.00 3034.00 L 1095.00 3053.00 L 1072.00 3053.00 L 1046.25 3116.59 Z" stroke-width="1" id="305-36-05" stroke="black"/>
  <path fill="none" d="M 1308.00 3131.58 L 1375.00 3058.00 L 1355.00 3038.00 L 1335.00 3057.00 L 1318.00 3057.00 L 1259.00 3127.72 Z" stroke-width="1" id="305-36-06" stroke="black"/>
  <path fill="none" d="M 1490.85 3146.00 L 1515.00 3146.00 L 1535.00 3127.00 L 1547.00 3061.00 L 1535.00 3061.00 L 1515.00 3060.00 L 1475.00 3060.00 L 1455.00 3059.00 L 1435.00 3039.00 L 1415.00 3039.00 L 1395.00 3038.00 L 1375.00 3058.00 L 1308.00 3131.58 Z" stroke-width="1" id="305-36-07" stroke="black"/>
  <path fill="none" d="M 1555.00 3147.00 L 1569.96 3152.24 L 1578.60 3152.92 L 1595.00 3148.00 L 1635.00 3148.00 L 1655.00 3149.00 L 1670.42 3152.85 L 1680.96 3152.51 L 1695.00 3149.00 L 1715.00 3150.00 L 1733.64 3150.00 L 1844.64 3133.29 L 1878.00 3066.15 L 1875.00 3066.00 L 1835.00 3066.00 L 1815.00 3065.00 L 1775.00 3065.00 L 1755.00 3064.00 L 1715.00 3064.00 L 1695.00 3063.00 L 1655.00 3063.00 L 1635.00 3062.00 L 1595.00 3062.00 L 1575.00 3061.00 L 1547.00 3061.00 L 1535.00 3127.00 Z" stroke-width="1" id="305-36-08" stroke="black"/>
  <path fill="none" d="M 1986.00 3112.00 L 1992.00 3101.00 L 1992.74 3068.00 L 1955.00 3068.00 L 1935.00 3047.00 L 1915.00 3047.00 L 1895.00 3067.00 L 1878.00 3066.15 L 1844.64 3133.29 Z" stroke-width="1" id="305-36-09" stroke="black"/>
</svg>
