<?xml version="1.0" encoding="UTF-8"?>
<svg xmlns:xlink="http://www.w3.org/1999/xlink" xmlns="http://www.w3.org/2000/svg" contentScriptType="text/ecmascript" width="1993px" zoomAndPan="magnify" contentStyleType="text/css" viewBox="0 0 1993 3253" height="3253px" preserveAspectRatio="xMidYMid meet" version="1.0">
  <path fill="none" d="M 72.00 132.00 L 62.00 196.00 L 120.67 200.00 L 182.00 200.00 L 202.00 201.00 L 217.00 201.00 L 256.00 116.38 L 206.00 125.00 L 148.00 127.00 Z" stroke-width="1" id="306-01-01" stroke="black"/>
  <path fill="none" d="M 322.00 201.00 L 342.00 202.00 L 442.00 202.00 L 462.00 203.00 L 528.00 203.00 L 530.00 142.05 L 509.00 144.00 L 408.45 116.00 L 382.00 116.00 L 367.87 104.70 L 351.00 100.00 L 339.31 102.01 L 322.00 115.00 L 264.00 115.00 L 256.00 116.38 L 217.00 201.00 Z" stroke-width="1" id="306-01-02" stroke="black"/>
  <path fill="none" d="M 582.00 203.00 L 602.00 204.00 L 722.00 204.00 L 742.00 205.00 L 809.00 205.00 L 836.80 120.33 L 714.00 125.00 L 530.00 142.05 L 528.00 203.00 Z" stroke-width="1" id="306-01-03" stroke="black"/>
  <path fill="none" d="M 842.00 205.00 L 862.00 206.00 L 963.00 206.00 L 997.00 120.75 L 982.00 120.00 L 862.00 120.00 L 854.80 119.64 L 836.80 120.33 L 809.00 205.00 Z" stroke-width="1" id="306-01-04" stroke="black"/>
  <path fill="none" d="M 982.00 206.00 L 1002.00 207.00 L 1082.00 207.00 L 1102.00 227.00 L 1122.00 207.00 L 1142.00 208.00 L 1242.00 208.00 L 1262.00 209.00 L 1382.00 209.00 L 1402.00 210.00 L 1502.00 210.00 L 1522.00 211.00 L 1563.00 211.00 L 1575.00 125.00 L 1522.00 125.00 L 1502.00 124.00 L 1455.25 124.00 L 1391.00 125.00 L 1353.27 123.00 L 1322.00 123.00 L 1320.25 121.25 L 1285.59 119.41 L 1282.00 123.00 L 1262.00 123.00 L 1242.00 122.00 L 1142.00 122.00 L 1131.77 111.26 L 1108.00 110.00 L 1092.41 110.59 L 1082.00 121.00 L 1002.00 121.00 L 997.00 120.75 L 963.00 206.00 Z" stroke-width="1" id="306-01-05" stroke="black"/>
  <path fill="none" d="M 1582.00 211.00 L 1602.00 231.00 L 1642.00 231.00 L 1662.00 232.00 L 1682.00 232.00 L 1702.00 212.00 L 1782.00 212.00 L 1802.00 213.00 L 1817.00 213.00 L 1840.00 134.68 L 1803.00 128.00 L 1758.71 126.00 L 1662.00 126.00 L 1642.00 125.00 L 1575.00 125.00 L 1563.00 211.00 Z" stroke-width="1" id="306-01-06" stroke="black"/>
  <path fill="none" d="M 1902.00 213.00 L 1922.00 214.00 L 1942.09 214.00 L 1953.00 198.00 L 1958.00 156.00 L 1840.00 134.68 L 1817.00 213.00 Z" stroke-width="1" id="306-01-07" stroke="black"/>
  <path fill="none" d="M 267.34 300.93 L 230.00 354.00 L 243.66 387.00 L 282.00 387.00 L 302.00 388.00 L 380.00 388.00 L 392.00 286.00 L 382.00 286.00 L 362.00 284.00 L 342.00 284.00 L 322.00 288.00 L 302.00 298.00 L 282.00 298.00 Z" stroke-width="1" id="306-03-01" stroke="black"/>
  <path fill="none" d="M 402.00 388.00 L 422.00 389.00 L 502.00 389.00 L 522.00 390.00 L 583.00 390.00 L 611.00 292.00 L 522.00 292.00 L 502.00 290.00 L 482.00 288.00 L 462.00 286.00 L 392.00 286.00 L 380.00 388.00 Z" stroke-width="1" id="306-03-02" stroke="black"/>
  <path fill="none" d="M 622.00 390.00 L 642.00 391.00 L 662.00 371.00 L 682.00 391.00 L 702.00 391.00 L 724.00 298.00 L 722.00 298.00 L 702.00 296.00 L 682.00 296.00 L 662.00 292.00 L 611.00 292.00 L 583.00 390.00 Z" stroke-width="1" id="306-03-03" stroke="black"/>
  <path fill="none" d="M 742.00 391.00 L 762.00 398.00 L 782.00 382.00 L 802.00 378.00 L 805.00 381.00 L 859.00 299.70 L 842.00 298.00 L 724.00 298.00 L 702.00 391.00 Z" stroke-width="1" id="306-03-04" stroke="black"/>
  <path fill="none" d="M 822.00 398.00 L 842.00 392.00 L 862.00 393.00 L 954.00 393.00 L 985.00 300.00 L 862.00 300.00 L 859.00 299.70 L 805.00 381.00 Z" stroke-width="1" id="306-03-05" stroke="black"/>
  <path fill="none" d="M 962.00 393.00 L 982.00 394.00 L 1082.00 394.00 L 1102.00 395.00 L 1122.00 395.00 L 1142.00 375.00 L 1162.00 375.00 L 1182.00 395.00 L 1202.00 376.00 L 1222.00 396.00 L 1241.00 396.00 L 1288.00 318.00 L 1282.00 318.00 L 1262.00 312.00 L 1242.00 298.00 L 1222.00 296.00 L 1202.00 294.00 L 1182.00 292.00 L 1082.00 292.00 L 1062.00 296.00 L 1042.00 296.00 L 1022.00 300.00 L 985.00 300.00 L 954.00 393.00 Z" stroke-width="1" id="306-03-06" stroke="black"/>
  <path fill="none" d="M 1242.00 396.00 L 1262.00 416.00 L 1282.00 416.00 L 1302.00 396.00 L 1322.00 397.00 L 1422.00 397.00 L 1438.00 397.80 L 1455.00 320.00 L 1322.00 320.00 L 1302.00 318.00 L 1288.00 318.00 L 1241.00 396.00 Z" stroke-width="1" id="306-03-07" stroke="black"/>
  <path fill="none" d="M 1442.00 398.00 L 1502.00 398.00 L 1522.00 378.00 L 1542.00 378.00 L 1562.00 419.00 L 1582.00 419.00 L 1602.00 399.00 L 1621.00 399.00 L 1673.00 326.00 L 1602.00 326.00 L 1582.00 334.00 L 1562.00 328.00 L 1542.00 322.00 L 1522.00 320.00 L 1455.00 320.00 L 1438.00 397.80 Z" stroke-width="1" id="306-03-08" stroke="black"/>
  <path fill="none" d="M 1642.00 399.00 L 1662.00 400.00 L 1762.00 400.00 L 1775.92 400.70 L 1774.00 392.00 L 1884.00 366.00 L 1865.49 328.00 L 1802.00 328.00 L 1782.00 326.00 L 1673.00 326.00 L 1621.00 399.00 Z" stroke-width="1" id="306-03-09" stroke="black"/>
  <path fill="none" d="M 243.66 387.00 L 254.00 412.00 L 240.00 440.00 L 241.55 464.00 L 282.00 464.00 L 302.00 465.00 L 364.00 465.00 L 403.00 388.05 L 402.00 388.00 L 302.00 388.00 L 282.00 387.00 Z" stroke-width="1" id="306-04-01" stroke="black"/>
  <path fill="none" d="M 473.00 465.00 L 485.00 389.00 L 422.00 389.00 L 403.00 388.05 L 364.00 465.00 Z" stroke-width="1" id="306-04-02" stroke="black"/>
  <path fill="none" d="M 502.00 465.00 L 522.00 486.00 L 562.00 486.00 L 582.00 466.00 L 671.00 466.00 L 738.00 391.00 L 682.00 391.00 L 662.00 371.00 L 642.00 391.00 L 622.00 390.00 L 522.00 390.00 L 502.00 389.00 L 485.00 389.00 L 473.00 465.00 Z" stroke-width="1" id="306-04-03" stroke="black"/>
  <path fill="none" d="M 722.00 466.00 L 742.00 467.00 L 942.00 467.00 L 962.00 468.00 L 1055.00 468.00 L 1083.00 394.05 L 1082.00 394.00 L 982.00 394.00 L 962.00 393.00 L 862.00 393.00 L 842.00 392.00 L 822.00 398.00 L 802.00 378.00 L 782.00 382.00 L 762.00 398.00 L 742.00 391.00 L 738.00 391.00 L 671.00 466.00 Z" stroke-width="1" id="306-04-04" stroke="black"/>
  <path fill="none" d="M 1162.00 468.00 L 1182.00 469.00 L 1318.00 469.00 L 1338.00 397.00 L 1322.00 397.00 L 1302.00 396.00 L 1282.00 416.00 L 1262.00 416.00 L 1242.00 396.00 L 1222.00 396.00 L 1202.00 376.00 L 1182.00 395.00 L 1162.00 375.00 L 1142.00 375.00 L 1122.00 395.00 L 1102.00 395.00 L 1083.00 394.05 L 1055.00 468.00 Z" stroke-width="1" id="306-04-05" stroke="black"/>
  <path fill="none" d="M 1382.00 469.00 L 1402.00 470.00 L 1442.00 470.00 L 1455.00 398.00 L 1442.00 398.00 L 1422.00 397.00 L 1338.00 397.00 L 1318.00 469.00 Z" stroke-width="1" id="306-04-06" stroke="black"/>
  <path fill="none" d="M 1600.00 470.00 L 1635.00 399.00 L 1602.00 399.00 L 1582.00 419.00 L 1562.00 419.00 L 1542.00 378.00 L 1522.00 378.00 L 1502.00 398.00 L 1455.00 398.00 L 1442.00 470.00 Z" stroke-width="1" id="306-04-07" stroke="black"/>
  <path fill="none" d="M 1602.00 470.00 L 1622.00 471.00 L 1801.61 471.00 L 1789.00 460.00 L 1775.92 400.70 L 1762.00 400.00 L 1662.00 400.00 L 1642.00 399.00 L 1635.00 399.00 L 1600.00 470.00 Z" stroke-width="1" id="306-04-08" stroke="black"/>
  <path fill="none" d="M 241.55 464.00 L 242.00 471.00 L 241.00 522.00 L 241.91 548.00 L 282.00 548.00 L 302.00 549.00 L 396.00 549.00 L 415.00 465.00 L 302.00 465.00 L 282.00 464.00 Z" stroke-width="1" id="306-05-01" stroke="black"/>
  <path fill="none" d="M 502.00 549.00 L 522.00 550.00 L 549.00 550.00 L 559.00 486.00 L 522.00 486.00 L 502.00 465.00 L 415.00 465.00 L 396.00 549.00 Z" stroke-width="1" id="306-05-02" stroke="black"/>
  <path fill="none" d="M 722.00 550.00 L 736.00 550.70 L 758.00 467.00 L 742.00 467.00 L 722.00 466.00 L 582.00 466.00 L 562.00 486.00 L 559.00 486.00 L 549.00 550.00 Z" stroke-width="1" id="306-05-03" stroke="black"/>
  <path fill="none" d="M 742.00 551.00 L 802.00 551.00 L 822.00 571.00 L 862.00 571.00 L 882.00 551.00 L 908.00 551.00 L 920.00 467.00 L 758.00 467.00 L 736.00 550.70 Z" stroke-width="1" id="306-05-04" stroke="black"/>
  <path fill="none" d="M 942.00 551.00 L 962.00 552.00 L 1035.00 552.00 L 1104.00 468.00 L 962.00 468.00 L 942.00 467.00 L 920.00 467.00 L 908.00 551.00 Z" stroke-width="1" id="306-05-05" stroke="black"/>
  <path fill="none" d="M 1042.00 552.00 L 1062.00 572.00 L 1082.00 552.00 L 1162.00 552.00 L 1182.00 553.00 L 1382.00 553.00 L 1402.00 554.00 L 1463.00 554.00 L 1471.00 470.00 L 1402.00 470.00 L 1382.00 469.00 L 1182.00 469.00 L 1162.00 468.00 L 1104.00 468.00 L 1035.00 552.00 Z" stroke-width="1" id="306-05-06" stroke="black"/>
  <path fill="none" d="M 1530.00 554.00 L 1552.00 470.00 L 1471.00 470.00 L 1463.00 554.00 Z" stroke-width="1" id="306-05-07" stroke="black"/>
  <path fill="none" d="M 1602.00 554.00 L 1622.00 555.00 L 1682.00 555.00 L 1702.00 575.00 L 1722.00 555.00 L 1820.52 555.00 L 1875.00 535.00 L 1801.61 471.00 L 1622.00 471.00 L 1602.00 470.00 L 1552.00 470.00 L 1530.00 554.00 Z" stroke-width="1" id="306-05-08" stroke="black"/>
  <path fill="none" d="M 241.91 548.00 L 243.00 579.00 L 236.00 604.00 L 240.24 637.00 L 282.00 637.00 L 302.00 638.00 L 322.00 618.00 L 342.00 638.00 L 349.00 638.00 L 357.00 549.00 L 302.00 549.00 L 282.00 548.00 Z" stroke-width="1" id="306-06-01" stroke="black"/>
  <path fill="none" d="M 448.00 638.00 L 455.00 549.00 L 357.00 549.00 L 349.00 638.00 Z" stroke-width="1" id="306-06-02" stroke="black"/>
  <path fill="none" d="M 502.00 638.00 L 522.00 659.00 L 542.00 639.00 L 722.00 639.00 L 742.00 640.00 L 822.00 640.00 L 842.00 660.00 L 862.00 660.00 L 882.00 640.00 L 902.00 620.00 L 922.00 640.00 L 931.00 640.00 L 950.00 551.40 L 942.00 551.00 L 882.00 551.00 L 862.00 571.00 L 822.00 571.00 L 802.00 551.00 L 742.00 551.00 L 722.00 550.00 L 522.00 550.00 L 502.00 549.00 L 455.00 549.00 L 448.00 638.00 Z" stroke-width="1" id="306-06-03" stroke="black"/>
  <path fill="none" d="M 942.00 640.00 L 962.00 641.00 L 982.00 641.00 L 1002.00 621.00 L 1021.00 640.00 L 1062.00 572.00 L 1042.00 552.00 L 962.00 552.00 L 950.00 551.40 L 931.00 640.00 Z" stroke-width="1" id="306-06-04" stroke="black"/>
  <path fill="none" d="M 1022.00 641.00 L 1042.00 661.00 L 1062.00 641.00 L 1082.00 641.00 L 1102.00 661.00 L 1122.00 641.00 L 1162.00 641.00 L 1182.00 642.00 L 1337.00 642.00 L 1370.00 553.00 L 1182.00 553.00 L 1162.00 552.00 L 1082.00 552.00 L 1062.00 572.00 L 1021.00 640.00 Z" stroke-width="1" id="306-06-05" stroke="black"/>
  <path fill="none" d="M 1382.00 642.00 L 1402.00 643.00 L 1446.00 643.00 L 1476.00 554.00 L 1402.00 554.00 L 1382.00 553.00 L 1370.00 553.00 L 1337.00 642.00 Z" stroke-width="1" id="306-06-06" stroke="black"/>
  <path fill="none" d="M 1602.00 643.00 L 1622.00 644.00 L 1655.00 644.00 L 1610.00 554.40 L 1602.00 554.00 L 1476.00 554.00 L 1446.00 643.00 Z" stroke-width="1" id="306-06-07" stroke="black"/>
  <path fill="none" d="M 1689.00 644.00 L 1738.52 555.00 L 1722.00 555.00 L 1702.00 575.00 L 1682.00 555.00 L 1622.00 555.00 L 1610.00 554.40 L 1655.00 644.00 Z" stroke-width="1" id="306-06-08" stroke="black"/>
  <path fill="none" d="M 1808.41 644.00 L 1796.00 564.00 L 1820.52 555.00 L 1738.52 555.00 L 1689.00 644.00 Z" stroke-width="1" id="306-06-09" stroke="black"/>
  <path fill="none" d="M 240.24 637.00 L 245.00 674.00 L 229.00 690.00 L 245.00 707.00 L 244.01 715.00 L 302.00 715.00 L 322.00 714.00 L 334.00 742.80 L 424.00 638.00 L 342.00 638.00 L 322.00 618.00 L 302.00 638.00 L 282.00 637.00 Z" stroke-width="1" id="306-07-01" stroke="black"/>
  <path fill="none" d="M 342.00 762.00 L 362.00 758.00 L 382.00 752.00 L 402.00 736.00 L 422.00 716.00 L 542.00 716.00 L 562.00 717.00 L 570.00 717.00 L 580.00 639.00 L 542.00 639.00 L 522.00 659.00 L 502.00 638.00 L 424.00 638.00 L 334.00 742.80 Z" stroke-width="1" id="306-07-02" stroke="black"/>
  <path fill="none" d="M 702.00 717.00 L 722.00 718.00 L 788.00 718.00 L 833.00 651.00 L 822.00 640.00 L 742.00 640.00 L 722.00 639.00 L 580.00 639.00 L 570.00 717.00 Z" stroke-width="1" id="306-07-03" stroke="black"/>
  <path fill="none" d="M 862.00 718.00 L 882.00 719.00 L 972.00 719.00 L 1024.00 643.00 L 1022.00 641.00 L 1002.00 621.00 L 982.00 641.00 L 962.00 641.00 L 942.00 640.00 L 922.00 640.00 L 902.00 620.00 L 882.00 640.00 L 862.00 660.00 L 842.00 660.00 L 833.00 651.00 L 788.00 718.00 Z" stroke-width="1" id="306-07-04" stroke="black"/>
  <path fill="none" d="M 1022.00 719.00 L 1042.00 720.00 L 1180.00 720.00 L 1210.00 642.00 L 1182.00 642.00 L 1162.00 641.00 L 1122.00 641.00 L 1102.00 661.00 L 1082.00 641.00 L 1062.00 641.00 L 1042.00 661.00 L 1024.00 643.00 L 972.00 719.00 Z" stroke-width="1" id="306-07-05" stroke="black"/>
  <path fill="none" d="M 1182.00 720.00 L 1202.00 721.00 L 1342.00 721.00 L 1362.00 742.00 L 1382.00 742.00 L 1402.00 722.00 L 1457.00 722.00 L 1494.00 643.00 L 1402.00 643.00 L 1382.00 642.00 L 1210.00 642.00 L 1180.00 720.00 Z" stroke-width="1" id="306-07-06" stroke="black"/>
  <path fill="none" d="M 1502.00 722.00 L 1522.00 723.00 L 1542.00 723.00 L 1562.00 703.00 L 1582.00 734.00 L 1602.00 734.00 L 1622.00 736.00 L 1642.00 743.00 L 1662.00 723.00 L 1682.00 724.00 L 1759.89 724.00 L 1807.00 708.00 L 1814.00 680.00 L 1808.41 644.00 L 1622.00 644.00 L 1602.00 643.00 L 1494.00 643.00 L 1457.00 722.00 Z" stroke-width="1" id="306-07-07" stroke="black"/>
  <path fill="none" d="M 244.01 715.00 L 236.00 780.00 L 235.69 797.00 L 242.00 797.00 L 262.00 798.00 L 322.00 798.00 L 342.00 799.00 L 414.00 799.00 L 451.00 716.00 L 422.00 716.00 L 402.00 736.00 L 382.00 752.00 L 362.00 758.00 L 342.00 762.00 L 322.00 714.00 L 302.00 715.00 Z" stroke-width="1" id="306-08-01" stroke="black"/>
  <path fill="none" d="M 422.00 799.00 L 442.00 800.00 L 502.00 800.00 L 522.00 801.00 L 602.00 801.00 L 622.00 802.00 L 653.00 802.00 L 666.00 717.00 L 562.00 717.00 L 542.00 716.00 L 451.00 716.00 L 414.00 799.00 Z" stroke-width="1" id="306-08-02" stroke="black"/>
  <path fill="none" d="M 682.00 802.00 L 702.00 803.00 L 782.00 803.00 L 802.00 804.00 L 862.00 804.00 L 882.00 805.00 L 911.00 805.00 L 959.00 719.00 L 882.00 719.00 L 862.00 718.00 L 722.00 718.00 L 702.00 717.00 L 666.00 717.00 L 653.00 802.00 Z" stroke-width="1" id="306-08-03" stroke="black"/>
  <path fill="none" d="M 962.00 805.00 L 982.00 806.00 L 1042.00 806.00 L 1062.00 807.00 L 1095.00 807.00 L 1110.00 720.00 L 1042.00 720.00 L 1022.00 719.00 L 959.00 719.00 L 911.00 805.00 Z" stroke-width="1" id="306-08-04" stroke="black"/>
  <path fill="none" d="M 1142.00 807.00 L 1162.00 808.00 L 1222.00 808.00 L 1242.00 809.00 L 1259.00 809.00 L 1297.00 721.00 L 1202.00 721.00 L 1182.00 720.00 L 1110.00 720.00 L 1095.00 807.00 Z" stroke-width="1" id="306-08-05" stroke="black"/>
  <path fill="none" d="M 1322.00 809.00 L 1342.00 810.00 L 1402.00 810.00 L 1422.00 811.00 L 1498.00 811.00 L 1579.00 729.35 L 1562.00 703.00 L 1542.00 723.00 L 1522.00 723.00 L 1502.00 722.00 L 1402.00 722.00 L 1382.00 742.00 L 1362.00 742.00 L 1342.00 721.00 L 1297.00 721.00 L 1259.00 809.00 Z" stroke-width="1" id="306-08-06" stroke="black"/>
  <path fill="none" d="M 1502.00 811.00 L 1522.00 832.00 L 1542.00 812.00 L 1582.00 812.00 L 1602.00 813.00 L 1682.00 813.00 L 1702.00 814.00 L 1715.00 814.00 L 1745.89 724.00 L 1682.00 724.00 L 1662.00 723.00 L 1642.00 743.00 L 1622.00 736.00 L 1602.00 734.00 L 1582.00 734.00 L 1579.00 729.35 L 1498.00 811.00 Z" stroke-width="1" id="306-08-07" stroke="black"/>
  <path fill="none" d="M 235.69 797.00 L 235.00 834.00 L 222.00 854.00 L 241.00 871.00 L 239.81 879.00 L 282.00 879.00 L 302.00 880.00 L 342.00 880.00 L 362.00 881.00 L 422.00 881.00 L 442.00 882.00 L 502.00 882.00 L 522.00 883.00 L 562.00 883.00 L 582.00 884.00 L 642.00 884.00 L 662.00 905.00 L 702.00 905.00 L 722.00 885.00 L 742.00 886.00 L 782.00 886.00 L 796.00 886.70 L 822.00 804.00 L 802.00 804.00 L 782.00 803.00 L 702.00 803.00 L 682.00 802.00 L 622.00 802.00 L 602.00 801.00 L 522.00 801.00 L 502.00 800.00 L 442.00 800.00 L 422.00 799.00 L 342.00 799.00 L 322.00 798.00 L 262.00 798.00 L 242.00 797.00 Z" stroke-width="1" id="306-09-01" stroke="black"/>
  <path fill="none" d="M 802.00 887.00 L 862.00 887.00 L 882.00 888.00 L 924.00 888.00 L 961.00 805.00 L 882.00 805.00 L 862.00 804.00 L 822.00 804.00 L 796.00 886.70 Z" stroke-width="1" id="306-09-02" stroke="black"/>
  <path fill="none" d="M 942.00 888.00 L 962.00 889.00 L 1002.00 889.00 L 1022.00 890.00 L 1082.00 890.00 L 1098.00 890.80 L 1108.00 807.00 L 1062.00 807.00 L 1042.00 806.00 L 982.00 806.00 L 962.00 805.00 L 961.00 805.00 L 924.00 888.00 Z" stroke-width="1" id="306-09-03" stroke="black"/>
  <path fill="none" d="M 1102.00 891.00 L 1122.00 891.00 L 1130.00 899.00 L 1237.00 808.75 L 1222.00 808.00 L 1162.00 808.00 L 1142.00 807.00 L 1108.00 807.00 L 1098.00 890.80 Z" stroke-width="1" id="306-09-04" stroke="black"/>
  <path fill="none" d="M 1142.00 911.00 L 1162.00 911.00 L 1182.00 912.00 L 1202.00 892.00 L 1222.00 892.00 L 1242.00 893.00 L 1254.00 893.00 L 1301.00 809.00 L 1242.00 809.00 L 1237.00 808.75 L 1130.00 899.00 Z" stroke-width="1" id="306-09-05" stroke="black"/>
  <path fill="none" d="M 1302.00 893.00 L 1322.00 914.00 L 1342.00 894.00 L 1382.00 894.00 L 1402.00 895.00 L 1430.00 895.00 L 1445.00 811.00 L 1422.00 811.00 L 1402.00 810.00 L 1342.00 810.00 L 1322.00 809.00 L 1301.00 809.00 L 1254.00 893.00 Z" stroke-width="1" id="306-09-06" stroke="black"/>
  <path fill="none" d="M 1442.00 895.00 L 1462.00 896.00 L 1522.00 896.00 L 1542.00 897.00 L 1602.00 897.00 L 1605.00 813.00 L 1602.00 813.00 L 1582.00 812.00 L 1542.00 812.00 L 1522.00 832.00 L 1502.00 811.00 L 1445.00 811.00 L 1430.00 895.00 Z" stroke-width="1" id="306-09-07" stroke="black"/>
  <path fill="none" d="M 1622.00 898.00 L 1673.00 898.00 L 1672.00 813.00 L 1605.00 813.00 L 1602.00 897.00 Z" stroke-width="1" id="306-09-08" stroke="black"/>
  <path fill="none" d="M 1682.00 898.00 L 1702.00 899.00 L 1742.00 899.00 L 1762.00 900.00 L 1822.00 900.00 L 1842.00 901.00 L 1846.75 901.00 L 1879.00 871.00 L 1819.00 819.00 L 1802.24 815.00 L 1782.00 815.00 L 1762.00 814.00 L 1702.00 814.00 L 1682.00 813.00 L 1672.00 813.00 L 1673.00 898.00 Z" stroke-width="1" id="306-09-09" stroke="black"/>
  <path fill="none" d="M 239.81 879.00 L 231.00 938.00 L 229.07 969.35 L 242.00 970.00 L 262.00 970.00 L 282.00 990.00 L 302.00 990.00 L 322.00 991.00 L 342.00 971.00 L 382.00 971.00 L 384.00 971.10 L 396.00 881.00 L 362.00 881.00 L 342.00 880.00 L 302.00 880.00 L 282.00 879.00 Z" stroke-width="1" id="306-10-01" stroke="black"/>
  <path fill="none" d="M 402.00 972.00 L 462.00 972.00 L 482.00 973.00 L 562.00 973.00 L 582.00 974.00 L 615.00 974.00 L 661.00 903.95 L 642.00 884.00 L 582.00 884.00 L 562.00 883.00 L 522.00 883.00 L 502.00 882.00 L 442.00 882.00 L 422.00 881.00 L 396.00 881.00 L 384.00 971.10 Z" stroke-width="1" id="306-10-02" stroke="black"/>
  <path fill="none" d="M 642.00 974.00 L 662.00 975.00 L 722.00 975.00 L 742.00 976.00 L 802.00 976.00 L 822.00 977.00 L 859.00 977.00 L 887.00 888.00 L 882.00 888.00 L 862.00 887.00 L 802.00 887.00 L 782.00 886.00 L 742.00 886.00 L 722.00 885.00 L 702.00 905.00 L 662.00 905.00 L 661.00 903.95 L 615.00 974.00 Z" stroke-width="1" id="306-10-03" stroke="black"/>
  <path fill="none" d="M 882.00 977.00 L 902.00 978.00 L 982.00 978.00 L 1002.00 979.00 L 1026.00 979.00 L 1059.00 890.00 L 1022.00 890.00 L 1002.00 889.00 L 962.00 889.00 L 942.00 888.00 L 887.00 888.00 L 859.00 977.00 Z" stroke-width="1" id="306-10-04" stroke="black"/>
  <path fill="none" d="M 1062.00 979.00 L 1082.00 980.00 L 1142.00 980.00 L 1162.00 981.00 L 1222.00 981.00 L 1242.00 982.00 L 1268.00 982.00 L 1313.00 904.55 L 1302.00 893.00 L 1242.00 893.00 L 1222.00 892.00 L 1202.00 892.00 L 1182.00 912.00 L 1162.00 911.00 L 1142.00 911.00 L 1122.00 891.00 L 1102.00 891.00 L 1082.00 890.00 L 1059.00 890.00 L 1026.00 979.00 Z" stroke-width="1" id="306-10-05" stroke="black"/>
  <path fill="none" d="M 1302.00 982.00 L 1322.00 983.00 L 1402.00 983.00 L 1422.00 984.00 L 1482.00 984.00 L 1499.00 984.85 L 1556.00 897.00 L 1542.00 897.00 L 1522.00 896.00 L 1462.00 896.00 L 1442.00 895.00 L 1402.00 895.00 L 1382.00 894.00 L 1342.00 894.00 L 1322.00 914.00 L 1313.00 904.55 L 1268.00 982.00 Z" stroke-width="1" id="306-10-06" stroke="black"/>
  <path fill="none" d="M 1502.00 985.00 L 1562.00 985.00 L 1582.00 986.00 L 1641.00 986.00 L 1646.00 898.00 L 1622.00 898.00 L 1602.00 897.00 L 1556.00 897.00 L 1499.00 984.85 Z" stroke-width="1" id="306-10-07" stroke="black"/>
  <path fill="none" d="M 1642.00 986.00 L 1662.00 987.00 L 1722.00 987.00 L 1742.00 988.00 L 1773.00 988.00 L 1771.00 900.00 L 1762.00 900.00 L 1742.00 899.00 L 1702.00 899.00 L 1682.00 898.00 L 1646.00 898.00 L 1641.00 986.00 Z" stroke-width="1" id="306-10-08" stroke="black"/>
  <path fill="none" d="M 1822.00 988.00 L 1837.44 988.77 L 1836.00 911.00 L 1846.75 901.00 L 1842.00 901.00 L 1822.00 900.00 L 1771.00 900.00 L 1773.00 988.00 Z" stroke-width="1" id="306-10-09" stroke="black"/>
  <path fill="none" d="M 229.07 969.35 L 227.00 1003.00 L 220.00 1014.00 L 231.00 1040.00 L 231.00 1053.00 L 242.00 1053.00 L 262.00 1054.00 L 282.00 1054.00 L 305.00 990.15 L 302.00 990.00 L 282.00 990.00 L 262.00 970.00 L 242.00 970.00 Z" stroke-width="1" id="306-11-01" stroke="black"/>
  <path fill="none" d="M 342.00 1054.00 L 362.00 1055.00 L 422.00 1055.00 L 442.00 1056.00 L 522.00 1056.00 L 542.00 1057.00 L 555.00 1057.00 L 576.00 973.70 L 562.00 973.00 L 482.00 973.00 L 462.00 972.00 L 402.00 972.00 L 382.00 971.00 L 342.00 971.00 L 322.00 991.00 L 305.00 990.15 L 282.00 1054.00 Z" stroke-width="1" id="306-11-02" stroke="black"/>
  <path fill="none" d="M 622.00 1057.00 L 642.00 1058.00 L 690.00 1058.00 L 744.00 976.00 L 742.00 976.00 L 722.00 975.00 L 662.00 975.00 L 642.00 974.00 L 582.00 974.00 L 576.00 973.70 L 555.00 1057.00 Z" stroke-width="1" id="306-11-03" stroke="black"/>
  <path fill="none" d="M 702.00 1058.00 L 722.00 1078.00 L 742.00 1059.00 L 802.00 1059.00 L 822.00 1060.00 L 872.00 1060.00 L 902.00 978.00 L 882.00 977.00 L 822.00 977.00 L 802.00 976.00 L 744.00 976.00 L 690.00 1058.00 Z" stroke-width="1" id="306-11-04" stroke="black"/>
  <path fill="none" d="M 902.00 1060.00 L 922.00 1061.00 L 1002.00 1061.00 L 1022.00 1062.00 L 1042.00 1080.00 L 1062.00 1082.00 L 1122.00 1082.00 L 1142.00 1063.00 L 1182.00 1063.00 L 1202.00 1064.00 L 1282.00 1064.00 L 1302.00 1065.00 L 1333.00 1065.00 L 1362.00 983.00 L 1322.00 983.00 L 1302.00 982.00 L 1242.00 982.00 L 1222.00 981.00 L 1162.00 981.00 L 1142.00 980.00 L 1082.00 980.00 L 1062.00 979.00 L 1002.00 979.00 L 982.00 978.00 L 902.00 978.00 L 872.00 1060.00 Z" stroke-width="1" id="306-11-05" stroke="black"/>
  <path fill="none" d="M 1382.00 1085.00 L 1402.00 1106.00 L 1422.00 1092.00 L 1442.00 1082.00 L 1462.00 1074.00 L 1482.00 1072.00 L 1502.00 1067.00 L 1562.00 1067.00 L 1582.00 1068.00 L 1598.00 1068.00 L 1621.00 986.00 L 1582.00 986.00 L 1562.00 985.00 L 1502.00 985.00 L 1482.00 984.00 L 1437.00 984.00 L 1377.00 1080.00 Z" stroke-width="1" id="306-11-06" stroke="black"/>
  <path fill="none" d="M 1662.00 1068.00 L 1682.00 1069.00 L 1736.00 1069.00 L 1747.00 988.00 L 1742.00 988.00 L 1722.00 987.00 L 1662.00 987.00 L 1642.00 986.00 L 1621.00 986.00 L 1598.00 1068.00 Z" stroke-width="1" id="306-11-07" stroke="black"/>
  <path fill="none" d="M 1762.00 1069.00 L 1782.00 1070.00 L 1816.95 1070.00 L 1838.00 1019.00 L 1837.44 988.77 L 1822.00 988.00 L 1747.00 988.00 L 1736.00 1069.00 Z" stroke-width="1" id="306-11-08" stroke="black"/>
  <path fill="none" d="M 231.00 1053.00 L 231.00 1096.00 L 215.00 1116.00 L 231.00 1131.00 L 230.64 1139.43 L 242.00 1140.00 L 322.00 1140.00 L 342.00 1141.00 L 402.00 1141.00 L 422.00 1142.00 L 475.00 1142.00 L 532.00 1056.50 L 522.00 1056.00 L 442.00 1056.00 L 422.00 1055.00 L 362.00 1055.00 L 342.00 1054.00 L 262.00 1054.00 L 242.00 1053.00 Z" stroke-width="1" id="306-12-01" stroke="black"/>
  <path fill="none" d="M 482.00 1142.00 L 502.00 1143.00 L 582.00 1143.00 L 602.00 1144.00 L 611.00 1144.00 L 602.00 1057.00 L 542.00 1057.00 L 532.00 1056.50 L 475.00 1142.00 Z" stroke-width="1" id="306-12-02" stroke="black"/>
  <path fill="none" d="M 662.00 1144.00 L 682.00 1145.00 L 762.00 1145.00 L 782.00 1146.00 L 842.00 1146.00 L 862.00 1147.00 L 922.00 1147.00 L 942.00 1148.00 L 1022.00 1148.00 L 1042.00 1149.00 L 1062.00 1149.00 L 1082.00 1169.00 L 1102.00 1169.00 L 1122.00 1170.00 L 1142.00 1150.00 L 1182.00 1150.00 L 1202.00 1151.00 L 1235.00 1151.00 L 1273.00 1064.00 L 1202.00 1064.00 L 1182.00 1063.00 L 1142.00 1063.00 L 1122.00 1082.00 L 1062.00 1082.00 L 1042.00 1080.00 L 1022.00 1062.00 L 1002.00 1061.00 L 922.00 1061.00 L 902.00 1060.00 L 822.00 1060.00 L 802.00 1059.00 L 742.00 1059.00 L 722.00 1078.00 L 702.00 1058.00 L 642.00 1058.00 L 622.00 1057.00 L 602.00 1057.00 L 611.00 1144.00 Z" stroke-width="1" id="306-12-03" stroke="black"/>
  <path fill="none" d="M 1282.00 1151.00 L 1302.00 1152.00 L 1362.00 1152.00 L 1382.00 1153.00 L 1403.00 1153.00 L 1402.00 1106.00 L 1382.00 1085.00 L 1362.00 1065.00 L 1302.00 1065.00 L 1282.00 1064.00 L 1273.00 1064.00 L 1235.00 1151.00 Z" stroke-width="1" id="306-12-04" stroke="black"/>
  <path fill="none" d="M 1462.00 1153.00 L 1482.00 1154.00 L 1542.00 1154.00 L 1562.00 1155.00 L 1622.00 1155.00 L 1642.00 1156.00 L 1722.00 1156.00 L 1742.00 1157.00 L 1802.00 1157.00 L 1807.95 1157.30 L 1796.00 1129.00 L 1812.00 1082.00 L 1816.95 1070.00 L 1782.00 1070.00 L 1762.00 1069.00 L 1682.00 1069.00 L 1662.00 1068.00 L 1582.00 1068.00 L 1562.00 1067.00 L 1502.00 1067.00 L 1482.00 1072.00 L 1462.00 1074.00 L 1442.00 1082.00 L 1422.00 1092.00 L 1402.00 1106.00 L 1403.00 1153.00 Z" stroke-width="1" id="306-12-05" stroke="black"/>
  <path fill="none" d="M 230.64 1139.43 L 229.00 1178.00 L 210.00 1194.00 L 228.00 1211.00 L 354.00 1220.00 L 343.99 1226.89 L 362.00 1244.00 L 382.00 1246.00 L 402.00 1242.00 L 422.00 1228.00 L 442.00 1226.00 L 476.00 1142.00 L 422.00 1142.00 L 402.00 1141.00 L 342.00 1141.00 L 322.00 1140.00 L 242.00 1140.00 Z" stroke-width="1" id="306-13-01" stroke="black"/>
  <path fill="none" d="M 462.00 1227.00 L 522.00 1227.00 L 542.00 1228.00 L 602.00 1228.00 L 622.00 1229.00 L 657.00 1229.00 L 691.00 1145.00 L 682.00 1145.00 L 662.00 1144.00 L 602.00 1144.00 L 582.00 1143.00 L 502.00 1143.00 L 482.00 1142.00 L 476.00 1142.00 L 442.00 1226.00 Z" stroke-width="1" id="306-13-02" stroke="black"/>
  <path fill="none" d="M 662.00 1229.00 L 682.00 1230.00 L 742.00 1230.00 L 762.00 1231.00 L 782.00 1231.00 L 802.00 1251.00 L 822.00 1251.00 L 842.00 1252.00 L 862.00 1232.00 L 902.00 1232.00 L 922.00 1233.00 L 932.00 1147.50 L 922.00 1147.00 L 862.00 1147.00 L 842.00 1146.00 L 782.00 1146.00 L 762.00 1145.00 L 691.00 1145.00 L 657.00 1229.00 Z" stroke-width="1" id="306-13-03" stroke="black"/>
  <path fill="none" d="M 982.00 1233.00 L 1002.00 1234.00 L 1062.00 1234.00 L 1082.00 1235.00 L 1131.00 1235.00 L 1125.00 1167.00 L 1122.00 1170.00 L 1102.00 1169.00 L 1082.00 1169.00 L 1062.00 1149.00 L 1042.00 1149.00 L 1022.00 1148.00 L 942.00 1148.00 L 932.00 1147.50 L 922.00 1233.00 Z" stroke-width="1" id="306-13-04" stroke="black"/>
  <path fill="none" d="M 1142.00 1235.00 L 1162.00 1236.00 L 1222.00 1236.00 L 1242.00 1237.00 L 1282.00 1237.00 L 1302.00 1238.00 L 1335.00 1238.00 L 1385.00 1153.00 L 1382.00 1153.00 L 1362.00 1152.00 L 1302.00 1152.00 L 1282.00 1151.00 L 1202.00 1151.00 L 1182.00 1150.00 L 1142.00 1150.00 L 1125.00 1167.00 L 1131.00 1235.00 Z" stroke-width="1" id="306-13-05" stroke="black"/>
  <path fill="none" d="M 1362.00 1238.00 L 1382.00 1239.00 L 1442.00 1239.00 L 1462.00 1240.00 L 1522.00 1240.00 L 1542.00 1241.00 L 1602.00 1241.00 L 1622.00 1242.00 L 1640.00 1242.00 L 1642.00 1156.00 L 1622.00 1155.00 L 1562.00 1155.00 L 1542.00 1154.00 L 1482.00 1154.00 L 1462.00 1153.00 L 1385.00 1153.00 L 1335.00 1238.00 Z" stroke-width="1" id="306-13-06" stroke="black"/>
  <path fill="none" d="M 1682.00 1242.00 L 1702.00 1243.00 L 1762.00 1243.00 L 1782.00 1244.00 L 1836.36 1244.00 L 1834.00 1219.00 L 1807.95 1157.30 L 1802.00 1157.00 L 1742.00 1157.00 L 1722.00 1156.00 L 1642.00 1156.00 L 1640.00 1242.00 Z" stroke-width="1" id="306-13-07" stroke="black"/>
  <path fill="none" d="M 277.00 1273.00 L 263.00 1292.00 L 254.28 1306.00 L 282.00 1306.00 L 302.00 1307.00 L 322.00 1307.00 L 342.00 1308.00 L 382.00 1308.00 L 402.00 1309.00 L 425.00 1309.00 L 457.00 1226.75 L 442.00 1226.00 L 422.00 1228.00 L 402.00 1242.00 L 382.00 1246.00 L 362.00 1244.00 L 343.99 1226.89 Z" stroke-width="1" id="306-14-01" stroke="black"/>
  <path fill="none" d="M 442.00 1309.00 L 462.00 1310.00 L 502.00 1310.00 L 522.00 1311.00 L 542.00 1311.00 L 562.00 1312.00 L 563.00 1312.00 L 590.00 1228.00 L 542.00 1228.00 L 522.00 1227.00 L 462.00 1227.00 L 457.00 1226.75 L 425.00 1309.00 Z" stroke-width="1" id="306-14-02" stroke="black"/>
  <path fill="none" d="M 602.00 1312.00 L 622.00 1313.00 L 662.00 1313.00 L 682.00 1314.00 L 722.00 1314.00 L 742.00 1315.00 L 782.00 1315.00 L 802.00 1316.00 L 822.00 1316.00 L 842.00 1317.00 L 882.00 1317.00 L 889.00 1317.35 L 898.00 1232.00 L 862.00 1232.00 L 842.00 1252.00 L 822.00 1251.00 L 802.00 1251.00 L 782.00 1231.00 L 762.00 1231.00 L 742.00 1230.00 L 682.00 1230.00 L 662.00 1229.00 L 622.00 1229.00 L 602.00 1228.00 L 590.00 1228.00 L 563.00 1312.00 Z" stroke-width="1" id="306-14-03" stroke="black"/>
  <path fill="none" d="M 902.00 1318.00 L 942.00 1318.00 L 962.00 1319.00 L 1002.00 1319.00 L 1022.00 1300.00 L 1042.00 1300.00 L 1062.00 1301.00 L 1082.00 1321.00 L 1102.00 1321.00 L 1122.00 1322.00 L 1126.00 1322.00 L 1164.00 1236.00 L 1162.00 1236.00 L 1142.00 1235.00 L 1082.00 1235.00 L 1062.00 1234.00 L 1002.00 1234.00 L 982.00 1233.00 L 922.00 1233.00 L 902.00 1232.00 L 898.00 1232.00 L 889.00 1317.35 Z" stroke-width="1" id="306-14-04" stroke="black"/>
  <path fill="none" d="M 1162.00 1322.00 L 1182.00 1323.00 L 1222.00 1323.00 L 1242.00 1324.00 L 1282.00 1324.00 L 1302.00 1325.00 L 1310.00 1325.00 L 1318.00 1238.00 L 1302.00 1238.00 L 1282.00 1237.00 L 1242.00 1237.00 L 1222.00 1236.00 L 1164.00 1236.00 L 1126.00 1322.00 Z" stroke-width="1" id="306-14-05" stroke="black"/>
  <path fill="none" d="M 1322.00 1325.00 L 1342.00 1326.00 L 1382.00 1326.00 L 1402.00 1327.00 L 1441.00 1327.00 L 1453.00 1239.55 L 1442.00 1239.00 L 1382.00 1239.00 L 1362.00 1238.00 L 1318.00 1238.00 L 1310.00 1325.00 Z" stroke-width="1" id="306-14-06" stroke="black"/>
  <path fill="none" d="M 1442.00 1327.00 L 1462.00 1328.00 L 1502.00 1328.00 L 1522.00 1349.00 L 1542.00 1329.00 L 1562.00 1330.00 L 1602.00 1330.00 L 1622.00 1331.00 L 1625.00 1331.00 L 1677.00 1242.00 L 1622.00 1242.00 L 1602.00 1241.00 L 1542.00 1241.00 L 1522.00 1240.00 L 1462.00 1240.00 L 1453.00 1239.55 L 1441.00 1327.00 Z" stroke-width="1" id="306-14-07" stroke="black"/>
  <path fill="none" d="M 1662.00 1331.00 L 1682.00 1332.00 L 1722.00 1332.00 L 1742.00 1333.00 L 1762.00 1333.00 L 1782.00 1334.00 L 1822.00 1334.00 L 1834.82 1334.64 L 1841.00 1293.00 L 1836.36 1244.00 L 1782.00 1244.00 L 1762.00 1243.00 L 1702.00 1243.00 L 1682.00 1242.00 L 1677.00 1242.00 L 1625.00 1331.00 Z" stroke-width="1" id="306-14-08" stroke="black"/>
  <path fill="none" d="M 254.28 1306.00 L 225.00 1353.00 L 219.00 1369.00 L 219.00 1391.00 L 222.00 1391.00 L 242.00 1392.00 L 282.00 1392.00 L 302.00 1393.00 L 342.00 1393.00 L 362.00 1394.00 L 402.00 1394.00 L 422.00 1386.00 L 442.00 1386.00 L 444.00 1385.60 L 470.00 1310.00 L 462.00 1310.00 L 442.00 1309.00 L 402.00 1309.00 L 382.00 1308.00 L 342.00 1308.00 L 322.00 1307.00 L 302.00 1307.00 L 282.00 1306.00 Z" stroke-width="1" id="306-15-01" stroke="black"/>
  <path fill="none" d="M 462.00 1382.00 L 502.00 1382.00 L 522.00 1380.00 L 555.00 1380.00 L 575.00 1312.00 L 562.00 1312.00 L 542.00 1311.00 L 522.00 1311.00 L 502.00 1310.00 L 470.00 1310.00 L 444.00 1385.60 Z" stroke-width="1" id="306-15-02" stroke="black"/>
  <path fill="none" d="M 562.00 1380.00 L 582.00 1398.00 L 622.00 1398.00 L 642.00 1399.00 L 682.00 1399.00 L 702.00 1400.00 L 742.00 1400.00 L 762.00 1401.00 L 802.00 1401.00 L 822.00 1402.00 L 842.00 1402.00 L 862.00 1403.00 L 902.00 1403.00 L 922.00 1404.00 L 962.00 1404.00 L 982.00 1405.00 L 1022.00 1405.00 L 1042.00 1406.00 L 1062.00 1420.00 L 1082.00 1420.00 L 1102.00 1424.00 L 1122.00 1407.00 L 1142.00 1407.00 L 1162.00 1408.00 L 1182.00 1408.00 L 1202.00 1409.00 L 1206.00 1409.00 L 1246.00 1324.00 L 1242.00 1324.00 L 1222.00 1323.00 L 1182.00 1323.00 L 1162.00 1322.00 L 1122.00 1322.00 L 1102.00 1321.00 L 1082.00 1321.00 L 1062.00 1301.00 L 1042.00 1300.00 L 1022.00 1300.00 L 1002.00 1319.00 L 962.00 1319.00 L 942.00 1318.00 L 902.00 1318.00 L 882.00 1317.00 L 842.00 1317.00 L 822.00 1316.00 L 802.00 1316.00 L 782.00 1315.00 L 742.00 1315.00 L 722.00 1314.00 L 682.00 1314.00 L 662.00 1313.00 L 622.00 1313.00 L 602.00 1312.00 L 575.00 1312.00 L 555.00 1380.00 Z" stroke-width="1" id="306-15-03" stroke="black"/>
  <path fill="none" d="M 1242.00 1409.00 L 1262.00 1410.00 L 1302.00 1410.00 L 1322.00 1411.00 L 1362.00 1411.00 L 1382.00 1412.00 L 1422.00 1412.00 L 1442.00 1413.00 L 1482.00 1413.00 L 1502.00 1414.00 L 1519.00 1414.00 L 1559.00 1329.85 L 1542.00 1329.00 L 1522.00 1349.00 L 1502.00 1328.00 L 1462.00 1328.00 L 1442.00 1327.00 L 1402.00 1327.00 L 1382.00 1326.00 L 1342.00 1326.00 L 1322.00 1325.00 L 1302.00 1325.00 L 1282.00 1324.00 L 1246.00 1324.00 L 1206.00 1409.00 Z" stroke-width="1" id="306-15-04" stroke="black"/>
  <path fill="none" d="M 1542.00 1414.00 L 1562.00 1415.00 L 1582.00 1415.00 L 1602.00 1416.00 L 1642.00 1416.00 L 1662.00 1417.00 L 1664.00 1417.00 L 1694.00 1332.00 L 1682.00 1332.00 L 1662.00 1331.00 L 1622.00 1331.00 L 1602.00 1330.00 L 1562.00 1330.00 L 1559.00 1329.85 L 1519.00 1414.00 Z" stroke-width="1" id="306-15-05" stroke="black"/>
  <path fill="none" d="M 1702.00 1417.00 L 1722.00 1418.00 L 1762.00 1418.00 L 1782.00 1419.00 L 1822.00 1419.00 L 1822.29 1419.01 L 1834.82 1334.64 L 1822.00 1334.00 L 1782.00 1334.00 L 1762.00 1333.00 L 1742.00 1333.00 L 1722.00 1332.00 L 1694.00 1332.00 L 1664.00 1417.00 Z" stroke-width="1" id="306-15-06" stroke="black"/>
  <path fill="none" d="M 219.00 1391.00 L 219.00 1431.00 L 206.00 1445.00 L 224.00 1465.00 L 222.28 1479.00 L 242.00 1479.00 L 262.00 1480.00 L 322.00 1480.00 L 342.00 1481.00 L 349.00 1481.00 L 359.00 1393.85 L 342.00 1393.00 L 302.00 1393.00 L 282.00 1392.00 L 242.00 1392.00 L 222.00 1391.00 Z" stroke-width="1" id="306-16-01" stroke="black"/>
  <path fill="none" d="M 382.00 1481.00 L 402.00 1482.00 L 442.00 1482.00 L 454.00 1482.60 L 536.00 1380.00 L 522.00 1380.00 L 502.00 1382.00 L 462.00 1382.00 L 442.00 1386.00 L 422.00 1386.00 L 402.00 1394.00 L 362.00 1394.00 L 359.00 1393.85 L 349.00 1481.00 Z" stroke-width="1" id="306-16-02" stroke="black"/>
  <path fill="none" d="M 462.00 1483.00 L 522.00 1483.00 L 542.00 1484.00 L 582.00 1484.00 L 602.00 1485.00 L 642.00 1485.00 L 662.00 1486.00 L 722.00 1486.00 L 742.00 1507.00 L 762.00 1507.00 L 781.00 1488.00 L 847.00 1402.25 L 842.00 1402.00 L 822.00 1402.00 L 802.00 1401.00 L 762.00 1401.00 L 742.00 1400.00 L 702.00 1400.00 L 682.00 1399.00 L 642.00 1399.00 L 622.00 1398.00 L 582.00 1398.00 L 562.00 1380.00 L 536.00 1380.00 L 454.00 1482.60 Z" stroke-width="1" id="306-16-03" stroke="black"/>
  <path fill="none" d="M 782.00 1487.00 L 802.00 1488.00 L 842.00 1488.00 L 862.00 1489.00 L 922.00 1489.00 L 942.00 1490.00 L 982.00 1490.00 L 1002.00 1491.00 L 1013.00 1491.00 L 1063.00 1420.00 L 1062.00 1420.00 L 1042.00 1406.00 L 1022.00 1405.00 L 982.00 1405.00 L 962.00 1404.00 L 922.00 1404.00 L 902.00 1403.00 L 862.00 1403.00 L 847.00 1402.25 L 781.00 1488.00 Z" stroke-width="1" id="306-16-04" stroke="black"/>
  <path fill="none" d="M 1042.00 1491.00 L 1062.00 1492.00 L 1122.00 1492.00 L 1142.00 1493.00 L 1182.00 1493.00 L 1202.00 1494.00 L 1242.00 1494.00 L 1262.00 1495.00 L 1302.00 1495.00 L 1321.72 1495.99 L 1322.00 1494.00 L 1345.25 1496.00 L 1382.00 1496.00 L 1402.00 1497.00 L 1442.00 1497.00 L 1462.00 1498.00 L 1482.00 1498.00 L 1492.68 1508.68 L 1508.00 1510.00 L 1510.80 1509.64 L 1522.00 1499.00 L 1528.00 1499.00 L 1594.00 1415.60 L 1582.00 1415.00 L 1562.00 1415.00 L 1542.00 1414.00 L 1502.00 1414.00 L 1482.00 1413.00 L 1442.00 1413.00 L 1422.00 1412.00 L 1382.00 1412.00 L 1362.00 1411.00 L 1322.00 1411.00 L 1302.00 1410.00 L 1262.00 1410.00 L 1242.00 1409.00 L 1202.00 1409.00 L 1182.00 1408.00 L 1162.00 1408.00 L 1142.00 1407.00 L 1122.00 1407.00 L 1102.00 1424.00 L 1082.00 1420.00 L 1063.00 1420.00 L 1013.00 1491.00 Z" stroke-width="1" id="306-16-05" stroke="black"/>
  <path fill="none" d="M 1582.00 1499.00 L 1590.71 1499.44 L 1829.00 1469.00 L 1822.00 1421.00 L 1822.29 1419.01 L 1822.00 1419.00 L 1782.00 1419.00 L 1762.00 1418.00 L 1722.00 1418.00 L 1702.00 1417.00 L 1662.00 1417.00 L 1642.00 1416.00 L 1602.00 1416.00 L 1594.00 1415.60 L 1528.00 1499.00 Z" stroke-width="1" id="306-16-06" stroke="black"/>
  <path fill="none" d="M 222.28 1479.00 L 217.00 1522.00 L 207.00 1546.00 L 220.00 1551.00 L 219.49 1561.00 L 222.00 1561.00 L 242.00 1562.00 L 262.00 1562.00 L 301.00 1480.00 L 262.00 1480.00 L 242.00 1479.00 Z" stroke-width="1" id="306-17-01" stroke="black"/>
  <path fill="none" d="M 302.00 1562.00 L 322.00 1563.00 L 382.00 1563.00 L 402.00 1564.00 L 404.00 1564.00 L 419.00 1482.00 L 402.00 1482.00 L 382.00 1481.00 L 342.00 1481.00 L 322.00 1480.00 L 301.00 1480.00 L 262.00 1562.00 Z" stroke-width="1" id="306-17-02" stroke="black"/>
  <path fill="none" d="M 462.00 1564.00 L 482.00 1565.00 L 542.00 1565.00 L 562.00 1566.00 L 602.00 1566.00 L 622.00 1586.00 L 642.00 1587.00 L 662.00 1567.00 L 702.00 1567.00 L 722.00 1568.00 L 782.00 1568.00 L 802.00 1569.00 L 814.00 1569.00 L 848.00 1488.30 L 842.00 1488.00 L 802.00 1488.00 L 782.00 1487.00 L 762.00 1507.00 L 742.00 1507.00 L 722.00 1486.00 L 662.00 1486.00 L 642.00 1485.00 L 602.00 1485.00 L 582.00 1484.00 L 542.00 1484.00 L 522.00 1483.00 L 462.00 1483.00 L 442.00 1482.00 L 419.00 1482.00 L 404.00 1564.00 Z" stroke-width="1" id="306-17-03" stroke="black"/>
  <path fill="none" d="M 862.00 1569.00 L 882.00 1570.00 L 924.00 1570.00 L 964.00 1490.00 L 942.00 1490.00 L 922.00 1489.00 L 862.00 1489.00 L 848.00 1488.30 L 814.00 1569.00 Z" stroke-width="1" id="306-17-04" stroke="black"/>
  <path fill="none" d="M 942.00 1570.00 L 962.00 1571.00 L 1022.00 1571.00 L 1042.00 1572.00 L 1102.00 1572.00 L 1122.00 1573.00 L 1182.00 1573.00 L 1202.00 1574.00 L 1262.00 1574.00 L 1282.00 1575.00 L 1299.00 1575.00 L 1314.72 1495.64 L 1302.00 1495.00 L 1262.00 1495.00 L 1242.00 1494.00 L 1202.00 1494.00 L 1182.00 1493.00 L 1142.00 1493.00 L 1122.00 1492.00 L 1062.00 1492.00 L 1042.00 1491.00 L 1002.00 1491.00 L 982.00 1490.00 L 964.00 1490.00 L 924.00 1570.00 Z" stroke-width="1" id="306-17-05" stroke="black"/>
  <path fill="none" d="M 219.49 1561.00 L 217.00 1610.00 L 215.96 1652.00 L 222.00 1652.00 L 242.00 1653.00 L 302.00 1653.00 L 322.00 1654.00 L 382.00 1654.00 L 386.00 1654.20 L 404.00 1564.00 L 402.00 1564.00 L 382.00 1563.00 L 322.00 1563.00 L 302.00 1562.00 L 242.00 1562.00 L 222.00 1561.00 Z" stroke-width="1" id="306-18-01" stroke="black"/>
  <path fill="none" d="M 402.00 1655.00 L 462.00 1655.00 L 482.00 1656.00 L 542.00 1656.00 L 562.00 1657.00 L 622.00 1657.00 L 642.00 1658.00 L 685.00 1658.00 L 739.00 1568.00 L 722.00 1568.00 L 702.00 1567.00 L 662.00 1567.00 L 642.00 1587.00 L 622.00 1586.00 L 602.00 1566.00 L 562.00 1566.00 L 542.00 1565.00 L 482.00 1565.00 L 462.00 1564.00 L 404.00 1564.00 L 386.00 1654.20 Z" stroke-width="1" id="306-18-02" stroke="black"/>
  <path fill="none" d="M 702.00 1658.00 L 722.00 1659.00 L 774.00 1659.00 L 827.00 1569.00 L 802.00 1569.00 L 782.00 1568.00 L 739.00 1568.00 L 685.00 1658.00 Z" stroke-width="1" id="306-18-03" stroke="black"/>
  <path fill="none" d="M 782.00 1659.00 L 802.00 1660.00 L 862.00 1660.00 L 882.00 1661.00 L 907.00 1661.00 L 970.00 1571.00 L 962.00 1571.00 L 942.00 1570.00 L 882.00 1570.00 L 862.00 1569.00 L 827.00 1569.00 L 774.00 1659.00 Z" stroke-width="1" id="306-18-04" stroke="black"/>
  <path fill="none" d="M 962.00 1661.00 L 982.00 1662.00 L 1042.00 1662.00 L 1062.00 1663.00 L 1122.00 1663.00 L 1142.00 1664.00 L 1170.00 1664.00 L 1196.00 1573.70 L 1182.00 1573.00 L 1122.00 1573.00 L 1102.00 1572.00 L 1042.00 1572.00 L 1022.00 1571.00 L 970.00 1571.00 L 907.00 1661.00 Z" stroke-width="1" id="306-18-05" stroke="black"/>
  <path fill="none" d="M 1202.00 1664.00 L 1222.00 1665.00 L 1282.00 1665.00 L 1302.00 1666.00 L 1362.00 1666.00 L 1364.00 1666.10 L 1393.00 1576.00 L 1362.00 1576.00 L 1342.00 1575.00 L 1282.00 1575.00 L 1262.00 1574.00 L 1202.00 1574.00 L 1196.00 1573.70 L 1170.00 1664.00 Z" stroke-width="1" id="306-18-06" stroke="black"/>
  <path fill="none" d="M 1382.00 1667.00 L 1442.00 1667.00 L 1462.00 1668.00 L 1522.00 1668.00 L 1542.00 1669.00 L 1556.00 1669.00 L 1579.00 1578.00 L 1542.00 1578.00 L 1522.00 1577.00 L 1442.00 1577.00 L 1422.00 1576.00 L 1393.00 1576.00 L 1364.00 1666.10 Z" stroke-width="1" id="306-18-07" stroke="black"/>
  <path fill="none" d="M 1602.00 1669.00 L 1622.00 1650.00 L 1642.00 1670.00 L 1682.00 1670.00 L 1702.00 1671.00 L 1762.00 1671.00 L 1782.00 1672.00 L 1783.69 1672.00 L 1753.00 1609.00 L 1643.29 1579.00 L 1622.00 1579.00 L 1602.00 1578.00 L 1579.00 1578.00 L 1556.00 1669.00 Z" stroke-width="1" id="306-18-08" stroke="black"/>
  <path fill="none" d="M 215.96 1652.00 L 215.00 1691.00 L 202.00 1715.00 L 226.00 1723.00 L 223.57 1735.00 L 262.00 1735.00 L 282.00 1736.00 L 322.00 1736.00 L 342.00 1737.00 L 362.00 1737.00 L 382.00 1738.00 L 422.00 1738.00 L 442.00 1739.00 L 479.00 1739.00 L 490.00 1656.00 L 482.00 1656.00 L 462.00 1655.00 L 402.00 1655.00 L 382.00 1654.00 L 322.00 1654.00 L 302.00 1653.00 L 242.00 1653.00 L 222.00 1652.00 Z" stroke-width="1" id="306-19-01" stroke="black"/>
  <path fill="none" d="M 482.00 1739.00 L 502.00 1740.00 L 522.00 1740.00 L 542.00 1741.00 L 582.00 1741.00 L 602.00 1742.00 L 642.00 1742.00 L 662.00 1743.00 L 682.00 1743.00 L 702.00 1744.00 L 742.00 1744.00 L 762.00 1745.00 L 770.00 1745.00 L 810.00 1660.00 L 802.00 1660.00 L 782.00 1659.00 L 722.00 1659.00 L 702.00 1658.00 L 642.00 1658.00 L 622.00 1657.00 L 562.00 1657.00 L 542.00 1656.00 L 490.00 1656.00 L 479.00 1739.00 Z" stroke-width="1" id="306-19-02" stroke="black"/>
  <path fill="none" d="M 782.00 1745.00 L 802.00 1746.00 L 842.00 1746.00 L 862.00 1747.00 L 902.00 1747.00 L 922.00 1748.00 L 942.00 1748.00 L 962.00 1749.00 L 1002.00 1749.00 L 1022.00 1770.00 L 1042.00 1770.00 L 1062.00 1750.00 L 1082.00 1751.00 L 1102.00 1751.00 L 1122.00 1752.00 L 1142.00 1752.00 L 1162.00 1772.00 L 1182.00 1773.00 L 1202.00 1753.00 L 1222.00 1753.00 L 1242.00 1754.00 L 1249.00 1754.00 L 1282.00 1665.00 L 1222.00 1665.00 L 1202.00 1664.00 L 1142.00 1664.00 L 1122.00 1663.00 L 1062.00 1663.00 L 1042.00 1662.00 L 982.00 1662.00 L 962.00 1661.00 L 882.00 1661.00 L 862.00 1660.00 L 810.00 1660.00 L 770.00 1745.00 Z" stroke-width="1" id="306-19-03" stroke="black"/>
  <path fill="none" d="M 1262.00 1754.00 L 1282.00 1755.00 L 1322.00 1755.00 L 1342.00 1756.00 L 1362.00 1756.00 L 1382.00 1757.00 L 1422.00 1757.00 L 1442.00 1758.00 L 1482.00 1758.00 L 1502.00 1759.00 L 1507.00 1759.00 L 1544.00 1669.00 L 1542.00 1669.00 L 1522.00 1668.00 L 1462.00 1668.00 L 1442.00 1667.00 L 1382.00 1667.00 L 1362.00 1666.00 L 1302.00 1666.00 L 1282.00 1665.00 L 1249.00 1754.00 Z" stroke-width="1" id="306-19-04" stroke="black"/>
  <path fill="none" d="M 1522.00 1759.00 L 1542.00 1760.00 L 1582.00 1760.00 L 1602.00 1761.00 L 1622.00 1741.00 L 1642.00 1741.00 L 1650.00 1749.40 L 1689.00 1670.35 L 1682.00 1670.00 L 1642.00 1670.00 L 1622.00 1650.00 L 1602.00 1669.00 L 1544.00 1669.00 L 1507.00 1759.00 Z" stroke-width="1" id="306-19-05" stroke="black"/>
  <path fill="none" d="M 1662.00 1762.00 L 1682.00 1762.00 L 1702.00 1763.00 L 1742.00 1763.00 L 1762.00 1764.00 L 1791.40 1764.00 L 1810.00 1726.00 L 1783.69 1672.00 L 1782.00 1672.00 L 1762.00 1671.00 L 1702.00 1671.00 L 1689.00 1670.35 L 1650.00 1749.40 Z" stroke-width="1" id="306-19-06" stroke="black"/>
  <path fill="none" d="M 223.57 1735.00 L 211.00 1797.00 L 192.00 1824.00 L 208.00 1838.00 L 208.15 1840.16 L 222.00 1827.00 L 242.00 1827.00 L 262.00 1834.00 L 282.00 1834.00 L 302.00 1830.00 L 322.00 1829.00 L 342.00 1829.00 L 362.00 1830.00 L 402.00 1830.00 L 422.00 1831.00 L 442.00 1831.00 L 462.00 1832.00 L 465.00 1832.00 L 476.00 1739.00 L 442.00 1739.00 L 422.00 1738.00 L 382.00 1738.00 L 362.00 1737.00 L 342.00 1737.00 L 322.00 1736.00 L 282.00 1736.00 L 262.00 1735.00 Z" stroke-width="1" id="306-20-01" stroke="black"/>
  <path fill="none" d="M 502.00 1832.00 L 522.00 1833.00 L 542.00 1824.00 L 562.00 1824.00 L 582.00 1834.00 L 602.00 1834.00 L 622.00 1835.00 L 642.00 1835.00 L 646.00 1835.20 L 702.00 1744.00 L 682.00 1743.00 L 662.00 1743.00 L 642.00 1742.00 L 602.00 1742.00 L 582.00 1741.00 L 542.00 1741.00 L 522.00 1740.00 L 502.00 1740.00 L 482.00 1739.00 L 476.00 1739.00 L 465.00 1832.00 Z" stroke-width="1" id="306-20-02" stroke="black"/>
  <path fill="none" d="M 662.00 1836.00 L 702.00 1836.00 L 722.00 1837.00 L 728.00 1837.00 L 804.00 1746.00 L 802.00 1746.00 L 782.00 1745.00 L 762.00 1745.00 L 742.00 1744.00 L 702.00 1744.00 L 646.00 1835.20 Z" stroke-width="1" id="306-20-03" stroke="black"/>
  <path fill="none" d="M 742.00 1837.00 L 762.00 1818.00 L 782.00 1838.00 L 802.00 1839.00 L 842.00 1839.00 L 862.00 1840.00 L 882.00 1840.00 L 902.00 1841.00 L 942.00 1841.00 L 962.00 1842.00 L 982.00 1842.00 L 1002.00 1843.00 L 1007.00 1843.00 L 1022.00 1770.00 L 1002.00 1749.00 L 962.00 1749.00 L 942.00 1748.00 L 922.00 1748.00 L 902.00 1747.00 L 862.00 1747.00 L 842.00 1746.00 L 804.00 1746.00 L 728.00 1837.00 Z" stroke-width="1" id="306-20-04" stroke="black"/>
  <path fill="none" d="M 1042.00 1843.00 L 1062.00 1844.00 L 1082.00 1844.00 L 1083.00 1844.05 L 1140.00 1752.00 L 1122.00 1752.00 L 1102.00 1751.00 L 1082.00 1751.00 L 1062.00 1750.00 L 1042.00 1770.00 L 1022.00 1770.00 L 1007.00 1843.00 Z" stroke-width="1" id="306-20-05" stroke="black"/>
  <path fill="none" d="M 1102.00 1845.00 L 1142.00 1845.00 L 1162.00 1846.00 L 1182.00 1846.00 L 1202.00 1847.00 L 1214.00 1847.00 L 1248.00 1754.00 L 1242.00 1754.00 L 1222.00 1753.00 L 1202.00 1753.00 L 1182.00 1773.00 L 1162.00 1772.00 L 1142.00 1752.00 L 1140.00 1752.00 L 1083.00 1844.05 Z" stroke-width="1" id="306-20-06" stroke="black"/>
  <path fill="none" d="M 1242.00 1847.00 L 1262.00 1848.00 L 1282.00 1848.00 L 1302.00 1849.00 L 1342.00 1849.00 L 1362.00 1850.00 L 1367.80 1855.80 L 1373.80 1855.99 L 1421.00 1757.00 L 1382.00 1757.00 L 1362.00 1756.00 L 1342.00 1756.00 L 1322.00 1755.00 L 1282.00 1755.00 L 1262.00 1754.00 L 1248.00 1754.00 L 1214.00 1847.00 Z" stroke-width="1" id="306-20-07" stroke="black"/>
  <path fill="none" d="M 1405.00 1857.00 L 1417.19 1855.81 L 1422.00 1851.00 L 1442.00 1851.00 L 1458.12 1851.81 L 1551.12 1842.72 L 1547.00 1760.00 L 1542.00 1760.00 L 1522.00 1759.00 L 1502.00 1759.00 L 1482.00 1758.00 L 1442.00 1758.00 L 1422.00 1757.00 L 1421.00 1757.00 L 1373.80 1855.99 Z" stroke-width="1" id="306-20-08" stroke="black"/>
  <path fill="none" d="M 1763.00 1822.00 L 1791.40 1764.00 L 1762.00 1764.00 L 1742.00 1763.00 L 1702.00 1763.00 L 1682.00 1762.00 L 1662.00 1762.00 L 1642.00 1741.00 L 1622.00 1741.00 L 1602.00 1761.00 L 1582.00 1760.00 L 1547.00 1760.00 L 1551.12 1842.72 Z" stroke-width="1" id="306-20-09" stroke="black"/>
  <path fill="none" d="M 208.15 1840.16 L 210.00 1867.00 L 197.00 1882.00 L 215.46 1906.00 L 242.00 1906.00 L 262.00 1907.00 L 302.00 1907.00 L 322.00 1908.00 L 362.00 1908.00 L 382.00 1909.00 L 392.00 1909.00 L 422.00 1831.00 L 402.00 1830.00 L 362.00 1830.00 L 342.00 1829.00 L 322.00 1829.00 L 302.00 1830.00 L 282.00 1834.00 L 262.00 1834.00 L 242.00 1827.00 L 222.00 1827.00 Z" stroke-width="1" id="306-21-01" stroke="black"/>
  <path fill="none" d="M 422.00 1909.00 L 442.00 1910.00 L 462.00 1910.00 L 482.00 1930.00 L 502.00 1931.00 L 522.00 1931.00 L 542.00 1911.00 L 562.00 1912.00 L 579.00 1912.00 L 595.00 1834.00 L 582.00 1834.00 L 562.00 1824.00 L 542.00 1824.00 L 522.00 1833.00 L 502.00 1832.00 L 462.00 1832.00 L 442.00 1831.00 L 422.00 1831.00 L 392.00 1909.00 Z" stroke-width="1" id="306-21-02" stroke="black"/>
  <path fill="none" d="M 602.00 1912.00 L 622.00 1913.00 L 662.00 1913.00 L 666.00 1913.20 L 715.00 1836.65 L 702.00 1836.00 L 662.00 1836.00 L 642.00 1835.00 L 622.00 1835.00 L 602.00 1834.00 L 595.00 1834.00 L 579.00 1912.00 Z" stroke-width="1" id="306-21-03" stroke="black"/>
  <path fill="none" d="M 682.00 1914.00 L 722.00 1914.00 L 742.00 1915.00 L 782.00 1915.00 L 802.00 1916.00 L 842.00 1916.00 L 862.00 1897.00 L 882.00 1917.00 L 902.00 1917.00 L 922.00 1918.00 L 962.00 1918.00 L 982.00 1919.00 L 1014.00 1919.00 L 1042.00 1843.00 L 1002.00 1843.00 L 982.00 1842.00 L 962.00 1842.00 L 942.00 1841.00 L 902.00 1841.00 L 882.00 1840.00 L 862.00 1840.00 L 842.00 1839.00 L 802.00 1839.00 L 782.00 1838.00 L 762.00 1818.00 L 742.00 1837.00 L 722.00 1837.00 L 715.00 1836.65 L 666.00 1913.20 Z" stroke-width="1" id="306-21-04" stroke="black"/>
  <path fill="none" d="M 1022.00 1919.00 L 1042.00 1920.00 L 1082.00 1920.00 L 1096.00 1920.70 L 1144.00 1845.10 L 1142.00 1845.00 L 1102.00 1845.00 L 1082.00 1844.00 L 1062.00 1844.00 L 1042.00 1843.00 L 1014.00 1919.00 Z" stroke-width="1" id="306-21-05" stroke="black"/>
  <path fill="none" d="M 1102.00 1921.00 L 1142.00 1921.00 L 1162.00 1942.00 L 1182.00 1942.00 L 1202.00 1902.00 L 1222.00 1903.00 L 1258.00 1903.00 L 1271.00 1848.00 L 1262.00 1848.00 L 1242.00 1847.00 L 1202.00 1847.00 L 1182.00 1846.00 L 1162.00 1846.00 L 1144.00 1845.10 L 1096.00 1920.70 Z" stroke-width="1" id="306-21-06" stroke="black"/>
  <path fill="none" d="M 215.46 1906.00 L 217.00 1908.00 L 220.00 1962.00 L 220.00 2002.00 L 262.00 2002.00 L 282.00 2003.00 L 322.00 2003.00 L 342.00 2004.00 L 402.00 2004.00 L 422.00 2005.00 L 462.00 2005.00 L 482.00 2006.00 L 542.00 2006.00 L 562.00 2007.00 L 602.00 2007.00 L 622.00 2008.00 L 682.00 2008.00 L 702.00 2009.00 L 742.00 2009.00 L 749.00 2009.35 L 797.00 1915.75 L 782.00 1915.00 L 742.00 1915.00 L 722.00 1914.00 L 682.00 1914.00 L 662.00 1913.00 L 622.00 1913.00 L 602.00 1912.00 L 562.00 1912.00 L 542.00 1911.00 L 522.00 1931.00 L 502.00 1931.00 L 482.00 1930.00 L 462.00 1910.00 L 442.00 1910.00 L 422.00 1909.00 L 382.00 1909.00 L 362.00 1908.00 L 322.00 1908.00 L 302.00 1907.00 L 262.00 1907.00 L 242.00 1906.00 Z" stroke-width="1" id="306-22-01" stroke="black"/>
  <path fill="none" d="M 762.00 2010.00 L 822.00 2010.00 L 842.00 2011.00 L 882.00 2011.00 L 902.00 2012.00 L 962.00 2012.00 L 982.00 2013.00 L 1022.00 2013.00 L 1042.00 2014.00 L 1082.00 2014.00 L 1102.00 2015.00 L 1132.00 2015.00 L 1162.00 1942.00 L 1142.00 1921.00 L 1102.00 1921.00 L 1082.00 1920.00 L 1042.00 1920.00 L 1022.00 1919.00 L 982.00 1919.00 L 962.00 1918.00 L 922.00 1918.00 L 902.00 1917.00 L 882.00 1917.00 L 862.00 1897.00 L 842.00 1916.00 L 802.00 1916.00 L 797.00 1915.75 L 749.00 2009.35 Z" stroke-width="1" id="306-22-02" stroke="black"/>
  <path fill="none" d="M 1162.00 2015.00 L 1182.00 2016.00 L 1191.00 2016.00 L 1268.00 1924.47 L 1262.00 1924.00 L 1266.43 1907.43 L 1262.00 1903.00 L 1222.00 1903.00 L 1202.00 1902.00 L 1182.00 1942.00 L 1162.00 1942.00 L 1132.00 2015.00 Z" stroke-width="1" id="306-22-03" stroke="black"/>
  <path fill="none" d="M 1222.00 2016.00 L 1242.00 2017.00 L 1302.00 2017.00 L 1322.00 2034.00 L 1342.00 2018.00 L 1362.00 2018.00 L 1377.00 2018.75 L 1394.69 1990.46 L 1393.00 1989.00 L 1429.00 1937.00 L 1268.00 1924.47 L 1191.00 2016.00 Z" stroke-width="1" id="306-22-04" stroke="black"/>
  <path fill="none" d="M 175.00 2046.00 L 150.00 2081.00 L 159.00 2143.00 L 201.00 2145.46 L 229.00 2055.95 L 222.00 2050.00 L 211.36 2046.81 Z" stroke-width="1" id="306-24-01" stroke="black"/>
  <path fill="none" d="M 305.00 2151.55 L 342.00 2068.00 L 322.00 2067.00 L 242.00 2067.00 L 229.00 2055.95 L 201.00 2145.46 Z" stroke-width="1" id="306-24-02" stroke="black"/>
  <path fill="none" d="M 381.00 2156.00 L 387.96 2159.00 L 402.00 2159.00 L 412.62 2169.62 L 436.02 2179.70 L 442.00 2180.00 L 462.00 2180.00 L 482.00 2160.00 L 542.00 2160.00 L 562.00 2161.00 L 662.00 2161.00 L 682.00 2162.00 L 747.00 2162.00 L 797.00 2071.00 L 722.00 2071.00 L 702.00 2070.00 L 602.00 2070.00 L 582.00 2069.00 L 462.00 2069.00 L 442.00 2068.00 L 342.00 2068.00 L 305.00 2151.55 Z" stroke-width="1" id="306-24-03" stroke="black"/>
  <path fill="none" d="M 782.00 2162.00 L 802.00 2163.00 L 922.00 2163.00 L 942.00 2164.00 L 1042.00 2164.00 L 1062.00 2165.00 L 1070.00 2165.00 L 1122.00 2074.00 L 1102.00 2073.00 L 1002.00 2073.00 L 982.00 2072.00 L 862.00 2072.00 L 842.00 2071.00 L 797.00 2071.00 L 747.00 2162.00 Z" stroke-width="1" id="306-24-04" stroke="black"/>
  <path fill="none" d="M 1162.00 2165.00 L 1182.00 2166.00 L 1282.00 2166.00 L 1302.00 2167.00 L 1402.00 2167.00 L 1422.00 2168.00 L 1477.26 2168.00 L 1504.00 2085.00 L 1493.59 2076.00 L 1382.00 2076.00 L 1362.00 2075.00 L 1262.00 2075.00 L 1242.00 2074.00 L 1122.00 2074.00 L 1070.00 2165.00 Z" stroke-width="1" id="306-24-05" stroke="black"/>
  <path fill="none" d="M 436.02 2179.70 L 446.00 2184.00 L 446.00 2242.00 L 572.00 2248.84 L 629.00 2161.00 L 562.00 2161.00 L 542.00 2160.00 L 482.00 2160.00 L 462.00 2180.00 L 442.00 2180.00 Z" stroke-width="1" id="306-25-01" stroke="black"/>
  <path fill="none" d="M 611.75 2251.00 L 742.00 2251.00 L 762.00 2252.00 L 902.00 2252.00 L 922.00 2253.00 L 1042.00 2253.00 L 1062.00 2233.00 L 1082.00 2253.00 L 1102.00 2254.00 L 1107.00 2254.00 L 1101.00 2165.00 L 1062.00 2165.00 L 1042.00 2164.00 L 942.00 2164.00 L 922.00 2163.00 L 802.00 2163.00 L 782.00 2162.00 L 682.00 2162.00 L 662.00 2161.00 L 629.00 2161.00 L 572.00 2248.84 Z" stroke-width="1" id="306-25-02" stroke="black"/>
  <path fill="none" d="M 611.75 2251.00 L 667.00 2254.00 L 629.00 2312.00 L 611.73 2341.73 L 622.00 2352.00 L 642.00 2372.00 L 662.00 2353.00 L 682.00 2353.00 L 702.00 2333.00 L 742.00 2333.00 L 762.00 2334.00 L 804.00 2334.00 L 833.00 2252.00 L 762.00 2252.00 L 742.00 2251.00 Z" stroke-width="1" id="306-26-01" stroke="black"/>
  <path fill="none" d="M 842.00 2334.00 L 862.00 2335.00 L 942.00 2335.00 L 946.00 2335.20 L 958.00 2253.00 L 922.00 2253.00 L 902.00 2252.00 L 833.00 2252.00 L 804.00 2334.00 Z" stroke-width="1" id="306-26-02" stroke="black"/>
  <path fill="none" d="M 962.00 2336.00 L 1042.00 2336.00 L 1062.00 2337.00 L 1102.00 2337.00 L 1122.00 2357.00 L 1142.00 2377.00 L 1162.00 2358.00 L 1182.00 2358.00 L 1201.00 2339.00 L 1248.00 2254.00 L 1102.00 2254.00 L 1082.00 2253.00 L 1062.00 2233.00 L 1042.00 2253.00 L 958.00 2253.00 L 946.00 2335.20 Z" stroke-width="1" id="306-26-03" stroke="black"/>
  <path fill="none" d="M 1202.00 2338.00 L 1242.00 2338.00 L 1262.00 2339.00 L 1282.00 2359.00 L 1322.00 2359.00 L 1342.00 2339.00 L 1362.00 2340.00 L 1442.00 2340.00 L 1462.00 2341.00 L 1524.00 2341.00 L 1557.00 2258.51 L 1468.67 2256.00 L 1442.00 2256.00 L 1422.00 2255.00 L 1282.00 2255.00 L 1262.00 2254.00 L 1248.00 2254.00 L 1201.00 2339.00 Z" stroke-width="1" id="306-26-04" stroke="black"/>
  <path fill="none" d="M 1542.00 2341.00 L 1562.00 2342.00 L 1600.00 2342.00 L 1645.00 2261.01 L 1557.00 2258.51 L 1524.00 2341.00 Z" stroke-width="1" id="306-26-05" stroke="black"/>
  <path fill="none" d="M 1642.00 2342.00 L 1662.00 2343.00 L 1742.00 2343.00 L 1762.00 2344.00 L 1766.67 2344.00 L 1767.00 2343.00 L 1815.00 2313.00 L 1750.00 2264.00 L 1645.00 2261.01 L 1600.00 2342.00 Z" stroke-width="1" id="306-26-06" stroke="black"/>
  <path fill="none" d="M 197.00 2370.00 L 191.00 2393.00 L 193.36 2418.00 L 202.00 2418.00 L 222.00 2419.00 L 242.00 2419.00 L 262.00 2399.00 L 282.00 2419.00 L 302.00 2420.00 L 322.00 2440.00 L 362.00 2440.00 L 382.00 2421.00 L 422.00 2421.00 L 436.00 2421.70 L 510.00 2339.07 L 290.00 2332.00 Z" stroke-width="1" id="306-27-01" stroke="black"/>
  <path fill="none" d="M 442.00 2422.00 L 502.00 2422.00 L 522.00 2423.00 L 595.00 2342.33 L 539.00 2340.00 L 510.00 2339.07 L 436.00 2421.70 Z" stroke-width="1" id="306-27-02" stroke="black"/>
  <path fill="none" d="M 582.00 2423.00 L 602.00 2424.00 L 662.00 2424.00 L 672.00 2424.50 L 690.00 2345.00 L 682.00 2353.00 L 662.00 2353.00 L 642.00 2372.00 L 622.00 2352.00 L 611.73 2341.73 L 611.00 2343.00 L 595.00 2342.33 L 522.00 2423.00 Z" stroke-width="1" id="306-27-03" stroke="black"/>
  <path fill="none" d="M 682.00 2425.00 L 742.00 2425.00 L 762.00 2426.00 L 802.00 2426.00 L 822.00 2427.00 L 882.00 2427.00 L 902.00 2428.00 L 932.00 2428.00 L 1074.00 2337.00 L 1062.00 2337.00 L 1042.00 2336.00 L 962.00 2336.00 L 942.00 2335.00 L 862.00 2335.00 L 842.00 2334.00 L 762.00 2334.00 L 742.00 2333.00 L 702.00 2333.00 L 690.00 2345.00 L 672.00 2424.50 Z" stroke-width="1" id="306-27-04" stroke="black"/>
  <path fill="none" d="M 962.00 2428.00 L 982.00 2429.00 L 1042.00 2429.00 L 1062.00 2430.00 L 1122.00 2430.00 L 1142.00 2411.00 L 1162.00 2431.00 L 1177.00 2431.00 L 1191.00 2349.00 L 1182.00 2358.00 L 1162.00 2358.00 L 1142.00 2377.00 L 1122.00 2357.00 L 1102.00 2337.00 L 1074.00 2337.00 L 932.00 2428.00 Z" stroke-width="1" id="306-27-05" stroke="black"/>
  <path fill="none" d="M 1182.00 2431.00 L 1202.00 2432.00 L 1258.00 2432.00 L 1303.00 2359.00 L 1282.00 2359.00 L 1262.00 2339.00 L 1242.00 2338.00 L 1202.00 2338.00 L 1191.00 2349.00 L 1177.00 2431.00 Z" stroke-width="1" id="306-27-06" stroke="black"/>
  <path fill="none" d="M 1262.00 2432.00 L 1282.00 2433.00 L 1342.00 2433.00 L 1362.00 2434.00 L 1422.00 2434.00 L 1442.00 2435.00 L 1502.00 2435.00 L 1522.00 2436.00 L 1562.00 2436.00 L 1582.00 2437.00 L 1642.00 2437.00 L 1645.00 2440.15 L 1708.00 2343.00 L 1662.00 2343.00 L 1642.00 2342.00 L 1562.00 2342.00 L 1542.00 2341.00 L 1462.00 2341.00 L 1442.00 2340.00 L 1362.00 2340.00 L 1342.00 2339.00 L 1322.00 2359.00 L 1303.00 2359.00 L 1258.00 2432.00 Z" stroke-width="1" id="306-27-07" stroke="black"/>
  <path fill="none" d="M 1662.00 2458.00 L 1702.00 2458.00 L 1722.00 2438.00 L 1742.00 2439.00 L 1777.00 2439.00 L 1741.00 2421.00 L 1766.67 2344.00 L 1762.00 2344.00 L 1742.00 2343.00 L 1708.00 2343.00 L 1645.00 2440.15 Z" stroke-width="1" id="306-27-08" stroke="black"/>
  <path fill="none" d="M 193.36 2418.00 L 196.00 2446.00 L 183.00 2476.00 L 201.00 2508.00 L 200.69 2508.93 L 202.00 2509.00 L 242.00 2509.00 L 262.00 2529.00 L 282.00 2530.00 L 302.00 2510.00 L 322.00 2510.00 L 342.00 2511.00 L 402.00 2511.00 L 422.00 2512.00 L 462.00 2512.00 L 482.00 2513.00 L 502.00 2513.00 L 507.00 2518.00 L 593.00 2423.55 L 582.00 2423.00 L 522.00 2423.00 L 502.00 2422.00 L 442.00 2422.00 L 422.00 2421.00 L 382.00 2421.00 L 362.00 2440.00 L 322.00 2440.00 L 302.00 2420.00 L 282.00 2419.00 L 262.00 2399.00 L 242.00 2419.00 L 222.00 2419.00 L 202.00 2418.00 Z" stroke-width="1" id="306-28-01" stroke="black"/>
  <path fill="none" d="M 522.00 2533.00 L 542.00 2553.00 L 562.00 2534.00 L 602.00 2534.00 L 622.00 2515.00 L 682.00 2515.00 L 702.00 2516.00 L 742.00 2516.00 L 759.00 2516.85 L 794.00 2426.00 L 762.00 2426.00 L 742.00 2425.00 L 682.00 2425.00 L 662.00 2424.00 L 602.00 2424.00 L 593.00 2423.55 L 507.00 2518.00 Z" stroke-width="1" id="306-28-02" stroke="black"/>
  <path fill="none" d="M 762.00 2517.00 L 822.00 2517.00 L 842.00 2518.00 L 882.00 2518.00 L 902.00 2519.00 L 962.00 2519.00 L 982.00 2520.00 L 1022.00 2520.00 L 1036.00 2520.70 L 1068.00 2430.00 L 1062.00 2430.00 L 1042.00 2429.00 L 982.00 2429.00 L 962.00 2428.00 L 902.00 2428.00 L 882.00 2427.00 L 822.00 2427.00 L 802.00 2426.00 L 794.00 2426.00 L 759.00 2516.85 Z" stroke-width="1" id="306-28-03" stroke="black"/>
  <path fill="none" d="M 1042.00 2521.00 L 1102.00 2521.00 L 1122.00 2522.00 L 1162.00 2522.00 L 1182.00 2523.00 L 1202.00 2523.00 L 1289.00 2433.00 L 1282.00 2433.00 L 1262.00 2432.00 L 1202.00 2432.00 L 1182.00 2431.00 L 1162.00 2431.00 L 1142.00 2411.00 L 1122.00 2430.00 L 1068.00 2430.00 L 1036.00 2520.70 Z" stroke-width="1" id="306-28-04" stroke="black"/>
  <path fill="none" d="M 1222.00 2543.00 L 1242.00 2543.00 L 1262.00 2524.00 L 1302.00 2524.00 L 1322.00 2525.00 L 1382.00 2525.00 L 1402.00 2526.00 L 1417.00 2526.00 L 1442.00 2435.00 L 1422.00 2434.00 L 1362.00 2434.00 L 1342.00 2433.00 L 1289.00 2433.00 L 1202.00 2523.00 Z" stroke-width="1" id="306-28-05" stroke="black"/>
  <path fill="none" d="M 1442.00 2526.00 L 1462.00 2527.00 L 1482.00 2527.00 L 1502.00 2507.00 L 1522.00 2527.00 L 1542.00 2528.00 L 1582.00 2528.00 L 1602.00 2529.00 L 1656.00 2529.00 L 1688.00 2458.00 L 1662.00 2458.00 L 1642.00 2437.00 L 1582.00 2437.00 L 1562.00 2436.00 L 1522.00 2436.00 L 1502.00 2435.00 L 1442.00 2435.00 L 1417.00 2526.00 Z" stroke-width="1" id="306-28-06" stroke="black"/>
  <path fill="none" d="M 1662.00 2529.00 L 1682.00 2530.00 L 1722.00 2530.00 L 1742.00 2531.00 L 1802.00 2531.00 L 1822.00 2532.00 L 1834.95 2532.00 L 1877.00 2489.00 L 1777.00 2439.00 L 1742.00 2439.00 L 1722.00 2438.00 L 1702.00 2458.00 L 1688.00 2458.00 L 1656.00 2529.00 Z" stroke-width="1" id="306-28-07" stroke="black"/>
  <path fill="none" d="M 200.69 2508.93 L 184.00 2560.00 L 200.00 2580.00 L 228.00 2590.29 L 271.00 2529.45 L 262.00 2529.00 L 242.00 2509.00 L 202.00 2509.00 Z" stroke-width="1" id="306-29-01" stroke="black"/>
  <path fill="none" d="M 268.00 2605.00 L 532.00 2598.02 L 542.00 2553.00 L 522.00 2533.00 L 502.00 2513.00 L 482.00 2513.00 L 462.00 2512.00 L 422.00 2512.00 L 402.00 2511.00 L 342.00 2511.00 L 322.00 2510.00 L 302.00 2510.00 L 282.00 2530.00 L 271.00 2529.45 L 228.00 2590.29 Z" stroke-width="1" id="306-29-02" stroke="black"/>
  <path fill="none" d="M 680.92 2594.08 L 682.00 2593.00 L 702.00 2573.00 L 722.00 2574.00 L 742.00 2594.00 L 762.00 2614.00 L 782.00 2614.00 L 802.00 2615.00 L 822.00 2615.00 L 842.00 2595.00 L 862.00 2595.00 L 882.00 2616.00 L 942.00 2616.00 L 962.00 2617.00 L 1022.00 2617.00 L 1042.00 2618.00 L 1056.00 2604.00 L 1081.00 2521.00 L 1042.00 2521.00 L 1022.00 2520.00 L 982.00 2520.00 L 962.00 2519.00 L 902.00 2519.00 L 882.00 2518.00 L 842.00 2518.00 L 822.00 2517.00 L 762.00 2517.00 L 742.00 2516.00 L 702.00 2516.00 L 682.00 2515.00 L 622.00 2515.00 L 602.00 2534.00 L 562.00 2534.00 L 542.00 2553.00 L 532.00 2598.02 Z" stroke-width="1" id="306-29-03" stroke="black"/>
  <path fill="none" d="M 1062.00 2598.00 L 1082.00 2598.00 L 1102.00 2600.00 L 1122.00 2600.00 L 1142.00 2604.00 L 1162.00 2608.00 L 1174.00 2618.80 L 1282.00 2524.00 L 1262.00 2524.00 L 1242.00 2543.00 L 1222.00 2543.00 L 1202.00 2523.00 L 1182.00 2523.00 L 1162.00 2522.00 L 1122.00 2522.00 L 1102.00 2521.00 L 1081.00 2521.00 L 1056.00 2604.00 Z" stroke-width="1" id="306-29-04" stroke="black"/>
  <path fill="none" d="M 1182.00 2626.00 L 1202.00 2628.00 L 1222.00 2624.00 L 1242.00 2620.00 L 1262.00 2620.00 L 1282.00 2601.00 L 1302.00 2601.00 L 1322.00 2621.00 L 1342.00 2621.00 L 1362.00 2622.00 L 1401.00 2622.00 L 1423.00 2526.00 L 1402.00 2526.00 L 1382.00 2525.00 L 1322.00 2525.00 L 1302.00 2524.00 L 1282.00 2524.00 L 1174.00 2618.80 Z" stroke-width="1" id="306-29-05" stroke="black"/>
  <path fill="none" d="M 1422.00 2622.00 L 1442.00 2623.00 L 1502.00 2623.00 L 1514.00 2623.60 L 1527.00 2527.25 L 1522.00 2527.00 L 1502.00 2507.00 L 1482.00 2527.00 L 1462.00 2527.00 L 1442.00 2526.00 L 1423.00 2526.00 L 1401.00 2622.00 Z" stroke-width="1" id="306-29-06" stroke="black"/>
  <path fill="none" d="M 1522.00 2624.00 L 1582.00 2624.00 L 1602.00 2625.00 L 1662.00 2625.00 L 1682.00 2626.00 L 1742.00 2626.00 L 1762.00 2627.00 L 1773.00 2627.00 L 1787.00 2531.00 L 1742.00 2531.00 L 1722.00 2530.00 L 1682.00 2530.00 L 1662.00 2529.00 L 1602.00 2529.00 L 1582.00 2528.00 L 1542.00 2528.00 L 1527.00 2527.25 L 1514.00 2623.60 Z" stroke-width="1" id="306-29-07" stroke="black"/>
  <path fill="none" d="M 682.00 2684.00 L 702.00 2704.00 L 722.00 2705.00 L 742.00 2685.00 L 762.00 2685.00 L 782.00 2686.00 L 842.00 2686.00 L 862.00 2687.00 L 922.00 2687.00 L 942.00 2688.00 L 945.00 2692.50 L 1035.00 2617.65 L 1022.00 2617.00 L 962.00 2617.00 L 942.00 2616.00 L 882.00 2616.00 L 862.00 2595.00 L 842.00 2595.00 L 822.00 2615.00 L 802.00 2615.00 L 782.00 2614.00 L 762.00 2614.00 L 742.00 2594.00 L 722.00 2574.00 L 702.00 2573.00 L 682.00 2593.00 L 680.92 2594.08 L 684.00 2594.00 L 630.00 2661.26 L 679.00 2684.00 Z" stroke-width="1" id="306-30-01" stroke="black"/>
  <path fill="none" d="M 962.00 2718.00 L 982.00 2710.00 L 1002.00 2704.00 L 1022.00 2698.00 L 1042.00 2689.00 L 1062.00 2689.00 L 1082.00 2690.00 L 1122.00 2690.00 L 1142.00 2691.00 L 1162.00 2691.00 L 1193.00 2627.10 L 1182.00 2626.00 L 1162.00 2608.00 L 1142.00 2604.00 L 1122.00 2600.00 L 1102.00 2600.00 L 1082.00 2598.00 L 1062.00 2598.00 L 1042.00 2618.00 L 1035.00 2617.65 L 945.00 2692.50 Z" stroke-width="1" id="306-30-02" stroke="black"/>
  <path fill="none" d="M 1202.00 2691.00 L 1222.00 2692.00 L 1262.00 2692.00 L 1282.00 2693.00 L 1319.00 2693.00 L 1335.00 2621.00 L 1322.00 2621.00 L 1302.00 2601.00 L 1282.00 2601.00 L 1262.00 2620.00 L 1242.00 2620.00 L 1222.00 2624.00 L 1202.00 2628.00 L 1193.00 2627.10 L 1162.00 2691.00 Z" stroke-width="1" id="306-30-03" stroke="black"/>
  <path fill="none" d="M 1342.00 2693.00 L 1362.00 2694.00 L 1382.00 2694.00 L 1402.00 2704.00 L 1422.00 2712.00 L 1442.00 2706.00 L 1462.00 2698.00 L 1473.00 2696.35 L 1513.00 2623.55 L 1502.00 2623.00 L 1442.00 2623.00 L 1422.00 2622.00 L 1362.00 2622.00 L 1342.00 2621.00 L 1335.00 2621.00 L 1319.00 2693.00 Z" stroke-width="1" id="306-30-04" stroke="black"/>
  <path fill="none" d="M 1482.00 2695.00 L 1502.00 2696.00 L 1562.00 2696.00 L 1582.00 2697.00 L 1622.00 2697.00 L 1642.00 2698.00 L 1702.00 2698.00 L 1722.00 2699.00 L 1782.00 2699.00 L 1802.00 2700.00 L 1813.25 2700.00 L 1825.00 2644.00 L 1815.17 2627.00 L 1762.00 2627.00 L 1742.00 2626.00 L 1682.00 2626.00 L 1662.00 2625.00 L 1602.00 2625.00 L 1582.00 2624.00 L 1522.00 2624.00 L 1513.00 2623.55 L 1473.00 2696.35 Z" stroke-width="1" id="306-30-05" stroke="black"/>
  <path fill="none" d="M 181.00 2711.00 L 184.00 2735.00 L 185.02 2762.15 L 202.00 2763.00 L 242.00 2763.00 L 262.00 2744.00 L 282.00 2744.00 L 302.00 2764.00 L 307.00 2764.25 L 335.27 2680.40 Z" stroke-width="1" id="306-31-01" stroke="black"/>
  <path fill="none" d="M 322.00 2765.00 L 362.00 2765.00 L 382.00 2766.00 L 442.00 2766.00 L 462.00 2767.00 L 502.00 2767.00 L 522.00 2768.00 L 562.00 2768.00 L 582.00 2769.00 L 622.00 2769.00 L 642.00 2770.00 L 682.00 2770.00 L 702.00 2771.00 L 703.00 2772.00 L 774.00 2685.60 L 762.00 2685.00 L 742.00 2685.00 L 722.00 2705.00 L 702.00 2704.00 L 682.00 2684.00 L 642.00 2684.00 L 622.00 2683.00 L 582.00 2683.00 L 562.00 2682.00 L 502.00 2682.00 L 482.00 2681.00 L 462.00 2681.00 L 444.21 2663.21 L 423.00 2663.00 L 419.08 2663.78 L 402.00 2680.00 L 362.00 2680.00 L 342.27 2679.01 L 335.27 2680.40 L 307.00 2764.25 Z" stroke-width="1" id="306-31-02" stroke="black"/>
  <path fill="none" d="M 722.00 2791.00 L 742.00 2771.00 L 762.00 2772.00 L 822.00 2772.00 L 842.00 2773.00 L 882.00 2773.00 L 902.00 2774.00 L 942.00 2774.00 L 962.00 2775.00 L 1002.00 2775.00 L 1022.00 2776.00 L 1029.00 2776.00 L 1034.00 2692.60 L 1022.00 2698.00 L 1002.00 2704.00 L 982.00 2710.00 L 962.00 2718.00 L 942.00 2688.00 L 922.00 2687.00 L 862.00 2687.00 L 842.00 2686.00 L 782.00 2686.00 L 774.00 2685.60 L 703.00 2772.00 Z" stroke-width="1" id="306-31-03" stroke="black"/>
  <path fill="none" d="M 1062.00 2776.00 L 1082.00 2777.00 L 1119.00 2777.00 L 1162.00 2691.00 L 1142.00 2691.00 L 1122.00 2690.00 L 1082.00 2690.00 L 1062.00 2689.00 L 1042.00 2689.00 L 1034.00 2692.60 L 1029.00 2776.00 Z" stroke-width="1" id="306-31-04" stroke="black"/>
  <path fill="none" d="M 1122.00 2777.00 L 1142.00 2778.00 L 1202.00 2778.00 L 1222.00 2779.00 L 1262.00 2779.00 L 1282.00 2780.00 L 1322.00 2780.00 L 1342.00 2781.00 L 1382.00 2781.00 L 1402.00 2782.00 L 1440.00 2782.00 L 1484.00 2695.10 L 1482.00 2695.00 L 1462.00 2698.00 L 1442.00 2706.00 L 1422.00 2712.00 L 1402.00 2704.00 L 1382.00 2694.00 L 1362.00 2694.00 L 1342.00 2693.00 L 1282.00 2693.00 L 1262.00 2692.00 L 1222.00 2692.00 L 1202.00 2691.00 L 1162.00 2691.00 L 1119.00 2777.00 Z" stroke-width="1" id="306-31-05" stroke="black"/>
  <path fill="none" d="M 1442.00 2782.00 L 1462.00 2783.00 L 1502.00 2783.00 L 1522.00 2784.00 L 1582.00 2784.00 L 1602.00 2785.00 L 1640.00 2785.00 L 1676.00 2698.00 L 1642.00 2698.00 L 1622.00 2697.00 L 1582.00 2697.00 L 1562.00 2696.00 L 1502.00 2696.00 L 1484.00 2695.10 L 1440.00 2782.00 Z" stroke-width="1" id="306-31-06" stroke="black"/>
  <path fill="none" d="M 1642.00 2785.00 L 1662.00 2786.00 L 1682.00 2786.00 L 1702.00 2766.00 L 1722.00 2787.00 L 1762.00 2787.00 L 1782.00 2788.00 L 1806.41 2788.00 L 1808.00 2725.00 L 1813.25 2700.00 L 1802.00 2700.00 L 1782.00 2699.00 L 1722.00 2699.00 L 1702.00 2698.00 L 1676.00 2698.00 L 1640.00 2785.00 Z" stroke-width="1" id="306-31-07" stroke="black"/>
  <path fill="none" d="M 185.02 2762.15 L 186.00 2788.00 L 164.00 2798.00 L 180.00 2840.00 L 180.13 2843.00 L 242.00 2843.00 L 262.00 2844.00 L 318.00 2844.00 L 340.00 2765.00 L 322.00 2765.00 L 302.00 2764.00 L 282.00 2744.00 L 262.00 2744.00 L 242.00 2763.00 L 202.00 2763.00 Z" stroke-width="1" id="306-32-01" stroke="black"/>
  <path fill="none" d="M 342.00 2844.00 L 362.00 2845.00 L 442.00 2845.00 L 462.00 2846.00 L 522.00 2846.00 L 542.00 2847.00 L 609.00 2847.00 L 620.00 2769.00 L 582.00 2769.00 L 562.00 2768.00 L 522.00 2768.00 L 502.00 2767.00 L 462.00 2767.00 L 442.00 2766.00 L 382.00 2766.00 L 362.00 2765.00 L 340.00 2765.00 L 318.00 2844.00 Z" stroke-width="1" id="306-32-02" stroke="black"/>
  <path fill="none" d="M 622.00 2847.00 L 642.00 2848.00 L 722.00 2848.00 L 742.00 2849.00 L 822.00 2849.00 L 842.00 2850.00 L 864.00 2850.00 L 898.00 2773.80 L 882.00 2773.00 L 842.00 2773.00 L 822.00 2772.00 L 762.00 2772.00 L 742.00 2771.00 L 722.00 2791.00 L 702.00 2771.00 L 682.00 2770.00 L 642.00 2770.00 L 622.00 2769.00 L 620.00 2769.00 L 609.00 2847.00 Z" stroke-width="1" id="306-32-03" stroke="black"/>
  <path fill="none" d="M 922.00 2850.00 L 942.00 2851.00 L 1002.00 2851.00 L 1022.00 2852.00 L 1061.00 2852.00 L 1092.00 2777.00 L 1082.00 2777.00 L 1062.00 2776.00 L 1022.00 2776.00 L 1002.00 2775.00 L 962.00 2775.00 L 942.00 2774.00 L 902.00 2774.00 L 898.00 2773.80 L 864.00 2850.00 Z" stroke-width="1" id="306-32-04" stroke="black"/>
  <path fill="none" d="M 1102.00 2852.00 L 1122.00 2853.00 L 1202.00 2853.00 L 1222.00 2854.00 L 1242.00 2854.00 L 1248.00 2860.00 L 1318.00 2780.00 L 1282.00 2780.00 L 1262.00 2779.00 L 1222.00 2779.00 L 1202.00 2778.00 L 1142.00 2778.00 L 1122.00 2777.00 L 1092.00 2777.00 L 1061.00 2852.00 Z" stroke-width="1" id="306-32-05" stroke="black"/>
  <path fill="none" d="M 1262.00 2874.00 L 1302.00 2874.00 L 1322.00 2855.00 L 1382.00 2855.00 L 1402.00 2856.00 L 1482.00 2856.00 L 1491.43 2856.47 L 1508.43 2855.79 L 1521.00 2783.95 L 1502.00 2783.00 L 1462.00 2783.00 L 1442.00 2782.00 L 1402.00 2782.00 L 1382.00 2781.00 L 1342.00 2781.00 L 1322.00 2780.00 L 1318.00 2780.00 L 1248.00 2860.00 Z" stroke-width="1" id="306-32-06" stroke="black"/>
  <path fill="none" d="M 1590.43 2852.53 L 1618.00 2785.00 L 1602.00 2785.00 L 1582.00 2784.00 L 1522.00 2784.00 L 1521.00 2783.95 L 1508.43 2855.79 Z" stroke-width="1" id="306-32-07" stroke="black"/>
  <path fill="none" d="M 1716.43 2847.52 L 1730.00 2787.00 L 1722.00 2787.00 L 1702.00 2766.00 L 1682.00 2786.00 L 1662.00 2786.00 L 1642.00 2785.00 L 1618.00 2785.00 L 1590.43 2852.53 Z" stroke-width="1" id="306-32-08" stroke="black"/>
  <path fill="none" d="M 1805.00 2844.00 L 1806.41 2788.00 L 1782.00 2788.00 L 1762.00 2787.00 L 1730.00 2787.00 L 1716.43 2847.52 Z" stroke-width="1" id="306-32-09" stroke="black"/>
  <path fill="none" d="M 180.13 2843.00 L 182.00 2885.00 L 164.00 2905.00 L 190.00 2922.00 L 315.00 2929.85 L 344.00 2844.10 L 342.00 2844.00 L 262.00 2844.00 L 242.00 2843.00 Z" stroke-width="1" id="306-33-01" stroke="black"/>
  <path fill="none" d="M 381.00 2934.00 L 569.00 2936.00 L 579.00 2847.00 L 542.00 2847.00 L 522.00 2846.00 L 462.00 2846.00 L 442.00 2845.00 L 362.00 2845.00 L 344.00 2844.10 L 315.00 2929.85 Z" stroke-width="1" id="306-33-02" stroke="black"/>
  <path fill="none" d="M 706.00 2937.45 L 699.00 2848.00 L 642.00 2848.00 L 622.00 2847.00 L 579.00 2847.00 L 569.00 2936.00 Z" stroke-width="1" id="306-33-03" stroke="black"/>
  <path fill="none" d="M 841.00 2938.89 L 864.00 2850.00 L 842.00 2850.00 L 822.00 2849.00 L 742.00 2849.00 L 722.00 2848.00 L 699.00 2848.00 L 706.00 2937.45 Z" stroke-width="1" id="306-33-04" stroke="black"/>
  <path fill="none" d="M 919.00 2939.72 L 950.00 2851.00 L 942.00 2851.00 L 922.00 2850.00 L 864.00 2850.00 L 841.00 2938.89 Z" stroke-width="1" id="306-33-05" stroke="black"/>
  <path fill="none" d="M 1228.00 2943.00 L 1217.32 2961.77 L 1222.00 2962.00 L 1242.00 2942.00 L 1262.00 2922.00 L 1282.00 2923.00 L 1286.00 2923.00 L 1291.00 2874.00 L 1262.00 2874.00 L 1242.00 2854.00 L 1222.00 2854.00 L 1202.00 2853.00 L 1122.00 2853.00 L 1102.00 2852.00 L 1022.00 2852.00 L 1002.00 2851.00 L 950.00 2851.00 L 919.00 2939.72 Z" stroke-width="1" id="306-33-06" stroke="black"/>
  <path fill="none" d="M 1302.00 2923.00 L 1322.00 2922.00 L 1342.00 2928.00 L 1362.00 2928.00 L 1382.00 2932.00 L 1402.00 2926.00 L 1422.00 2930.00 L 1440.89 2930.00 L 1456.00 2921.00 L 1453.00 2858.00 L 1491.43 2856.47 L 1482.00 2856.00 L 1402.00 2856.00 L 1382.00 2855.00 L 1322.00 2855.00 L 1302.00 2874.00 L 1291.00 2874.00 L 1286.00 2923.00 Z" stroke-width="1" id="306-33-07" stroke="black"/>
  <path fill="none" d="M 1222.00 3020.00 L 1235.09 3021.31 L 1236.00 3019.00 L 1347.00 3014.00 L 1409.00 2949.00 L 1440.89 2930.00 L 1422.00 2930.00 L 1402.00 2926.00 L 1382.00 2932.00 L 1362.00 2928.00 L 1342.00 2928.00 L 1322.00 2922.00 L 1302.00 2923.00 L 1282.00 2923.00 L 1262.00 2922.00 L 1242.00 2942.00 L 1222.00 2962.00 L 1217.32 2961.77 L 1200.32 2991.65 L 1214.00 3016.80 Z" stroke-width="1" id="306-34-01" stroke="black"/>
  <path fill="none" d="M 172.00 3072.00 L 208.00 3089.00 L 261.73 3090.00 L 602.00 3090.00 L 622.00 3092.00 L 708.00 3092.00 L 733.00 3015.85 L 528.00 3019.00 L 225.00 3026.00 Z" stroke-width="1" id="306-35-01" stroke="black"/>
  <path fill="none" d="M 742.00 3092.00 L 762.00 3094.00 L 842.00 3094.00 L 862.00 3096.00 L 882.00 3098.00 L 1102.00 3098.00 L 1108.00 3098.60 L 1138.00 3022.89 L 788.00 3015.00 L 733.00 3015.85 L 708.00 3092.00 Z" stroke-width="1" id="306-35-02" stroke="black"/>
  <path fill="none" d="M 1122.00 3100.00 L 1190.00 3100.00 L 1226.00 3047.00 L 1225.00 3047.00 L 1235.09 3021.31 L 1222.00 3020.00 L 1202.00 3012.00 L 1182.00 3014.00 L 1162.00 3018.00 L 1154.82 3018.00 L 1143.00 3023.00 L 1138.00 3022.89 L 1108.00 3098.60 Z" stroke-width="1" id="306-35-03" stroke="black"/>
  <path fill="none" d="M 1282.00 3100.00 L 1302.00 3098.00 L 1322.00 3098.00 L 1342.00 3094.00 L 1359.56 3094.00 L 1381.00 3047.00 L 1226.00 3047.00 L 1190.00 3100.00 Z" stroke-width="1" id="306-35-04" stroke="black"/>
</svg>
