<?xml version="1.0" encoding="UTF-8"?>
<svg xmlns:xlink="http://www.w3.org/1999/xlink" xmlns="http://www.w3.org/2000/svg" contentScriptType="text/ecmascript" width="1999px" zoomAndPan="magnify" contentStyleType="text/css" viewBox="0 0 1999 3259" height="3259px" preserveAspectRatio="xMidYMid meet" version="1.0">
  <path fill="none" d="M 274.00 95.20 L 187.00 191.00 L 186.39 202.77 L 191.00 203.00 L 231.00 203.00 L 251.00 204.00 L 291.00 204.00 L 311.00 205.00 L 331.00 185.00 L 351.00 205.00 L 371.00 206.00 L 411.00 206.00 L 431.00 207.00 L 471.00 207.00 L 475.00 207.20 L 497.00 125.73 L 370.00 127.00 L 312.00 86.00 L 278.47 92.52 Z" stroke-width="1" id="307-02-01" stroke="black"/>
  <path fill="none" d="M 491.00 208.00 L 551.00 208.00 L 571.00 209.00 L 611.00 209.00 L 631.00 210.00 L 671.00 210.00 L 691.00 211.00 L 731.00 211.00 L 751.00 212.00 L 756.00 212.00 L 789.00 122.06 L 669.00 124.00 L 497.00 125.73 L 475.00 207.20 Z" stroke-width="1" id="307-02-02" stroke="black"/>
  <path fill="none" d="M 791.00 212.00 L 811.00 213.00 L 851.00 213.00 L 871.00 214.00 L 911.00 214.00 L 931.00 215.00 L 971.00 215.00 L 1021.00 118.32 L 789.00 122.06 L 756.00 212.00 Z" stroke-width="1" id="307-02-03" stroke="black"/>
  <path fill="none" d="M 991.00 215.00 L 1011.00 216.00 L 1051.00 216.00 L 1071.00 217.00 L 1111.00 217.00 L 1131.00 218.00 L 1171.00 218.00 L 1191.00 219.00 L 1231.00 219.00 L 1251.00 220.00 L 1271.00 220.00 L 1291.00 215.00 L 1331.00 215.00 L 1351.00 217.00 L 1471.00 217.00 L 1491.00 219.00 L 1545.00 219.00 L 1548.00 140.10 L 1383.00 136.00 L 1103.00 117.00 L 1021.00 118.32 L 971.00 215.00 Z" stroke-width="1" id="307-02-04" stroke="black"/>
  <path fill="none" d="M 1858.00 219.00 L 1854.70 137.00 L 1851.00 137.00 L 1831.00 133.00 L 1731.00 133.00 L 1711.00 137.00 L 1705.17 136.42 L 1705.00 144.00 L 1548.00 140.10 L 1545.00 219.00 Z" stroke-width="1" id="307-02-05" stroke="black"/>
  <path fill="none" d="M 1871.00 219.00 L 1881.00 220.00 L 1963.00 220.00 L 1966.00 178.00 L 1940.70 137.00 L 1854.70 137.00 L 1858.00 219.00 Z" stroke-width="1" id="307-02-06" stroke="black"/>
  <path fill="none" d="M 700.00 362.00 L 704.43 384.00 L 711.00 384.00 L 731.00 383.00 L 831.00 383.00 L 851.00 382.00 L 931.00 382.00 L 951.00 381.00 L 1051.00 381.00 L 1071.00 380.00 L 1171.00 380.00 L 1191.00 379.00 L 1199.00 379.00 L 1210.00 293.00 L 1151.00 293.00 L 1131.00 291.00 L 803.54 291.00 Z" stroke-width="1" id="307-04-02" stroke="black"/>
  <path fill="none" d="M 1271.00 379.00 L 1291.00 378.00 L 1391.00 378.00 L 1411.00 377.00 L 1491.00 377.00 L 1511.00 376.00 L 1564.00 376.00 L 1581.00 279.00 L 1451.00 279.00 L 1431.00 277.00 L 1251.00 277.00 L 1231.00 293.00 L 1210.00 293.00 L 1199.00 379.00 Z" stroke-width="1" id="307-04-03" stroke="black"/>
  <path fill="none" d="M 1611.00 376.00 L 1631.00 375.00 L 1646.00 375.00 L 1719.00 271.40 L 1716.98 267.76 L 1699.00 260.00 L 1699.22 257.00 L 1691.00 257.00 L 1671.00 261.00 L 1631.00 261.00 L 1611.00 267.00 L 1591.00 279.00 L 1581.00 279.00 L 1564.00 376.00 Z" stroke-width="1" id="307-04-04" stroke="black"/>
  <path fill="none" d="M 1731.00 375.00 L 1751.00 374.00 L 1771.00 394.00 L 1811.00 394.00 L 1831.00 374.00 L 1851.00 373.00 L 1903.86 373.00 L 1845.00 323.00 L 1794.93 301.39 L 1791.00 301.00 L 1771.00 299.00 L 1751.00 297.00 L 1731.00 293.00 L 1719.00 271.40 L 1646.00 375.00 Z" stroke-width="1" id="307-04-05" stroke="black"/>
  <path fill="none" d="M 704.43 384.00 L 723.37 478.00 L 820.37 478.00 L 881.00 382.00 L 851.00 382.00 L 831.00 383.00 L 731.00 383.00 L 711.00 384.00 Z" stroke-width="1" id="307-05-01" stroke="black"/>
  <path fill="none" d="M 851.00 478.00 L 871.00 477.00 L 891.00 497.00 L 951.00 497.00 L 971.00 477.00 L 1154.00 477.00 L 1221.00 379.00 L 1191.00 379.00 L 1171.00 380.00 L 1071.00 380.00 L 1051.00 381.00 L 951.00 381.00 L 931.00 382.00 L 881.00 382.00 L 820.37 478.00 Z" stroke-width="1" id="307-05-02" stroke="black"/>
  <path fill="none" d="M 1251.00 477.00 L 1271.00 476.00 L 1337.00 476.00 L 1371.00 378.00 L 1291.00 378.00 L 1271.00 379.00 L 1221.00 379.00 L 1154.00 477.00 Z" stroke-width="1" id="307-05-03" stroke="black"/>
  <path fill="none" d="M 1574.00 476.00 L 1596.00 376.00 L 1511.00 376.00 L 1491.00 377.00 L 1411.00 377.00 L 1391.00 378.00 L 1371.00 378.00 L 1337.00 476.00 Z" stroke-width="1" id="307-05-04" stroke="black"/>
  <path fill="none" d="M 1651.00 476.00 L 1671.00 475.00 L 1771.00 475.00 L 1783.00 394.00 L 1771.00 394.00 L 1751.00 374.00 L 1731.00 375.00 L 1631.00 375.00 L 1611.00 376.00 L 1596.00 376.00 L 1574.00 476.00 Z" stroke-width="1" id="307-05-05" stroke="black"/>
  <path fill="none" d="M 1850.00 475.00 L 1876.86 373.00 L 1851.00 373.00 L 1831.00 374.00 L 1811.00 394.00 L 1783.00 394.00 L 1771.00 475.00 Z" stroke-width="1" id="307-05-06" stroke="black"/>
  <path fill="none" d="M 1946.17 475.00 L 1938.00 402.00 L 1903.86 373.00 L 1876.86 373.00 L 1850.00 475.00 Z" stroke-width="1" id="307-05-07" stroke="black"/>
  <path fill="none" d="M 219.00 538.00 L 210.89 579.00 L 251.00 579.00 L 271.00 578.00 L 289.00 578.00 L 354.00 495.16 L 263.00 497.00 Z" stroke-width="1" id="307-06-01" stroke="black"/>
  <path fill="none" d="M 471.00 578.00 L 487.00 577.20 L 487.00 570.00 L 542.30 577.00 L 610.30 577.00 L 635.00 493.26 L 559.00 491.00 L 354.00 495.16 L 289.00 578.00 Z" stroke-width="1" id="307-06-02" stroke="black"/>
  <path fill="none" d="M 679.30 577.00 L 712.00 495.55 L 635.00 493.26 L 610.30 577.00 Z" stroke-width="1" id="307-06-03" stroke="black"/>
  <path fill="none" d="M 691.00 577.00 L 711.00 576.00 L 873.00 576.00 L 932.00 497.00 L 891.00 497.00 L 871.00 477.00 L 851.00 478.00 L 723.37 478.00 L 727.00 496.00 L 712.00 495.55 L 679.30 577.00 Z" stroke-width="1" id="307-06-04" stroke="black"/>
  <path fill="none" d="M 891.00 576.00 L 911.00 575.00 L 953.00 575.00 L 1006.00 477.00 L 971.00 477.00 L 951.00 497.00 L 932.00 497.00 L 873.00 576.00 Z" stroke-width="1" id="307-06-05" stroke="black"/>
  <path fill="none" d="M 1111.00 575.00 L 1131.00 574.00 L 1263.00 574.00 L 1282.00 476.00 L 1271.00 476.00 L 1251.00 477.00 L 1006.00 477.00 L 953.00 575.00 Z" stroke-width="1" id="307-06-06" stroke="black"/>
  <path fill="none" d="M 1271.00 574.00 L 1274.00 577.00 L 1308.00 577.00 L 1311.00 574.00 L 1331.00 574.00 L 1351.00 573.00 L 1373.63 573.00 L 1377.63 572.74 L 1381.00 476.00 L 1282.00 476.00 L 1263.00 574.00 Z" stroke-width="1" id="307-06-07" stroke="black"/>
  <path fill="none" d="M 1432.63 569.23 L 1496.00 476.00 L 1381.00 476.00 L 1377.63 572.74 Z" stroke-width="1" id="307-06-08" stroke="black"/>
  <path fill="none" d="M 1863.63 541.71 L 1876.17 475.00 L 1671.00 475.00 L 1651.00 476.00 L 1496.00 476.00 L 1432.63 569.23 Z" stroke-width="1" id="307-06-09" stroke="black"/>
  <path fill="none" d="M 1953.00 536.00 L 1946.17 475.00 L 1876.17 475.00 L 1863.63 541.71 Z" stroke-width="1" id="307-06-10" stroke="black"/>
  <path fill="none" d="M 210.89 579.00 L 201.00 629.00 L 190.39 649.00 L 371.00 649.00 L 391.00 648.00 L 487.00 648.00 L 487.00 577.20 L 487.00 577.20 L 471.00 578.00 L 271.00 578.00 L 251.00 579.00 Z" stroke-width="1" id="307-07-01" stroke="black"/>
  <path fill="none" d="M 99.40 697.96 L 60.00 796.00 L 141.00 795.37 L 192.00 715.20 L 191.00 715.00 L 171.00 687.00 L 151.00 683.00 L 142.27 683.00 L 124.03 685.79 L 111.00 691.00 Z" stroke-width="1" id="307-09-01" stroke="black"/>
  <path fill="none" d="M 303.00 821.78 L 331.00 727.00 L 311.00 725.00 L 271.00 725.00 L 251.00 721.00 L 244.00 721.00 L 196.00 796.86 Z" stroke-width="1" id="307-09-02" stroke="black"/>
  <path fill="none" d="M 407.00 846.00 L 424.14 844.86 L 431.00 838.00 L 527.64 838.00 L 628.64 831.30 L 693.00 731.00 L 671.00 731.00 L 651.00 729.00 L 611.00 729.00 L 591.00 727.00 L 431.00 727.00 L 411.00 729.00 L 371.00 729.00 L 351.00 727.00 L 331.00 727.00 L 303.00 821.78 Z" stroke-width="1" id="307-09-03" stroke="black"/>
  <path fill="none" d="M 784.00 821.00 L 772.13 837.00 L 871.00 837.00 L 891.00 836.00 L 1057.00 836.00 L 1112.00 733.00 L 1111.00 733.00 L 1091.00 731.00 L 693.00 731.00 L 628.64 831.30 Z" stroke-width="1" id="307-09-04" stroke="black"/>
  <path fill="none" d="M 1141.00 836.00 L 1209.00 733.00 L 1112.00 733.00 L 1057.00 836.00 Z" stroke-width="1" id="307-09-05" stroke="black"/>
  <path fill="none" d="M 1151.00 836.00 L 1171.00 835.00 L 1300.00 835.00 L 1302.60 726.40 L 1284.59 726.28 L 1271.00 729.00 L 1251.00 733.00 L 1209.00 733.00 L 1141.00 836.00 Z" stroke-width="1" id="307-09-06" stroke="black"/>
  <path fill="none" d="M 1351.00 835.00 L 1371.00 855.00 L 1391.00 835.00 L 1431.00 835.00 L 1451.00 834.00 L 1611.00 834.00 L 1645.00 729.00 L 1551.00 729.00 L 1540.79 727.98 L 1393.00 727.00 L 1331.00 727.00 L 1326.60 726.56 L 1302.60 726.40 L 1300.00 835.00 Z" stroke-width="1" id="307-09-07" stroke="black"/>
  <path fill="none" d="M 1711.00 834.00 L 1731.00 833.00 L 1922.92 833.00 L 1929.00 806.00 L 1957.00 773.00 L 1944.00 742.00 L 1733.31 731.00 L 1731.00 731.00 L 1728.48 730.75 L 1695.00 729.00 L 1645.00 729.00 L 1611.00 834.00 Z" stroke-width="1" id="307-09-08" stroke="black"/>
  <path fill="none" d="M 772.13 837.00 L 703.36 929.72 L 711.00 945.00 L 751.00 945.00 L 771.00 925.00 L 791.00 905.00 L 831.00 905.00 L 851.00 904.00 L 880.00 904.00 L 888.00 836.15 L 871.00 837.00 Z" stroke-width="1" id="307-10-01" stroke="black"/>
  <path fill="none" d="M 985.00 904.00 L 1001.00 836.00 L 891.00 836.00 L 888.00 836.15 L 880.00 904.00 Z" stroke-width="1" id="307-10-02" stroke="black"/>
  <path fill="none" d="M 1031.00 904.00 L 1045.00 903.30 L 1082.00 836.00 L 1001.00 836.00 L 985.00 904.00 Z" stroke-width="1" id="307-10-03" stroke="black"/>
  <path fill="none" d="M 1051.00 903.00 L 1091.00 903.00 L 1103.00 915.00 L 1177.00 835.00 L 1171.00 835.00 L 1151.00 836.00 L 1082.00 836.00 L 1045.00 903.30 Z" stroke-width="1" id="307-10-04" stroke="black"/>
  <path fill="none" d="M 1111.00 923.00 L 1151.00 923.00 L 1171.00 903.00 L 1231.00 903.00 L 1251.00 902.00 L 1431.00 902.00 L 1451.00 941.00 L 1471.00 921.00 L 1491.00 921.00 L 1511.00 901.00 L 1517.00 834.00 L 1451.00 834.00 L 1431.00 835.00 L 1391.00 835.00 L 1371.00 855.00 L 1351.00 835.00 L 1177.00 835.00 L 1103.00 915.00 Z" stroke-width="1" id="307-10-05" stroke="black"/>
  <path fill="none" d="M 1611.00 901.00 L 1631.00 921.00 L 1651.00 900.00 L 1722.00 900.00 L 1754.92 833.00 L 1731.00 833.00 L 1711.00 834.00 L 1517.00 834.00 L 1511.00 901.00 Z" stroke-width="1" id="307-10-06" stroke="black"/>
  <path fill="none" d="M 1731.00 900.00 L 1751.00 920.00 L 1771.00 920.00 L 1791.00 900.00 L 1796.00 900.00 L 1832.92 833.00 L 1754.92 833.00 L 1722.00 900.00 Z" stroke-width="1" id="307-10-07" stroke="black"/>
  <path fill="none" d="M 1831.00 900.00 L 1851.00 899.00 L 1926.43 899.00 L 1913.00 877.00 L 1922.92 833.00 L 1832.92 833.00 L 1796.00 900.00 Z" stroke-width="1" id="307-10-08" stroke="black"/>
  <path fill="none" d="M 233.00 931.00 L 206.00 976.00 L 205.61 994.00 L 231.00 994.00 L 251.00 993.00 L 271.00 1013.00 L 291.00 1033.00 L 311.00 1013.00 L 351.00 1013.00 L 371.00 993.00 L 431.00 993.00 L 451.00 992.00 L 482.00 992.00 L 484.00 926.45 Z" stroke-width="1" id="307-11-01" stroke="black"/>
  <path fill="none" d="M 564.00 992.00 L 576.00 931.40 L 509.00 926.00 L 484.00 926.45 L 482.00 992.00 Z" stroke-width="1" id="307-11-02" stroke="black"/>
  <path fill="none" d="M 631.00 992.00 L 651.00 991.00 L 731.00 991.00 L 740.00 1009.00 L 825.00 905.00 L 791.00 905.00 L 771.00 925.00 L 751.00 945.00 L 711.00 945.00 L 703.36 929.72 L 695.00 941.00 L 576.00 931.40 L 564.00 992.00 Z" stroke-width="1" id="307-11-03" stroke="black"/>
  <path fill="none" d="M 751.00 1031.00 L 771.00 1031.00 L 791.00 1011.00 L 811.00 991.00 L 831.00 991.00 L 851.00 990.00 L 918.00 990.00 L 956.00 904.00 L 851.00 904.00 L 831.00 905.00 L 825.00 905.00 L 740.00 1009.00 Z" stroke-width="1" id="307-11-04" stroke="black"/>
  <path fill="none" d="M 1031.00 990.00 L 1051.00 989.00 L 1071.00 999.00 L 1091.00 1003.00 L 1111.00 999.00 L 1131.00 995.00 L 1161.00 995.00 L 1201.00 903.00 L 1171.00 903.00 L 1151.00 923.00 L 1111.00 923.00 L 1091.00 903.00 L 1051.00 903.00 L 1031.00 904.00 L 956.00 904.00 L 918.00 990.00 Z" stroke-width="1" id="307-11-05" stroke="black"/>
  <path fill="none" d="M 1191.00 995.00 L 1211.00 989.00 L 1231.00 989.00 L 1251.00 988.00 L 1341.00 988.00 L 1371.00 902.00 L 1251.00 902.00 L 1231.00 903.00 L 1201.00 903.00 L 1161.00 995.00 Z" stroke-width="1" id="307-11-06" stroke="black"/>
  <path fill="none" d="M 1431.00 988.00 L 1451.00 987.00 L 1468.00 987.00 L 1458.00 934.00 L 1451.00 941.00 L 1431.00 902.00 L 1371.00 902.00 L 1341.00 988.00 Z" stroke-width="1" id="307-11-07" stroke="black"/>
  <path fill="none" d="M 1521.00 987.00 L 1569.00 901.00 L 1511.00 901.00 L 1491.00 921.00 L 1471.00 921.00 L 1458.00 934.00 L 1468.00 987.00 Z" stroke-width="1" id="307-11-08" stroke="black"/>
  <path fill="none" d="M 1631.00 987.00 L 1633.00 986.90 L 1631.00 921.00 L 1611.00 901.00 L 1569.00 901.00 L 1521.00 987.00 Z" stroke-width="1" id="307-11-09" stroke="black"/>
  <path fill="none" d="M 1651.00 986.00 L 1758.00 986.00 L 1818.00 900.00 L 1791.00 900.00 L 1771.00 920.00 L 1751.00 920.00 L 1731.00 900.00 L 1651.00 900.00 L 1631.00 921.00 L 1633.00 986.90 Z" stroke-width="1" id="307-11-10" stroke="black"/>
  <path fill="none" d="M 1831.00 986.00 L 1851.00 985.00 L 1957.35 985.00 L 1958.00 976.00 L 1960.00 954.00 L 1926.43 899.00 L 1851.00 899.00 L 1831.00 900.00 L 1818.00 900.00 L 1758.00 986.00 Z" stroke-width="1" id="307-11-11" stroke="black"/>
  <path fill="none" d="M 205.61 994.00 L 203.96 1071.35 L 211.00 1071.00 L 331.00 1071.00 L 337.00 1070.70 L 348.00 1013.00 L 311.00 1013.00 L 291.00 1033.00 L 271.00 1013.00 L 251.00 993.00 L 231.00 994.00 Z" stroke-width="1" id="307-12-01" stroke="black"/>
  <path fill="none" d="M 351.00 1070.00 L 461.00 1070.00 L 485.00 992.00 L 451.00 992.00 L 431.00 993.00 L 371.00 993.00 L 351.00 1013.00 L 348.00 1013.00 L 337.00 1070.70 Z" stroke-width="1" id="307-12-02" stroke="black"/>
  <path fill="none" d="M 491.00 1070.00 L 511.00 1069.00 L 531.00 1089.00 L 551.00 1089.00 L 571.00 1069.00 L 622.00 1069.00 L 652.00 991.00 L 651.00 991.00 L 631.00 992.00 L 485.00 992.00 L 461.00 1070.00 Z" stroke-width="1" id="307-12-03" stroke="black"/>
  <path fill="none" d="M 631.00 1069.00 L 651.00 1068.00 L 764.00 1068.00 L 760.00 1031.00 L 751.00 1031.00 L 731.00 991.00 L 652.00 991.00 L 622.00 1069.00 Z" stroke-width="1" id="307-12-04" stroke="black"/>
  <path fill="none" d="M 771.00 1068.00 L 791.00 1067.00 L 931.00 1067.00 L 946.00 1066.25 L 951.00 990.00 L 851.00 990.00 L 831.00 991.00 L 811.00 991.00 L 791.00 1011.00 L 771.00 1031.00 L 760.00 1031.00 L 764.00 1068.00 Z" stroke-width="1" id="307-12-05" stroke="black"/>
  <path fill="none" d="M 1011.00 1066.00 L 1031.00 1086.00 L 1051.00 1086.00 L 1071.00 1081.00 L 1072.00 1081.00 L 1138.00 995.00 L 1131.00 995.00 L 1111.00 999.00 L 1091.00 1003.00 L 1071.00 999.00 L 1051.00 989.00 L 1048.00 989.15 L 987.00 1066.00 Z" stroke-width="1" id="307-12-06" stroke="black"/>
  <path fill="none" d="M 1111.00 1081.00 L 1131.00 1083.00 L 1151.00 1107.00 L 1171.00 1103.00 L 1191.00 1093.00 L 1203.00 1094.20 L 1290.00 988.00 L 1251.00 988.00 L 1231.00 989.00 L 1211.00 989.00 L 1191.00 995.00 L 1138.00 995.00 L 1072.00 1081.00 Z" stroke-width="1" id="307-12-07" stroke="black"/>
  <path fill="none" d="M 1211.00 1095.00 L 1231.00 1097.00 L 1251.00 1099.00 L 1291.00 1099.00 L 1311.00 1083.00 L 1331.00 1073.00 L 1351.00 1069.00 L 1371.00 1065.00 L 1379.00 1065.00 L 1420.00 988.00 L 1290.00 988.00 L 1203.00 1094.20 Z" stroke-width="1" id="307-12-08" stroke="black"/>
  <path fill="none" d="M 1411.00 1065.00 L 1431.00 1063.00 L 1471.00 1063.00 L 1491.00 1083.00 L 1511.00 1083.00 L 1531.00 1062.00 L 1651.00 1062.00 L 1671.00 1061.00 L 1718.00 1061.00 L 1749.00 986.00 L 1651.00 986.00 L 1631.00 987.00 L 1451.00 987.00 L 1431.00 988.00 L 1420.00 988.00 L 1379.00 1065.00 Z" stroke-width="1" id="307-12-09" stroke="black"/>
  <path fill="none" d="M 1774.00 1061.00 L 1795.00 986.00 L 1749.00 986.00 L 1718.00 1061.00 Z" stroke-width="1" id="307-12-10" stroke="black"/>
  <path fill="none" d="M 1811.00 1061.00 L 1831.00 1060.00 L 1951.00 1060.00 L 1951.95 1059.94 L 1957.35 985.00 L 1851.00 985.00 L 1831.00 986.00 L 1795.00 986.00 L 1774.00 1061.00 Z" stroke-width="1" id="307-12-11" stroke="black"/>
  <path fill="none" d="M 203.96 1071.35 L 203.00 1116.00 L 201.59 1170.59 L 211.00 1180.00 L 231.00 1180.00 L 251.00 1160.00 L 254.00 1160.00 L 317.00 1071.00 L 211.00 1071.00 Z" stroke-width="1" id="307-13-01" stroke="black"/>
  <path fill="none" d="M 311.00 1160.00 L 331.00 1159.00 L 403.00 1159.00 L 436.00 1070.00 L 351.00 1070.00 L 331.00 1071.00 L 317.00 1071.00 L 254.00 1160.00 Z" stroke-width="1" id="307-13-02" stroke="black"/>
  <path fill="none" d="M 451.00 1159.00 L 471.00 1158.00 L 591.00 1158.00 L 611.00 1157.00 L 731.00 1157.00 L 751.00 1156.00 L 871.00 1156.00 L 884.00 1155.35 L 934.00 1066.85 L 931.00 1067.00 L 791.00 1067.00 L 771.00 1068.00 L 651.00 1068.00 L 631.00 1069.00 L 571.00 1069.00 L 551.00 1089.00 L 531.00 1089.00 L 511.00 1069.00 L 491.00 1070.00 L 436.00 1070.00 L 403.00 1159.00 Z" stroke-width="1" id="307-13-03" stroke="black"/>
  <path fill="none" d="M 891.00 1155.00 L 911.00 1175.00 L 931.00 1155.00 L 945.00 1155.00 L 1015.00 1070.00 L 1011.00 1066.00 L 951.00 1066.00 L 934.00 1066.85 L 884.00 1155.35 Z" stroke-width="1" id="307-13-04" stroke="black"/>
  <path fill="none" d="M 1011.00 1155.00 L 1031.00 1154.00 L 1036.00 1159.00 L 1096.00 1081.00 L 1071.00 1081.00 L 1051.00 1086.00 L 1031.00 1086.00 L 1015.00 1070.00 L 945.00 1155.00 Z" stroke-width="1" id="307-13-05" stroke="black"/>
  <path fill="none" d="M 1051.00 1174.00 L 1071.00 1174.00 L 1091.00 1154.00 L 1131.00 1154.00 L 1151.00 1174.00 L 1171.00 1173.00 L 1191.00 1173.00 L 1211.00 1153.00 L 1226.00 1153.00 L 1248.00 1098.70 L 1231.00 1097.00 L 1211.00 1095.00 L 1191.00 1093.00 L 1171.00 1103.00 L 1151.00 1107.00 L 1131.00 1083.00 L 1111.00 1081.00 L 1096.00 1081.00 L 1036.00 1159.00 Z" stroke-width="1" id="307-13-06" stroke="black"/>
  <path fill="none" d="M 1291.00 1153.00 L 1311.00 1152.00 L 1391.00 1152.00 L 1395.00 1156.00 L 1491.00 1083.00 L 1471.00 1063.00 L 1431.00 1063.00 L 1411.00 1065.00 L 1371.00 1065.00 L 1351.00 1069.00 L 1331.00 1073.00 L 1311.00 1083.00 L 1291.00 1099.00 L 1251.00 1099.00 L 1248.00 1098.70 L 1226.00 1153.00 Z" stroke-width="1" id="307-13-07" stroke="black"/>
  <path fill="none" d="M 1411.00 1172.00 L 1431.00 1172.00 L 1451.00 1171.00 L 1471.00 1151.00 L 1571.00 1151.00 L 1591.00 1150.00 L 1605.00 1150.00 L 1612.00 1062.00 L 1531.00 1062.00 L 1511.00 1083.00 L 1491.00 1083.00 L 1395.00 1156.00 Z" stroke-width="1" id="307-13-08" stroke="black"/>
  <path fill="none" d="M 1711.00 1150.00 L 1731.00 1149.00 L 1851.00 1149.00 L 1871.00 1148.00 L 1956.40 1148.00 L 1950.00 1087.00 L 1951.95 1059.94 L 1951.00 1060.00 L 1831.00 1060.00 L 1811.00 1061.00 L 1671.00 1061.00 L 1651.00 1062.00 L 1612.00 1062.00 L 1605.00 1150.00 Z" stroke-width="1" id="307-13-09" stroke="black"/>
  <path fill="none" d="M 201.59 1170.59 L 199.34 1257.34 L 211.00 1269.00 L 231.00 1269.00 L 251.00 1249.00 L 369.00 1249.00 L 425.00 1159.00 L 331.00 1159.00 L 311.00 1160.00 L 251.00 1160.00 L 231.00 1180.00 L 211.00 1180.00 Z" stroke-width="1" id="307-14-01" stroke="black"/>
  <path fill="none" d="M 557.00 1249.00 L 574.00 1158.00 L 471.00 1158.00 L 451.00 1159.00 L 425.00 1159.00 L 369.00 1249.00 Z" stroke-width="1" id="307-14-02" stroke="black"/>
  <path fill="none" d="M 711.00 1249.00 L 731.00 1248.00 L 811.00 1248.00 L 817.00 1260.00 L 853.00 1156.00 L 751.00 1156.00 L 731.00 1157.00 L 611.00 1157.00 L 591.00 1158.00 L 574.00 1158.00 L 557.00 1249.00 Z" stroke-width="1" id="307-14-03" stroke="black"/>
  <path fill="none" d="M 831.00 1288.00 L 851.00 1288.00 L 871.00 1268.00 L 891.00 1248.00 L 1005.00 1248.00 L 1008.00 1155.00 L 931.00 1155.00 L 911.00 1175.00 L 891.00 1155.00 L 871.00 1156.00 L 853.00 1156.00 L 817.00 1260.00 Z" stroke-width="1" id="307-14-04" stroke="black"/>
  <path fill="none" d="M 1140.00 1248.00 L 1174.00 1173.00 L 1171.00 1173.00 L 1151.00 1174.00 L 1131.00 1154.00 L 1091.00 1154.00 L 1071.00 1174.00 L 1051.00 1174.00 L 1031.00 1154.00 L 1011.00 1155.00 L 1008.00 1155.00 L 1005.00 1248.00 Z" stroke-width="1" id="307-14-05" stroke="black"/>
  <path fill="none" d="M 1211.00 1248.00 L 1218.00 1255.00 L 1293.00 1152.90 L 1291.00 1153.00 L 1211.00 1153.00 L 1191.00 1173.00 L 1174.00 1173.00 L 1140.00 1248.00 Z" stroke-width="1" id="307-14-06" stroke="black"/>
  <path fill="none" d="M 1231.00 1268.00 L 1251.00 1248.00 L 1371.00 1248.00 L 1391.00 1247.00 L 1526.00 1247.00 L 1582.00 1150.45 L 1571.00 1151.00 L 1471.00 1151.00 L 1451.00 1171.00 L 1431.00 1172.00 L 1411.00 1172.00 L 1391.00 1152.00 L 1311.00 1152.00 L 1293.00 1152.90 L 1218.00 1255.00 Z" stroke-width="1" id="307-14-07" stroke="black"/>
  <path fill="none" d="M 1531.00 1247.00 L 1551.00 1267.00 L 1571.00 1267.00 L 1591.00 1247.00 L 1622.00 1247.00 L 1630.00 1150.00 L 1591.00 1150.00 L 1582.00 1150.45 L 1526.00 1247.00 Z" stroke-width="1" id="307-14-08" stroke="black"/>
  <path fill="none" d="M 1687.00 1247.00 L 1687.00 1150.00 L 1630.00 1150.00 L 1622.00 1247.00 Z" stroke-width="1" id="307-14-09" stroke="black"/>
  <path fill="none" d="M 1812.00 1247.00 L 1863.00 1148.40 L 1851.00 1149.00 L 1731.00 1149.00 L 1711.00 1150.00 L 1687.00 1150.00 L 1687.00 1247.00 Z" stroke-width="1" id="307-14-10" stroke="black"/>
  <path fill="none" d="M 1957.80 1247.00 L 1963.00 1211.00 L 1956.40 1148.00 L 1871.00 1148.00 L 1863.00 1148.40 L 1812.00 1247.00 Z" stroke-width="1" id="307-14-11" stroke="black"/>
  <path fill="none" d="M 199.34 1257.34 L 197.57 1326.00 L 318.57 1326.00 L 398.00 1249.00 L 251.00 1249.00 L 231.00 1269.00 L 211.00 1269.00 Z" stroke-width="1" id="307-15-01" stroke="black"/>
  <path fill="none" d="M 371.00 1326.00 L 391.00 1346.00 L 411.00 1341.00 L 431.00 1341.00 L 474.00 1249.00 L 398.00 1249.00 L 318.57 1326.00 Z" stroke-width="1" id="307-15-02" stroke="black"/>
  <path fill="none" d="M 451.00 1366.00 L 471.00 1366.00 L 491.00 1346.00 L 511.00 1326.00 L 591.00 1326.00 L 611.00 1327.00 L 616.00 1327.00 L 645.00 1249.00 L 474.00 1249.00 L 431.00 1341.00 Z" stroke-width="1" id="307-15-03" stroke="black"/>
  <path fill="none" d="M 733.00 1327.00 L 750.00 1248.00 L 731.00 1248.00 L 711.00 1249.00 L 645.00 1249.00 L 616.00 1327.00 Z" stroke-width="1" id="307-15-04" stroke="black"/>
  <path fill="none" d="M 808.00 1327.00 L 831.00 1288.00 L 811.00 1248.00 L 750.00 1248.00 L 733.00 1327.00 Z" stroke-width="1" id="307-15-05" stroke="black"/>
  <path fill="none" d="M 945.00 1327.00 L 968.00 1248.00 L 891.00 1248.00 L 871.00 1268.00 L 851.00 1288.00 L 831.00 1288.00 L 808.00 1327.00 Z" stroke-width="1" id="307-15-06" stroke="black"/>
  <path fill="none" d="M 1113.00 1327.00 L 1145.00 1248.00 L 968.00 1248.00 L 945.00 1327.00 Z" stroke-width="1" id="307-15-07" stroke="black"/>
  <path fill="none" d="M 1151.00 1327.00 L 1171.00 1328.00 L 1244.00 1328.00 L 1278.00 1248.00 L 1251.00 1248.00 L 1231.00 1268.00 L 1211.00 1248.00 L 1145.00 1248.00 L 1113.00 1327.00 Z" stroke-width="1" id="307-15-08" stroke="black"/>
  <path fill="none" d="M 1311.00 1328.00 L 1331.00 1348.00 L 1411.00 1348.00 L 1431.00 1328.00 L 1593.00 1328.00 L 1611.80 1247.00 L 1591.00 1247.00 L 1571.00 1267.00 L 1551.00 1267.00 L 1531.00 1247.00 L 1391.00 1247.00 L 1371.00 1248.00 L 1278.00 1248.00 L 1244.00 1328.00 Z" stroke-width="1" id="307-15-09" stroke="black"/>
  <path fill="none" d="M 1677.00 1328.00 L 1694.80 1247.00 L 1611.80 1247.00 L 1593.00 1328.00 Z" stroke-width="1" id="307-15-10" stroke="black"/>
  <path fill="none" d="M 1711.00 1328.00 L 1731.00 1329.00 L 1798.00 1329.00 L 1826.80 1247.00 L 1694.80 1247.00 L 1677.00 1328.00 Z" stroke-width="1" id="307-15-11" stroke="black"/>
  <path fill="none" d="M 1952.56 1329.00 L 1951.00 1294.00 L 1957.80 1247.00 L 1826.80 1247.00 L 1798.00 1329.00 Z" stroke-width="1" id="307-15-12" stroke="black"/>
  <path fill="none" d="M 197.57 1326.00 L 195.40 1410.00 L 281.40 1410.00 L 308.00 1326.00 Z" stroke-width="1" id="307-16-01" stroke="black"/>
  <path fill="none" d="M 438.40 1410.00 L 459.00 1366.00 L 451.00 1366.00 L 431.00 1341.00 L 411.00 1341.00 L 391.00 1346.00 L 371.00 1326.00 L 308.00 1326.00 L 281.40 1410.00 Z" stroke-width="1" id="307-16-02" stroke="black"/>
  <path fill="none" d="M 625.40 1410.00 L 628.00 1327.00 L 611.00 1327.00 L 591.00 1326.00 L 511.00 1326.00 L 491.00 1346.00 L 471.00 1366.00 L 459.00 1366.00 L 438.40 1410.00 Z" stroke-width="1" id="307-16-03" stroke="black"/>
  <path fill="none" d="M 631.00 1410.00 L 651.00 1409.00 L 751.00 1409.00 L 771.00 1429.00 L 791.00 1429.00 L 811.00 1409.00 L 850.00 1327.00 L 628.00 1327.00 L 625.40 1410.00 Z" stroke-width="1" id="307-16-04" stroke="black"/>
  <path fill="none" d="M 962.00 1409.00 L 990.00 1327.00 L 850.00 1327.00 L 811.00 1409.00 Z" stroke-width="1" id="307-16-05" stroke="black"/>
  <path fill="none" d="M 1211.00 1409.00 L 1252.00 1328.00 L 1171.00 1328.00 L 1151.00 1327.00 L 990.00 1327.00 L 962.00 1409.00 Z" stroke-width="1" id="307-16-06" stroke="black"/>
  <path fill="none" d="M 1231.00 1409.00 L 1251.00 1408.00 L 1339.00 1408.00 L 1364.00 1348.00 L 1331.00 1348.00 L 1311.00 1328.00 L 1252.00 1328.00 L 1211.00 1409.00 Z" stroke-width="1" id="307-16-07" stroke="black"/>
  <path fill="none" d="M 1596.00 1408.00 L 1640.00 1328.00 L 1431.00 1328.00 L 1411.00 1348.00 L 1364.00 1348.00 L 1339.00 1408.00 Z" stroke-width="1" id="307-16-08" stroke="black"/>
  <path fill="none" d="M 1651.00 1408.00 L 1671.00 1428.00 L 1711.00 1428.00 L 1731.00 1408.00 L 1831.00 1408.00 L 1851.00 1407.00 L 1874.00 1407.00 L 1899.56 1329.00 L 1731.00 1329.00 L 1711.00 1328.00 L 1640.00 1328.00 L 1596.00 1408.00 Z" stroke-width="1" id="307-16-09" stroke="black"/>
  <path fill="none" d="M 1956.05 1407.00 L 1952.56 1329.00 L 1899.56 1329.00 L 1874.00 1407.00 Z" stroke-width="1" id="307-16-10" stroke="black"/>
  <path fill="none" d="M 195.40 1410.00 L 194.00 1464.00 L 193.82 1500.00 L 573.82 1500.00 L 579.00 1410.00 Z" stroke-width="1" id="307-17-01" stroke="black"/>
  <path fill="none" d="M 651.00 1500.00 L 671.00 1501.00 L 677.00 1501.00 L 718.00 1409.00 L 651.00 1409.00 L 631.00 1410.00 L 579.00 1410.00 L 573.82 1500.00 Z" stroke-width="1" id="307-17-02" stroke="black"/>
  <path fill="none" d="M 855.00 1501.00 L 874.00 1409.00 L 811.00 1409.00 L 791.00 1429.00 L 771.00 1429.00 L 751.00 1409.00 L 718.00 1409.00 L 677.00 1501.00 Z" stroke-width="1" id="307-17-03" stroke="black"/>
  <path fill="none" d="M 911.00 1501.00 L 920.00 1519.00 L 983.00 1409.00 L 874.00 1409.00 L 855.00 1501.00 Z" stroke-width="1" id="307-17-04" stroke="black"/>
  <path fill="none" d="M 931.00 1541.00 L 951.00 1541.00 L 971.00 1521.00 L 991.00 1501.00 L 1098.00 1501.00 L 1124.00 1409.00 L 983.00 1409.00 L 920.00 1519.00 Z" stroke-width="1" id="307-17-05" stroke="black"/>
  <path fill="none" d="M 1271.00 1501.00 L 1291.00 1502.00 L 1347.00 1502.00 L 1367.00 1408.00 L 1251.00 1408.00 L 1231.00 1409.00 L 1124.00 1409.00 L 1098.00 1501.00 Z" stroke-width="1" id="307-17-06" stroke="black"/>
  <path fill="none" d="M 1444.00 1502.00 L 1470.00 1408.00 L 1367.00 1408.00 L 1347.00 1502.00 Z" stroke-width="1" id="307-17-07" stroke="black"/>
  <path fill="none" d="M 1771.00 1502.00 L 1791.00 1522.00 L 1811.00 1502.00 L 1828.00 1502.00 L 1846.00 1407.25 L 1831.00 1408.00 L 1731.00 1408.00 L 1711.00 1428.00 L 1671.00 1428.00 L 1651.00 1408.00 L 1470.00 1408.00 L 1444.00 1502.00 Z" stroke-width="1" id="307-17-08" stroke="black"/>
  <path fill="none" d="M 1831.00 1502.00 L 1851.00 1522.00 L 1871.00 1502.00 L 1891.00 1503.00 L 1954.81 1503.00 L 1959.00 1473.00 L 1956.05 1407.00 L 1851.00 1407.00 L 1846.00 1407.25 L 1828.00 1502.00 Z" stroke-width="1" id="307-17-09" stroke="black"/>
  <path fill="none" d="M 193.82 1500.00 L 193.40 1588.00 L 318.40 1588.00 L 330.00 1500.00 Z" stroke-width="1" id="307-18-01" stroke="black"/>
  <path fill="none" d="M 389.40 1588.00 L 441.00 1500.00 L 330.00 1500.00 L 318.40 1588.00 Z" stroke-width="1" id="307-18-02" stroke="black"/>
  <path fill="none" d="M 411.00 1588.00 L 431.00 1589.00 L 650.00 1589.00 L 663.00 1500.60 L 651.00 1500.00 L 441.00 1500.00 L 389.40 1588.00 Z" stroke-width="1" id="307-18-03" stroke="black"/>
  <path fill="none" d="M 771.00 1589.00 L 791.00 1590.00 L 795.00 1590.00 L 812.00 1501.00 L 671.00 1501.00 L 663.00 1500.60 L 650.00 1589.00 Z" stroke-width="1" id="307-18-04" stroke="black"/>
  <path fill="none" d="M 891.00 1590.00 L 911.00 1610.00 L 951.00 1610.00 L 971.00 1590.00 L 1018.00 1590.00 L 1038.00 1501.00 L 991.00 1501.00 L 971.00 1521.00 L 951.00 1541.00 L 931.00 1541.00 L 911.00 1501.00 L 812.00 1501.00 L 795.00 1590.00 Z" stroke-width="1" id="307-18-05" stroke="black"/>
  <path fill="none" d="M 1090.00 1590.00 L 1128.00 1501.00 L 1038.00 1501.00 L 1018.00 1590.00 Z" stroke-width="1" id="307-18-06" stroke="black"/>
  <path fill="none" d="M 1131.00 1590.00 L 1151.00 1591.00 L 1221.00 1591.00 L 1245.00 1501.00 L 1128.00 1501.00 L 1090.00 1590.00 Z" stroke-width="1" id="307-18-07" stroke="black"/>
  <path fill="none" d="M 1431.00 1591.00 L 1445.13 1605.13 L 1474.95 1607.05 L 1491.00 1591.00 L 1511.00 1592.00 L 1551.00 1592.00 L 1571.00 1612.00 L 1591.00 1612.00 L 1611.00 1592.00 L 1635.00 1592.00 L 1649.00 1502.00 L 1291.00 1502.00 L 1271.00 1501.00 L 1245.00 1501.00 L 1221.00 1591.00 Z" stroke-width="1" id="307-18-08" stroke="black"/>
  <path fill="none" d="M 1796.84 1592.00 L 1821.84 1589.43 L 1803.00 1510.00 L 1791.00 1522.00 L 1771.00 1502.00 L 1649.00 1502.00 L 1635.00 1592.00 Z" stroke-width="1" id="307-18-09" stroke="black"/>
  <path fill="none" d="M 1826.00 1589.00 L 1946.00 1566.00 L 1954.81 1503.00 L 1891.00 1503.00 L 1871.00 1502.00 L 1851.00 1522.00 L 1831.00 1502.00 L 1811.00 1502.00 L 1803.00 1510.00 L 1821.84 1589.43 Z" stroke-width="1" id="307-18-10" stroke="black"/>
  <path fill="none" d="M 193.40 1588.00 L 193.00 1669.00 L 320.00 1670.30 L 348.00 1588.00 Z" stroke-width="1" id="307-19-01" stroke="black"/>
  <path fill="none" d="M 413.00 1671.24 L 434.00 1589.00 L 431.00 1589.00 L 411.00 1588.00 L 348.00 1588.00 L 320.00 1670.30 Z" stroke-width="1" id="307-19-02" stroke="black"/>
  <path fill="none" d="M 584.00 1672.99 L 611.00 1589.00 L 434.00 1589.00 L 413.00 1671.24 Z" stroke-width="1" id="307-19-03" stroke="black"/>
  <path fill="none" d="M 689.00 1674.06 L 708.00 1589.00 L 611.00 1589.00 L 584.00 1672.99 Z" stroke-width="1" id="307-19-04" stroke="black"/>
  <path fill="none" d="M 781.00 1675.00 L 777.57 1680.00 L 811.00 1680.00 L 831.00 1660.00 L 851.00 1700.00 L 871.00 1700.00 L 891.00 1680.00 L 948.00 1680.00 L 1001.00 1590.00 L 971.00 1590.00 L 951.00 1610.00 L 911.00 1610.00 L 891.00 1590.00 L 791.00 1590.00 L 771.00 1589.00 L 708.00 1589.00 L 689.00 1674.06 Z" stroke-width="1" id="307-19-05" stroke="black"/>
  <path fill="none" d="M 1066.00 1680.00 L 1088.00 1590.00 L 1001.00 1590.00 L 948.00 1680.00 Z" stroke-width="1" id="307-19-06" stroke="black"/>
  <path fill="none" d="M 1254.00 1680.00 L 1264.00 1591.00 L 1151.00 1591.00 L 1131.00 1590.00 L 1088.00 1590.00 L 1066.00 1680.00 Z" stroke-width="1" id="307-19-07" stroke="black"/>
  <path fill="none" d="M 777.57 1680.00 L 704.07 1787.15 L 711.00 1801.00 L 731.00 1802.00 L 751.00 1782.00 L 771.00 1767.00 L 791.00 1757.00 L 811.00 1751.00 L 831.00 1739.00 L 851.00 1739.00 L 871.00 1741.00 L 911.00 1741.00 L 931.00 1743.00 L 951.00 1747.00 L 962.00 1748.10 L 1008.00 1680.00 L 891.00 1680.00 L 871.00 1700.00 L 851.00 1700.00 L 831.00 1660.00 L 811.00 1680.00 Z" stroke-width="1" id="307-20-01" stroke="black"/>
  <path fill="none" d="M 971.00 1749.00 L 991.00 1749.00 L 1011.00 1753.00 L 1031.00 1755.00 L 1052.00 1755.00 L 1098.00 1680.00 L 1008.00 1680.00 L 962.00 1748.10 Z" stroke-width="1" id="307-20-02" stroke="black"/>
  <path fill="none" d="M 1171.00 1755.00 L 1191.00 1757.00 L 1531.00 1757.00 L 1531.17 1757.02 L 1540.00 1757.00 L 1546.00 1756.79 L 1561.00 1680.00 L 1098.00 1680.00 L 1052.00 1755.00 Z" stroke-width="1" id="307-20-03" stroke="black"/>
  <path fill="none" d="M 1635.00 1753.69 L 1640.40 1679.00 L 1611.00 1679.00 L 1591.00 1680.00 L 1561.00 1680.00 L 1546.00 1756.79 Z" stroke-width="1" id="307-20-04" stroke="black"/>
  <path fill="none" d="M 1942.00 1743.00 L 1930.00 1682.00 L 1902.40 1679.00 L 1640.40 1679.00 L 1635.00 1753.69 Z" stroke-width="1" id="307-20-05" stroke="black"/>
  <path fill="none" d="M 774.00 1838.00 L 834.00 1836.39 L 872.00 1741.00 L 871.00 1741.00 L 851.00 1739.00 L 831.00 1739.00 L 811.00 1751.00 L 804.00 1753.10 L 737.00 1817.55 Z" stroke-width="1" id="307-21-01" stroke="black"/>
  <path fill="none" d="M 1009.00 1831.69 L 1003.00 1751.40 L 991.00 1749.00 L 971.00 1749.00 L 951.00 1747.00 L 931.00 1743.00 L 911.00 1741.00 L 872.00 1741.00 L 834.00 1836.39 Z" stroke-width="1" id="307-21-02" stroke="black"/>
  <path fill="none" d="M 1207.46 1826.36 L 1221.00 1826.00 L 1156.00 1884.00 L 1159.80 1923.00 L 1191.00 1923.00 L 1211.00 1913.00 L 1251.00 1913.00 L 1271.00 1923.00 L 1338.00 1923.00 L 1348.78 1843.00 L 1271.00 1843.00 L 1251.00 1823.00 L 1211.00 1823.00 Z" stroke-width="1" id="307-22-01" stroke="black"/>
  <path fill="none" d="M 1486.00 1923.00 L 1521.00 1853.04 L 1443.00 1848.00 L 1415.78 1843.00 L 1348.78 1843.00 L 1338.00 1923.00 Z" stroke-width="1" id="307-22-02" stroke="black"/>
  <path fill="none" d="M 1491.00 1923.00 L 1511.00 1933.00 L 1531.00 1923.00 L 1596.00 1923.00 L 1609.00 1858.74 L 1521.00 1853.04 L 1486.00 1923.00 Z" stroke-width="1" id="307-22-03" stroke="black"/>
  <path fill="none" d="M 1711.00 1923.00 L 1731.00 1933.00 L 1742.43 1937.57 L 1861.00 1924.00 L 1845.00 1874.00 L 1609.00 1858.74 L 1596.00 1923.00 Z" stroke-width="1" id="307-22-04" stroke="black"/>
  <path fill="none" d="M 91.41 1996.80 L 51.00 2071.00 L 58.00 2106.00 L 162.00 2106.00 L 190.00 1992.90 L 171.00 1991.00 L 151.00 1991.00 L 131.00 1987.00 L 111.00 1987.00 Z" stroke-width="1" id="307-24-01" stroke="black"/>
  <path fill="none" d="M 281.00 2106.00 L 320.00 2007.00 L 251.00 2007.00 L 231.00 2003.00 L 211.00 1997.00 L 191.00 1993.00 L 190.00 1992.90 L 162.00 2106.00 Z" stroke-width="1" id="307-24-02" stroke="black"/>
  <path fill="none" d="M 711.00 2106.00 L 775.00 2007.00 L 320.00 2007.00 L 281.00 2106.00 Z" stroke-width="1" id="307-24-03" stroke="black"/>
  <path fill="none" d="M 778.00 2106.00 L 768.78 2117.00 L 771.00 2117.00 L 791.00 2097.00 L 851.00 2097.00 L 871.00 2117.00 L 891.00 2117.00 L 911.00 2118.00 L 931.00 2138.00 L 951.00 2118.00 L 1062.00 2118.00 L 1108.00 2001.00 L 1091.00 2001.00 L 1071.00 1999.00 L 951.00 1999.00 L 931.00 1997.00 L 911.00 1997.00 L 891.00 1995.00 L 831.00 1995.00 L 811.00 1999.00 L 791.00 2007.00 L 775.00 2007.00 L 711.00 2106.00 Z" stroke-width="1" id="307-24-04" stroke="black"/>
  <path fill="none" d="M 1191.00 2118.00 L 1211.00 2119.00 L 1244.00 2119.00 L 1294.00 2005.00 L 1231.00 2005.00 L 1211.00 2003.00 L 1171.00 2003.00 L 1151.00 2001.00 L 1108.00 2001.00 L 1062.00 2118.00 Z" stroke-width="1" id="307-24-05" stroke="black"/>
  <path fill="none" d="M 1471.00 2119.00 L 1491.00 2120.00 L 1666.00 2120.00 L 1675.00 2085.25 L 1673.00 2085.00 L 1684.77 2009.00 L 1531.00 2009.00 L 1511.00 2007.00 L 1471.00 2007.00 L 1451.00 2005.00 L 1431.00 2001.00 L 1371.00 2001.00 L 1351.00 2005.00 L 1294.00 2005.00 L 1244.00 2119.00 Z" stroke-width="1" id="307-24-06" stroke="black"/>
  <path fill="none" d="M 768.78 2117.00 L 716.00 2180.00 L 711.78 2180.14 L 731.00 2233.00 L 751.00 2221.00 L 771.00 2221.00 L 791.00 2217.00 L 811.00 2198.00 L 831.00 2179.00 L 928.00 2179.00 L 962.00 2118.00 L 951.00 2118.00 L 931.00 2138.00 L 911.00 2118.00 L 891.00 2117.00 L 871.00 2117.00 L 851.00 2097.00 L 791.00 2097.00 L 771.00 2117.00 Z" stroke-width="1" id="307-25-01" stroke="black"/>
  <path fill="none" d="M 1067.00 2179.00 L 1099.00 2118.00 L 962.00 2118.00 L 928.00 2179.00 Z" stroke-width="1" id="307-25-02" stroke="black"/>
  <path fill="none" d="M 1211.00 2179.00 L 1231.00 2180.00 L 1364.00 2180.00 L 1384.00 2119.00 L 1211.00 2119.00 L 1191.00 2118.00 L 1099.00 2118.00 L 1067.00 2179.00 Z" stroke-width="1" id="307-25-03" stroke="black"/>
  <path fill="none" d="M 1448.00 2180.00 L 1460.00 2119.00 L 1384.00 2119.00 L 1364.00 2180.00 Z" stroke-width="1" id="307-25-04" stroke="black"/>
  <path fill="none" d="M 1591.00 2180.00 L 1611.00 2181.00 L 1684.00 2181.00 L 1724.00 2120.00 L 1491.00 2120.00 L 1471.00 2119.00 L 1460.00 2119.00 L 1448.00 2180.00 Z" stroke-width="1" id="307-25-05" stroke="black"/>
  <path fill="none" d="M 1824.00 2181.00 L 1853.00 2121.00 L 1811.00 2121.00 L 1791.00 2101.00 L 1771.00 2101.00 L 1751.00 2120.00 L 1724.00 2120.00 L 1684.00 2181.00 Z" stroke-width="1" id="307-25-06" stroke="black"/>
  <path fill="none" d="M 1956.00 2181.00 L 1956.00 2121.00 L 1853.00 2121.00 L 1824.00 2181.00 Z" stroke-width="1" id="307-25-07" stroke="black"/>
  <path fill="none" d="M 200.00 2234.00 L 169.00 2303.00 L 181.95 2320.00 L 191.00 2320.00 L 211.00 2300.00 L 231.00 2280.00 L 360.00 2280.00 L 392.00 2198.44 Z" stroke-width="1" id="307-26-01" stroke="black"/>
  <path fill="none" d="M 411.00 2280.00 L 431.00 2260.00 L 451.00 2280.00 L 665.00 2280.00 L 720.00 2202.75 L 711.78 2180.14 L 443.00 2189.00 L 392.00 2198.44 L 360.00 2280.00 Z" stroke-width="1" id="307-26-02" stroke="black"/>
  <path fill="none" d="M 892.00 2280.00 L 938.00 2179.00 L 831.00 2179.00 L 811.00 2198.00 L 791.00 2217.00 L 771.00 2221.00 L 751.00 2221.00 L 731.00 2233.00 L 720.00 2202.75 L 665.00 2280.00 Z" stroke-width="1" id="307-26-03" stroke="black"/>
  <path fill="none" d="M 1173.00 2280.00 L 1204.00 2179.00 L 938.00 2179.00 L 892.00 2280.00 Z" stroke-width="1" id="307-26-04" stroke="black"/>
  <path fill="none" d="M 1271.00 2280.00 L 1291.00 2281.00 L 1430.00 2281.00 L 1420.00 2180.00 L 1231.00 2180.00 L 1211.00 2179.00 L 1204.00 2179.00 L 1173.00 2280.00 Z" stroke-width="1" id="307-26-05" stroke="black"/>
  <path fill="none" d="M 1521.00 2281.00 L 1563.00 2180.00 L 1420.00 2180.00 L 1430.00 2281.00 Z" stroke-width="1" id="307-26-06" stroke="black"/>
  <path fill="none" d="M 1704.00 2281.00 L 1710.00 2181.00 L 1611.00 2181.00 L 1591.00 2180.00 L 1563.00 2180.00 L 1521.00 2281.00 Z" stroke-width="1" id="307-26-07" stroke="black"/>
  <path fill="none" d="M 1760.00 2281.00 L 1781.00 2181.00 L 1710.00 2181.00 L 1704.00 2281.00 Z" stroke-width="1" id="307-26-08" stroke="black"/>
  <path fill="none" d="M 1874.00 2281.00 L 1871.00 2181.00 L 1781.00 2181.00 L 1760.00 2281.00 Z" stroke-width="1" id="307-26-09" stroke="black"/>
  <path fill="none" d="M 1949.11 2281.00 L 1956.00 2247.00 L 1956.00 2181.00 L 1871.00 2181.00 L 1874.00 2281.00 Z" stroke-width="1" id="307-26-10" stroke="black"/>
  <path fill="none" d="M 181.95 2320.00 L 201.00 2345.00 L 200.61 2355.00 L 331.00 2355.00 L 336.00 2355.25 L 394.00 2280.00 L 231.00 2280.00 L 211.00 2300.00 L 191.00 2320.00 Z" stroke-width="1" id="307-27-01" stroke="black"/>
  <path fill="none" d="M 351.00 2356.00 L 491.00 2356.00 L 503.00 2368.00 L 566.00 2280.00 L 451.00 2280.00 L 431.00 2260.00 L 411.00 2280.00 L 394.00 2280.00 L 336.00 2355.25 Z" stroke-width="1" id="307-27-02" stroke="black"/>
  <path fill="none" d="M 511.00 2376.00 L 531.00 2396.00 L 551.00 2376.00 L 571.00 2376.00 L 591.00 2356.00 L 631.00 2356.00 L 651.00 2357.00 L 719.00 2357.00 L 728.00 2280.00 L 566.00 2280.00 L 503.00 2368.00 Z" stroke-width="1" id="307-27-03" stroke="black"/>
  <path fill="none" d="M 907.00 2357.00 L 956.00 2280.00 L 728.00 2280.00 L 719.00 2357.00 Z" stroke-width="1" id="307-27-04" stroke="black"/>
  <path fill="none" d="M 931.00 2357.00 L 951.00 2358.00 L 1079.00 2358.00 L 1119.00 2280.00 L 956.00 2280.00 L 907.00 2357.00 Z" stroke-width="1" id="307-27-05" stroke="black"/>
  <path fill="none" d="M 1179.00 2358.00 L 1203.00 2280.00 L 1119.00 2280.00 L 1079.00 2358.00 Z" stroke-width="1" id="307-27-06" stroke="black"/>
  <path fill="none" d="M 1231.00 2358.00 L 1251.00 2359.00 L 1311.00 2359.00 L 1331.00 2339.00 L 1351.00 2359.00 L 1489.00 2359.00 L 1533.11 2281.00 L 1291.00 2281.00 L 1271.00 2280.00 L 1203.00 2280.00 L 1179.00 2358.00 Z" stroke-width="1" id="307-27-07" stroke="black"/>
  <path fill="none" d="M 1531.00 2359.00 L 1551.00 2360.00 L 1642.00 2360.00 L 1682.11 2281.00 L 1533.11 2281.00 L 1489.00 2359.00 Z" stroke-width="1" id="307-27-08" stroke="black"/>
  <path fill="none" d="M 1811.00 2360.00 L 1831.00 2361.00 L 1851.00 2361.00 L 1874.11 2281.00 L 1682.11 2281.00 L 1642.00 2360.00 Z" stroke-width="1" id="307-27-09" stroke="black"/>
  <path fill="none" d="M 1871.00 2381.00 L 1891.00 2361.00 L 1903.33 2361.00 L 1940.00 2326.00 L 1949.11 2281.00 L 1874.11 2281.00 L 1851.00 2361.00 Z" stroke-width="1" id="307-27-10" stroke="black"/>
  <path fill="none" d="M 200.61 2355.00 L 198.00 2422.00 L 194.10 2451.00 L 291.00 2451.00 L 311.00 2452.00 L 411.00 2452.00 L 431.00 2472.00 L 451.00 2452.00 L 471.00 2472.00 L 491.00 2452.00 L 496.00 2452.00 L 519.00 2384.00 L 511.00 2376.00 L 491.00 2356.00 L 351.00 2356.00 L 331.00 2355.00 Z" stroke-width="1" id="307-28-01" stroke="black"/>
  <path fill="none" d="M 531.00 2452.00 L 551.00 2453.00 L 573.00 2453.00 L 618.00 2356.00 L 591.00 2356.00 L 571.00 2376.00 L 551.00 2376.00 L 531.00 2396.00 L 519.00 2384.00 L 496.00 2452.00 Z" stroke-width="1" id="307-28-02" stroke="black"/>
  <path fill="none" d="M 671.00 2453.00 L 691.00 2473.00 L 731.00 2473.00 L 751.00 2453.00 L 791.00 2453.00 L 811.00 2454.00 L 841.00 2454.00 L 887.00 2357.00 L 651.00 2357.00 L 631.00 2356.00 L 618.00 2356.00 L 573.00 2453.00 Z" stroke-width="1" id="307-28-03" stroke="black"/>
  <path fill="none" d="M 991.00 2454.00 L 1011.00 2474.00 L 1031.00 2454.00 L 1051.00 2455.00 L 1144.00 2455.00 L 1159.00 2358.00 L 951.00 2358.00 L 931.00 2357.00 L 887.00 2357.00 L 841.00 2454.00 Z" stroke-width="1" id="307-28-04" stroke="black"/>
  <path fill="none" d="M 1271.00 2455.00 L 1291.00 2456.00 L 1299.00 2456.00 L 1353.00 2359.00 L 1351.00 2359.00 L 1331.00 2339.00 L 1311.00 2359.00 L 1251.00 2359.00 L 1231.00 2358.00 L 1222.00 2358.00 L 1213.00 2455.00 Z" stroke-width="1" id="307-28-05" stroke="black"/>
  <path fill="none" d="M 1371.00 2456.00 L 1391.00 2476.00 L 1411.00 2456.00 L 1452.00 2456.00 L 1493.00 2359.00 L 1353.00 2359.00 L 1299.00 2456.00 Z" stroke-width="1" id="307-28-06" stroke="black"/>
  <path fill="none" d="M 1527.00 2456.00 L 1589.00 2360.00 L 1551.00 2360.00 L 1531.00 2359.00 L 1493.00 2359.00 L 1452.00 2456.00 Z" stroke-width="1" id="307-28-07" stroke="black"/>
  <path fill="none" d="M 1531.00 2456.00 L 1551.00 2457.00 L 1702.00 2457.00 L 1714.00 2360.00 L 1589.00 2360.00 L 1527.00 2456.00 Z" stroke-width="1" id="307-28-08" stroke="black"/>
  <path fill="none" d="M 1771.00 2457.00 L 1791.00 2458.00 L 1882.00 2458.00 L 1883.00 2369.00 L 1871.00 2381.00 L 1851.00 2361.00 L 1831.00 2361.00 L 1811.00 2360.00 L 1714.00 2360.00 L 1702.00 2457.00 Z" stroke-width="1" id="307-28-09" stroke="black"/>
  <path fill="none" d="M 194.10 2451.00 L 182.81 2535.00 L 463.81 2535.00 L 471.00 2472.00 L 451.00 2452.00 L 431.00 2472.00 L 411.00 2452.00 L 311.00 2452.00 L 291.00 2451.00 Z" stroke-width="1" id="307-29-01" stroke="black"/>
  <path fill="none" d="M 690.81 2535.00 L 711.00 2473.00 L 691.00 2473.00 L 671.00 2453.00 L 551.00 2453.00 L 531.00 2452.00 L 491.00 2452.00 L 471.00 2472.00 L 463.81 2535.00 Z" stroke-width="1" id="307-29-02" stroke="black"/>
  <path fill="none" d="M 691.00 2535.00 L 711.00 2555.00 L 731.00 2555.00 L 751.00 2535.00 L 865.00 2535.00 L 875.00 2454.00 L 811.00 2454.00 L 791.00 2453.00 L 751.00 2453.00 L 731.00 2473.00 L 711.00 2473.00 L 690.81 2535.00 Z" stroke-width="1" id="307-29-03" stroke="black"/>
  <path fill="none" d="M 1021.00 2535.00 L 1011.00 2474.00 L 991.00 2454.00 L 875.00 2454.00 L 865.00 2535.00 Z" stroke-width="1" id="307-29-04" stroke="black"/>
  <path fill="none" d="M 1114.00 2535.00 L 1121.00 2455.00 L 1051.00 2455.00 L 1031.00 2454.00 L 1011.00 2474.00 L 1021.00 2535.00 Z" stroke-width="1" id="307-29-05" stroke="black"/>
  <path fill="none" d="M 1231.00 2535.00 L 1250.00 2535.95 L 1257.00 2455.00 L 1121.00 2455.00 L 1114.00 2535.00 Z" stroke-width="1" id="307-29-06" stroke="black"/>
  <path fill="none" d="M 1251.00 2536.00 L 1445.00 2536.00 L 1457.00 2456.00 L 1411.00 2456.00 L 1391.00 2476.00 L 1371.00 2456.00 L 1291.00 2456.00 L 1271.00 2455.00 L 1257.00 2455.00 L 1250.00 2535.95 Z" stroke-width="1" id="307-29-07" stroke="black"/>
  <path fill="none" d="M 1715.00 2536.00 L 1752.00 2457.00 L 1551.00 2457.00 L 1531.00 2456.00 L 1457.00 2456.00 L 1445.00 2536.00 Z" stroke-width="1" id="307-29-08" stroke="black"/>
  <path fill="none" d="M 1934.78 2536.00 L 1913.00 2496.00 L 1907.95 2458.00 L 1791.00 2458.00 L 1771.00 2457.00 L 1752.00 2457.00 L 1715.00 2536.00 Z" stroke-width="1" id="307-29-09" stroke="black"/>
  <path fill="none" d="M 182.81 2535.00 L 173.00 2608.00 L 174.63 2630.00 L 191.00 2630.00 L 211.00 2610.00 L 400.00 2610.00 L 412.00 2535.00 Z" stroke-width="1" id="307-30-01" stroke="black"/>
  <path fill="none" d="M 486.00 2610.00 L 546.00 2535.00 L 412.00 2535.00 L 400.00 2610.00 Z" stroke-width="1" id="307-30-02" stroke="black"/>
  <path fill="none" d="M 491.00 2610.00 L 511.00 2630.00 L 531.00 2630.00 L 551.00 2610.00 L 651.00 2610.00 L 671.00 2611.00 L 751.00 2611.00 L 771.00 2631.00 L 811.00 2631.00 L 831.00 2611.00 L 848.00 2611.00 L 883.00 2535.00 L 751.00 2535.00 L 731.00 2555.00 L 711.00 2555.00 L 691.00 2535.00 L 546.00 2535.00 L 486.00 2610.00 Z" stroke-width="1" id="307-30-03" stroke="black"/>
  <path fill="none" d="M 1011.00 2611.00 L 1031.00 2591.00 L 1051.00 2611.00 L 1060.00 2611.00 L 1092.00 2535.00 L 883.00 2535.00 L 848.00 2611.00 Z" stroke-width="1" id="307-30-04" stroke="black"/>
  <path fill="none" d="M 1091.00 2611.00 L 1111.00 2631.00 L 1171.00 2631.00 L 1191.00 2611.00 L 1251.00 2611.00 L 1271.00 2612.00 L 1511.00 2612.00 L 1531.00 2632.00 L 1551.00 2612.00 L 1585.00 2612.00 L 1588.78 2536.00 L 1251.00 2536.00 L 1231.00 2535.00 L 1092.00 2535.00 L 1060.00 2611.00 Z" stroke-width="1" id="307-30-05" stroke="black"/>
  <path fill="none" d="M 1776.00 2612.00 L 1806.78 2536.00 L 1588.78 2536.00 L 1585.00 2612.00 Z" stroke-width="1" id="307-30-06" stroke="black"/>
  <path fill="none" d="M 1811.00 2612.00 L 1831.00 2632.00 L 1851.00 2612.00 L 1866.00 2612.75 L 1870.78 2536.00 L 1806.78 2536.00 L 1776.00 2612.00 Z" stroke-width="1" id="307-30-07" stroke="black"/>
  <path fill="none" d="M 1871.00 2613.00 L 1946.81 2613.00 L 1962.00 2586.00 L 1934.78 2536.00 L 1870.78 2536.00 L 1866.00 2612.75 Z" stroke-width="1" id="307-30-08" stroke="black"/>
  <path fill="none" d="M 174.63 2630.00 L 177.00 2662.00 L 198.47 2696.00 L 491.00 2696.00 L 511.00 2716.00 L 551.00 2716.00 L 571.00 2696.00 L 591.00 2696.00 L 626.00 2610.00 L 551.00 2610.00 L 531.00 2630.00 L 511.00 2630.00 L 491.00 2610.00 L 211.00 2610.00 L 191.00 2630.00 Z" stroke-width="1" id="307-31-01" stroke="black"/>
  <path fill="none" d="M 611.00 2716.00 L 631.00 2736.00 L 671.00 2736.00 L 691.00 2716.00 L 711.00 2716.00 L 731.00 2696.00 L 931.00 2696.00 L 949.34 2714.34 L 998.00 2710.00 L 1044.05 2702.95 L 1051.00 2696.00 L 1055.00 2611.00 L 1051.00 2611.00 L 1031.00 2591.00 L 1011.00 2611.00 L 831.00 2611.00 L 811.00 2631.00 L 771.00 2631.00 L 751.00 2611.00 L 671.00 2611.00 L 651.00 2610.00 L 626.00 2610.00 L 591.00 2696.00 Z" stroke-width="1" id="307-31-02" stroke="black"/>
  <path fill="none" d="M 1089.41 2696.00 L 1109.00 2693.00 L 1168.10 2696.00 L 1227.10 2696.00 L 1271.00 2612.00 L 1251.00 2611.00 L 1191.00 2611.00 L 1171.00 2631.00 L 1111.00 2631.00 L 1091.00 2611.00 L 1055.00 2611.00 L 1051.00 2696.00 Z" stroke-width="1" id="307-31-03" stroke="black"/>
  <path fill="none" d="M 1471.00 2696.00 L 1486.39 2712.16 L 1503.00 2713.00 L 1515.00 2713.00 L 1531.00 2697.00 L 1562.00 2697.00 L 1568.00 2612.00 L 1551.00 2612.00 L 1531.00 2632.00 L 1511.00 2612.00 L 1271.00 2612.00 L 1227.10 2696.00 Z" stroke-width="1" id="307-31-04" stroke="black"/>
  <path fill="none" d="M 1611.00 2697.00 L 1677.00 2612.00 L 1568.00 2612.00 L 1562.00 2697.00 Z" stroke-width="1" id="307-31-05" stroke="black"/>
  <path fill="none" d="M 1627.00 2713.00 L 1635.00 2713.00 L 1651.00 2697.00 L 1751.00 2697.00 L 1767.00 2713.00 L 1795.00 2713.00 L 1811.00 2697.00 L 1834.00 2697.00 L 1831.00 2632.00 L 1811.00 2612.00 L 1677.00 2612.00 L 1611.00 2697.00 Z" stroke-width="1" id="307-31-06" stroke="black"/>
  <path fill="none" d="M 1843.79 2697.00 L 1917.00 2666.00 L 1946.81 2613.00 L 1871.00 2613.00 L 1851.00 2612.00 L 1831.00 2632.00 L 1834.00 2697.00 Z" stroke-width="1" id="307-31-07" stroke="black"/>
  <path fill="none" d="M 198.47 2696.00 L 213.00 2719.00 L 185.00 2749.00 L 187.00 2779.00 L 168.00 2798.00 L 170.08 2800.08 L 211.09 2800.91 L 231.00 2781.00 L 458.00 2781.00 L 481.00 2696.00 Z" stroke-width="1" id="307-32-01" stroke="black"/>
  <path fill="none" d="M 491.00 2781.00 L 511.00 2802.00 L 531.00 2802.00 L 551.00 2782.00 L 655.00 2782.00 L 672.00 2735.00 L 671.00 2736.00 L 631.00 2736.00 L 611.00 2716.00 L 591.00 2696.00 L 571.00 2696.00 L 551.00 2716.00 L 511.00 2716.00 L 491.00 2696.00 L 481.00 2696.00 L 458.00 2781.00 Z" stroke-width="1" id="307-32-02" stroke="black"/>
  <path fill="none" d="M 882.00 2782.00 L 886.00 2696.00 L 731.00 2696.00 L 711.00 2716.00 L 691.00 2716.00 L 672.00 2735.00 L 655.00 2782.00 Z" stroke-width="1" id="307-32-03" stroke="black"/>
  <path fill="none" d="M 474.00 2847.00 L 473.35 2862.00 L 731.00 2862.00 L 751.00 2863.00 L 1034.00 2863.00 L 1063.00 2783.00 L 951.00 2783.00 L 931.00 2782.00 L 551.00 2782.00 L 531.00 2802.00 L 497.00 2817.73 Z" stroke-width="1" id="307-33-01" stroke="black"/>
  <path fill="none" d="M 1411.00 2863.00 L 1431.00 2864.00 L 1432.00 2864.00 L 1455.00 2792.74 L 1224.80 2783.00 L 1151.00 2783.00 L 1147.74 2779.74 L 1115.62 2778.38 L 1111.00 2783.00 L 1063.00 2783.00 L 1034.00 2863.00 Z" stroke-width="1" id="307-33-02" stroke="black"/>
  <path fill="none" d="M 1533.00 2864.00 L 1550.00 2796.76 L 1455.00 2792.74 L 1432.00 2864.00 Z" stroke-width="1" id="307-33-03" stroke="black"/>
  <path fill="none" d="M 1714.66 2864.00 L 1721.00 2804.00 L 1550.00 2796.76 L 1533.00 2864.00 Z" stroke-width="1" id="307-33-04" stroke="black"/>
  <path fill="none" d="M 62.00 2915.00 L 65.00 3025.00 L 164.00 3025.34 L 175.00 2925.00 L 171.00 2925.00 L 151.00 2919.00 L 131.00 2911.00 L 114.91 2898.13 Z" stroke-width="1" id="307-35-01" stroke="black"/>
  <path fill="none" d="M 287.00 3025.77 L 304.00 2921.00 L 291.00 2921.00 L 271.00 2925.00 L 175.00 2925.00 L 164.00 3025.34 Z" stroke-width="1" id="307-35-02" stroke="black"/>
  <path fill="none" d="M 354.00 3026.00 L 348.16 3032.00 L 351.00 3032.00 L 371.00 3033.00 L 391.00 3053.00 L 451.00 3053.00 L 471.00 3033.00 L 491.00 3033.00 L 511.00 3034.00 L 542.00 3034.00 L 587.00 2923.00 L 571.00 2923.00 L 551.00 2921.00 L 304.00 2921.00 L 287.00 3025.77 Z" stroke-width="1" id="307-35-03" stroke="black"/>
  <path fill="none" d="M 651.00 3034.00 L 671.00 3035.00 L 791.00 3035.00 L 811.00 3036.00 L 881.00 3036.00 L 878.00 2933.70 L 871.00 2933.00 L 851.00 2931.00 L 791.00 2931.00 L 771.00 2935.00 L 651.00 2935.00 L 631.00 2933.00 L 611.00 2929.00 L 591.00 2923.00 L 587.00 2923.00 L 542.00 3034.00 Z" stroke-width="1" id="307-35-04" stroke="black"/>
  <path fill="none" d="M 951.00 3036.00 L 971.00 3037.00 L 1091.00 3037.00 L 1111.00 3038.00 L 1142.00 3038.00 L 1168.00 2943.00 L 1051.00 2943.00 L 1031.00 2941.00 L 1011.00 2937.00 L 971.00 2937.00 L 951.00 2935.00 L 891.00 2935.00 L 878.00 2933.70 L 881.00 3036.00 Z" stroke-width="1" id="307-35-05" stroke="black"/>
  <path fill="none" d="M 1251.00 3038.00 L 1271.00 3039.00 L 1382.00 3039.00 L 1399.00 2940.00 L 1251.00 2940.00 L 1231.00 2939.00 L 1211.00 2945.00 L 1191.00 2943.00 L 1168.00 2943.00 L 1142.00 3038.00 Z" stroke-width="1" id="307-35-06" stroke="black"/>
  <path fill="none" d="M 1391.00 3039.00 L 1411.00 3040.00 L 1437.00 3040.00 L 1467.00 2941.00 L 1431.00 2941.00 L 1411.00 2940.00 L 1399.00 2940.00 L 1382.00 3039.00 Z" stroke-width="1" id="307-35-07" stroke="black"/>
  <path fill="none" d="M 1525.00 3040.00 L 1566.00 2941.00 L 1467.00 2941.00 L 1437.00 3040.00 Z" stroke-width="1" id="307-35-08" stroke="black"/>
  <path fill="none" d="M 1551.00 3040.00 L 1571.00 3041.00 L 1591.00 3061.00 L 1611.00 3061.00 L 1631.00 3041.00 L 1691.00 3041.00 L 1711.00 3042.00 L 1810.70 3042.00 L 1794.00 3037.00 L 1792.00 2972.00 L 1706.00 2946.00 L 1706.42 2942.00 L 1591.00 2942.00 L 1571.00 2941.00 L 1566.00 2941.00 L 1525.00 3040.00 Z" stroke-width="1" id="307-35-09" stroke="black"/>
  <path fill="none" d="M 348.16 3032.00 L 318.00 3063.00 L 306.00 3102.00 L 374.55 3130.00 L 379.71 3130.00 L 408.95 3119.23 L 411.00 3118.00 L 412.29 3118.00 L 453.00 3103.00 L 637.00 3104.62 L 669.00 3034.90 L 651.00 3034.00 L 511.00 3034.00 L 491.00 3033.00 L 471.00 3033.00 L 451.00 3053.00 L 391.00 3053.00 L 371.00 3033.00 L 351.00 3032.00 Z" stroke-width="1" id="307-36-01" stroke="black"/>
  <path fill="none" d="M 719.00 3105.35 L 742.00 3035.00 L 671.00 3035.00 L 669.00 3034.90 L 637.00 3104.62 Z" stroke-width="1" id="307-36-02" stroke="black"/>
  <path fill="none" d="M 881.00 3106.77 L 888.00 3036.00 L 811.00 3036.00 L 791.00 3035.00 L 742.00 3035.00 L 719.00 3105.35 Z" stroke-width="1" id="307-36-03" stroke="black"/>
  <path fill="none" d="M 1161.00 3109.24 L 1210.00 3038.00 L 1111.00 3038.00 L 1091.00 3037.00 L 971.00 3037.00 L 951.00 3036.00 L 888.00 3036.00 L 881.00 3106.77 Z" stroke-width="1" id="307-36-04" stroke="black"/>
  <path fill="none" d="M 1247.00 3110.00 L 1317.00 3109.80 L 1349.00 3039.00 L 1271.00 3039.00 L 1251.00 3038.00 L 1210.00 3038.00 L 1161.00 3109.24 Z" stroke-width="1" id="307-36-05" stroke="black"/>
  <path fill="none" d="M 1421.00 3109.51 L 1444.00 3040.00 L 1411.00 3040.00 L 1391.00 3039.00 L 1349.00 3039.00 L 1317.00 3109.80 Z" stroke-width="1" id="307-36-06" stroke="black"/>
  <path fill="none" d="M 1541.00 3109.17 L 1550.00 3040.00 L 1444.00 3040.00 L 1421.00 3109.51 Z" stroke-width="1" id="307-36-07" stroke="black"/>
  <path fill="none" d="M 1713.00 3108.69 L 1727.70 3042.00 L 1711.00 3042.00 L 1691.00 3041.00 L 1631.00 3041.00 L 1611.00 3061.00 L 1591.00 3061.00 L 1571.00 3041.00 L 1551.00 3040.00 L 1550.00 3040.00 L 1541.00 3109.17 Z" stroke-width="1" id="307-36-08" stroke="black"/>
  <path fill="none" d="M 1823.00 3108.38 L 1786.70 3042.00 L 1727.70 3042.00 L 1713.00 3108.69 Z" stroke-width="1" id="307-36-09" stroke="black"/>
  <path fill="none" d="M 1867.00 3108.26 L 1896.00 3067.54 L 1810.70 3042.00 L 1786.70 3042.00 L 1823.00 3108.38 Z" stroke-width="1" id="307-36-10" stroke="black"/>
  <path fill="none" d="M 1958.00 3108.00 L 1961.00 3087.00 L 1896.00 3067.54 L 1867.00 3108.26 Z" stroke-width="1" id="307-36-11" stroke="black"/>
</svg>
