<?xml version="1.0" encoding="UTF-8"?>
<svg xmlns:xlink="http://www.w3.org/1999/xlink" xmlns="http://www.w3.org/2000/svg" contentScriptType="text/ecmascript" width="1945px" zoomAndPan="magnify" contentStyleType="text/css" viewBox="0 0 1945 3241" height="3241px" preserveAspectRatio="xMidYMid meet" version="1.0">
  <path fill="none" d="M 42.00 133.00 L 34.00 187.00 L 49.37 191.32 L 54.00 189.00 L 134.00 189.00 L 154.00 190.00 L 191.00 190.00 L 223.00 108.00 L 214.80 108.00 L 172.00 123.00 Z" stroke-width="1" id="308-01-01" stroke="black"/>
  <path fill="none" d="M 254.00 190.00 L 274.00 191.00 L 374.00 191.00 L 394.00 192.00 L 486.00 192.00 L 514.00 112.85 L 387.00 111.00 L 383.25 109.00 L 374.00 109.00 L 354.00 129.00 L 335.90 83.75 L 327.00 79.00 L 311.56 80.22 L 294.00 89.00 L 274.00 109.00 L 254.00 108.00 L 223.00 108.00 L 191.00 190.00 Z" stroke-width="1" id="308-01-02" stroke="black"/>
  <path fill="none" d="M 494.00 192.00 L 514.00 193.00 L 614.00 193.00 L 634.00 194.00 L 731.00 194.00 L 767.92 111.34 L 661.00 115.00 L 514.00 112.85 L 486.00 192.00 Z" stroke-width="1" id="308-01-03" stroke="black"/>
  <path fill="none" d="M 734.00 194.00 L 754.00 195.00 L 854.00 195.00 L 874.00 196.00 L 928.00 196.00 L 969.00 112.00 L 934.00 112.00 L 914.00 111.00 L 777.92 111.00 L 767.92 111.34 L 731.00 194.00 Z" stroke-width="1" id="308-01-04" stroke="black"/>
  <path fill="none" d="M 974.00 196.00 L 994.00 197.00 L 1094.00 197.00 L 1114.00 198.00 L 1214.00 198.00 L 1234.00 199.00 L 1334.00 199.00 L 1354.00 200.00 L 1454.00 200.00 L 1460.00 200.30 L 1493.00 114.70 L 1323.00 117.00 L 1247.80 113.00 L 1154.00 113.00 L 1134.00 112.00 L 1074.00 112.00 L 1065.29 103.29 L 1041.00 102.00 L 1023.40 102.60 L 1014.00 112.00 L 969.00 112.00 L 928.00 196.00 Z" stroke-width="1" id="308-01-05" stroke="black"/>
  <path fill="none" d="M 1474.00 201.00 L 1554.00 201.00 L 1574.00 202.00 L 1634.00 202.00 L 1654.00 193.00 L 1674.00 189.00 L 1694.00 189.00 L 1714.00 197.00 L 1734.00 197.00 L 1754.00 199.00 L 1788.00 199.00 L 1801.00 138.95 L 1708.00 135.00 L 1573.00 144.00 L 1545.00 114.00 L 1493.00 114.70 L 1460.00 200.30 Z" stroke-width="1" id="308-01-06" stroke="black"/>
  <path fill="none" d="M 1794.00 199.00 L 1814.00 201.00 L 1834.00 205.00 L 1840.75 205.68 L 1889.33 207.00 L 1894.00 207.00 L 1895.75 207.18 L 1917.68 207.77 L 1925.73 205.09 L 1920.00 144.00 L 1801.00 138.95 L 1788.00 199.00 Z" stroke-width="1" id="308-01-07" stroke="black"/>
  <path fill="none" d="M 233.95 313.00 L 229.00 346.00 L 223.81 370.00 L 334.00 370.00 L 354.00 371.00 L 487.00 371.00 L 540.00 287.00 L 494.00 287.00 L 474.00 291.00 L 454.00 299.00 L 434.00 303.00 L 414.00 315.00 L 394.00 315.00 L 374.00 313.00 Z" stroke-width="1" id="308-03-01" stroke="black"/>
  <path fill="none" d="M 494.00 371.00 L 514.00 372.00 L 654.00 372.00 L 663.00 372.45 L 673.00 306.90 L 654.00 305.00 L 634.00 299.00 L 614.00 293.00 L 594.00 287.00 L 540.00 287.00 L 487.00 371.00 Z" stroke-width="1" id="308-03-02" stroke="black"/>
  <path fill="none" d="M 674.00 373.00 L 814.00 373.00 L 834.00 374.00 L 879.00 374.00 L 931.00 289.00 L 894.00 289.00 L 874.00 293.00 L 814.00 293.00 L 794.00 297.00 L 774.00 301.00 L 754.00 309.00 L 694.00 309.00 L 674.00 307.00 L 673.00 306.90 L 663.00 372.45 Z" stroke-width="1" id="308-03-03" stroke="black"/>
  <path fill="none" d="M 974.00 374.00 L 994.00 375.00 L 1026.00 375.00 L 1083.00 291.00 L 954.00 291.00 L 934.00 289.00 L 931.00 289.00 L 879.00 374.00 Z" stroke-width="1" id="308-03-04" stroke="black"/>
  <path fill="none" d="M 1134.00 375.00 L 1154.00 376.00 L 1294.00 376.00 L 1307.00 376.65 L 1346.00 299.00 L 1294.00 299.00 L 1274.00 297.00 L 1254.00 297.00 L 1234.00 295.00 L 1214.00 295.00 L 1194.00 293.00 L 1114.00 293.00 L 1094.00 291.00 L 1083.00 291.00 L 1026.00 375.00 Z" stroke-width="1" id="308-03-05" stroke="black"/>
  <path fill="none" d="M 1314.00 377.00 L 1334.00 377.00 L 1354.00 397.00 L 1374.00 377.00 L 1444.00 297.00 L 1434.00 297.00 L 1414.00 295.00 L 1394.00 295.00 L 1374.00 297.00 L 1354.00 299.00 L 1346.00 299.00 L 1307.00 376.65 Z" stroke-width="1" id="308-03-06" stroke="black"/>
  <path fill="none" d="M 1454.00 377.00 L 1474.00 378.00 L 1517.00 378.00 L 1538.00 297.00 L 1534.00 297.00 L 1514.00 295.00 L 1474.00 295.00 L 1454.00 297.00 L 1444.00 297.00 L 1374.00 377.00 Z" stroke-width="1" id="308-03-07" stroke="black"/>
  <path fill="none" d="M 1614.00 378.00 L 1634.00 379.00 L 1712.00 379.00 L 1762.00 303.00 L 1654.00 303.00 L 1634.00 301.00 L 1614.00 301.00 L 1594.00 299.00 L 1574.00 297.00 L 1538.00 297.00 L 1517.00 378.00 Z" stroke-width="1" id="308-03-08" stroke="black"/>
  <path fill="none" d="M 1774.00 379.00 L 1794.00 380.00 L 1889.42 380.00 L 1881.00 315.00 L 1871.61 305.00 L 1854.00 305.00 L 1834.00 303.00 L 1762.00 303.00 L 1712.00 379.00 Z" stroke-width="1" id="308-03-09" stroke="black"/>
  <path fill="none" d="M 223.81 370.00 L 213.00 420.00 L 214.33 456.00 L 294.00 456.00 L 314.00 457.00 L 346.00 457.00 L 347.00 370.65 L 334.00 370.00 Z" stroke-width="1" id="308-04-01" stroke="black"/>
  <path fill="none" d="M 414.00 457.00 L 434.00 458.00 L 537.00 458.00 L 544.00 372.00 L 514.00 372.00 L 494.00 371.00 L 354.00 371.00 L 347.00 370.65 L 346.00 457.00 Z" stroke-width="1" id="308-04-02" stroke="black"/>
  <path fill="none" d="M 554.00 458.00 L 574.00 459.00 L 639.00 459.00 L 652.00 372.00 L 544.00 372.00 L 537.00 458.00 Z" stroke-width="1" id="308-04-03" stroke="black"/>
  <path fill="none" d="M 694.00 459.00 L 714.00 460.00 L 814.00 460.00 L 834.00 461.00 L 872.00 374.00 L 834.00 374.00 L 814.00 373.00 L 674.00 373.00 L 654.00 372.00 L 652.00 372.00 L 639.00 459.00 Z" stroke-width="1" id="308-04-04" stroke="black"/>
  <path fill="none" d="M 922.00 461.00 L 952.00 374.00 L 872.00 374.00 L 834.00 461.00 Z" stroke-width="1" id="308-04-05" stroke="black"/>
  <path fill="none" d="M 934.00 461.00 L 954.00 441.00 L 974.00 462.00 L 1015.00 462.00 L 1047.00 375.00 L 994.00 375.00 L 974.00 374.00 L 952.00 374.00 L 922.00 461.00 Z" stroke-width="1" id="308-04-06" stroke="black"/>
  <path fill="none" d="M 1074.00 462.00 L 1094.00 463.00 L 1214.00 463.00 L 1234.00 464.00 L 1259.00 464.00 L 1269.00 376.00 L 1154.00 376.00 L 1134.00 375.00 L 1047.00 375.00 L 1015.00 462.00 Z" stroke-width="1" id="308-04-07" stroke="black"/>
  <path fill="none" d="M 1354.00 464.00 L 1374.00 465.00 L 1380.00 465.00 L 1421.00 377.00 L 1374.00 377.00 L 1354.00 397.00 L 1334.00 377.00 L 1314.00 377.00 L 1294.00 376.00 L 1269.00 376.00 L 1259.00 464.00 Z" stroke-width="1" id="308-04-08" stroke="black"/>
  <path fill="none" d="M 1474.00 465.00 L 1494.00 446.00 L 1514.00 466.00 L 1603.00 466.00 L 1628.00 378.70 L 1614.00 378.00 L 1474.00 378.00 L 1454.00 377.00 L 1421.00 377.00 L 1380.00 465.00 Z" stroke-width="1" id="308-04-09" stroke="black"/>
  <path fill="none" d="M 1614.00 466.00 L 1634.00 467.00 L 1754.00 467.00 L 1774.00 468.00 L 1874.00 468.00 L 1894.00 469.00 L 1896.95 469.00 L 1899.00 454.00 L 1889.42 380.00 L 1794.00 380.00 L 1774.00 379.00 L 1634.00 379.00 L 1628.00 378.70 L 1603.00 466.00 Z" stroke-width="1" id="308-04-10" stroke="black"/>
  <path fill="none" d="M 214.33 456.00 L 217.46 541.00 L 287.46 541.00 L 314.00 457.00 L 294.00 456.00 Z" stroke-width="1" id="308-05-01" stroke="black"/>
  <path fill="none" d="M 334.00 541.00 L 354.00 561.00 L 374.00 561.00 L 394.00 542.00 L 507.00 542.00 L 502.00 458.00 L 434.00 458.00 L 414.00 457.00 L 314.00 457.00 L 287.46 541.00 Z" stroke-width="1" id="308-05-02" stroke="black"/>
  <path fill="none" d="M 534.00 542.00 L 554.00 543.00 L 714.00 543.00 L 734.00 544.00 L 797.00 544.00 L 803.00 460.00 L 714.00 460.00 L 694.00 459.00 L 574.00 459.00 L 554.00 458.00 L 502.00 458.00 L 507.00 542.00 Z" stroke-width="1" id="308-05-03" stroke="black"/>
  <path fill="none" d="M 894.00 544.00 L 914.00 545.00 L 919.00 545.00 L 995.00 462.00 L 974.00 462.00 L 954.00 441.00 L 934.00 461.00 L 860.00 461.00 L 842.00 544.00 Z" stroke-width="1" id="308-05-04" stroke="black"/>
  <path fill="none" d="M 1054.00 545.00 L 1074.00 546.00 L 1139.00 546.00 L 1143.00 463.00 L 1094.00 463.00 L 1074.00 462.00 L 995.00 462.00 L 919.00 545.00 Z" stroke-width="1" id="308-05-05" stroke="black"/>
  <path fill="none" d="M 1212.00 546.00 L 1235.00 464.00 L 1234.00 464.00 L 1214.00 463.00 L 1143.00 463.00 L 1139.00 546.00 Z" stroke-width="1" id="308-05-06" stroke="black"/>
  <path fill="none" d="M 1234.00 546.00 L 1254.00 547.00 L 1348.00 547.00 L 1355.00 464.05 L 1354.00 464.00 L 1235.00 464.00 L 1212.00 546.00 Z" stroke-width="1" id="308-05-07" stroke="black"/>
  <path fill="none" d="M 1394.00 547.00 L 1414.00 548.00 L 1544.00 548.00 L 1545.00 466.00 L 1514.00 466.00 L 1494.00 446.00 L 1474.00 465.00 L 1374.00 465.00 L 1355.00 464.05 L 1348.00 547.00 Z" stroke-width="1" id="308-05-08" stroke="black"/>
  <path fill="none" d="M 1574.00 548.00 L 1594.00 549.00 L 1734.00 549.00 L 1741.00 556.00 L 1803.00 468.00 L 1774.00 468.00 L 1754.00 467.00 L 1634.00 467.00 L 1614.00 466.00 L 1545.00 466.00 L 1544.00 548.00 Z" stroke-width="1" id="308-05-09" stroke="black"/>
  <path fill="none" d="M 1754.00 569.00 L 1774.00 550.00 L 1885.91 550.00 L 1896.95 469.00 L 1894.00 469.00 L 1874.00 468.00 L 1803.00 468.00 L 1741.00 556.00 Z" stroke-width="1" id="308-05-10" stroke="black"/>
  <path fill="none" d="M 217.46 541.00 L 220.00 610.00 L 213.78 634.00 L 214.00 634.00 L 234.00 615.00 L 254.00 635.00 L 348.00 635.00 L 376.00 559.10 L 374.00 561.00 L 354.00 561.00 L 334.00 541.00 Z" stroke-width="1" id="308-06-01" stroke="black"/>
  <path fill="none" d="M 414.00 635.00 L 434.00 636.00 L 561.00 636.00 L 603.00 543.00 L 554.00 543.00 L 534.00 542.00 L 394.00 542.00 L 376.00 559.10 L 348.00 635.00 Z" stroke-width="1" id="308-06-02" stroke="black"/>
  <path fill="none" d="M 594.00 636.00 L 614.00 637.00 L 673.00 637.00 L 734.00 544.00 L 714.00 543.00 L 603.00 543.00 L 561.00 636.00 Z" stroke-width="1" id="308-06-03" stroke="black"/>
  <path fill="none" d="M 734.00 637.00 L 754.00 657.00 L 774.00 637.00 L 794.00 637.00 L 814.00 638.00 L 894.00 638.00 L 914.00 618.00 L 934.00 638.00 L 974.00 638.00 L 1010.00 545.00 L 914.00 545.00 L 894.00 544.00 L 734.00 544.00 L 673.00 637.00 Z" stroke-width="1" id="308-06-04" stroke="black"/>
  <path fill="none" d="M 994.00 639.00 L 1054.00 639.00 L 1074.00 659.00 L 1094.00 639.00 L 1174.00 639.00 L 1194.00 640.00 L 1332.00 640.00 L 1341.00 547.00 L 1254.00 547.00 L 1234.00 546.00 L 1074.00 546.00 L 1054.00 545.00 L 1010.00 545.00 L 974.00 638.00 Z" stroke-width="1" id="308-06-05" stroke="black"/>
  <path fill="none" d="M 1354.00 640.00 L 1374.00 641.00 L 1392.00 641.00 L 1469.00 548.00 L 1414.00 548.00 L 1394.00 547.00 L 1341.00 547.00 L 1332.00 640.00 Z" stroke-width="1" id="308-06-06" stroke="black"/>
  <path fill="none" d="M 1394.00 641.00 L 1414.00 661.00 L 1434.00 641.00 L 1554.00 641.00 L 1574.00 642.00 L 1687.00 642.00 L 1705.00 549.00 L 1594.00 549.00 L 1574.00 548.00 L 1469.00 548.00 L 1392.00 641.00 Z" stroke-width="1" id="308-06-07" stroke="black"/>
  <path fill="none" d="M 1734.00 642.00 L 1754.00 643.00 L 1755.00 643.00 L 1755.00 568.05 L 1754.00 569.00 L 1734.00 549.00 L 1705.00 549.00 L 1687.00 642.00 Z" stroke-width="1" id="308-06-08" stroke="black"/>
  <path fill="none" d="M 1906.20 643.00 L 1884.00 564.00 L 1885.91 550.00 L 1774.00 550.00 L 1755.00 568.05 L 1755.00 643.00 Z" stroke-width="1" id="308-06-09" stroke="black"/>
  <path fill="none" d="M 213.78 634.00 L 192.00 718.00 L 192.40 728.40 L 194.00 730.00 L 214.00 730.00 L 234.00 711.00 L 414.00 711.00 L 434.00 712.00 L 442.00 712.00 L 471.00 636.00 L 434.00 636.00 L 414.00 635.00 L 254.00 635.00 L 234.00 615.00 L 214.00 634.00 Z" stroke-width="1" id="308-07-01" stroke="black"/>
  <path fill="none" d="M 614.00 712.00 L 634.00 713.00 L 787.00 713.00 L 821.00 638.00 L 814.00 638.00 L 794.00 637.00 L 774.00 637.00 L 754.00 657.00 L 734.00 637.00 L 614.00 637.00 L 594.00 636.00 L 471.00 636.00 L 442.00 712.00 Z" stroke-width="1" id="308-07-02" stroke="black"/>
  <path fill="none" d="M 794.00 713.00 L 814.00 714.00 L 873.00 714.00 L 942.00 638.00 L 934.00 638.00 L 914.00 618.00 L 894.00 638.00 L 821.00 638.00 L 787.00 713.00 Z" stroke-width="1" id="308-07-03" stroke="black"/>
  <path fill="none" d="M 974.00 714.00 L 994.00 734.00 L 1014.00 735.00 L 1074.00 735.00 L 1094.00 715.00 L 1194.00 715.00 L 1206.00 715.60 L 1216.00 640.00 L 1194.00 640.00 L 1174.00 639.00 L 1094.00 639.00 L 1074.00 659.00 L 1054.00 639.00 L 994.00 639.00 L 974.00 638.00 L 942.00 638.00 L 873.00 714.00 Z" stroke-width="1" id="308-07-04" stroke="black"/>
  <path fill="none" d="M 1214.00 716.00 L 1297.00 716.00 L 1336.00 640.00 L 1216.00 640.00 L 1206.00 715.60 Z" stroke-width="1" id="308-07-05" stroke="black"/>
  <path fill="none" d="M 1374.00 716.00 L 1394.00 717.00 L 1414.00 717.00 L 1434.00 737.00 L 1474.00 737.00 L 1494.00 717.00 L 1515.00 717.00 L 1528.00 641.00 L 1434.00 641.00 L 1414.00 661.00 L 1394.00 641.00 L 1374.00 641.00 L 1354.00 640.00 L 1336.00 640.00 L 1297.00 716.00 Z" stroke-width="1" id="308-07-06" stroke="black"/>
  <path fill="none" d="M 1574.00 717.00 L 1594.00 718.00 L 1710.00 718.00 L 1706.00 642.00 L 1574.00 642.00 L 1554.00 641.00 L 1528.00 641.00 L 1515.00 717.00 Z" stroke-width="1" id="308-07-07" stroke="black"/>
  <path fill="none" d="M 1774.00 718.00 L 1787.20 643.00 L 1754.00 643.00 L 1734.00 642.00 L 1706.00 642.00 L 1710.00 718.00 Z" stroke-width="1" id="308-07-08" stroke="black"/>
  <path fill="none" d="M 1794.00 719.00 L 1905.73 719.00 L 1918.00 685.00 L 1906.20 643.00 L 1787.20 643.00 L 1774.00 718.00 Z" stroke-width="1" id="308-07-09" stroke="black"/>
  <path fill="none" d="M 192.40 728.40 L 194.97 796.00 L 254.00 796.00 L 274.00 797.00 L 394.00 797.00 L 414.00 817.00 L 434.00 797.00 L 462.00 797.00 L 485.00 712.00 L 434.00 712.00 L 414.00 711.00 L 234.00 711.00 L 214.00 730.00 L 194.00 730.00 Z" stroke-width="1" id="308-08-01" stroke="black"/>
  <path fill="none" d="M 474.00 797.00 L 494.00 798.00 L 694.00 798.00 L 714.00 799.00 L 773.00 799.00 L 805.00 713.55 L 794.00 713.00 L 634.00 713.00 L 614.00 712.00 L 485.00 712.00 L 462.00 797.00 Z" stroke-width="1" id="308-08-02" stroke="black"/>
  <path fill="none" d="M 834.00 799.00 L 854.00 819.00 L 894.00 819.00 L 914.00 799.00 L 928.00 799.70 L 954.00 714.00 L 814.00 714.00 L 805.00 713.55 L 773.00 799.00 Z" stroke-width="1" id="308-08-03" stroke="black"/>
  <path fill="none" d="M 934.00 800.00 L 1068.00 800.00 L 1074.00 735.00 L 1014.00 735.00 L 994.00 734.00 L 974.00 714.00 L 954.00 714.00 L 928.00 799.70 Z" stroke-width="1" id="308-08-04" stroke="black"/>
  <path fill="none" d="M 1134.00 800.00 L 1154.00 801.00 L 1160.00 801.00 L 1176.00 715.00 L 1094.00 715.00 L 1074.00 735.00 L 1068.00 800.00 Z" stroke-width="1" id="308-08-05" stroke="black"/>
  <path fill="none" d="M 1282.00 801.00 L 1284.00 716.00 L 1214.00 716.00 L 1194.00 715.00 L 1176.00 715.00 L 1160.00 801.00 Z" stroke-width="1" id="308-08-06" stroke="black"/>
  <path fill="none" d="M 1354.00 801.00 L 1374.00 802.00 L 1435.00 802.00 L 1462.00 737.00 L 1434.00 737.00 L 1414.00 717.00 L 1394.00 717.00 L 1374.00 716.00 L 1284.00 716.00 L 1282.00 801.00 Z" stroke-width="1" id="308-08-07" stroke="black"/>
  <path fill="none" d="M 1574.00 802.00 L 1594.00 803.00 L 1692.00 803.00 L 1717.00 718.00 L 1594.00 718.00 L 1574.00 717.00 L 1494.00 717.00 L 1474.00 737.00 L 1462.00 737.00 L 1435.00 802.00 Z" stroke-width="1" id="308-08-08" stroke="black"/>
  <path fill="none" d="M 1794.00 803.00 L 1814.00 804.00 L 1827.00 804.00 L 1841.73 719.00 L 1794.00 719.00 L 1774.00 718.00 L 1717.00 718.00 L 1692.00 803.00 Z" stroke-width="1" id="308-08-09" stroke="black"/>
  <path fill="none" d="M 194.97 796.00 L 198.18 880.00 L 294.00 880.00 L 314.00 881.00 L 406.00 881.00 L 416.00 815.00 L 414.00 817.00 L 394.00 797.00 L 274.00 797.00 L 254.00 796.00 Z" stroke-width="1" id="308-09-01" stroke="black"/>
  <path fill="none" d="M 434.00 881.00 L 454.00 901.00 L 474.00 881.00 L 487.00 881.00 L 551.00 798.00 L 494.00 798.00 L 474.00 797.00 L 434.00 797.00 L 416.00 815.00 L 406.00 881.00 Z" stroke-width="1" id="308-09-02" stroke="black"/>
  <path fill="none" d="M 574.00 881.00 L 594.00 882.00 L 635.00 882.00 L 643.00 798.00 L 551.00 798.00 L 487.00 881.00 Z" stroke-width="1" id="308-09-03" stroke="black"/>
  <path fill="none" d="M 854.00 882.00 L 874.00 883.00 L 919.00 883.00 L 931.00 799.85 L 914.00 799.00 L 894.00 819.00 L 854.00 819.00 L 834.00 799.00 L 714.00 799.00 L 694.00 798.00 L 643.00 798.00 L 635.00 882.00 Z" stroke-width="1" id="308-09-04" stroke="black"/>
  <path fill="none" d="M 1076.00 883.00 L 1104.00 800.00 L 934.00 800.00 L 931.00 799.85 L 919.00 883.00 Z" stroke-width="1" id="308-09-05" stroke="black"/>
  <path fill="none" d="M 1134.00 883.00 L 1154.00 884.00 L 1269.00 884.00 L 1320.00 801.00 L 1154.00 801.00 L 1134.00 800.00 L 1104.00 800.00 L 1076.00 883.00 Z" stroke-width="1" id="308-09-06" stroke="black"/>
  <path fill="none" d="M 1394.00 884.00 L 1414.00 904.00 L 1434.00 905.00 L 1454.00 885.00 L 1507.00 885.00 L 1559.00 802.00 L 1374.00 802.00 L 1354.00 801.00 L 1320.00 801.00 L 1269.00 884.00 Z" stroke-width="1" id="308-09-07" stroke="black"/>
  <path fill="none" d="M 1640.00 885.00 L 1673.00 803.00 L 1594.00 803.00 L 1574.00 802.00 L 1559.00 802.00 L 1507.00 885.00 Z" stroke-width="1" id="308-09-08" stroke="black"/>
  <path fill="none" d="M 1694.00 885.00 L 1714.00 886.00 L 1859.36 886.00 L 1861.00 843.00 L 1875.07 804.00 L 1814.00 804.00 L 1794.00 803.00 L 1673.00 803.00 L 1640.00 885.00 Z" stroke-width="1" id="308-09-09" stroke="black"/>
  <path fill="none" d="M 198.18 880.00 L 201.00 954.00 L 208.00 984.00 L 214.00 990.00 L 234.00 970.00 L 257.00 970.00 L 323.00 881.00 L 314.00 881.00 L 294.00 880.00 Z" stroke-width="1" id="308-10-01" stroke="black"/>
  <path fill="none" d="M 474.00 970.00 L 494.00 990.00 L 514.00 970.00 L 541.00 970.00 L 552.00 881.00 L 474.00 881.00 L 454.00 901.00 L 434.00 881.00 L 323.00 881.00 L 257.00 970.00 Z" stroke-width="1" id="308-10-02" stroke="black"/>
  <path fill="none" d="M 769.00 970.00 L 773.00 882.00 L 594.00 882.00 L 574.00 881.00 L 552.00 881.00 L 541.00 970.00 Z" stroke-width="1" id="308-10-03" stroke="black"/>
  <path fill="none" d="M 794.00 970.00 L 814.00 971.00 L 974.00 971.00 L 994.00 991.00 L 1034.00 991.00 L 1054.00 971.00 L 1120.00 971.00 L 1115.00 883.00 L 874.00 883.00 L 854.00 882.00 L 773.00 882.00 L 769.00 970.00 Z" stroke-width="1" id="308-10-04" stroke="black"/>
  <path fill="none" d="M 1274.00 971.00 L 1294.00 991.00 L 1314.00 971.00 L 1326.00 971.00 L 1357.00 884.00 L 1154.00 884.00 L 1134.00 883.00 L 1115.00 883.00 L 1120.00 971.00 Z" stroke-width="1" id="308-10-05" stroke="black"/>
  <path fill="none" d="M 1414.00 971.00 L 1482.00 885.00 L 1454.00 885.00 L 1434.00 905.00 L 1414.00 904.00 L 1394.00 884.00 L 1357.00 884.00 L 1326.00 971.00 Z" stroke-width="1" id="308-10-06" stroke="black"/>
  <path fill="none" d="M 1434.00 991.00 L 1454.00 971.00 L 1494.00 971.00 L 1514.00 991.00 L 1534.00 991.00 L 1554.00 971.00 L 1574.00 972.00 L 1841.94 972.00 L 1857.00 948.00 L 1859.36 886.00 L 1714.00 886.00 L 1694.00 885.00 L 1482.00 885.00 L 1414.00 971.00 Z" stroke-width="1" id="308-10-07" stroke="black"/>
  <path fill="none" d="M 208.00 984.00 L 226.67 1064.00 L 234.00 1064.00 L 245.00 1075.00 L 261.94 1076.06 L 274.00 1064.00 L 337.00 1064.00 L 346.00 970.00 L 234.00 970.00 L 214.00 990.00 Z" stroke-width="1" id="308-11-01" stroke="black"/>
  <path fill="none" d="M 514.00 1064.00 L 533.52 1064.98 L 568.52 1063.34 L 623.00 970.00 L 514.00 970.00 L 494.00 990.00 L 474.00 970.00 L 346.00 970.00 L 337.00 1064.00 Z" stroke-width="1" id="308-11-02" stroke="black"/>
  <path fill="none" d="M 661.00 1059.00 L 658.95 1065.00 L 727.95 1065.00 L 719.00 970.00 L 623.00 970.00 L 568.52 1063.34 Z" stroke-width="1" id="308-11-03" stroke="black"/>
  <path fill="none" d="M 802.95 1065.00 L 844.00 971.00 L 814.00 971.00 L 794.00 970.00 L 719.00 970.00 L 727.95 1065.00 Z" stroke-width="1" id="308-11-04" stroke="black"/>
  <path fill="none" d="M 911.95 1065.00 L 939.00 971.00 L 844.00 971.00 L 802.95 1065.00 Z" stroke-width="1" id="308-11-05" stroke="black"/>
  <path fill="none" d="M 954.00 1065.00 L 974.00 1085.00 L 994.00 1065.00 L 1014.00 1065.00 L 1034.00 1066.00 L 1070.00 1066.00 L 1110.00 971.00 L 1054.00 971.00 L 1034.00 991.00 L 994.00 991.00 L 974.00 971.00 L 939.00 971.00 L 911.95 1065.00 Z" stroke-width="1" id="308-11-06" stroke="black"/>
  <path fill="none" d="M 1236.00 1066.00 L 1265.00 971.00 L 1110.00 971.00 L 1070.00 1066.00 Z" stroke-width="1" id="308-11-07" stroke="black"/>
  <path fill="none" d="M 1514.00 1066.00 L 1534.00 1067.00 L 1536.00 1067.00 L 1568.00 971.70 L 1554.00 971.00 L 1534.00 991.00 L 1514.00 991.00 L 1494.00 971.00 L 1454.00 971.00 L 1434.00 991.00 L 1414.00 971.00 L 1314.00 971.00 L 1294.00 991.00 L 1274.00 971.00 L 1265.00 971.00 L 1236.00 1066.00 Z" stroke-width="1" id="308-11-08" stroke="black"/>
  <path fill="none" d="M 1634.00 1067.00 L 1654.00 1087.00 L 1674.00 1087.00 L 1694.00 1067.00 L 1818.03 1067.00 L 1825.00 999.00 L 1841.94 972.00 L 1574.00 972.00 L 1568.00 971.70 L 1536.00 1067.00 Z" stroke-width="1" id="308-11-09" stroke="black"/>
  <path fill="none" d="M 658.95 1065.00 L 634.00 1138.00 L 616.12 1138.24 L 634.00 1174.00 L 654.00 1174.00 L 674.00 1154.00 L 694.00 1134.00 L 792.00 1134.00 L 798.00 1065.00 Z" stroke-width="1" id="308-12-01" stroke="black"/>
  <path fill="none" d="M 914.00 1134.00 L 914.00 1065.00 L 798.00 1065.00 L 792.00 1134.00 Z" stroke-width="1" id="308-12-02" stroke="black"/>
  <path fill="none" d="M 973.00 1134.00 L 1021.00 1065.35 L 1014.00 1065.00 L 994.00 1065.00 L 974.00 1085.00 L 954.00 1065.00 L 914.00 1065.00 L 914.00 1134.00 Z" stroke-width="1" id="308-12-03" stroke="black"/>
  <path fill="none" d="M 1059.00 1134.00 L 1100.00 1066.00 L 1034.00 1066.00 L 1021.00 1065.35 L 973.00 1134.00 Z" stroke-width="1" id="308-12-04" stroke="black"/>
  <path fill="none" d="M 1134.00 1134.00 L 1154.00 1154.00 L 1174.00 1154.00 L 1194.00 1135.00 L 1217.00 1135.00 L 1232.00 1066.00 L 1100.00 1066.00 L 1059.00 1134.00 Z" stroke-width="1" id="308-12-05" stroke="black"/>
  <path fill="none" d="M 1334.00 1135.00 L 1354.00 1155.00 L 1374.00 1135.00 L 1455.00 1135.00 L 1486.00 1066.00 L 1232.00 1066.00 L 1217.00 1135.00 Z" stroke-width="1" id="308-12-06" stroke="black"/>
  <path fill="none" d="M 1474.00 1135.00 L 1494.00 1155.00 L 1514.00 1135.00 L 1528.00 1135.00 L 1582.00 1067.00 L 1534.00 1067.00 L 1514.00 1066.00 L 1486.00 1066.00 L 1455.00 1135.00 Z" stroke-width="1" id="308-12-07" stroke="black"/>
  <path fill="none" d="M 1661.00 1135.00 L 1682.00 1079.00 L 1674.00 1087.00 L 1654.00 1087.00 L 1634.00 1067.00 L 1582.00 1067.00 L 1528.00 1135.00 Z" stroke-width="1" id="308-12-08" stroke="black"/>
  <path fill="none" d="M 1754.00 1135.00 L 1774.00 1136.00 L 1825.75 1136.00 L 1813.00 1116.00 L 1818.03 1067.00 L 1694.00 1067.00 L 1682.00 1079.00 L 1661.00 1135.00 Z" stroke-width="1" id="308-12-09" stroke="black"/>
  <path fill="none" d="M 199.00 1176.00 L 199.85 1223.00 L 314.00 1223.00 L 334.00 1243.00 L 354.00 1243.00 L 374.00 1223.00 L 414.00 1223.00 L 425.00 1223.55 L 440.12 1140.59 L 259.00 1143.00 Z" stroke-width="1" id="308-13-01" stroke="black"/>
  <path fill="none" d="M 434.00 1224.00 L 768.00 1224.00 L 831.00 1134.00 L 694.00 1134.00 L 674.00 1154.00 L 654.00 1174.00 L 634.00 1174.00 L 616.12 1138.24 L 440.12 1140.59 L 425.00 1223.55 Z" stroke-width="1" id="308-13-02" stroke="black"/>
  <path fill="none" d="M 814.00 1224.00 L 834.00 1225.00 L 951.00 1225.00 L 973.00 1134.00 L 831.00 1134.00 L 768.00 1224.00 Z" stroke-width="1" id="308-13-03" stroke="black"/>
  <path fill="none" d="M 1095.00 1225.00 L 1111.00 1134.00 L 973.00 1134.00 L 951.00 1225.00 Z" stroke-width="1" id="308-13-04" stroke="black"/>
  <path fill="none" d="M 1154.00 1225.00 L 1174.00 1245.00 L 1214.00 1245.00 L 1234.00 1246.00 L 1254.00 1246.00 L 1274.00 1226.00 L 1400.00 1226.00 L 1414.00 1135.00 L 1374.00 1135.00 L 1354.00 1155.00 L 1334.00 1135.00 L 1194.00 1135.00 L 1174.00 1154.00 L 1154.00 1154.00 L 1134.00 1134.00 L 1111.00 1134.00 L 1095.00 1225.00 Z" stroke-width="1" id="308-13-05" stroke="black"/>
  <path fill="none" d="M 1575.00 1226.00 L 1621.00 1135.00 L 1514.00 1135.00 L 1494.00 1155.00 L 1474.00 1135.00 L 1414.00 1135.00 L 1400.00 1226.00 Z" stroke-width="1" id="308-13-06" stroke="black"/>
  <path fill="none" d="M 1594.00 1226.00 L 1614.00 1227.00 L 1705.00 1227.00 L 1721.00 1135.00 L 1621.00 1135.00 L 1575.00 1226.00 Z" stroke-width="1" id="308-13-07" stroke="black"/>
  <path fill="none" d="M 1857.00 1227.00 L 1857.00 1185.00 L 1825.75 1136.00 L 1774.00 1136.00 L 1754.00 1135.00 L 1721.00 1135.00 L 1705.00 1227.00 Z" stroke-width="1" id="308-13-08" stroke="black"/>
  <path fill="none" d="M 199.85 1223.00 L 201.40 1308.00 L 272.40 1308.00 L 300.00 1223.00 Z" stroke-width="1" id="308-14-01" stroke="black"/>
  <path fill="none" d="M 294.00 1308.00 L 314.00 1309.00 L 460.00 1309.00 L 511.00 1224.00 L 434.00 1224.00 L 414.00 1223.00 L 374.00 1223.00 L 354.00 1243.00 L 334.00 1243.00 L 314.00 1223.00 L 300.00 1223.00 L 272.40 1308.00 Z" stroke-width="1" id="308-14-02" stroke="black"/>
  <path fill="none" d="M 574.00 1309.00 L 594.00 1310.00 L 741.00 1310.00 L 771.00 1224.00 L 511.00 1224.00 L 460.00 1309.00 Z" stroke-width="1" id="308-14-03" stroke="black"/>
  <path fill="none" d="M 798.00 1310.00 L 842.00 1225.00 L 834.00 1225.00 L 814.00 1224.00 L 771.00 1224.00 L 741.00 1310.00 Z" stroke-width="1" id="308-14-04" stroke="black"/>
  <path fill="none" d="M 834.00 1310.00 L 854.00 1311.00 L 874.00 1311.00 L 894.00 1331.00 L 914.00 1311.00 L 974.00 1311.00 L 994.00 1291.00 L 1038.00 1225.00 L 842.00 1225.00 L 798.00 1310.00 Z" stroke-width="1" id="308-14-05" stroke="black"/>
  <path fill="none" d="M 1014.00 1311.00 L 1114.00 1311.00 L 1134.00 1312.00 L 1139.00 1312.00 L 1174.00 1245.00 L 1154.00 1225.00 L 1038.00 1225.00 L 994.00 1291.00 Z" stroke-width="1" id="308-14-06" stroke="black"/>
  <path fill="none" d="M 1362.00 1312.00 L 1370.00 1226.00 L 1274.00 1226.00 L 1254.00 1246.00 L 1234.00 1246.00 L 1214.00 1245.00 L 1174.00 1245.00 L 1139.00 1312.00 Z" stroke-width="1" id="308-14-07" stroke="black"/>
  <path fill="none" d="M 1394.00 1312.00 L 1414.00 1313.00 L 1528.00 1313.00 L 1573.00 1226.00 L 1370.00 1226.00 L 1362.00 1312.00 Z" stroke-width="1" id="308-14-08" stroke="black"/>
  <path fill="none" d="M 1625.00 1313.00 L 1650.00 1227.00 L 1614.00 1227.00 L 1594.00 1226.00 L 1573.00 1226.00 L 1528.00 1313.00 Z" stroke-width="1" id="308-14-09" stroke="black"/>
  <path fill="none" d="M 1654.00 1313.00 L 1674.00 1314.00 L 1858.21 1314.00 L 1857.00 1279.00 L 1857.00 1227.00 L 1650.00 1227.00 L 1625.00 1313.00 Z" stroke-width="1" id="308-14-10" stroke="black"/>
  <path fill="none" d="M 201.40 1308.00 L 202.00 1341.00 L 199.70 1403.70 L 214.00 1418.00 L 234.00 1398.00 L 354.00 1398.00 L 374.00 1399.00 L 467.00 1399.00 L 501.00 1309.00 L 314.00 1309.00 L 294.00 1308.00 Z" stroke-width="1" id="308-15-01" stroke="black"/>
  <path fill="none" d="M 534.00 1399.00 L 564.00 1309.00 L 501.00 1309.00 L 467.00 1399.00 Z" stroke-width="1" id="308-15-02" stroke="black"/>
  <path fill="none" d="M 694.00 1399.00 L 714.00 1400.00 L 823.00 1400.00 L 826.00 1310.00 L 594.00 1310.00 L 574.00 1309.00 L 564.00 1309.00 L 534.00 1399.00 Z" stroke-width="1" id="308-15-03" stroke="black"/>
  <path fill="none" d="M 954.00 1400.00 L 966.00 1412.00 L 1056.00 1311.00 L 1014.00 1311.00 L 994.00 1291.00 L 974.00 1311.00 L 914.00 1311.00 L 894.00 1331.00 L 889.00 1400.00 Z" stroke-width="1" id="308-15-04" stroke="black"/>
  <path fill="none" d="M 974.00 1420.00 L 1014.00 1420.00 L 1034.00 1401.00 L 1207.00 1401.00 L 1207.00 1312.00 L 1134.00 1312.00 L 1114.00 1311.00 L 1056.00 1311.00 L 966.00 1412.00 Z" stroke-width="1" id="308-15-05" stroke="black"/>
  <path fill="none" d="M 1354.00 1401.00 L 1374.00 1402.00 L 1405.00 1402.00 L 1433.00 1313.00 L 1414.00 1313.00 L 1394.00 1312.00 L 1207.00 1312.00 L 1207.00 1401.00 Z" stroke-width="1" id="308-15-06" stroke="black"/>
  <path fill="none" d="M 1597.00 1402.00 L 1603.00 1313.00 L 1433.00 1313.00 L 1405.00 1402.00 Z" stroke-width="1" id="308-15-07" stroke="black"/>
  <path fill="none" d="M 1674.00 1402.00 L 1694.00 1403.00 L 1705.00 1403.00 L 1762.21 1314.00 L 1674.00 1314.00 L 1654.00 1313.00 L 1603.00 1313.00 L 1597.00 1402.00 Z" stroke-width="1" id="308-15-08" stroke="black"/>
  <path fill="none" d="M 1805.00 1403.00 L 1837.21 1314.00 L 1762.21 1314.00 L 1705.00 1403.00 Z" stroke-width="1" id="308-15-09" stroke="black"/>
  <path fill="none" d="M 199.70 1403.70 L 198.00 1450.00 L 196.70 1479.00 L 274.00 1479.00 L 294.00 1480.00 L 534.00 1480.00 L 554.00 1481.00 L 574.00 1481.00 L 594.00 1501.00 L 634.00 1501.00 L 654.00 1481.00 L 662.00 1481.00 L 683.00 1399.00 L 374.00 1399.00 L 354.00 1398.00 L 234.00 1398.00 L 214.00 1418.00 Z" stroke-width="1" id="308-16-01" stroke="black"/>
  <path fill="none" d="M 794.00 1481.00 L 814.00 1482.00 L 1054.00 1482.00 L 1069.00 1482.75 L 1104.00 1401.00 L 1034.00 1401.00 L 1014.00 1420.00 L 974.00 1420.00 L 954.00 1400.00 L 714.00 1400.00 L 694.00 1399.00 L 683.00 1399.00 L 662.00 1481.00 Z" stroke-width="1" id="308-16-02" stroke="black"/>
  <path fill="none" d="M 1074.00 1483.00 L 1187.00 1483.00 L 1201.00 1401.00 L 1104.00 1401.00 L 1069.00 1482.75 Z" stroke-width="1" id="308-16-03" stroke="black"/>
  <path fill="none" d="M 1314.00 1483.00 L 1334.00 1484.00 L 1368.00 1484.00 L 1385.00 1402.00 L 1374.00 1402.00 L 1354.00 1401.00 L 1201.00 1401.00 L 1187.00 1483.00 Z" stroke-width="1" id="308-16-04" stroke="black"/>
  <path fill="none" d="M 1574.00 1484.00 L 1594.00 1485.00 L 1630.00 1485.00 L 1676.00 1402.10 L 1674.00 1402.00 L 1385.00 1402.00 L 1368.00 1484.00 Z" stroke-width="1" id="308-16-05" stroke="black"/>
  <path fill="none" d="M 1654.00 1485.00 L 1674.00 1505.00 L 1694.00 1485.00 L 1747.00 1485.00 L 1773.00 1403.00 L 1694.00 1403.00 L 1676.00 1402.10 L 1630.00 1485.00 Z" stroke-width="1" id="308-16-06" stroke="black"/>
  <path fill="none" d="M 1814.00 1485.00 L 1834.00 1486.00 L 1910.26 1486.00 L 1865.33 1403.00 L 1854.00 1403.00 L 1834.00 1383.00 L 1814.00 1403.00 L 1773.00 1403.00 L 1747.00 1485.00 Z" stroke-width="1" id="308-16-07" stroke="black"/>
  <path fill="none" d="M 196.70 1479.00 L 192.73 1568.00 L 318.73 1568.00 L 373.00 1480.00 L 294.00 1480.00 L 274.00 1479.00 Z" stroke-width="1" id="308-17-01" stroke="black"/>
  <path fill="none" d="M 426.73 1568.00 L 450.00 1480.00 L 373.00 1480.00 L 318.73 1568.00 Z" stroke-width="1" id="308-17-02" stroke="black"/>
  <path fill="none" d="M 517.73 1568.00 L 545.00 1480.55 L 534.00 1480.00 L 450.00 1480.00 L 426.73 1568.00 Z" stroke-width="1" id="308-17-03" stroke="black"/>
  <path fill="none" d="M 834.00 1568.00 L 837.00 1568.15 L 857.00 1482.00 L 814.00 1482.00 L 794.00 1481.00 L 654.00 1481.00 L 634.00 1501.00 L 594.00 1501.00 L 574.00 1481.00 L 554.00 1481.00 L 545.00 1480.55 L 517.73 1568.00 Z" stroke-width="1" id="308-17-04" stroke="black"/>
  <path fill="none" d="M 854.00 1569.00 L 933.00 1569.00 L 958.00 1482.00 L 857.00 1482.00 L 837.00 1568.15 Z" stroke-width="1" id="308-17-05" stroke="black"/>
  <path fill="none" d="M 1159.00 1569.00 L 1193.00 1483.00 L 1074.00 1483.00 L 1054.00 1482.00 L 958.00 1482.00 L 933.00 1569.00 Z" stroke-width="1" id="308-17-06" stroke="black"/>
  <path fill="none" d="M 1354.00 1569.00 L 1374.00 1589.00 L 1394.00 1589.00 L 1414.00 1569.00 L 1435.00 1569.00 L 1459.00 1484.00 L 1334.00 1484.00 L 1314.00 1483.00 L 1193.00 1483.00 L 1159.00 1569.00 Z" stroke-width="1" id="308-17-07" stroke="black"/>
  <path fill="none" d="M 1568.00 1569.00 L 1592.00 1484.90 L 1574.00 1484.00 L 1459.00 1484.00 L 1435.00 1569.00 Z" stroke-width="1" id="308-17-08" stroke="black"/>
  <path fill="none" d="M 1634.00 1569.00 L 1654.00 1570.00 L 1753.00 1570.00 L 1762.00 1485.00 L 1694.00 1485.00 L 1674.00 1505.00 L 1654.00 1485.00 L 1594.00 1485.00 L 1592.00 1484.90 L 1568.00 1569.00 Z" stroke-width="1" id="308-17-09" stroke="black"/>
  <path fill="none" d="M 1844.91 1570.00 L 1845.00 1569.00 L 1918.00 1551.00 L 1920.00 1504.00 L 1910.26 1486.00 L 1834.00 1486.00 L 1814.00 1485.00 L 1762.00 1485.00 L 1753.00 1570.00 Z" stroke-width="1" id="308-17-10" stroke="black"/>
  <path fill="none" d="M 192.73 1568.00 L 190.00 1629.00 L 189.73 1652.00 L 314.00 1652.00 L 334.00 1653.00 L 379.00 1653.00 L 404.00 1568.00 Z" stroke-width="1" id="308-18-01" stroke="black"/>
  <path fill="none" d="M 491.00 1653.00 L 500.00 1568.00 L 404.00 1568.00 L 379.00 1653.00 Z" stroke-width="1" id="308-18-02" stroke="black"/>
  <path fill="none" d="M 594.00 1653.00 L 614.00 1654.00 L 752.00 1654.00 L 756.00 1568.00 L 500.00 1568.00 L 491.00 1653.00 Z" stroke-width="1" id="308-18-03" stroke="black"/>
  <path fill="none" d="M 874.00 1654.00 L 887.00 1654.65 L 910.00 1569.00 L 854.00 1569.00 L 834.00 1568.00 L 756.00 1568.00 L 752.00 1654.00 Z" stroke-width="1" id="308-18-04" stroke="black"/>
  <path fill="none" d="M 894.00 1655.00 L 996.00 1655.00 L 1013.00 1569.00 L 910.00 1569.00 L 887.00 1654.65 Z" stroke-width="1" id="308-18-05" stroke="black"/>
  <path fill="none" d="M 1090.00 1655.00 L 1119.00 1569.00 L 1013.00 1569.00 L 996.00 1655.00 Z" stroke-width="1" id="308-18-06" stroke="black"/>
  <path fill="none" d="M 1114.00 1655.00 L 1134.00 1675.00 L 1154.00 1655.00 L 1174.00 1656.00 L 1184.00 1656.00 L 1244.00 1569.00 L 1119.00 1569.00 L 1090.00 1655.00 Z" stroke-width="1" id="308-18-07" stroke="black"/>
  <path fill="none" d="M 1254.00 1656.00 L 1274.00 1676.00 L 1314.00 1676.00 L 1334.00 1656.00 L 1350.00 1656.00 L 1377.00 1589.00 L 1374.00 1589.00 L 1354.00 1569.00 L 1244.00 1569.00 L 1184.00 1656.00 Z" stroke-width="1" id="308-18-08" stroke="black"/>
  <path fill="none" d="M 1354.00 1656.00 L 1374.00 1676.00 L 1394.00 1656.00 L 1421.00 1656.00 L 1489.00 1569.00 L 1414.00 1569.00 L 1394.00 1589.00 L 1377.00 1589.00 L 1350.00 1656.00 Z" stroke-width="1" id="308-18-09" stroke="black"/>
  <path fill="none" d="M 1434.00 1656.00 L 1454.00 1657.00 L 1562.00 1657.00 L 1561.00 1569.00 L 1489.00 1569.00 L 1421.00 1656.00 Z" stroke-width="1" id="308-18-10" stroke="black"/>
  <path fill="none" d="M 1734.00 1657.00 L 1754.00 1658.00 L 1862.92 1658.00 L 1839.00 1638.00 L 1844.91 1570.00 L 1654.00 1570.00 L 1634.00 1569.00 L 1561.00 1569.00 L 1562.00 1657.00 Z" stroke-width="1" id="308-18-11" stroke="black"/>
  <path fill="none" d="M 189.73 1652.00 L 188.72 1738.00 L 294.00 1738.00 L 314.00 1739.00 L 414.00 1739.00 L 434.00 1740.00 L 456.00 1740.00 L 517.00 1653.00 L 334.00 1653.00 L 314.00 1652.00 Z" stroke-width="1" id="308-19-01" stroke="black"/>
  <path fill="none" d="M 554.00 1740.00 L 574.00 1741.00 L 634.00 1741.00 L 654.00 1721.00 L 673.00 1740.00 L 747.00 1654.00 L 614.00 1654.00 L 594.00 1653.00 L 517.00 1653.00 L 456.00 1740.00 Z" stroke-width="1" id="308-19-02" stroke="black"/>
  <path fill="none" d="M 674.00 1741.00 L 694.00 1761.00 L 714.00 1762.00 L 734.00 1742.00 L 814.00 1742.00 L 834.00 1743.00 L 899.00 1743.00 L 919.00 1655.00 L 894.00 1655.00 L 874.00 1654.00 L 747.00 1654.00 L 673.00 1740.00 Z" stroke-width="1" id="308-19-03" stroke="black"/>
  <path fill="none" d="M 954.00 1743.00 L 974.00 1744.00 L 1014.00 1744.00 L 1022.00 1752.00 L 1102.00 1655.00 L 919.00 1655.00 L 899.00 1743.00 Z" stroke-width="1" id="308-19-04" stroke="black"/>
  <path fill="none" d="M 1034.00 1764.00 L 1054.00 1764.00 L 1074.00 1744.00 L 1094.00 1745.00 L 1214.00 1745.00 L 1234.00 1746.00 L 1281.00 1746.00 L 1285.00 1676.00 L 1274.00 1676.00 L 1254.00 1656.00 L 1174.00 1656.00 L 1154.00 1655.00 L 1134.00 1675.00 L 1114.00 1655.00 L 1102.00 1655.00 L 1022.00 1752.00 Z" stroke-width="1" id="308-19-05" stroke="black"/>
  <path fill="none" d="M 1325.00 1746.00 L 1322.00 1668.00 L 1314.00 1676.00 L 1285.00 1676.00 L 1281.00 1746.00 Z" stroke-width="1" id="308-19-06" stroke="black"/>
  <path fill="none" d="M 1354.00 1746.00 L 1374.00 1747.00 L 1380.00 1747.00 L 1437.00 1656.15 L 1434.00 1656.00 L 1394.00 1656.00 L 1374.00 1676.00 L 1354.00 1656.00 L 1334.00 1656.00 L 1322.00 1668.00 L 1325.00 1746.00 Z" stroke-width="1" id="308-19-07" stroke="black"/>
  <path fill="none" d="M 1474.00 1747.00 L 1494.00 1748.00 L 1614.00 1748.00 L 1634.00 1749.00 L 1642.00 1749.00 L 1683.00 1657.00 L 1454.00 1657.00 L 1437.00 1656.15 L 1380.00 1747.00 Z" stroke-width="1" id="308-19-08" stroke="black"/>
  <path fill="none" d="M 1705.00 1749.00 L 1764.92 1658.00 L 1754.00 1658.00 L 1734.00 1657.00 L 1683.00 1657.00 L 1642.00 1749.00 Z" stroke-width="1" id="308-19-09" stroke="black"/>
  <path fill="none" d="M 1754.00 1749.00 L 1774.00 1750.00 L 1874.00 1750.00 L 1894.00 1751.00 L 1897.43 1751.00 L 1912.00 1717.00 L 1900.00 1689.00 L 1862.92 1658.00 L 1764.92 1658.00 L 1705.00 1749.00 Z" stroke-width="1" id="308-19-10" stroke="black"/>
  <path fill="none" d="M 188.72 1738.00 L 187.68 1826.00 L 240.68 1826.00 L 267.00 1738.00 Z" stroke-width="1" id="308-20-01" stroke="black"/>
  <path fill="none" d="M 294.00 1826.00 L 314.00 1827.00 L 414.00 1827.00 L 434.00 1828.00 L 453.00 1828.00 L 506.00 1740.00 L 434.00 1740.00 L 414.00 1739.00 L 314.00 1739.00 L 294.00 1738.00 L 267.00 1738.00 L 240.68 1826.00 Z" stroke-width="1" id="308-20-02" stroke="black"/>
  <path fill="none" d="M 545.00 1828.00 L 537.00 1740.00 L 506.00 1740.00 L 453.00 1828.00 Z" stroke-width="1" id="308-20-03" stroke="black"/>
  <path fill="none" d="M 554.00 1828.00 L 574.00 1829.00 L 694.00 1829.00 L 714.00 1830.00 L 814.00 1830.00 L 834.00 1831.00 L 895.00 1831.00 L 947.00 1743.00 L 834.00 1743.00 L 814.00 1742.00 L 734.00 1742.00 L 714.00 1762.00 L 694.00 1761.00 L 674.00 1741.00 L 654.00 1721.00 L 634.00 1741.00 L 574.00 1741.00 L 554.00 1740.00 L 537.00 1740.00 L 545.00 1828.00 Z" stroke-width="1" id="308-20-04" stroke="black"/>
  <path fill="none" d="M 948.08 1831.00 L 949.00 1828.00 L 1112.00 1828.50 L 1158.00 1745.00 L 1094.00 1745.00 L 1074.00 1744.00 L 1054.00 1764.00 L 1034.00 1764.00 L 1014.00 1744.00 L 974.00 1744.00 L 954.00 1743.00 L 947.00 1743.00 L 895.00 1831.00 Z" stroke-width="1" id="308-20-05" stroke="black"/>
  <path fill="none" d="M 1277.00 1829.01 L 1307.00 1746.00 L 1234.00 1746.00 L 1214.00 1745.00 L 1158.00 1745.00 L 1112.00 1828.50 Z" stroke-width="1" id="308-20-06" stroke="black"/>
  <path fill="none" d="M 1371.00 1829.30 L 1343.00 1746.00 L 1307.00 1746.00 L 1277.00 1829.01 Z" stroke-width="1" id="308-20-07" stroke="black"/>
  <path fill="none" d="M 1491.00 1829.67 L 1504.00 1748.00 L 1494.00 1748.00 L 1474.00 1747.00 L 1374.00 1747.00 L 1354.00 1746.00 L 1343.00 1746.00 L 1371.00 1829.30 Z" stroke-width="1" id="308-20-08" stroke="black"/>
  <path fill="none" d="M 1600.00 1830.00 L 1636.00 1851.00 L 1640.57 1850.43 L 1654.00 1837.00 L 1697.00 1837.00 L 1707.00 1749.00 L 1634.00 1749.00 L 1614.00 1748.00 L 1504.00 1748.00 L 1491.00 1829.67 Z" stroke-width="1" id="308-20-09" stroke="black"/>
  <path fill="none" d="M 1747.52 1837.00 L 1867.00 1822.00 L 1897.43 1751.00 L 1894.00 1751.00 L 1874.00 1750.00 L 1774.00 1750.00 L 1754.00 1749.00 L 1707.00 1749.00 L 1697.00 1837.00 Z" stroke-width="1" id="308-20-10" stroke="black"/>
  <path fill="none" d="M 187.68 1826.00 L 187.00 1884.00 L 231.38 1923.00 L 232.38 1923.00 L 332.00 1827.00 L 314.00 1827.00 L 294.00 1826.00 Z" stroke-width="1" id="308-21-01" stroke="black"/>
  <path fill="none" d="M 234.00 1923.00 L 253.00 1942.00 L 277.96 1939.04 L 294.00 1923.00 L 314.00 1924.00 L 404.71 1924.00 L 589.71 1902.05 L 611.00 1829.00 L 574.00 1829.00 L 554.00 1828.00 L 434.00 1828.00 L 414.00 1827.00 L 332.00 1827.00 L 232.38 1923.00 Z" stroke-width="1" id="308-21-02" stroke="black"/>
  <path fill="none" d="M 607.00 1900.00 L 622.36 1926.00 L 662.36 1926.00 L 733.00 1830.00 L 714.00 1830.00 L 694.00 1829.00 L 611.00 1829.00 L 589.71 1902.05 Z" stroke-width="1" id="308-21-03" stroke="black"/>
  <path fill="none" d="M 674.00 1926.00 L 694.00 1906.00 L 714.00 1907.00 L 754.00 1907.00 L 774.00 1927.00 L 814.00 1927.00 L 834.00 1928.00 L 911.00 1928.00 L 927.08 1831.00 L 834.00 1831.00 L 814.00 1830.00 L 733.00 1830.00 L 662.36 1926.00 Z" stroke-width="1" id="308-21-04" stroke="black"/>
  <path fill="none" d="M 588.00 2022.00 L 612.89 2043.00 L 614.00 2043.00 L 634.00 2037.00 L 654.00 2029.00 L 674.00 2011.00 L 694.00 2007.00 L 714.00 1991.00 L 734.00 1991.00 L 754.00 1992.00 L 854.00 1992.00 L 874.00 1993.00 L 885.00 1993.00 L 924.00 1928.00 L 834.00 1928.00 L 814.00 1927.00 L 774.00 1927.00 L 754.00 1907.00 L 714.00 1907.00 L 694.00 1906.00 L 674.00 1926.00 L 646.00 1966.00 Z" stroke-width="1" id="308-22-01" stroke="black"/>
  <path fill="none" d="M 974.00 1993.00 L 984.00 1993.50 L 1019.00 1929.00 L 1014.00 1929.00 L 994.00 1909.00 L 974.00 1929.00 L 954.00 1928.00 L 924.00 1928.00 L 885.00 1993.00 Z" stroke-width="1" id="308-22-02" stroke="black"/>
  <path fill="none" d="M 994.00 1994.00 L 1094.00 1994.00 L 1114.00 1995.00 L 1134.00 1975.00 L 1154.00 1995.00 L 1194.00 1995.00 L 1214.00 1996.00 L 1314.00 1996.00 L 1321.51 1996.38 L 1526.51 1982.79 L 1549.00 1933.00 L 1494.00 1933.00 L 1474.00 1932.00 L 1414.00 1932.00 L 1396.70 1914.70 L 1391.57 1914.43 L 1374.00 1932.00 L 1354.00 1931.00 L 1234.00 1931.00 L 1214.00 1930.00 L 1194.00 1930.00 L 1174.00 1910.00 L 1114.00 1910.00 L 1094.00 1930.00 L 1074.00 1929.00 L 1019.00 1929.00 L 984.00 1993.50 Z" stroke-width="1" id="308-22-03" stroke="black"/>
  <path fill="none" d="M 1644.00 1975.00 L 1631.14 1933.86 L 1614.00 1933.00 L 1594.00 1933.00 L 1585.71 1924.71 L 1563.47 1923.53 L 1554.00 1933.00 L 1549.00 1933.00 L 1526.51 1982.79 Z" stroke-width="1" id="308-22-04" stroke="black"/>
  <path fill="none" d="M 650.81 2075.00 L 1022.81 2075.00 L 1053.00 1994.00 L 994.00 1994.00 L 974.00 1993.00 L 874.00 1993.00 L 854.00 1992.00 L 754.00 1992.00 L 734.00 1991.00 L 714.00 1991.00 L 694.00 2007.00 L 681.00 2009.60 L 637.89 2064.10 Z" stroke-width="1" id="308-23-01" stroke="black"/>
  <path fill="none" d="M 1113.81 2075.00 L 1179.00 1995.00 L 1154.00 1995.00 L 1134.00 1975.00 L 1114.00 1995.00 L 1094.00 1994.00 L 1053.00 1994.00 L 1022.81 2075.00 Z" stroke-width="1" id="308-23-02" stroke="black"/>
  <path fill="none" d="M 1302.61 2075.00 L 1297.00 1998.00 L 1321.51 1996.38 L 1314.00 1996.00 L 1214.00 1996.00 L 1194.00 1995.00 L 1179.00 1995.00 L 1113.81 2075.00 Z" stroke-width="1" id="308-23-03" stroke="black"/>
  <path fill="none" d="M 51.00 2173.00 L 43.00 2253.00 L 136.00 2254.50 L 196.69 2140.62 L 145.00 2140.00 L 115.00 2137.00 Z" stroke-width="1" id="308-25-01" stroke="black"/>
  <path fill="none" d="M 229.00 2256.00 L 259.00 2256.00 L 307.00 2150.00 L 274.00 2150.00 L 254.69 2141.31 L 196.69 2140.62 L 136.00 2254.50 Z" stroke-width="1" id="308-25-02" stroke="black"/>
  <path fill="none" d="M 314.00 2256.00 L 334.00 2255.00 L 534.00 2255.00 L 554.00 2235.00 L 566.00 2149.00 L 454.00 2149.00 L 434.00 2150.00 L 307.00 2150.00 L 259.00 2256.00 Z" stroke-width="1" id="308-25-03" stroke="black"/>
  <path fill="none" d="M 574.00 2255.00 L 614.00 2255.00 L 634.00 2254.00 L 848.00 2254.00 L 854.00 2147.00 L 834.00 2148.00 L 654.00 2148.00 L 634.00 2149.00 L 566.00 2149.00 L 554.00 2235.00 Z" stroke-width="1" id="308-25-04" stroke="black"/>
  <path fill="none" d="M 914.00 2254.00 L 934.00 2253.00 L 1054.00 2253.00 L 1063.04 2262.04 L 1083.81 2263.19 L 1094.00 2253.00 L 1112.00 2253.00 L 1153.00 2146.00 L 1054.00 2146.00 L 1034.00 2147.00 L 854.00 2147.00 L 848.00 2254.00 Z" stroke-width="1" id="308-25-05" stroke="black"/>
  <path fill="none" d="M 1191.00 2253.00 L 1252.00 2145.10 L 1234.00 2146.00 L 1153.00 2146.00 L 1112.00 2253.00 Z" stroke-width="1" id="308-25-06" stroke="black"/>
  <path fill="none" d="M 1214.00 2253.00 L 1234.00 2252.00 L 1348.00 2252.00 L 1376.00 2151.63 L 1308.00 2149.00 L 1307.71 2145.00 L 1254.00 2145.00 L 1252.00 2145.10 L 1191.00 2253.00 Z" stroke-width="1" id="308-25-07" stroke="black"/>
  <path fill="none" d="M 1394.00 2252.00 L 1408.60 2281.20 L 1441.00 2283.00 L 1443.53 2282.47 L 1454.00 2272.00 L 1474.00 2272.00 L 1494.00 2252.00 L 1514.00 2252.00 L 1534.00 2251.00 L 1593.77 2251.00 L 1737.00 2221.00 L 1747.00 2166.00 L 1376.00 2151.63 L 1348.00 2252.00 Z" stroke-width="1" id="308-25-08" stroke="black"/>
  <path fill="none" d="M 423.00 2337.00 L 434.70 2344.00 L 474.00 2344.00 L 494.00 2375.00 L 514.00 2375.00 L 534.00 2371.00 L 554.00 2353.00 L 574.00 2353.00 L 594.00 2355.00 L 614.00 2343.00 L 634.00 2339.00 L 674.00 2339.00 L 694.00 2329.00 L 714.00 2325.00 L 734.00 2325.00 L 754.00 2327.00 L 774.00 2327.00 L 794.00 2329.00 L 814.00 2331.00 L 854.00 2331.00 L 874.00 2333.00 L 898.00 2333.00 L 909.00 2254.00 L 634.00 2254.00 L 614.00 2255.00 L 574.00 2255.00 L 554.00 2235.00 L 534.00 2255.00 L 503.00 2255.00 L 460.00 2284.24 Z" stroke-width="1" id="308-26-01" stroke="black"/>
  <path fill="none" d="M 715.00 2429.00 L 766.00 2333.40 L 754.00 2331.00 L 734.00 2329.00 L 714.00 2335.00 L 694.00 2341.00 L 674.00 2355.00 L 654.00 2362.00 L 645.00 2362.00 L 610.00 2429.00 Z" stroke-width="1" id="308-27-01" stroke="black"/>
  <path fill="none" d="M 904.00 2429.00 L 916.00 2343.20 L 914.00 2343.00 L 854.00 2343.00 L 834.00 2341.00 L 814.00 2339.00 L 794.00 2337.00 L 774.00 2335.00 L 766.00 2333.40 L 715.00 2429.00 Z" stroke-width="1" id="308-27-02" stroke="black"/>
  <path fill="none" d="M 934.00 2429.00 L 954.00 2428.00 L 996.00 2428.00 L 1023.00 2347.00 L 974.00 2347.00 L 954.00 2345.00 L 934.00 2345.00 L 916.00 2343.20 L 904.00 2429.00 Z" stroke-width="1" id="308-27-03" stroke="black"/>
  <path fill="none" d="M 1136.00 2428.00 L 1171.00 2345.00 L 1154.00 2345.00 L 1134.00 2343.00 L 1074.00 2343.00 L 1054.00 2347.00 L 1023.00 2347.00 L 996.00 2428.00 Z" stroke-width="1" id="308-27-04" stroke="black"/>
  <path fill="none" d="M 1154.00 2428.00 L 1174.00 2448.00 L 1194.00 2468.00 L 1214.00 2448.00 L 1234.00 2448.00 L 1254.00 2428.00 L 1372.00 2428.00 L 1403.00 2349.00 L 1294.00 2349.00 L 1274.00 2347.00 L 1194.00 2347.00 L 1174.00 2345.00 L 1171.00 2345.00 L 1136.00 2428.00 Z" stroke-width="1" id="308-27-05" stroke="black"/>
  <path fill="none" d="M 1394.00 2428.00 L 1414.00 2427.00 L 1574.00 2427.00 L 1594.00 2407.00 L 1613.00 2345.00 L 1454.00 2345.00 L 1434.00 2347.00 L 1414.00 2349.00 L 1403.00 2349.00 L 1372.00 2428.00 Z" stroke-width="1" id="308-27-06" stroke="black"/>
  <path fill="none" d="M 1614.00 2427.00 L 1714.00 2427.00 L 1721.00 2404.31 L 1698.63 2344.07 L 1694.00 2345.00 L 1613.00 2345.00 L 1594.00 2407.00 Z" stroke-width="1" id="308-27-07" stroke="black"/>
  <path fill="none" d="M 138.00 2490.00 L 137.27 2511.00 L 326.27 2511.00 L 360.00 2430.00 L 201.64 2430.00 Z" stroke-width="1" id="308-28-01" stroke="black"/>
  <path fill="none" d="M 535.27 2511.00 L 574.00 2429.00 L 494.00 2429.00 L 474.00 2430.00 L 360.00 2430.00 L 326.27 2511.00 Z" stroke-width="1" id="308-28-02" stroke="black"/>
  <path fill="none" d="M 947.27 2511.00 L 976.00 2428.00 L 954.00 2428.00 L 934.00 2429.00 L 574.00 2429.00 L 535.27 2511.00 Z" stroke-width="1" id="308-28-03" stroke="black"/>
  <path fill="none" d="M 1174.00 2511.00 L 1194.00 2527.00 L 1195.00 2527.90 L 1282.00 2428.00 L 1254.00 2428.00 L 1234.00 2448.00 L 1214.00 2448.00 L 1194.00 2468.00 L 1174.00 2448.00 L 1154.00 2428.00 L 976.00 2428.00 L 947.27 2511.00 Z" stroke-width="1" id="308-28-04" stroke="black"/>
  <path fill="none" d="M 1214.00 2545.00 L 1234.00 2547.00 L 1254.00 2547.00 L 1274.00 2511.00 L 1425.00 2511.00 L 1441.00 2427.00 L 1414.00 2427.00 L 1394.00 2428.00 L 1282.00 2428.00 L 1195.00 2527.90 Z" stroke-width="1" id="308-28-05" stroke="black"/>
  <path fill="none" d="M 1592.00 2511.00 L 1574.00 2427.00 L 1441.00 2427.00 L 1425.00 2511.00 Z" stroke-width="1" id="308-28-06" stroke="black"/>
  <path fill="none" d="M 1656.00 2511.00 L 1684.51 2427.00 L 1614.00 2427.00 L 1594.00 2407.00 L 1574.00 2427.00 L 1592.00 2511.00 Z" stroke-width="1" id="308-28-07" stroke="black"/>
  <path fill="none" d="M 1895.73 2511.00 L 1900.00 2470.00 L 1778.51 2427.00 L 1684.51 2427.00 L 1656.00 2511.00 Z" stroke-width="1" id="308-28-08" stroke="black"/>
  <path fill="none" d="M 137.27 2511.00 L 134.02 2604.00 L 252.02 2604.00 L 310.00 2511.00 Z" stroke-width="1" id="308-29-01" stroke="black"/>
  <path fill="none" d="M 254.00 2604.00 L 274.00 2624.00 L 294.00 2604.00 L 424.00 2604.00 L 473.00 2511.00 L 310.00 2511.00 L 252.02 2604.00 Z" stroke-width="1" id="308-29-02" stroke="black"/>
  <path fill="none" d="M 454.00 2604.00 L 474.00 2624.00 L 494.00 2604.00 L 514.00 2624.00 L 534.00 2624.00 L 554.00 2604.00 L 814.00 2604.00 L 834.00 2624.00 L 854.00 2604.00 L 905.00 2604.00 L 926.00 2511.00 L 473.00 2511.00 L 424.00 2604.00 Z" stroke-width="1" id="308-29-03" stroke="black"/>
  <path fill="none" d="M 1089.00 2604.00 L 1130.00 2511.00 L 926.00 2511.00 L 905.00 2604.00 Z" stroke-width="1" id="308-29-04" stroke="black"/>
  <path fill="none" d="M 1234.00 2604.00 L 1254.00 2605.00 L 1298.00 2605.00 L 1334.73 2511.00 L 1274.00 2511.00 L 1254.00 2547.00 L 1234.00 2547.00 L 1214.00 2545.00 L 1194.00 2527.00 L 1174.00 2511.00 L 1130.00 2511.00 L 1089.00 2604.00 Z" stroke-width="1" id="308-29-05" stroke="black"/>
  <path fill="none" d="M 1394.00 2605.00 L 1461.73 2511.00 L 1334.73 2511.00 L 1298.00 2605.00 Z" stroke-width="1" id="308-29-06" stroke="black"/>
  <path fill="none" d="M 1574.00 2605.00 L 1594.00 2625.00 L 1614.00 2625.00 L 1634.00 2605.00 L 1714.00 2605.00 L 1734.00 2625.00 L 1754.00 2605.00 L 1780.00 2605.00 L 1814.73 2511.00 L 1461.73 2511.00 L 1394.00 2605.00 Z" stroke-width="1" id="308-29-07" stroke="black"/>
  <path fill="none" d="M 1894.06 2605.00 L 1890.00 2566.00 L 1895.73 2511.00 L 1814.73 2511.00 L 1780.00 2605.00 Z" stroke-width="1" id="308-29-08" stroke="black"/>
  <path fill="none" d="M 134.02 2604.00 L 130.20 2713.39 L 134.00 2721.00 L 154.00 2701.00 L 174.00 2681.00 L 317.00 2681.00 L 330.00 2604.00 L 294.00 2604.00 L 274.00 2624.00 L 254.00 2604.00 Z" stroke-width="1" id="308-30-01" stroke="black"/>
  <path fill="none" d="M 474.00 2681.00 L 494.00 2701.00 L 514.00 2701.00 L 534.00 2681.00 L 547.00 2681.00 L 572.00 2604.00 L 554.00 2604.00 L 534.00 2624.00 L 514.00 2624.00 L 494.00 2604.00 L 474.00 2624.00 L 454.00 2604.00 L 330.00 2604.00 L 317.00 2681.00 Z" stroke-width="1" id="308-30-02" stroke="black"/>
  <path fill="none" d="M 714.00 2681.00 L 726.00 2693.00 L 793.00 2604.00 L 572.00 2604.00 L 547.00 2681.00 Z" stroke-width="1" id="308-30-03" stroke="black"/>
  <path fill="none" d="M 734.00 2701.00 L 754.00 2701.00 L 774.00 2681.00 L 1074.00 2681.00 L 1094.00 2701.00 L 1114.00 2701.00 L 1134.00 2681.00 L 1154.00 2681.00 L 1163.00 2690.00 L 1204.00 2604.00 L 854.00 2604.00 L 834.00 2624.00 L 814.00 2604.00 L 793.00 2604.00 L 726.00 2693.00 Z" stroke-width="1" id="308-30-04" stroke="black"/>
  <path fill="none" d="M 1174.00 2701.00 L 1214.00 2701.00 L 1234.00 2681.00 L 1254.00 2682.00 L 1414.00 2682.00 L 1434.00 2702.00 L 1454.00 2682.00 L 1497.00 2682.00 L 1524.00 2605.00 L 1254.00 2605.00 L 1234.00 2604.00 L 1204.00 2604.00 L 1163.00 2690.00 Z" stroke-width="1" id="308-30-05" stroke="black"/>
  <path fill="none" d="M 1572.00 2682.00 L 1596.00 2625.00 L 1594.00 2625.00 L 1574.00 2605.00 L 1524.00 2605.00 L 1497.00 2682.00 Z" stroke-width="1" id="308-30-06" stroke="black"/>
  <path fill="none" d="M 1846.92 2682.00 L 1900.00 2662.00 L 1894.06 2605.00 L 1754.00 2605.00 L 1734.00 2625.00 L 1714.00 2605.00 L 1634.00 2605.00 L 1614.00 2625.00 L 1596.00 2625.00 L 1572.00 2682.00 Z" stroke-width="1" id="308-30-07" stroke="black"/>
  <path fill="none" d="M 130.20 2713.39 L 130.00 2719.00 L 127.16 2761.00 L 256.16 2761.00 L 260.00 2681.00 L 174.00 2681.00 L 154.00 2701.00 L 134.00 2721.00 Z" stroke-width="1" id="308-31-01" stroke="black"/>
  <path fill="none" d="M 334.00 2795.00 L 354.00 2813.00 L 374.00 2809.00 L 394.00 2805.00 L 414.00 2793.00 L 434.00 2781.00 L 454.00 2775.00 L 474.00 2761.00 L 552.00 2761.00 L 580.00 2681.00 L 534.00 2681.00 L 514.00 2701.00 L 494.00 2701.00 L 474.00 2681.00 L 386.00 2681.00 L 326.00 2781.40 Z" stroke-width="1" id="308-31-02" stroke="black"/>
  <path fill="none" d="M 719.00 2761.00 L 699.00 2681.00 L 580.00 2681.00 L 552.00 2761.00 Z" stroke-width="1" id="308-31-03" stroke="black"/>
  <path fill="none" d="M 754.00 2761.00 L 763.00 2779.00 L 842.00 2681.00 L 774.00 2681.00 L 754.00 2701.00 L 734.00 2701.00 L 714.00 2681.00 L 699.00 2681.00 L 719.00 2761.00 Z" stroke-width="1" id="308-31-04" stroke="black"/>
  <path fill="none" d="M 774.00 2801.00 L 794.00 2801.00 L 814.00 2761.00 L 1074.00 2761.00 L 1080.00 2774.80 L 1170.00 2697.00 L 1154.00 2681.00 L 1134.00 2681.00 L 1114.00 2701.00 L 1094.00 2701.00 L 1074.00 2681.00 L 842.00 2681.00 L 763.00 2779.00 Z" stroke-width="1" id="308-31-05" stroke="black"/>
  <path fill="none" d="M 1094.00 2807.00 L 1114.00 2807.00 L 1134.00 2801.00 L 1154.00 2781.00 L 1174.00 2761.00 L 1334.00 2761.00 L 1354.00 2781.00 L 1394.00 2781.00 L 1414.00 2761.00 L 1469.92 2682.00 L 1454.00 2682.00 L 1434.00 2702.00 L 1414.00 2682.00 L 1254.00 2682.00 L 1234.00 2681.00 L 1214.00 2701.00 L 1174.00 2701.00 L 1170.00 2697.00 L 1080.00 2774.80 Z" stroke-width="1" id="308-31-06" stroke="black"/>
  <path fill="none" d="M 1534.00 2761.00 L 1554.00 2781.00 L 1574.00 2781.00 L 1594.00 2761.00 L 1607.00 2761.00 L 1611.92 2682.00 L 1469.92 2682.00 L 1414.00 2761.00 Z" stroke-width="1" id="308-31-07" stroke="black"/>
  <path fill="none" d="M 1825.03 2761.00 L 1812.00 2743.00 L 1831.00 2688.00 L 1846.92 2682.00 L 1611.92 2682.00 L 1607.00 2761.00 Z" stroke-width="1" id="308-31-08" stroke="black"/>
  <path fill="none" d="M 127.16 2761.00 L 121.08 2851.00 L 314.00 2851.00 L 315.00 2852.90 L 373.00 2809.20 L 354.00 2813.00 L 334.00 2795.00 L 314.00 2761.00 Z" stroke-width="1" id="308-32-01" stroke="black"/>
  <path fill="none" d="M 334.00 2889.00 L 354.00 2885.00 L 374.00 2871.00 L 394.00 2867.00 L 414.00 2863.00 L 434.00 2851.00 L 534.00 2851.00 L 569.00 2761.00 L 474.00 2761.00 L 454.00 2775.00 L 434.00 2781.00 L 414.00 2793.00 L 394.00 2805.00 L 374.00 2809.00 L 373.00 2809.20 L 315.00 2852.90 Z" stroke-width="1" id="308-32-02" stroke="black"/>
  <path fill="none" d="M 774.00 2851.00 L 776.00 2853.00 L 842.00 2761.00 L 814.00 2761.00 L 794.00 2801.00 L 774.00 2801.00 L 754.00 2761.00 L 569.00 2761.00 L 534.00 2851.00 Z" stroke-width="1" id="308-32-03" stroke="black"/>
  <path fill="none" d="M 794.00 2871.00 L 814.00 2851.00 L 874.00 2851.00 L 894.00 2852.00 L 982.00 2852.00 L 1027.00 2761.00 L 842.00 2761.00 L 776.00 2853.00 Z" stroke-width="1" id="308-32-04" stroke="black"/>
  <path fill="none" d="M 1111.00 2852.00 L 1117.00 2806.10 L 1114.00 2807.00 L 1094.00 2807.00 L 1074.00 2761.00 L 1027.00 2761.00 L 982.00 2852.00 Z" stroke-width="1" id="308-32-05" stroke="black"/>
  <path fill="none" d="M 1354.00 2852.00 L 1374.00 2872.00 L 1414.00 2872.00 L 1434.00 2852.00 L 1451.00 2852.00 L 1488.00 2761.00 L 1414.00 2761.00 L 1394.00 2781.00 L 1354.00 2781.00 L 1334.00 2761.00 L 1174.00 2761.00 L 1154.00 2781.00 L 1134.00 2801.00 L 1117.00 2806.10 L 1111.00 2852.00 Z" stroke-width="1" id="308-32-06" stroke="black"/>
  <path fill="none" d="M 1454.00 2852.00 L 1474.00 2872.00 L 1494.00 2852.00 L 1589.00 2852.00 L 1579.00 2776.00 L 1574.00 2781.00 L 1554.00 2781.00 L 1534.00 2761.00 L 1488.00 2761.00 L 1451.00 2852.00 Z" stroke-width="1" id="308-32-07" stroke="black"/>
  <path fill="none" d="M 1711.00 2852.00 L 1725.03 2761.00 L 1594.00 2761.00 L 1579.00 2776.00 L 1589.00 2852.00 Z" stroke-width="1" id="308-32-08" stroke="black"/>
  <path fill="none" d="M 1714.00 2852.00 L 1734.00 2853.00 L 1863.81 2853.00 L 1875.00 2830.00 L 1825.03 2761.00 L 1725.03 2761.00 L 1711.00 2852.00 Z" stroke-width="1" id="308-32-09" stroke="black"/>
  <path fill="none" d="M 121.08 2851.00 L 115.00 2941.00 L 116.67 2966.00 L 134.00 2966.00 L 154.00 2946.00 L 333.00 2946.00 L 357.00 2882.90 L 354.00 2885.00 L 334.00 2889.00 L 314.00 2851.00 Z" stroke-width="1" id="308-33-01" stroke="black"/>
  <path fill="none" d="M 454.00 2946.00 L 474.00 2947.00 L 501.00 2947.00 L 545.00 2851.00 L 434.00 2851.00 L 414.00 2863.00 L 394.00 2867.00 L 374.00 2871.00 L 357.00 2882.90 L 333.00 2946.00 Z" stroke-width="1" id="308-33-02" stroke="black"/>
  <path fill="none" d="M 634.00 2947.00 L 654.00 2967.00 L 694.00 2967.00 L 714.00 2947.00 L 734.00 2947.00 L 745.00 2851.00 L 545.00 2851.00 L 501.00 2947.00 Z" stroke-width="1" id="308-33-03" stroke="black"/>
  <path fill="none" d="M 894.00 2947.00 L 914.00 2948.00 L 987.00 2948.00 L 985.00 2852.00 L 894.00 2852.00 L 874.00 2851.00 L 814.00 2851.00 L 794.00 2871.00 L 774.00 2851.00 L 745.00 2851.00 L 734.00 2947.00 Z" stroke-width="1" id="308-33-04" stroke="black"/>
  <path fill="none" d="M 994.00 2948.00 L 1014.00 2968.00 L 1034.00 2968.00 L 1054.00 2948.00 L 1113.00 2948.00 L 1162.00 2852.00 L 985.00 2852.00 L 987.00 2948.00 Z" stroke-width="1" id="308-33-05" stroke="black"/>
  <path fill="none" d="M 1154.00 2948.00 L 1174.00 2928.00 L 1194.00 2948.00 L 1290.00 2948.00 L 1375.00 2872.00 L 1374.00 2872.00 L 1354.00 2852.00 L 1162.00 2852.00 L 1113.00 2948.00 Z" stroke-width="1" id="308-33-06" stroke="black"/>
  <path fill="none" d="M 1294.00 2948.00 L 1314.00 2968.00 L 1334.00 2968.00 L 1354.00 2949.00 L 1519.00 2949.00 L 1551.00 2852.00 L 1494.00 2852.00 L 1474.00 2872.00 L 1454.00 2852.00 L 1434.00 2852.00 L 1414.00 2872.00 L 1375.00 2872.00 L 1290.00 2948.00 Z" stroke-width="1" id="308-33-07" stroke="black"/>
  <path fill="none" d="M 1754.00 2949.00 L 1774.00 2950.00 L 1812.65 2950.00 L 1839.00 2904.00 L 1863.81 2853.00 L 1734.00 2853.00 L 1714.00 2852.00 L 1551.00 2852.00 L 1519.00 2949.00 Z" stroke-width="1" id="308-33-08" stroke="black"/>
  <path fill="none" d="M 116.67 2966.00 L 120.40 3022.00 L 234.00 3022.00 L 254.00 3023.00 L 292.00 3023.00 L 294.00 2946.00 L 154.00 2946.00 L 134.00 2966.00 Z" stroke-width="1" id="308-34-01" stroke="black"/>
  <path fill="none" d="M 334.00 3023.00 L 342.00 3031.00 L 409.00 2946.00 L 294.00 2946.00 L 292.00 3023.00 Z" stroke-width="1" id="308-34-02" stroke="black"/>
  <path fill="none" d="M 354.00 3043.00 L 374.00 3043.00 L 394.00 3023.00 L 434.00 3023.00 L 454.00 3024.00 L 634.00 3024.00 L 654.00 3025.00 L 713.00 3025.00 L 725.00 2947.00 L 714.00 2947.00 L 694.00 2967.00 L 654.00 2967.00 L 634.00 2947.00 L 474.00 2947.00 L 454.00 2946.00 L 409.00 2946.00 L 342.00 3031.00 Z" stroke-width="1" id="308-34-03" stroke="black"/>
  <path fill="none" d="M 831.00 3025.00 L 848.00 2947.00 L 725.00 2947.00 L 713.00 3025.00 Z" stroke-width="1" id="308-34-04" stroke="black"/>
  <path fill="none" d="M 834.00 3025.00 L 854.00 3026.00 L 1034.00 3026.00 L 1054.00 3027.00 L 1086.00 3027.00 L 1118.00 2948.00 L 1054.00 2948.00 L 1034.00 2968.00 L 1014.00 2968.00 L 994.00 2948.00 L 914.00 2948.00 L 894.00 2947.00 L 848.00 2947.00 L 831.00 3025.00 Z" stroke-width="1" id="308-34-05" stroke="black"/>
  <path fill="none" d="M 1234.00 3027.00 L 1254.00 3028.00 L 1303.00 3028.00 L 1324.00 2968.00 L 1314.00 2968.00 L 1294.00 2948.00 L 1194.00 2948.00 L 1174.00 2928.00 L 1154.00 2948.00 L 1118.00 2948.00 L 1086.00 3027.00 Z" stroke-width="1" id="308-34-06" stroke="black"/>
  <path fill="none" d="M 1389.00 3028.00 L 1405.00 2949.00 L 1354.00 2949.00 L 1334.00 2968.00 L 1324.00 2968.00 L 1303.00 3028.00 Z" stroke-width="1" id="308-34-07" stroke="black"/>
  <path fill="none" d="M 1434.00 3028.00 L 1454.00 3029.00 L 1654.00 3029.00 L 1674.00 3030.00 L 1694.00 3010.00 L 1714.00 3050.00 L 1734.00 3050.00 L 1754.00 3030.00 L 1774.00 3030.00 L 1792.55 3011.45 L 1780.00 3007.00 L 1812.65 2950.00 L 1774.00 2950.00 L 1754.00 2949.00 L 1405.00 2949.00 L 1389.00 3028.00 Z" stroke-width="1" id="308-34-08" stroke="black"/>
  <path fill="none" d="M 120.40 3022.00 L 121.00 3031.00 L 123.66 3102.00 L 154.00 3102.00 L 174.00 3103.00 L 214.00 3103.00 L 234.00 3123.00 L 274.00 3123.00 L 294.00 3103.00 L 314.00 3104.00 L 394.00 3104.00 L 414.00 3124.00 L 434.00 3125.00 L 458.00 3125.00 L 500.00 3024.00 L 454.00 3024.00 L 434.00 3023.00 L 394.00 3023.00 L 374.00 3043.00 L 354.00 3043.00 L 334.00 3023.00 L 254.00 3023.00 L 234.00 3022.00 Z" stroke-width="1" id="308-35-01" stroke="black"/>
  <path fill="none" d="M 494.00 3125.00 L 514.00 3105.00 L 554.00 3105.00 L 574.00 3106.00 L 599.00 3106.00 L 624.00 3024.00 L 500.00 3024.00 L 458.00 3125.00 Z" stroke-width="1" id="308-35-02" stroke="black"/>
  <path fill="none" d="M 694.00 3106.00 L 714.00 3107.00 L 757.00 3107.00 L 781.00 3025.00 L 654.00 3025.00 L 634.00 3024.00 L 624.00 3024.00 L 599.00 3106.00 Z" stroke-width="1" id="308-35-03" stroke="black"/>
  <path fill="none" d="M 814.00 3107.00 L 834.00 3108.00 L 854.00 3128.00 L 914.00 3128.00 L 934.00 3108.00 L 954.00 3108.00 L 974.00 3109.00 L 1062.00 3109.00 L 1105.00 3027.00 L 1054.00 3027.00 L 1034.00 3026.00 L 854.00 3026.00 L 834.00 3025.00 L 781.00 3025.00 L 757.00 3107.00 Z" stroke-width="1" id="308-35-04" stroke="black"/>
  <path fill="none" d="M 1074.00 3109.00 L 1094.00 3110.00 L 1214.00 3110.00 L 1234.00 3111.00 L 1249.00 3111.00 L 1258.00 3028.00 L 1254.00 3028.00 L 1234.00 3027.00 L 1105.00 3027.00 L 1062.00 3109.00 Z" stroke-width="1" id="308-35-05" stroke="black"/>
  <path fill="none" d="M 1354.00 3111.00 L 1374.00 3112.00 L 1394.00 3112.00 L 1414.00 3132.00 L 1434.00 3112.00 L 1474.00 3112.00 L 1481.00 3112.35 L 1538.00 3029.00 L 1454.00 3029.00 L 1434.00 3028.00 L 1258.00 3028.00 L 1249.00 3111.00 Z" stroke-width="1" id="308-35-06" stroke="black"/>
  <path fill="none" d="M 1494.00 3113.00 L 1509.10 3128.10 L 1542.44 3124.56 L 1554.00 3113.00 L 1583.00 3113.00 L 1612.00 3029.00 L 1538.00 3029.00 L 1481.00 3112.35 Z" stroke-width="1" id="308-35-07" stroke="black"/>
  <path fill="none" d="M 1614.00 3113.00 L 1634.00 3114.00 L 1710.00 3114.00 L 1725.00 3050.00 L 1714.00 3050.00 L 1694.00 3010.00 L 1674.00 3030.00 L 1654.00 3029.00 L 1612.00 3029.00 L 1583.00 3113.00 Z" stroke-width="1" id="308-35-08" stroke="black"/>
  <path fill="none" d="M 1754.00 3114.00 L 1763.64 3123.64 L 1784.59 3123.94 L 1794.00 3115.00 L 1817.29 3115.00 L 1921.00 3082.00 L 1921.00 3057.00 L 1844.86 3030.00 L 1814.00 3030.00 L 1797.04 3013.04 L 1792.55 3011.45 L 1774.00 3030.00 L 1754.00 3030.00 L 1734.00 3050.00 L 1725.00 3050.00 L 1710.00 3114.00 Z" stroke-width="1" id="308-35-09" stroke="black"/>
</svg>
