<?xml version="1.0" encoding="UTF-8"?>
<svg xmlns:xlink="http://www.w3.org/1999/xlink" xmlns="http://www.w3.org/2000/svg" contentScriptType="text/ecmascript" width="1981px" zoomAndPan="magnify" contentStyleType="text/css" viewBox="0 0 1981 3289" height="3289px" preserveAspectRatio="xMidYMid meet" version="1.0">
  <path fill="none" d="M 1746.00 70.00 L 1706.92 123.04 L 1707.00 123.00 L 1767.00 123.00 L 1787.00 119.00 L 1807.00 123.00 L 1827.00 123.00 L 1847.00 127.00 L 1867.00 127.00 L 1887.00 131.00 L 1938.48 131.00 L 1941.00 108.00 L 1931.61 73.00 L 1907.00 73.00 L 1887.00 69.00 L 1875.83 67.88 L 1875.83 67.88 Z" stroke-width="1" id="309-01-01" stroke="black"/>
  <path fill="none" d="M 219.00 103.00 L 139.00 190.00 L 142.17 215.00 L 147.00 215.00 L 167.00 216.00 L 207.00 216.00 L 227.00 217.00 L 267.00 217.00 L 287.00 218.00 L 327.00 218.00 L 347.00 219.00 L 387.00 219.00 L 407.00 220.00 L 413.00 220.00 L 433.00 129.44 L 307.00 129.00 L 278.58 93.00 L 267.33 93.00 Z" stroke-width="1" id="309-02-01" stroke="black"/>
  <path fill="none" d="M 447.00 220.00 L 467.00 221.00 L 507.00 221.00 L 527.00 222.00 L 567.00 222.00 L 587.00 223.00 L 627.00 223.00 L 647.00 224.00 L 677.00 224.00 L 709.00 128.29 L 595.00 130.00 L 433.00 129.44 L 413.00 220.00 Z" stroke-width="1" id="309-02-02" stroke="black"/>
  <path fill="none" d="M 687.00 224.00 L 707.00 225.00 L 747.00 225.00 L 767.00 226.00 L 807.00 226.00 L 827.00 227.00 L 867.00 227.00 L 881.00 227.70 L 930.00 124.96 L 709.00 128.29 L 677.00 224.00 Z" stroke-width="1" id="309-02-03" stroke="black"/>
  <path fill="none" d="M 887.00 228.00 L 927.00 228.00 L 947.00 229.00 L 987.00 229.00 L 1007.00 230.00 L 1047.00 230.00 L 1067.00 231.00 L 1107.00 231.00 L 1127.00 232.00 L 1167.00 232.00 L 1187.00 233.00 L 1227.00 233.00 L 1247.00 234.00 L 1287.00 234.00 L 1307.00 235.00 L 1347.00 235.00 L 1367.00 236.00 L 1407.00 236.00 L 1410.00 236.15 L 1426.00 148.94 L 1285.00 141.00 L 994.00 124.00 L 930.00 124.96 L 881.00 227.70 Z" stroke-width="1" id="309-02-04" stroke="black"/>
  <path fill="none" d="M 1427.00 237.00 L 1487.00 237.00 L 1507.00 238.00 L 1547.00 238.00 L 1567.00 239.00 L 1607.00 239.00 L 1627.00 240.00 L 1652.79 240.00 L 1653.00 237.00 L 1768.00 233.33 L 1779.00 120.60 L 1767.00 123.00 L 1707.00 123.00 L 1706.92 123.04 L 1704.00 127.00 L 1696.99 128.01 L 1687.00 133.00 L 1662.22 133.00 L 1516.00 154.00 L 1426.00 148.94 L 1410.00 236.15 Z" stroke-width="1" id="309-02-05" stroke="black"/>
  <path fill="none" d="M 1935.00 228.00 L 1933.00 181.00 L 1938.48 131.00 L 1887.00 131.00 L 1867.00 127.00 L 1847.00 127.00 L 1827.00 123.00 L 1807.00 123.00 L 1787.00 119.00 L 1779.00 120.60 L 1768.00 233.33 Z" stroke-width="1" id="309-02-06" stroke="black"/>
  <path fill="none" d="M 687.00 352.00 L 654.15 414.50 L 667.00 428.00 L 687.00 428.00 L 707.00 408.00 L 727.00 408.00 L 747.00 409.00 L 767.00 389.00 L 787.00 409.00 L 827.00 409.00 L 847.00 410.00 L 875.00 410.00 L 917.00 285.00 L 907.00 285.00 L 887.00 284.00 L 827.00 284.00 L 807.00 283.00 L 767.00 283.00 L 760.71 279.22 Z" stroke-width="1" id="309-04-01" stroke="black"/>
  <path fill="none" d="M 907.00 410.00 L 927.00 411.00 L 978.00 411.00 L 1037.00 286.50 L 1027.00 286.00 L 967.00 286.00 L 947.00 285.00 L 917.00 285.00 L 875.00 410.00 Z" stroke-width="1" id="309-04-02" stroke="black"/>
  <path fill="none" d="M 1007.00 411.00 L 1027.00 412.00 L 1087.00 412.00 L 1107.00 413.00 L 1187.00 413.00 L 1207.00 394.00 L 1227.00 385.00 L 1247.00 385.00 L 1267.00 374.00 L 1287.00 395.00 L 1307.00 415.00 L 1347.00 415.00 L 1367.00 416.00 L 1447.00 416.00 L 1467.00 417.00 L 1467.31 417.00 L 1468.00 415.00 L 1537.00 406.79 L 1571.00 293.00 L 1527.00 293.00 L 1507.00 292.00 L 1447.00 292.00 L 1427.00 291.00 L 1367.00 291.00 L 1347.00 290.00 L 1287.00 290.00 L 1267.00 289.00 L 1207.00 289.00 L 1187.00 288.00 L 1127.00 288.00 L 1107.00 287.00 L 1047.00 287.00 L 1037.00 286.50 L 978.00 411.00 Z" stroke-width="1" id="309-04-03" stroke="black"/>
  <path fill="none" d="M 1653.00 393.00 L 1647.00 322.00 L 1648.98 294.00 L 1607.00 294.00 L 1587.00 293.00 L 1571.00 293.00 L 1537.00 406.79 Z" stroke-width="1" id="309-04-04" stroke="black"/>
  <path fill="none" d="M 690.00 477.00 L 688.00 481.00 L 787.00 481.00 L 807.00 482.00 L 907.00 482.00 L 927.00 483.00 L 1027.00 483.00 L 1047.00 484.00 L 1098.00 484.00 L 1129.00 413.00 L 1107.00 413.00 L 1087.00 412.00 L 1027.00 412.00 L 1007.00 411.00 L 927.00 411.00 L 907.00 410.00 L 847.00 410.00 L 827.00 409.00 L 787.00 409.00 L 767.00 389.00 L 747.00 409.00 L 727.00 408.00 L 724.00 408.00 L 674.00 459.91 Z" stroke-width="1" id="309-05-01" stroke="black"/>
  <path fill="none" d="M 1167.00 484.00 L 1187.00 485.00 L 1213.00 485.00 L 1291.00 399.00 L 1287.00 395.00 L 1267.00 374.00 L 1247.00 385.00 L 1227.00 385.00 L 1207.00 394.00 L 1187.00 413.00 L 1129.00 413.00 L 1098.00 484.00 Z" stroke-width="1" id="309-05-02" stroke="black"/>
  <path fill="none" d="M 1287.00 485.00 L 1307.00 486.00 L 1407.00 486.00 L 1427.00 487.00 L 1443.28 487.00 L 1467.31 417.00 L 1467.00 417.00 L 1447.00 416.00 L 1367.00 416.00 L 1347.00 415.00 L 1307.00 415.00 L 1291.00 399.00 L 1213.00 485.00 Z" stroke-width="1" id="309-05-03" stroke="black"/>
  <path fill="none" d="M 49.00 559.00 L 45.00 631.00 L 142.00 641.06 L 197.00 539.00 L 187.00 537.00 L 167.00 535.00 L 147.00 517.00 L 127.00 517.00 L 109.34 520.53 Z" stroke-width="1" id="309-07-01" stroke="black"/>
  <path fill="none" d="M 208.90 648.00 L 277.90 648.00 L 310.00 553.00 L 307.00 553.00 L 287.00 547.00 L 267.00 547.00 L 247.00 545.00 L 227.00 541.00 L 207.00 541.00 L 197.00 539.00 L 142.00 641.06 Z" stroke-width="1" id="309-07-02" stroke="black"/>
  <path fill="none" d="M 387.00 648.00 L 407.00 668.00 L 427.00 668.00 L 447.00 648.00 L 547.00 648.00 L 567.00 628.00 L 587.00 648.00 L 683.00 648.00 L 735.00 556.00 L 707.00 556.00 L 687.00 555.00 L 547.00 555.00 L 527.00 554.00 L 367.00 554.00 L 347.00 553.00 L 310.00 553.00 L 277.90 648.00 Z" stroke-width="1" id="309-07-03" stroke="black"/>
  <path fill="none" d="M 954.00 648.00 L 988.00 557.00 L 907.00 557.00 L 887.00 543.00 L 867.00 543.00 L 847.00 539.00 L 807.00 539.00 L 787.00 536.00 L 767.00 556.00 L 735.00 556.00 L 683.00 648.00 Z" stroke-width="1" id="309-07-04" stroke="black"/>
  <path fill="none" d="M 1301.00 648.00 L 1324.00 559.00 L 1207.00 559.00 L 1187.00 558.00 L 1047.00 558.00 L 1027.00 557.00 L 988.00 557.00 L 954.00 648.00 Z" stroke-width="1" id="309-07-05" stroke="black"/>
  <path fill="none" d="M 1307.00 648.00 L 1327.00 668.00 L 1347.00 688.00 L 1367.00 648.00 L 1396.00 648.00 L 1454.00 560.00 L 1387.00 560.00 L 1367.00 559.00 L 1324.00 559.00 L 1301.00 648.00 Z" stroke-width="1" id="309-07-06" stroke="black"/>
  <path fill="none" d="M 1530.54 648.00 L 1561.00 645.00 L 1531.77 560.24 L 1527.00 560.00 L 1454.00 560.00 L 1396.00 648.00 Z" stroke-width="1" id="309-07-07" stroke="black"/>
  <path fill="none" d="M 513.00 708.00 L 557.79 731.00 L 587.00 731.00 L 607.00 751.00 L 619.07 762.47 L 624.00 765.00 L 623.90 767.05 L 627.00 770.00 L 647.00 770.00 L 667.00 750.00 L 687.00 730.00 L 914.00 730.00 L 950.00 648.00 L 587.00 648.00 L 574.00 635.00 L 518.00 678.71 Z" stroke-width="1" id="309-08-01" stroke="black"/>
  <path fill="none" d="M 1007.00 730.00 L 1027.00 770.00 L 1047.00 753.00 L 1067.00 743.00 L 1087.00 735.00 L 1107.00 730.00 L 1187.00 730.00 L 1207.00 729.00 L 1405.00 729.00 L 1420.54 648.00 L 1367.00 648.00 L 1347.00 688.00 L 1327.00 668.00 L 1307.00 648.00 L 950.00 648.00 L 914.00 730.00 Z" stroke-width="1" id="309-08-02" stroke="black"/>
  <path fill="none" d="M 647.00 851.00 L 667.00 851.00 L 687.00 843.00 L 707.00 831.00 L 727.00 825.00 L 747.00 821.00 L 767.00 812.00 L 787.00 812.00 L 807.00 813.00 L 864.00 813.00 L 879.00 730.00 L 711.00 730.00 L 634.00 825.00 Z" stroke-width="1" id="309-09-01" stroke="black"/>
  <path fill="none" d="M 927.00 813.00 L 947.00 814.00 L 1016.00 814.00 L 1028.00 769.15 L 1027.00 770.00 L 1007.00 730.00 L 879.00 730.00 L 864.00 813.00 Z" stroke-width="1" id="309-09-02" stroke="black"/>
  <path fill="none" d="M 1047.00 814.00 L 1067.00 815.00 L 1187.00 815.00 L 1207.00 816.00 L 1307.00 816.00 L 1327.00 817.00 L 1407.00 817.00 L 1427.00 837.00 L 1447.00 837.00 L 1467.00 838.00 L 1487.00 838.00 L 1507.00 818.00 L 1524.00 751.27 L 1504.00 751.00 L 1433.29 729.00 L 1207.00 729.00 L 1187.00 730.00 L 1107.00 730.00 L 1087.00 735.00 L 1067.00 743.00 L 1047.00 753.00 L 1028.00 769.15 L 1016.00 814.00 Z" stroke-width="1" id="309-09-03" stroke="black"/>
  <path fill="none" d="M 1547.00 818.00 L 1567.00 838.00 L 1587.00 839.00 L 1607.00 819.00 L 1707.00 819.00 L 1724.00 819.85 L 1728.00 754.08 L 1524.00 751.27 L 1507.00 818.00 Z" stroke-width="1" id="309-09-04" stroke="black"/>
  <path fill="none" d="M 1727.00 820.00 L 1827.00 820.00 L 1847.00 841.00 L 1867.00 841.00 L 1887.00 821.00 L 1950.08 821.00 L 1954.00 787.00 L 1941.00 757.00 L 1728.00 754.08 L 1724.00 819.85 Z" stroke-width="1" id="309-09-05" stroke="black"/>
  <path fill="none" d="M 168.00 843.00 L 165.95 901.95 L 167.00 902.00 L 267.00 902.00 L 287.00 903.00 L 327.00 903.00 L 347.00 923.00 L 367.00 903.00 L 378.00 903.00 L 435.00 814.16 L 353.96 809.00 L 287.00 809.00 L 267.00 808.00 L 232.88 808.00 Z" stroke-width="1" id="309-10-01" stroke="black"/>
  <path fill="none" d="M 407.00 903.00 L 427.00 904.00 L 487.00 904.00 L 500.00 818.30 L 435.00 814.16 L 378.00 903.00 Z" stroke-width="1" id="309-10-02" stroke="black"/>
  <path fill="none" d="M 507.00 904.00 L 527.00 924.00 L 547.00 925.00 L 567.00 925.00 L 587.00 905.00 L 667.00 905.00 L 687.00 906.00 L 743.00 906.00 L 755.00 817.40 L 747.00 821.00 L 727.00 825.00 L 707.00 831.00 L 687.00 843.00 L 667.00 851.00 L 647.00 851.00 L 627.00 811.00 L 621.74 811.00 L 621.00 826.00 L 500.00 818.30 L 487.00 904.00 Z" stroke-width="1" id="309-10-03" stroke="black"/>
  <path fill="none" d="M 787.00 906.00 L 807.00 907.00 L 823.00 907.00 L 859.00 813.00 L 807.00 813.00 L 787.00 812.00 L 767.00 812.00 L 755.00 817.40 L 743.00 906.00 Z" stroke-width="1" id="309-10-04" stroke="black"/>
  <path fill="none" d="M 927.00 907.00 L 947.00 908.00 L 1047.00 908.00 L 1067.00 909.00 L 1167.00 909.00 L 1187.00 910.00 L 1237.00 910.00 L 1240.00 816.00 L 1207.00 816.00 L 1187.00 815.00 L 1067.00 815.00 L 1047.00 814.00 L 947.00 814.00 L 927.00 813.00 L 859.00 813.00 L 823.00 907.00 Z" stroke-width="1" id="309-10-05" stroke="black"/>
  <path fill="none" d="M 1307.00 910.00 L 1327.00 911.00 L 1427.00 911.00 L 1435.00 919.40 L 1482.00 838.00 L 1467.00 838.00 L 1447.00 837.00 L 1427.00 837.00 L 1407.00 817.00 L 1327.00 817.00 L 1307.00 816.00 L 1240.00 816.00 L 1237.00 910.00 Z" stroke-width="1" id="309-10-06" stroke="black"/>
  <path fill="none" d="M 1447.00 932.00 L 1467.00 932.00 L 1487.00 912.00 L 1567.00 912.00 L 1587.00 913.00 L 1589.00 913.00 L 1631.00 819.00 L 1607.00 819.00 L 1587.00 839.00 L 1567.00 838.00 L 1547.00 818.00 L 1507.00 818.00 L 1487.00 838.00 L 1482.00 838.00 L 1435.00 919.40 Z" stroke-width="1" id="309-10-07" stroke="black"/>
  <path fill="none" d="M 1687.00 913.00 L 1707.00 914.00 L 1757.00 914.00 L 1776.00 820.00 L 1727.00 820.00 L 1707.00 819.00 L 1631.00 819.00 L 1589.00 913.00 Z" stroke-width="1" id="309-10-08" stroke="black"/>
  <path fill="none" d="M 1827.00 914.00 L 1847.00 915.00 L 1895.45 915.00 L 1942.00 891.00 L 1950.08 821.00 L 1887.00 821.00 L 1867.00 841.00 L 1847.00 841.00 L 1827.00 820.00 L 1776.00 820.00 L 1757.00 914.00 Z" stroke-width="1" id="309-10-09" stroke="black"/>
  <path fill="none" d="M 165.95 901.95 L 163.00 987.00 L 343.00 990.20 L 348.00 922.00 L 347.00 923.00 L 327.00 903.00 L 287.00 903.00 L 267.00 902.00 L 167.00 902.00 Z" stroke-width="1" id="309-11-01" stroke="black"/>
  <path fill="none" d="M 610.00 994.94 L 617.00 905.00 L 587.00 905.00 L 567.00 925.00 L 547.00 925.00 L 527.00 924.00 L 507.00 904.00 L 427.00 904.00 L 407.00 903.00 L 367.00 903.00 L 348.00 922.00 L 343.00 990.20 Z" stroke-width="1" id="309-11-02" stroke="black"/>
  <path fill="none" d="M 726.00 997.00 L 723.98 1001.85 L 727.00 1002.00 L 747.00 1002.00 L 767.00 982.00 L 807.00 982.00 L 827.00 1022.00 L 847.00 1002.00 L 867.00 1003.00 L 987.00 1003.00 L 1007.00 1004.00 L 1013.47 1004.00 L 1015.00 991.00 L 1024.00 990.73 L 1029.00 908.00 L 947.00 908.00 L 927.00 907.00 L 807.00 907.00 L 787.00 906.00 L 687.00 906.00 L 667.00 905.00 L 617.00 905.00 L 610.00 994.94 Z" stroke-width="1" id="309-11-03" stroke="black"/>
  <path fill="none" d="M 1172.00 986.21 L 1200.00 910.00 L 1187.00 910.00 L 1167.00 909.00 L 1067.00 909.00 L 1047.00 908.00 L 1029.00 908.00 L 1024.00 990.73 Z" stroke-width="1" id="309-11-04" stroke="black"/>
  <path fill="none" d="M 1408.00 979.00 L 1413.00 990.43 L 1452.00 932.00 L 1447.00 932.00 L 1427.00 911.00 L 1327.00 911.00 L 1307.00 910.00 L 1200.00 910.00 L 1172.00 986.21 Z" stroke-width="1" id="309-11-05" stroke="black"/>
  <path fill="none" d="M 1420.10 1006.65 L 1427.00 1007.00 L 1443.00 1007.00 L 1485.00 999.00 L 1654.00 996.76 L 1674.00 913.00 L 1587.00 913.00 L 1567.00 912.00 L 1487.00 912.00 L 1467.00 932.00 L 1452.00 932.00 L 1413.00 990.43 Z" stroke-width="1" id="309-11-06" stroke="black"/>
  <path fill="none" d="M 1863.00 994.00 L 1878.00 924.00 L 1895.45 915.00 L 1847.00 915.00 L 1827.00 914.00 L 1707.00 914.00 L 1687.00 913.00 L 1674.00 913.00 L 1654.00 996.76 Z" stroke-width="1" id="309-11-07" stroke="black"/>
  <path fill="none" d="M 723.98 1001.85 L 696.00 1069.00 L 748.00 1068.90 L 816.00 1000.00 L 807.00 982.00 L 767.00 982.00 L 747.00 1002.00 L 727.00 1002.00 Z" stroke-width="1" id="309-12-01" stroke="black"/>
  <path fill="none" d="M 917.00 1068.58 L 923.00 1003.00 L 867.00 1003.00 L 847.00 1002.00 L 827.00 1022.00 L 816.00 1000.00 L 748.00 1068.90 Z" stroke-width="1" id="309-12-02" stroke="black"/>
  <path fill="none" d="M 1003.00 1068.42 L 1009.00 1042.00 L 1013.47 1004.00 L 1007.00 1004.00 L 987.00 1003.00 L 923.00 1003.00 L 917.00 1068.58 Z" stroke-width="1" id="309-12-03" stroke="black"/>
  <path fill="none" d="M 1220.69 1081.68 L 1176.75 1163.98 L 1187.00 1165.00 L 1207.00 1167.00 L 1287.00 1167.00 L 1307.00 1163.00 L 1327.00 1163.00 L 1347.00 1165.00 L 1367.00 1161.00 L 1374.00 1159.60 L 1395.00 1083.00 L 1387.00 1083.00 L 1367.00 1082.00 L 1307.00 1082.00 L 1287.00 1062.00 L 1247.00 1062.00 L 1227.00 1082.00 Z" stroke-width="1" id="309-13-01" stroke="black"/>
  <path fill="none" d="M 1387.00 1157.00 L 1407.00 1159.00 L 1427.00 1161.00 L 1487.00 1161.00 L 1507.00 1163.00 L 1517.00 1163.00 L 1570.00 1087.12 L 1537.42 1084.00 L 1527.00 1084.00 L 1507.00 1083.00 L 1395.00 1083.00 L 1374.00 1159.60 Z" stroke-width="1" id="309-13-02" stroke="black"/>
  <path fill="none" d="M 1587.00 1163.00 L 1607.00 1165.00 L 1627.00 1165.00 L 1630.00 1165.60 L 1646.00 1094.41 L 1570.00 1087.12 L 1517.00 1163.00 Z" stroke-width="1" id="309-13-03" stroke="black"/>
  <path fill="none" d="M 1647.00 1169.00 L 1667.00 1171.00 L 1687.00 1171.00 L 1707.00 1173.00 L 1711.85 1173.49 L 1857.00 1173.00 L 1840.00 1113.00 L 1646.00 1094.41 L 1630.00 1165.60 Z" stroke-width="1" id="309-13-04" stroke="black"/>
  <path fill="none" d="M 259.61 1242.00 L 307.00 1242.00 L 327.00 1243.00 L 407.00 1243.00 L 427.00 1244.00 L 507.00 1244.00 L 527.00 1245.00 L 607.00 1245.00 L 627.00 1246.00 L 707.00 1246.00 L 727.00 1247.00 L 807.00 1247.00 L 827.00 1248.00 L 873.00 1248.00 L 895.00 1157.00 L 887.00 1157.00 L 867.00 1155.00 L 667.00 1155.00 L 647.00 1153.00 L 507.00 1153.00 L 492.97 1147.39 L 472.00 1147.00 L 346.00 1201.00 Z" stroke-width="1" id="309-14-01" stroke="black"/>
  <path fill="none" d="M 907.00 1248.00 L 927.00 1249.00 L 1007.00 1249.00 L 1027.00 1250.00 L 1107.00 1250.00 L 1127.00 1251.00 L 1207.00 1251.00 L 1227.00 1252.00 L 1272.00 1252.00 L 1304.00 1163.60 L 1287.00 1167.00 L 1207.00 1167.00 L 1187.00 1165.00 L 1176.75 1163.98 L 1173.00 1171.00 L 975.79 1157.24 L 967.00 1159.00 L 947.00 1159.00 L 927.00 1157.00 L 895.00 1157.00 L 873.00 1248.00 Z" stroke-width="1" id="309-14-02" stroke="black"/>
  <path fill="none" d="M 1307.00 1252.00 L 1327.00 1253.00 L 1366.00 1253.00 L 1409.00 1159.20 L 1407.00 1159.00 L 1387.00 1157.00 L 1367.00 1161.00 L 1347.00 1165.00 L 1327.00 1163.00 L 1307.00 1163.00 L 1304.00 1163.60 L 1272.00 1252.00 Z" stroke-width="1" id="309-14-03" stroke="black"/>
  <path fill="none" d="M 1407.00 1253.00 L 1427.00 1254.00 L 1507.00 1254.00 L 1527.00 1255.00 L 1536.00 1255.00 L 1552.00 1163.00 L 1507.00 1163.00 L 1487.00 1161.00 L 1427.00 1161.00 L 1409.00 1159.20 L 1366.00 1253.00 Z" stroke-width="1" id="309-14-04" stroke="black"/>
  <path fill="none" d="M 169.00 1285.00 L 183.00 1315.00 L 185.94 1333.00 L 187.00 1333.00 L 207.00 1334.00 L 267.00 1334.00 L 287.00 1335.00 L 329.00 1335.00 L 373.00 1243.00 L 327.00 1243.00 L 307.00 1242.00 L 259.61 1242.00 Z" stroke-width="1" id="309-15-01" stroke="black"/>
  <path fill="none" d="M 347.00 1335.00 L 367.00 1336.00 L 447.00 1336.00 L 457.00 1336.50 L 510.00 1244.15 L 507.00 1244.00 L 427.00 1244.00 L 407.00 1243.00 L 373.00 1243.00 L 329.00 1335.00 Z" stroke-width="1" id="309-15-02" stroke="black"/>
  <path fill="none" d="M 467.00 1337.00 L 527.00 1337.00 L 547.00 1338.00 L 567.00 1358.00 L 607.00 1358.00 L 627.00 1339.00 L 660.00 1339.00 L 702.00 1246.00 L 627.00 1246.00 L 607.00 1245.00 L 527.00 1245.00 L 510.00 1244.15 L 457.00 1336.50 Z" stroke-width="1" id="309-15-03" stroke="black"/>
  <path fill="none" d="M 687.00 1339.00 L 707.00 1340.00 L 767.00 1340.00 L 787.00 1341.00 L 828.00 1341.00 L 860.00 1248.00 L 827.00 1248.00 L 807.00 1247.00 L 727.00 1247.00 L 707.00 1246.00 L 702.00 1246.00 L 660.00 1339.00 Z" stroke-width="1" id="309-15-04" stroke="black"/>
  <path fill="none" d="M 867.00 1341.00 L 887.00 1342.00 L 947.00 1342.00 L 951.00 1342.20 L 990.00 1249.00 L 927.00 1249.00 L 907.00 1248.00 L 860.00 1248.00 L 828.00 1341.00 Z" stroke-width="1" id="309-15-05" stroke="black"/>
  <path fill="none" d="M 967.00 1343.00 L 1027.00 1343.00 L 1047.00 1344.00 L 1107.00 1344.00 L 1127.00 1345.00 L 1187.00 1345.00 L 1207.00 1346.00 L 1219.87 1346.00 L 1224.00 1330.00 L 1407.00 1348.00 L 1431.00 1347.07 L 1476.00 1254.00 L 1427.00 1254.00 L 1407.00 1253.00 L 1327.00 1253.00 L 1307.00 1252.00 L 1227.00 1252.00 L 1207.00 1251.00 L 1127.00 1251.00 L 1107.00 1250.00 L 1027.00 1250.00 L 1007.00 1249.00 L 990.00 1249.00 L 951.00 1342.20 Z" stroke-width="1" id="309-15-06" stroke="black"/>
  <path fill="none" d="M 1599.00 1340.54 L 1617.00 1255.50 L 1607.00 1255.00 L 1527.00 1255.00 L 1507.00 1254.00 L 1476.00 1254.00 L 1431.00 1347.07 Z" stroke-width="1" id="309-15-07" stroke="black"/>
  <path fill="none" d="M 1870.00 1330.00 L 1875.00 1300.00 L 1818.00 1260.00 L 1743.55 1257.00 L 1727.00 1257.00 L 1707.00 1256.00 L 1627.00 1256.00 L 1617.00 1255.50 L 1599.00 1340.54 Z" stroke-width="1" id="309-15-08" stroke="black"/>
  <path fill="none" d="M 185.94 1333.00 L 199.00 1413.00 L 173.13 1427.00 L 227.00 1427.00 L 247.00 1428.00 L 327.00 1428.00 L 341.00 1428.70 L 396.00 1336.00 L 367.00 1336.00 L 347.00 1335.00 L 287.00 1335.00 L 267.00 1334.00 L 207.00 1334.00 L 187.00 1333.00 Z" stroke-width="1" id="309-16-01" stroke="black"/>
  <path fill="none" d="M 347.00 1429.00 L 437.00 1429.00 L 456.00 1336.45 L 447.00 1336.00 L 396.00 1336.00 L 341.00 1428.70 Z" stroke-width="1" id="309-16-02" stroke="black"/>
  <path fill="none" d="M 447.00 1429.00 L 467.00 1430.00 L 547.00 1430.00 L 567.00 1431.00 L 647.00 1431.00 L 667.00 1432.00 L 756.00 1432.00 L 756.00 1340.00 L 707.00 1340.00 L 687.00 1339.00 L 627.00 1339.00 L 607.00 1358.00 L 567.00 1358.00 L 547.00 1338.00 L 527.00 1337.00 L 467.00 1337.00 L 456.00 1336.45 L 437.00 1429.00 Z" stroke-width="1" id="309-16-03" stroke="black"/>
  <path fill="none" d="M 767.00 1432.00 L 787.00 1433.00 L 821.00 1433.00 L 867.00 1341.00 L 787.00 1341.00 L 767.00 1340.00 L 756.00 1340.00 L 756.00 1432.00 Z" stroke-width="1" id="309-16-04" stroke="black"/>
  <path fill="none" d="M 867.00 1433.00 L 887.00 1434.00 L 967.00 1434.00 L 987.00 1435.00 L 1011.00 1435.00 L 1024.00 1343.00 L 967.00 1343.00 L 947.00 1342.00 L 887.00 1342.00 L 867.00 1341.00 L 821.00 1433.00 Z" stroke-width="1" id="309-16-05" stroke="black"/>
  <path fill="none" d="M 1087.00 1435.00 L 1107.00 1436.00 L 1187.00 1436.00 L 1196.54 1436.48 L 1219.87 1346.00 L 1207.00 1346.00 L 1187.00 1345.00 L 1127.00 1345.00 L 1107.00 1344.00 L 1047.00 1344.00 L 1027.00 1343.00 L 1024.00 1343.00 L 1011.00 1435.00 Z" stroke-width="1" id="309-16-06" stroke="black"/>
  <path fill="none" d="M 34.00 1498.00 L 27.00 1572.00 L 121.00 1573.28 L 159.00 1481.40 L 147.00 1479.00 L 127.00 1461.00 L 114.81 1458.56 L 114.00 1459.00 Z" stroke-width="1" id="309-18-01" stroke="black"/>
  <path fill="none" d="M 419.00 1577.33 L 467.00 1489.00 L 367.00 1489.00 L 347.00 1487.00 L 227.00 1487.00 L 207.00 1485.00 L 191.00 1485.00 L 169.00 1573.93 Z" stroke-width="1" id="309-18-02" stroke="black"/>
  <path fill="none" d="M 763.00 1582.00 L 752.29 1590.00 L 827.00 1590.00 L 847.00 1591.00 L 893.00 1591.00 L 911.00 1489.00 L 467.00 1489.00 L 419.00 1577.33 Z" stroke-width="1" id="309-18-03" stroke="black"/>
  <path fill="none" d="M 1027.00 1592.00 L 1047.00 1593.00 L 1087.00 1593.00 L 1107.00 1573.00 L 1127.00 1593.00 L 1147.00 1593.00 L 1167.00 1594.00 L 1247.00 1594.00 L 1267.00 1595.00 L 1347.00 1595.00 L 1367.00 1596.00 L 1423.00 1596.00 L 1471.00 1501.40 L 1467.00 1501.00 L 1367.00 1501.00 L 1347.00 1499.00 L 1327.00 1499.00 L 1307.00 1497.00 L 1227.00 1497.00 L 1207.00 1495.00 L 1167.00 1495.00 L 1147.00 1493.00 L 1107.00 1493.00 L 1087.00 1491.00 L 985.00 1491.00 L 963.00 1592.00 Z" stroke-width="1" id="309-18-04" stroke="black"/>
  <path fill="none" d="M 1447.00 1596.00 L 1467.00 1597.00 L 1547.00 1597.00 L 1567.00 1598.00 L 1647.00 1598.00 L 1667.00 1599.00 L 1747.00 1599.00 L 1761.00 1599.70 L 1768.00 1509.00 L 1767.00 1509.00 L 1747.00 1507.00 L 1707.00 1507.00 L 1687.00 1505.00 L 1627.00 1505.00 L 1607.00 1503.00 L 1487.00 1503.00 L 1471.00 1501.40 L 1423.00 1596.00 Z" stroke-width="1" id="309-18-05" stroke="black"/>
  <path fill="none" d="M 1767.00 1600.00 L 1822.00 1600.00 L 1857.00 1514.77 L 1844.53 1511.00 L 1827.00 1511.00 L 1807.00 1509.00 L 1768.00 1509.00 L 1761.00 1599.70 Z" stroke-width="1" id="309-18-06" stroke="black"/>
  <path fill="none" d="M 1847.00 1600.00 L 1867.00 1601.00 L 1947.00 1601.00 L 1948.54 1601.22 L 1947.00 1542.00 L 1857.00 1514.77 L 1822.00 1600.00 Z" stroke-width="1" id="309-18-07" stroke="black"/>
  <path fill="none" d="M 687.00 1670.00 L 767.00 1670.00 L 786.00 1670.95 L 826.00 1590.00 L 752.29 1590.00 L 684.29 1640.81 L 677.00 1669.50 Z" stroke-width="1" id="309-19-01" stroke="black"/>
  <path fill="none" d="M 787.00 1671.00 L 867.00 1671.00 L 887.00 1672.00 L 987.00 1672.00 L 1007.00 1673.00 L 1087.00 1673.00 L 1095.00 1673.40 L 1088.00 1592.00 L 1087.00 1593.00 L 1047.00 1593.00 L 1027.00 1592.00 L 947.00 1592.00 L 927.00 1591.00 L 847.00 1591.00 L 827.00 1590.00 L 826.00 1590.00 L 786.00 1670.95 Z" stroke-width="1" id="309-19-02" stroke="black"/>
  <path fill="none" d="M 1107.00 1674.00 L 1182.00 1674.00 L 1221.00 1594.00 L 1167.00 1594.00 L 1147.00 1593.00 L 1127.00 1593.00 L 1107.00 1573.00 L 1088.00 1592.00 L 1095.00 1673.40 Z" stroke-width="1" id="309-19-03" stroke="black"/>
  <path fill="none" d="M 1187.00 1674.00 L 1207.00 1675.00 L 1247.00 1675.00 L 1260.00 1690.60 L 1362.00 1595.75 L 1347.00 1595.00 L 1267.00 1595.00 L 1247.00 1594.00 L 1221.00 1594.00 L 1182.00 1674.00 Z" stroke-width="1" id="309-19-04" stroke="black"/>
  <path fill="none" d="M 1267.00 1699.00 L 1287.00 1701.00 L 1307.00 1697.00 L 1327.00 1691.00 L 1347.00 1691.00 L 1367.00 1676.00 L 1407.00 1676.00 L 1427.00 1677.00 L 1505.00 1677.00 L 1535.00 1597.00 L 1467.00 1597.00 L 1447.00 1596.00 L 1367.00 1596.00 L 1362.00 1595.75 L 1260.00 1690.60 Z" stroke-width="1" id="309-19-05" stroke="black"/>
  <path fill="none" d="M 1507.00 1677.00 L 1527.00 1678.00 L 1620.00 1678.00 L 1646.00 1598.00 L 1567.00 1598.00 L 1547.00 1597.00 L 1535.00 1597.00 L 1505.00 1677.00 Z" stroke-width="1" id="309-19-06" stroke="black"/>
  <path fill="none" d="M 1627.00 1678.00 L 1647.00 1679.00 L 1727.00 1679.00 L 1747.00 1680.00 L 1827.00 1680.00 L 1847.00 1681.00 L 1944.86 1681.00 L 1950.00 1657.00 L 1948.54 1601.22 L 1947.00 1601.00 L 1867.00 1601.00 L 1847.00 1600.00 L 1767.00 1600.00 L 1747.00 1599.00 L 1667.00 1599.00 L 1647.00 1598.00 L 1646.00 1598.00 L 1620.00 1678.00 Z" stroke-width="1" id="309-19-07" stroke="black"/>
  <path fill="none" d="M 192.00 1713.00 L 192.47 1755.27 L 207.00 1756.00 L 287.00 1756.00 L 307.00 1777.00 L 327.00 1757.00 L 362.00 1757.00 L 389.00 1668.64 L 339.00 1668.00 Z" stroke-width="1" id="309-20-01" stroke="black"/>
  <path fill="none" d="M 367.00 1757.00 L 387.00 1758.00 L 407.00 1778.00 L 427.00 1758.00 L 442.00 1758.00 L 503.00 1670.09 L 389.00 1668.64 L 362.00 1757.00 Z" stroke-width="1" id="309-20-02" stroke="black"/>
  <path fill="none" d="M 467.00 1758.00 L 487.00 1759.00 L 547.00 1759.00 L 567.00 1760.00 L 574.00 1760.00 L 616.00 1669.00 L 582.50 1669.00 L 574.00 1671.00 L 503.00 1670.09 L 442.00 1758.00 Z" stroke-width="1" id="309-20-03" stroke="black"/>
  <path fill="none" d="M 647.00 1760.00 L 667.00 1761.00 L 727.00 1761.00 L 747.00 1762.00 L 827.00 1762.00 L 847.00 1763.00 L 885.00 1763.00 L 993.00 1672.30 L 987.00 1672.00 L 887.00 1672.00 L 867.00 1671.00 L 787.00 1671.00 L 767.00 1670.00 L 687.00 1670.00 L 667.00 1669.00 L 616.00 1669.00 L 574.00 1760.00 Z" stroke-width="1" id="309-20-04" stroke="black"/>
  <path fill="none" d="M 907.00 1763.00 L 927.00 1764.00 L 987.00 1764.00 L 1007.00 1765.00 L 1074.00 1765.00 L 1095.00 1673.40 L 1087.00 1673.00 L 1007.00 1673.00 L 993.00 1672.30 L 885.00 1763.00 Z" stroke-width="1" id="309-20-05" stroke="black"/>
  <path fill="none" d="M 1087.00 1765.00 L 1107.00 1766.00 L 1167.00 1766.00 L 1177.00 1766.50 L 1208.00 1675.00 L 1207.00 1675.00 L 1187.00 1674.00 L 1107.00 1674.00 L 1095.00 1673.40 L 1074.00 1765.00 Z" stroke-width="1" id="309-20-06" stroke="black"/>
  <path fill="none" d="M 1187.00 1767.00 L 1267.00 1767.00 L 1287.00 1768.00 L 1303.00 1768.00 L 1320.00 1693.10 L 1307.00 1697.00 L 1287.00 1701.00 L 1267.00 1699.00 L 1247.00 1675.00 L 1208.00 1675.00 L 1177.00 1766.50 Z" stroke-width="1" id="309-20-07" stroke="black"/>
  <path fill="none" d="M 1347.00 1768.00 L 1367.00 1769.00 L 1447.00 1769.00 L 1464.00 1769.85 L 1506.00 1677.00 L 1427.00 1677.00 L 1407.00 1676.00 L 1367.00 1676.00 L 1347.00 1691.00 L 1327.00 1691.00 L 1320.00 1693.10 L 1303.00 1768.00 Z" stroke-width="1" id="309-20-08" stroke="black"/>
  <path fill="none" d="M 1467.00 1770.00 L 1487.00 1790.00 L 1507.00 1790.00 L 1527.00 1770.00 L 1547.00 1771.00 L 1570.00 1771.00 L 1585.00 1678.00 L 1527.00 1678.00 L 1507.00 1677.00 L 1506.00 1677.00 L 1464.00 1769.85 Z" stroke-width="1" id="309-20-09" stroke="black"/>
  <path fill="none" d="M 1627.00 1771.00 L 1647.00 1772.00 L 1706.00 1772.00 L 1712.00 1679.00 L 1647.00 1679.00 L 1627.00 1678.00 L 1585.00 1678.00 L 1570.00 1771.00 Z" stroke-width="1" id="309-20-10" stroke="black"/>
  <path fill="none" d="M 1707.00 1772.00 L 1727.00 1773.00 L 1787.00 1773.00 L 1807.00 1774.00 L 1887.00 1774.00 L 1907.00 1775.00 L 1933.08 1775.00 L 1938.00 1713.00 L 1944.86 1681.00 L 1847.00 1681.00 L 1827.00 1680.00 L 1747.00 1680.00 L 1727.00 1679.00 L 1712.00 1679.00 L 1706.00 1772.00 Z" stroke-width="1" id="309-20-11" stroke="black"/>
  <path fill="none" d="M 192.47 1755.27 L 193.43 1842.32 L 207.00 1843.00 L 267.00 1843.00 L 287.00 1844.00 L 347.00 1844.00 L 367.00 1845.00 L 414.00 1845.00 L 417.00 1768.00 L 407.00 1778.00 L 387.00 1758.00 L 367.00 1757.00 L 327.00 1757.00 L 307.00 1777.00 L 287.00 1756.00 L 207.00 1756.00 Z" stroke-width="1" id="309-21-01" stroke="black"/>
  <path fill="none" d="M 447.00 1845.00 L 467.00 1846.00 L 527.00 1846.00 L 547.00 1847.00 L 555.00 1847.00 L 599.00 1760.00 L 567.00 1760.00 L 547.00 1759.00 L 487.00 1759.00 L 467.00 1758.00 L 427.00 1758.00 L 417.00 1768.00 L 414.00 1845.00 Z" stroke-width="1" id="309-21-02" stroke="black"/>
  <path fill="none" d="M 607.00 1847.00 L 627.00 1848.00 L 687.00 1848.00 L 707.00 1849.00 L 767.00 1849.00 L 787.00 1850.00 L 859.00 1850.00 L 884.00 1763.00 L 847.00 1763.00 L 827.00 1762.00 L 747.00 1762.00 L 727.00 1761.00 L 667.00 1761.00 L 647.00 1760.00 L 599.00 1760.00 L 555.00 1847.00 Z" stroke-width="1" id="309-21-03" stroke="black"/>
  <path fill="none" d="M 867.00 1850.00 L 887.00 1851.00 L 947.00 1851.00 L 967.00 1852.00 L 1027.00 1852.00 L 1047.00 1853.00 L 1081.00 1853.00 L 1107.00 1766.00 L 1087.00 1765.00 L 1007.00 1765.00 L 987.00 1764.00 L 927.00 1764.00 L 907.00 1763.00 L 884.00 1763.00 L 859.00 1850.00 Z" stroke-width="1" id="309-21-04" stroke="black"/>
  <path fill="none" d="M 1107.00 1853.00 L 1127.00 1854.00 L 1187.00 1854.00 L 1207.00 1855.00 L 1287.00 1855.00 L 1307.00 1856.00 L 1367.00 1856.00 L 1387.00 1857.00 L 1447.00 1857.00 L 1467.00 1878.00 L 1487.00 1878.00 L 1507.00 1858.00 L 1524.00 1858.00 L 1549.00 1771.00 L 1547.00 1771.00 L 1527.00 1770.00 L 1507.00 1790.00 L 1487.00 1790.00 L 1467.00 1770.00 L 1447.00 1769.00 L 1367.00 1769.00 L 1347.00 1768.00 L 1287.00 1768.00 L 1267.00 1767.00 L 1187.00 1767.00 L 1167.00 1766.00 L 1107.00 1766.00 L 1081.00 1853.00 Z" stroke-width="1" id="309-21-05" stroke="black"/>
  <path fill="none" d="M 1527.00 1858.00 L 1547.00 1859.00 L 1627.00 1859.00 L 1647.00 1860.00 L 1707.00 1860.00 L 1719.00 1860.60 L 1723.00 1772.80 L 1707.00 1772.00 L 1647.00 1772.00 L 1627.00 1771.00 L 1549.00 1771.00 L 1524.00 1858.00 Z" stroke-width="1" id="309-21-06" stroke="black"/>
  <path fill="none" d="M 1727.00 1861.00 L 1787.00 1861.00 L 1807.00 1862.00 L 1867.00 1862.00 L 1887.00 1863.00 L 1926.10 1863.00 L 1933.08 1775.00 L 1907.00 1775.00 L 1887.00 1774.00 L 1807.00 1774.00 L 1787.00 1773.00 L 1727.00 1773.00 L 1723.00 1772.80 L 1719.00 1860.60 Z" stroke-width="1" id="309-21-07" stroke="black"/>
  <path fill="none" d="M 193.43 1842.32 L 194.52 1941.90 L 207.00 1955.00 L 227.00 1955.00 L 247.00 1935.00 L 267.00 1935.00 L 287.00 1936.00 L 342.00 1936.00 L 334.00 1844.00 L 287.00 1844.00 L 267.00 1843.00 L 207.00 1843.00 Z" stroke-width="1" id="309-22-01" stroke="black"/>
  <path fill="none" d="M 347.00 1936.00 L 367.00 1937.00 L 447.00 1937.00 L 467.00 1938.00 L 527.00 1938.00 L 547.00 1939.00 L 567.00 1939.00 L 561.00 1847.00 L 547.00 1847.00 L 527.00 1846.00 L 467.00 1846.00 L 447.00 1845.00 L 367.00 1845.00 L 347.00 1844.00 L 334.00 1844.00 L 342.00 1936.00 Z" stroke-width="1" id="309-22-02" stroke="black"/>
  <path fill="none" d="M 607.00 1939.00 L 627.00 1940.00 L 661.00 1940.00 L 667.00 1848.00 L 627.00 1848.00 L 607.00 1847.00 L 561.00 1847.00 L 567.00 1939.00 Z" stroke-width="1" id="309-22-03" stroke="black"/>
  <path fill="none" d="M 867.00 1942.00 L 887.00 1943.00 L 947.00 1943.00 L 953.00 1943.30 L 972.00 1852.00 L 967.00 1852.00 L 947.00 1851.00 L 887.00 1851.00 L 867.00 1850.00 L 795.00 1850.00 L 789.00 1942.00 Z" stroke-width="1" id="309-22-04" stroke="black"/>
  <path fill="none" d="M 967.00 1944.00 L 1027.00 1944.00 L 1047.00 1945.00 L 1107.00 1945.00 L 1127.00 1926.00 L 1147.00 1926.00 L 1167.00 1946.00 L 1187.00 1946.00 L 1207.00 1947.00 L 1214.00 1855.00 L 1207.00 1855.00 L 1187.00 1854.00 L 1127.00 1854.00 L 1107.00 1853.00 L 1047.00 1853.00 L 1027.00 1852.00 L 972.00 1852.00 L 953.00 1943.30 Z" stroke-width="1" id="309-22-05" stroke="black"/>
  <path fill="none" d="M 1272.00 1947.00 L 1308.00 1856.00 L 1307.00 1856.00 L 1287.00 1855.00 L 1214.00 1855.00 L 1207.00 1947.00 Z" stroke-width="1" id="309-22-06" stroke="black"/>
  <path fill="none" d="M 1287.00 1947.00 L 1307.00 1948.00 L 1367.00 1948.00 L 1387.00 1949.00 L 1407.00 1949.00 L 1400.00 1857.00 L 1387.00 1857.00 L 1367.00 1856.00 L 1308.00 1856.00 L 1272.00 1947.00 Z" stroke-width="1" id="309-22-07" stroke="black"/>
  <path fill="none" d="M 1447.00 1949.00 L 1467.00 1950.00 L 1527.00 1950.00 L 1547.00 1951.00 L 1576.00 1951.00 L 1606.00 1859.00 L 1547.00 1859.00 L 1527.00 1858.00 L 1507.00 1858.00 L 1487.00 1878.00 L 1467.00 1878.00 L 1447.00 1857.00 L 1400.00 1857.00 L 1407.00 1949.00 Z" stroke-width="1" id="309-22-08" stroke="black"/>
  <path fill="none" d="M 1627.00 1951.00 L 1647.00 1952.00 L 1707.00 1952.00 L 1727.00 1953.00 L 1731.00 1953.00 L 1720.00 1860.65 L 1707.00 1860.00 L 1647.00 1860.00 L 1627.00 1859.00 L 1606.00 1859.00 L 1576.00 1951.00 Z" stroke-width="1" id="309-22-09" stroke="black"/>
  <path fill="none" d="M 1787.00 1953.00 L 1807.00 1954.00 L 1867.00 1954.00 L 1887.00 1955.00 L 1927.61 1955.00 L 1923.00 1902.00 L 1926.10 1863.00 L 1887.00 1863.00 L 1867.00 1862.00 L 1807.00 1862.00 L 1787.00 1861.00 L 1727.00 1861.00 L 1720.00 1860.65 L 1731.00 1953.00 Z" stroke-width="1" id="309-22-10" stroke="black"/>
  <path fill="none" d="M 194.52 1941.90 L 195.23 2006.00 L 247.00 2006.00 L 267.00 2007.00 L 347.00 2007.00 L 357.00 2007.50 L 376.00 1937.00 L 367.00 1937.00 L 347.00 1936.00 L 287.00 1936.00 L 267.00 1935.00 L 247.00 1935.00 L 227.00 1955.00 L 207.00 1955.00 Z" stroke-width="1" id="309-23-01" stroke="black"/>
  <path fill="none" d="M 367.00 2008.00 L 467.00 2008.00 L 487.00 2009.00 L 509.00 2009.00 L 547.00 1939.00 L 527.00 1938.00 L 467.00 1938.00 L 447.00 1937.00 L 376.00 1937.00 L 357.00 2007.50 Z" stroke-width="1" id="309-23-02" stroke="black"/>
  <path fill="none" d="M 567.00 2009.00 L 587.00 2010.00 L 687.00 2010.00 L 707.00 2011.00 L 787.00 2011.00 L 807.00 2012.00 L 907.00 2012.00 L 927.00 2013.00 L 1005.00 2013.00 L 1046.00 1944.95 L 1027.00 1944.00 L 967.00 1944.00 L 947.00 1943.00 L 887.00 1943.00 L 867.00 1942.00 L 787.00 1942.00 L 767.00 1941.00 L 707.00 1941.00 L 687.00 1940.00 L 627.00 1940.00 L 607.00 1939.00 L 547.00 1939.00 L 509.00 2009.00 Z" stroke-width="1" id="309-23-03" stroke="black"/>
  <path fill="none" d="M 1007.00 2013.00 L 1027.00 2014.00 L 1127.00 2014.00 L 1147.00 2015.00 L 1170.00 2015.00 L 1192.00 1946.25 L 1187.00 1946.00 L 1167.00 1946.00 L 1147.00 1926.00 L 1127.00 1926.00 L 1107.00 1945.00 L 1047.00 1945.00 L 1046.00 1944.95 L 1005.00 2013.00 Z" stroke-width="1" id="309-23-04" stroke="black"/>
  <path fill="none" d="M 1227.00 2015.00 L 1247.00 2016.00 L 1347.00 2016.00 L 1367.00 2017.00 L 1447.00 2017.00 L 1467.00 2018.00 L 1553.00 2018.00 L 1563.00 1951.00 L 1547.00 1951.00 L 1527.00 1950.00 L 1467.00 1950.00 L 1447.00 1949.00 L 1387.00 1949.00 L 1367.00 1948.00 L 1307.00 1948.00 L 1287.00 1947.00 L 1207.00 1947.00 L 1192.00 1946.25 L 1170.00 2015.00 Z" stroke-width="1" id="309-23-05" stroke="black"/>
  <path fill="none" d="M 1567.00 2018.00 L 1587.00 2019.00 L 1667.00 2019.00 L 1687.00 2020.00 L 1787.00 2020.00 L 1804.25 2020.86 L 1849.25 2019.51 L 1852.00 1954.00 L 1807.00 1954.00 L 1787.00 1953.00 L 1727.00 1953.00 L 1707.00 1952.00 L 1647.00 1952.00 L 1627.00 1951.00 L 1563.00 1951.00 L 1553.00 2018.00 Z" stroke-width="1" id="309-23-06" stroke="black"/>
  <path fill="none" d="M 1933.00 2017.00 L 1927.61 1955.00 L 1887.00 1955.00 L 1867.00 1954.00 L 1852.00 1954.00 L 1849.25 2019.51 Z" stroke-width="1" id="309-23-07" stroke="black"/>
  <path fill="none" d="M 195.23 2006.00 L 196.00 2076.00 L 189.58 2107.13 L 207.00 2108.00 L 347.00 2108.00 L 367.00 2109.00 L 372.00 2109.00 L 427.00 2008.00 L 367.00 2008.00 L 347.00 2007.00 L 267.00 2007.00 L 247.00 2006.00 Z" stroke-width="1" id="309-24-01" stroke="black"/>
  <path fill="none" d="M 507.00 2109.00 L 525.00 2109.90 L 543.00 2009.00 L 487.00 2009.00 L 467.00 2008.00 L 427.00 2008.00 L 372.00 2109.00 Z" stroke-width="1" id="309-24-02" stroke="black"/>
  <path fill="none" d="M 527.00 2110.00 L 667.00 2110.00 L 687.00 2111.00 L 827.00 2111.00 L 847.00 2112.00 L 869.00 2112.00 L 904.00 2012.00 L 807.00 2012.00 L 787.00 2011.00 L 707.00 2011.00 L 687.00 2010.00 L 587.00 2010.00 L 567.00 2009.00 L 543.00 2009.00 L 525.00 2109.90 Z" stroke-width="1" id="309-24-03" stroke="black"/>
  <path fill="none" d="M 987.00 2112.00 L 991.00 2112.20 L 1015.00 2013.40 L 1007.00 2013.00 L 927.00 2013.00 L 907.00 2012.00 L 904.00 2012.00 L 869.00 2112.00 Z" stroke-width="1" id="309-24-04" stroke="black"/>
  <path fill="none" d="M 1007.00 2113.00 L 1147.00 2113.00 L 1167.00 2114.00 L 1182.00 2114.00 L 1222.00 2015.00 L 1147.00 2015.00 L 1127.00 2014.00 L 1027.00 2014.00 L 1015.00 2013.40 L 991.00 2112.20 Z" stroke-width="1" id="309-24-05" stroke="black"/>
  <path fill="none" d="M 1307.00 2114.00 L 1327.00 2115.00 L 1407.00 2115.00 L 1405.00 2017.00 L 1367.00 2017.00 L 1347.00 2016.00 L 1247.00 2016.00 L 1227.00 2015.00 L 1222.00 2015.00 L 1182.00 2114.00 Z" stroke-width="1" id="309-24-06" stroke="black"/>
  <path fill="none" d="M 1467.00 2115.00 L 1487.00 2116.00 L 1626.00 2116.00 L 1622.00 2019.00 L 1587.00 2019.00 L 1567.00 2018.00 L 1467.00 2018.00 L 1447.00 2017.00 L 1405.00 2017.00 L 1407.00 2115.00 Z" stroke-width="1" id="309-24-07" stroke="black"/>
  <path fill="none" d="M 61.60 2149.37 L 50.97 2165.84 L 33.00 2248.00 L 150.00 2252.03 L 169.00 2165.00 L 167.00 2165.00 L 147.00 2137.00 L 144.50 2136.50 L 106.00 2134.00 Z" stroke-width="1" id="309-26-01" stroke="black"/>
  <path fill="none" d="M 468.00 2263.00 L 499.00 2175.00 L 407.00 2175.00 L 387.00 2174.00 L 367.00 2165.00 L 327.00 2165.00 L 307.00 2163.00 L 287.00 2163.00 L 267.00 2167.00 L 235.00 2167.00 L 220.00 2254.45 Z" stroke-width="1" id="309-26-02" stroke="black"/>
  <path fill="none" d="M 729.00 2272.00 L 787.00 2272.00 L 807.00 2273.00 L 875.00 2273.00 L 885.00 2178.90 L 867.00 2178.00 L 767.00 2178.00 L 747.00 2177.00 L 647.00 2177.00 L 627.00 2176.00 L 527.00 2176.00 L 507.00 2175.00 L 499.00 2175.00 L 468.00 2263.00 Z" stroke-width="1" id="309-26-03" stroke="black"/>
  <path fill="none" d="M 927.00 2273.00 L 947.00 2274.00 L 1047.00 2274.00 L 1067.00 2275.00 L 1187.00 2275.00 L 1207.00 2276.00 L 1307.00 2276.00 L 1327.00 2277.00 L 1397.00 2277.00 L 1420.00 2183.00 L 1367.00 2183.00 L 1347.00 2182.00 L 1247.00 2182.00 L 1227.00 2181.00 L 1127.00 2181.00 L 1107.00 2180.00 L 1027.00 2180.00 L 1007.00 2160.00 L 987.00 2179.00 L 967.00 2159.00 L 947.00 2159.00 L 927.00 2179.00 L 887.00 2179.00 L 885.00 2178.90 L 875.00 2273.00 Z" stroke-width="1" id="309-26-04" stroke="black"/>
  <path fill="none" d="M 1447.00 2277.00 L 1467.00 2278.00 L 1567.00 2278.00 L 1587.00 2279.00 L 1707.00 2279.00 L 1727.00 2280.00 L 1736.00 2280.00 L 1768.00 2186.00 L 1727.00 2186.00 L 1707.00 2185.00 L 1607.00 2185.00 L 1587.00 2184.00 L 1487.00 2184.00 L 1467.00 2183.00 L 1420.00 2183.00 L 1397.00 2277.00 Z" stroke-width="1" id="309-26-05" stroke="black"/>
  <path fill="none" d="M 1822.00 2280.00 L 1848.00 2191.91 L 1830.71 2186.19 L 1827.00 2186.00 L 1768.00 2186.00 L 1736.00 2280.00 Z" stroke-width="1" id="309-26-06" stroke="black"/>
  <path fill="none" d="M 1827.00 2280.00 L 1847.00 2281.00 L 1946.55 2281.00 L 1945.00 2254.00 L 1951.00 2226.00 L 1848.00 2191.91 L 1822.00 2280.00 Z" stroke-width="1" id="309-26-07" stroke="black"/>
  <path fill="none" d="M 767.00 2349.00 L 784.00 2349.85 L 824.00 2273.00 L 807.00 2273.00 L 787.00 2272.00 L 729.00 2272.00 L 787.00 2274.00 L 683.00 2319.29 L 678.00 2349.00 Z" stroke-width="1" id="309-27-01" stroke="black"/>
  <path fill="none" d="M 787.00 2350.00 L 887.00 2350.00 L 907.00 2351.00 L 1027.00 2351.00 L 1047.00 2352.00 L 1085.00 2352.00 L 1115.00 2275.00 L 1067.00 2275.00 L 1047.00 2274.00 L 947.00 2274.00 L 927.00 2273.00 L 824.00 2273.00 L 784.00 2349.85 Z" stroke-width="1" id="309-27-02" stroke="black"/>
  <path fill="none" d="M 1147.00 2352.00 L 1161.00 2352.70 L 1190.00 2275.15 L 1187.00 2275.00 L 1115.00 2275.00 L 1085.00 2352.00 Z" stroke-width="1" id="309-27-03" stroke="black"/>
  <path fill="none" d="M 1167.00 2353.00 L 1265.00 2353.00 L 1303.00 2276.00 L 1207.00 2276.00 L 1190.00 2275.15 L 1161.00 2352.70 Z" stroke-width="1" id="309-27-04" stroke="black"/>
  <path fill="none" d="M 1267.00 2353.00 L 1287.00 2354.00 L 1365.00 2354.00 L 1415.00 2277.00 L 1327.00 2277.00 L 1307.00 2276.00 L 1303.00 2276.00 L 1265.00 2353.00 Z" stroke-width="1" id="309-27-05" stroke="black"/>
  <path fill="none" d="M 1387.00 2354.00 L 1407.00 2355.00 L 1527.00 2355.00 L 1547.00 2356.00 L 1637.00 2356.00 L 1657.00 2279.00 L 1587.00 2279.00 L 1567.00 2278.00 L 1467.00 2278.00 L 1447.00 2277.00 L 1415.00 2277.00 L 1365.00 2354.00 Z" stroke-width="1" id="309-27-06" stroke="black"/>
  <path fill="none" d="M 1647.00 2356.00 L 1667.00 2357.00 L 1707.00 2357.00 L 1727.00 2377.00 L 1747.00 2397.00 L 1767.00 2397.00 L 1787.00 2378.00 L 1807.00 2358.00 L 1822.00 2358.00 L 1836.00 2280.45 L 1827.00 2280.00 L 1727.00 2280.00 L 1707.00 2279.00 L 1657.00 2279.00 L 1637.00 2356.00 Z" stroke-width="1" id="309-27-07" stroke="black"/>
  <path fill="none" d="M 1887.00 2358.00 L 1907.00 2359.00 L 1950.00 2359.00 L 1950.00 2341.00 L 1946.55 2281.00 L 1847.00 2281.00 L 1836.00 2280.45 L 1822.00 2358.00 Z" stroke-width="1" id="309-27-08" stroke="black"/>
  <path fill="none" d="M 207.00 2444.00 L 247.00 2444.00 L 267.00 2445.00 L 287.00 2465.00 L 307.00 2465.00 L 327.00 2445.00 L 347.00 2445.00 L 362.00 2445.75 L 366.00 2354.35 L 274.00 2355.00 L 194.00 2397.06 L 187.00 2424.00 Z" stroke-width="1" id="309-28-01" stroke="black"/>
  <path fill="none" d="M 367.00 2446.00 L 451.00 2446.00 L 527.00 2353.22 L 366.00 2354.35 L 362.00 2445.75 Z" stroke-width="1" id="309-28-02" stroke="black"/>
  <path fill="none" d="M 467.00 2446.00 L 487.00 2447.00 L 587.00 2447.00 L 607.00 2428.00 L 627.00 2448.00 L 687.00 2448.00 L 707.00 2449.00 L 797.00 2449.00 L 841.00 2350.00 L 787.00 2350.00 L 767.00 2349.00 L 667.00 2349.00 L 647.00 2348.00 L 579.00 2348.00 L 558.00 2353.00 L 527.00 2353.22 L 451.00 2446.00 Z" stroke-width="1" id="309-28-03" stroke="black"/>
  <path fill="none" d="M 807.00 2449.00 L 827.00 2450.00 L 907.00 2450.00 L 927.00 2451.00 L 1027.00 2451.00 L 1047.00 2452.00 L 1067.00 2452.00 L 1087.00 2472.00 L 1127.00 2472.00 L 1147.00 2452.00 L 1167.00 2453.00 L 1247.00 2453.00 L 1267.00 2454.00 L 1299.00 2454.00 L 1320.00 2354.00 L 1287.00 2354.00 L 1267.00 2353.00 L 1167.00 2353.00 L 1147.00 2352.00 L 1047.00 2352.00 L 1027.00 2351.00 L 907.00 2351.00 L 887.00 2350.00 L 841.00 2350.00 L 797.00 2449.00 Z" stroke-width="1" id="309-28-04" stroke="black"/>
  <path fill="none" d="M 1367.00 2454.00 L 1377.00 2454.50 L 1449.00 2355.00 L 1407.00 2355.00 L 1387.00 2354.00 L 1320.00 2354.00 L 1299.00 2454.00 Z" stroke-width="1" id="309-28-05" stroke="black"/>
  <path fill="none" d="M 1387.00 2455.00 L 1487.00 2455.00 L 1507.00 2456.00 L 1546.00 2456.00 L 1558.00 2356.00 L 1547.00 2356.00 L 1527.00 2355.00 L 1449.00 2355.00 L 1377.00 2454.50 Z" stroke-width="1" id="309-28-06" stroke="black"/>
  <path fill="none" d="M 1587.00 2456.00 L 1607.00 2457.00 L 1707.00 2457.00 L 1727.00 2458.00 L 1807.00 2458.00 L 1827.00 2459.00 L 1833.50 2459.00 L 1861.50 2457.49 L 1887.00 2358.00 L 1807.00 2358.00 L 1787.00 2378.00 L 1767.00 2397.00 L 1747.00 2397.00 L 1727.00 2377.00 L 1707.00 2357.00 L 1667.00 2357.00 L 1647.00 2356.00 L 1558.00 2356.00 L 1546.00 2456.00 Z" stroke-width="1" id="309-28-07" stroke="black"/>
  <path fill="none" d="M 1926.00 2454.00 L 1950.00 2394.00 L 1950.00 2359.00 L 1907.00 2359.00 L 1887.00 2358.00 L 1861.50 2457.49 Z" stroke-width="1" id="309-28-08" stroke="black"/>
  <path fill="none" d="M 190.00 2514.00 L 321.54 2524.00 L 362.54 2524.00 L 396.00 2446.00 L 367.00 2446.00 L 347.00 2445.00 L 327.00 2445.00 L 307.00 2465.00 L 287.00 2465.00 L 267.00 2445.00 L 247.00 2444.00 L 208.00 2444.00 L 185.01 2472.54 Z" stroke-width="1" id="309-29-01" stroke="black"/>
  <path fill="none" d="M 367.00 2524.00 L 387.00 2525.00 L 407.00 2505.00 L 427.00 2505.00 L 447.00 2525.00 L 467.00 2526.00 L 482.00 2526.00 L 531.00 2447.00 L 487.00 2447.00 L 467.00 2446.00 L 396.00 2446.00 L 362.54 2524.00 Z" stroke-width="1" id="309-29-02" stroke="black"/>
  <path fill="none" d="M 547.00 2526.00 L 567.00 2527.00 L 627.00 2527.00 L 647.00 2528.00 L 649.00 2528.00 L 655.00 2448.00 L 627.00 2448.00 L 607.00 2428.00 L 587.00 2447.00 L 531.00 2447.00 L 482.00 2526.00 Z" stroke-width="1" id="309-29-03" stroke="black"/>
  <path fill="none" d="M 707.00 2528.00 L 727.00 2509.00 L 747.00 2529.00 L 807.00 2529.00 L 827.00 2530.00 L 834.00 2530.00 L 857.00 2450.00 L 827.00 2450.00 L 807.00 2449.00 L 707.00 2449.00 L 687.00 2448.00 L 655.00 2448.00 L 649.00 2528.00 Z" stroke-width="1" id="309-29-04" stroke="black"/>
  <path fill="none" d="M 887.00 2530.00 L 907.00 2531.00 L 909.00 2531.00 L 924.00 2450.85 L 907.00 2450.00 L 857.00 2450.00 L 834.00 2530.00 Z" stroke-width="1" id="309-29-05" stroke="black"/>
  <path fill="none" d="M 967.00 2531.00 L 987.00 2532.00 L 1067.00 2532.00 L 1087.00 2533.00 L 1131.00 2533.00 L 1128.00 2471.00 L 1127.00 2472.00 L 1087.00 2472.00 L 1067.00 2452.00 L 1047.00 2452.00 L 1027.00 2451.00 L 927.00 2451.00 L 924.00 2450.85 L 909.00 2531.00 Z" stroke-width="1" id="309-29-06" stroke="black"/>
  <path fill="none" d="M 1147.00 2533.00 L 1167.00 2534.00 L 1227.00 2534.00 L 1247.00 2535.00 L 1281.00 2535.00 L 1296.00 2454.00 L 1267.00 2454.00 L 1247.00 2453.00 L 1167.00 2453.00 L 1147.00 2452.00 L 1128.00 2471.00 L 1131.00 2533.00 Z" stroke-width="1" id="309-29-07" stroke="black"/>
  <path fill="none" d="M 1327.00 2535.00 L 1347.00 2536.00 L 1407.00 2536.00 L 1427.00 2537.00 L 1487.00 2537.00 L 1507.00 2538.00 L 1527.00 2547.00 L 1547.00 2549.00 L 1567.00 2538.00 L 1587.00 2538.00 L 1607.00 2539.00 L 1667.00 2539.00 L 1687.00 2540.00 L 1747.00 2540.00 L 1767.00 2541.00 L 1806.00 2541.00 L 1807.00 2458.00 L 1727.00 2458.00 L 1707.00 2457.00 L 1607.00 2457.00 L 1587.00 2456.00 L 1507.00 2456.00 L 1487.00 2455.00 L 1387.00 2455.00 L 1367.00 2454.00 L 1296.00 2454.00 L 1281.00 2535.00 Z" stroke-width="1" id="309-29-08" stroke="black"/>
  <path fill="none" d="M 321.54 2524.00 L 361.00 2527.00 L 330.00 2599.00 L 263.14 2607.00 L 267.00 2607.00 L 287.00 2608.00 L 367.00 2608.00 L 387.00 2609.00 L 447.00 2609.00 L 467.00 2610.00 L 487.00 2610.00 L 507.00 2590.00 L 527.00 2630.00 L 547.00 2651.00 L 567.00 2631.00 L 587.00 2611.00 L 601.00 2611.00 L 627.00 2527.00 L 567.00 2527.00 L 547.00 2526.00 L 467.00 2526.00 L 447.00 2525.00 L 427.00 2505.00 L 407.00 2505.00 L 387.00 2525.00 L 367.00 2524.00 Z" stroke-width="1" id="309-30-01" stroke="black"/>
  <path fill="none" d="M 627.00 2611.00 L 647.00 2612.00 L 707.00 2612.00 L 727.00 2613.00 L 749.00 2613.00 L 784.00 2529.00 L 747.00 2529.00 L 727.00 2509.00 L 707.00 2528.00 L 647.00 2528.00 L 627.00 2527.00 L 601.00 2611.00 Z" stroke-width="1" id="309-30-02" stroke="black"/>
  <path fill="none" d="M 787.00 2613.00 L 807.00 2614.00 L 847.00 2614.00 L 867.00 2654.00 L 887.00 2634.00 L 907.00 2615.00 L 938.00 2615.00 L 970.00 2531.15 L 967.00 2531.00 L 907.00 2531.00 L 887.00 2530.00 L 827.00 2530.00 L 807.00 2529.00 L 784.00 2529.00 L 749.00 2613.00 Z" stroke-width="1" id="309-30-03" stroke="black"/>
  <path fill="none" d="M 967.00 2615.00 L 987.00 2616.00 L 1047.00 2616.00 L 1067.00 2617.00 L 1087.00 2637.00 L 1107.00 2617.00 L 1123.00 2617.00 L 1146.00 2533.00 L 1087.00 2533.00 L 1067.00 2532.00 L 987.00 2532.00 L 970.00 2531.15 L 938.00 2615.00 Z" stroke-width="1" id="309-30-04" stroke="black"/>
  <path fill="none" d="M 1127.00 2617.00 L 1147.00 2618.00 L 1227.00 2618.00 L 1288.00 2535.00 L 1247.00 2535.00 L 1227.00 2534.00 L 1167.00 2534.00 L 1147.00 2533.00 L 1146.00 2533.00 L 1123.00 2617.00 Z" stroke-width="1" id="309-30-05" stroke="black"/>
  <path fill="none" d="M 1247.00 2639.00 L 1267.00 2619.00 L 1307.00 2619.00 L 1327.00 2620.00 L 1387.00 2620.00 L 1407.00 2621.00 L 1487.00 2621.00 L 1507.00 2622.00 L 1567.00 2622.00 L 1587.00 2623.00 L 1613.00 2623.00 L 1643.00 2539.00 L 1607.00 2539.00 L 1587.00 2538.00 L 1567.00 2538.00 L 1547.00 2549.00 L 1527.00 2547.00 L 1507.00 2538.00 L 1487.00 2537.00 L 1427.00 2537.00 L 1407.00 2536.00 L 1347.00 2536.00 L 1327.00 2535.00 L 1288.00 2535.00 L 1227.00 2618.00 Z" stroke-width="1" id="309-30-06" stroke="black"/>
  <path fill="none" d="M 1647.00 2623.00 L 1667.00 2604.00 L 1678.00 2615.00 L 1697.00 2540.00 L 1687.00 2540.00 L 1667.00 2539.00 L 1643.00 2539.00 L 1613.00 2623.00 Z" stroke-width="1" id="309-30-07" stroke="black"/>
  <path fill="none" d="M 1687.00 2624.00 L 1747.00 2624.00 L 1757.00 2624.50 L 1764.00 2540.85 L 1747.00 2540.00 L 1697.00 2540.00 L 1678.00 2615.00 Z" stroke-width="1" id="309-30-08" stroke="black"/>
  <path fill="none" d="M 1767.00 2625.00 L 1827.00 2625.00 L 1832.00 2625.25 L 1853.50 2541.33 L 1847.00 2541.00 L 1767.00 2541.00 L 1764.00 2540.85 L 1757.00 2624.50 Z" stroke-width="1" id="309-30-09" stroke="black"/>
  <path fill="none" d="M 1847.00 2626.00 L 1907.00 2626.00 L 1927.00 2627.00 L 1939.67 2627.00 L 1950.00 2596.00 L 1858.50 2541.58 L 1853.50 2541.33 L 1832.00 2625.25 Z" stroke-width="1" id="309-30-10" stroke="black"/>
  <path fill="none" d="M 213.00 2613.00 L 188.01 2694.05 L 207.00 2695.00 L 267.00 2695.00 L 287.00 2675.00 L 307.00 2696.00 L 367.00 2696.00 L 387.00 2697.00 L 466.00 2697.00 L 487.00 2610.00 L 467.00 2610.00 L 447.00 2609.00 L 387.00 2609.00 L 367.00 2608.00 L 287.00 2608.00 L 267.00 2607.00 L 263.14 2607.00 Z" stroke-width="1" id="309-31-01" stroke="black"/>
  <path fill="none" d="M 467.00 2697.00 L 487.00 2698.00 L 547.00 2698.00 L 567.00 2699.00 L 615.00 2699.00 L 652.00 2612.00 L 647.00 2612.00 L 627.00 2611.00 L 587.00 2611.00 L 567.00 2631.00 L 547.00 2651.00 L 527.00 2630.00 L 507.00 2590.00 L 487.00 2610.00 L 466.00 2697.00 Z" stroke-width="1" id="309-31-02" stroke="black"/>
  <path fill="none" d="M 647.00 2699.00 L 667.00 2700.00 L 727.00 2700.00 L 747.00 2701.00 L 766.00 2701.00 L 826.00 2614.00 L 807.00 2614.00 L 787.00 2613.00 L 727.00 2613.00 L 707.00 2612.00 L 652.00 2612.00 L 615.00 2699.00 Z" stroke-width="1" id="309-31-03" stroke="black"/>
  <path fill="none" d="M 767.00 2701.00 L 787.00 2721.00 L 827.00 2721.00 L 847.00 2702.00 L 889.00 2702.00 L 881.00 2640.00 L 867.00 2654.00 L 847.00 2614.00 L 826.00 2614.00 L 766.00 2701.00 Z" stroke-width="1" id="309-31-04" stroke="black"/>
  <path fill="none" d="M 907.00 2702.00 L 927.00 2703.00 L 936.00 2703.00 L 1005.00 2616.00 L 987.00 2616.00 L 967.00 2615.00 L 907.00 2615.00 L 887.00 2634.00 L 881.00 2640.00 L 889.00 2702.00 Z" stroke-width="1" id="309-31-05" stroke="black"/>
  <path fill="none" d="M 1007.00 2703.00 L 1027.00 2704.00 L 1087.00 2704.00 L 1107.00 2705.00 L 1187.00 2705.00 L 1207.00 2706.00 L 1267.00 2706.00 L 1269.00 2706.10 L 1304.00 2619.00 L 1267.00 2619.00 L 1247.00 2639.00 L 1227.00 2618.00 L 1147.00 2618.00 L 1127.00 2617.00 L 1107.00 2617.00 L 1087.00 2637.00 L 1067.00 2617.00 L 1047.00 2616.00 L 1005.00 2616.00 L 936.00 2703.00 Z" stroke-width="1" id="309-31-06" stroke="black"/>
  <path fill="none" d="M 1287.00 2707.00 L 1347.00 2707.00 L 1367.00 2708.00 L 1447.00 2708.00 L 1467.00 2709.00 L 1483.00 2709.00 L 1506.00 2621.95 L 1487.00 2621.00 L 1407.00 2621.00 L 1387.00 2620.00 L 1327.00 2620.00 L 1307.00 2619.00 L 1304.00 2619.00 L 1269.00 2706.10 Z" stroke-width="1" id="309-31-07" stroke="black"/>
  <path fill="none" d="M 1527.00 2709.00 L 1547.00 2710.00 L 1627.00 2710.00 L 1647.00 2711.00 L 1679.00 2711.00 L 1707.00 2624.00 L 1687.00 2624.00 L 1667.00 2604.00 L 1647.00 2623.00 L 1587.00 2623.00 L 1567.00 2622.00 L 1507.00 2622.00 L 1506.00 2621.95 L 1483.00 2709.00 Z" stroke-width="1" id="309-31-08" stroke="black"/>
  <path fill="none" d="M 1707.00 2711.00 L 1727.00 2712.00 L 1807.00 2712.00 L 1827.00 2713.00 L 1830.00 2713.00 L 1874.00 2626.00 L 1847.00 2626.00 L 1827.00 2625.00 L 1767.00 2625.00 L 1747.00 2624.00 L 1707.00 2624.00 L 1679.00 2711.00 Z" stroke-width="1" id="309-31-09" stroke="black"/>
  <path fill="none" d="M 1887.00 2713.00 L 1907.00 2714.00 L 1929.63 2714.00 L 1927.00 2665.00 L 1939.67 2627.00 L 1927.00 2627.00 L 1907.00 2626.00 L 1874.00 2626.00 L 1830.00 2713.00 Z" stroke-width="1" id="309-31-10" stroke="black"/>
  <path fill="none" d="M 188.01 2694.05 L 172.00 2746.00 L 172.42 2775.00 L 207.00 2775.00 L 227.00 2776.00 L 287.00 2776.00 L 300.00 2776.65 L 373.00 2696.30 L 367.00 2696.00 L 307.00 2696.00 L 287.00 2675.00 L 267.00 2695.00 L 207.00 2695.00 Z" stroke-width="1" id="309-32-01" stroke="black"/>
  <path fill="none" d="M 307.00 2777.00 L 387.00 2777.00 L 407.00 2778.00 L 467.00 2778.00 L 487.00 2779.00 L 488.00 2779.00 L 540.00 2698.00 L 487.00 2698.00 L 467.00 2697.00 L 387.00 2697.00 L 373.00 2696.30 L 300.00 2776.65 Z" stroke-width="1" id="309-32-02" stroke="black"/>
  <path fill="none" d="M 567.00 2779.00 L 587.00 2780.00 L 624.00 2780.00 L 657.00 2699.50 L 647.00 2699.00 L 567.00 2699.00 L 547.00 2698.00 L 540.00 2698.00 L 488.00 2779.00 Z" stroke-width="1" id="309-32-03" stroke="black"/>
  <path fill="none" d="M 647.00 2780.00 L 667.00 2781.00 L 747.00 2781.00 L 767.00 2782.00 L 787.00 2782.00 L 807.00 2802.00 L 827.00 2802.00 L 847.00 2782.00 L 867.00 2783.00 L 886.00 2783.00 L 899.00 2702.00 L 847.00 2702.00 L 827.00 2721.00 L 787.00 2721.00 L 767.00 2701.00 L 747.00 2701.00 L 727.00 2700.00 L 667.00 2700.00 L 657.00 2699.50 L 624.00 2780.00 Z" stroke-width="1" id="309-32-04" stroke="black"/>
  <path fill="none" d="M 1027.00 2784.00 L 1047.00 2785.00 L 1107.00 2785.00 L 1127.00 2786.00 L 1137.00 2786.00 L 1144.00 2705.00 L 1107.00 2705.00 L 1087.00 2704.00 L 1027.00 2704.00 L 1007.00 2703.00 L 982.00 2703.00 L 971.00 2784.00 Z" stroke-width="1" id="309-32-05" stroke="black"/>
  <path fill="none" d="M 1207.00 2786.00 L 1227.00 2787.00 L 1287.00 2787.00 L 1307.00 2788.00 L 1367.00 2788.00 L 1387.00 2808.00 L 1407.00 2809.00 L 1427.00 2809.00 L 1447.00 2789.00 L 1467.00 2789.00 L 1487.00 2790.00 L 1507.00 2790.00 L 1527.00 2810.00 L 1547.00 2810.00 L 1567.00 2790.00 L 1587.00 2791.00 L 1601.00 2791.00 L 1619.00 2710.00 L 1547.00 2710.00 L 1527.00 2709.00 L 1467.00 2709.00 L 1447.00 2708.00 L 1367.00 2708.00 L 1347.00 2707.00 L 1287.00 2707.00 L 1267.00 2706.00 L 1207.00 2706.00 L 1187.00 2705.00 L 1144.00 2705.00 L 1137.00 2786.00 Z" stroke-width="1" id="309-32-06" stroke="black"/>
  <path fill="none" d="M 1667.00 2791.00 L 1674.00 2791.35 L 1688.00 2711.00 L 1647.00 2711.00 L 1627.00 2710.00 L 1619.00 2710.00 L 1601.00 2791.00 Z" stroke-width="1" id="309-32-07" stroke="black"/>
  <path fill="none" d="M 1687.00 2792.00 L 1747.00 2792.00 L 1763.00 2792.80 L 1774.00 2712.00 L 1727.00 2712.00 L 1707.00 2711.00 L 1688.00 2711.00 L 1674.00 2791.35 Z" stroke-width="1" id="309-32-08" stroke="black"/>
  <path fill="none" d="M 1767.00 2793.00 L 1847.00 2793.00 L 1867.00 2794.00 L 1915.53 2794.00 L 1932.00 2758.00 L 1929.63 2714.00 L 1907.00 2714.00 L 1887.00 2713.00 L 1827.00 2713.00 L 1807.00 2712.00 L 1774.00 2712.00 L 1763.00 2792.80 Z" stroke-width="1" id="309-32-09" stroke="black"/>
  <path fill="none" d="M 172.42 2775.00 L 173.68 2862.00 L 187.00 2862.00 L 207.00 2883.00 L 227.00 2883.00 L 247.00 2863.00 L 267.00 2864.00 L 284.00 2864.00 L 329.00 2777.00 L 307.00 2777.00 L 287.00 2776.00 L 227.00 2776.00 L 207.00 2775.00 Z" stroke-width="1" id="309-33-01" stroke="black"/>
  <path fill="none" d="M 287.00 2864.00 L 307.00 2865.00 L 327.00 2865.00 L 347.00 2866.00 L 367.00 2866.00 L 387.00 2867.00 L 427.00 2867.00 L 447.00 2868.00 L 455.00 2868.00 L 450.00 2778.00 L 407.00 2778.00 L 387.00 2777.00 L 329.00 2777.00 L 284.00 2864.00 Z" stroke-width="1" id="309-33-02" stroke="black"/>
  <path fill="none" d="M 467.00 2868.00 L 487.00 2869.00 L 507.00 2869.00 L 527.00 2870.00 L 547.00 2870.00 L 567.00 2871.00 L 587.00 2871.00 L 607.00 2852.00 L 627.00 2872.00 L 647.00 2852.00 L 654.00 2859.35 L 707.00 2781.00 L 667.00 2781.00 L 647.00 2780.00 L 587.00 2780.00 L 567.00 2779.00 L 487.00 2779.00 L 467.00 2778.00 L 450.00 2778.00 L 455.00 2868.00 Z" stroke-width="1" id="309-33-03" stroke="black"/>
  <path fill="none" d="M 667.00 2873.00 L 687.00 2873.00 L 707.00 2874.00 L 727.00 2874.00 L 747.00 2875.00 L 750.00 2875.00 L 796.00 2791.00 L 787.00 2782.00 L 767.00 2782.00 L 747.00 2781.00 L 707.00 2781.00 L 654.00 2859.35 Z" stroke-width="1" id="309-33-04" stroke="black"/>
  <path fill="none" d="M 767.00 2875.00 L 787.00 2876.00 L 827.00 2876.00 L 847.00 2877.00 L 867.00 2877.00 L 887.00 2878.00 L 907.00 2858.00 L 927.00 2859.00 L 947.00 2859.00 L 967.00 2880.00 L 987.00 2860.00 L 1016.00 2784.00 L 947.00 2784.00 L 927.00 2783.00 L 867.00 2783.00 L 847.00 2782.00 L 827.00 2802.00 L 807.00 2802.00 L 796.00 2791.00 L 750.00 2875.00 Z" stroke-width="1" id="309-33-05" stroke="black"/>
  <path fill="none" d="M 1007.00 2900.00 L 1027.00 2901.00 L 1047.00 2881.00 L 1067.00 2882.00 L 1087.00 2882.00 L 1107.00 2863.00 L 1091.00 2785.00 L 1047.00 2785.00 L 1027.00 2784.00 L 1016.00 2784.00 L 987.00 2860.00 Z" stroke-width="1" id="309-33-06" stroke="black"/>
  <path fill="none" d="M 1127.00 2883.00 L 1147.00 2884.00 L 1167.00 2884.00 L 1187.00 2885.00 L 1205.00 2885.00 L 1257.00 2787.00 L 1227.00 2787.00 L 1207.00 2786.00 L 1127.00 2786.00 L 1107.00 2785.00 L 1091.00 2785.00 L 1107.00 2863.00 Z" stroke-width="1" id="309-33-07" stroke="black"/>
  <path fill="none" d="M 1227.00 2885.00 L 1247.00 2886.00 L 1267.00 2886.00 L 1287.00 2887.00 L 1307.00 2887.00 L 1327.00 2888.00 L 1347.00 2888.00 L 1367.00 2889.00 L 1407.00 2889.00 L 1412.00 2889.25 L 1464.00 2789.00 L 1447.00 2789.00 L 1427.00 2809.00 L 1407.00 2809.00 L 1387.00 2808.00 L 1367.00 2788.00 L 1307.00 2788.00 L 1287.00 2787.00 L 1257.00 2787.00 L 1205.00 2885.00 Z" stroke-width="1" id="309-33-08" stroke="black"/>
  <path fill="none" d="M 1427.00 2890.00 L 1447.00 2890.00 L 1467.00 2891.00 L 1487.00 2891.00 L 1507.00 2892.00 L 1527.00 2892.00 L 1547.00 2893.00 L 1587.00 2893.00 L 1607.00 2894.00 L 1627.00 2894.00 L 1647.00 2875.00 L 1667.00 2875.00 L 1687.00 2896.00 L 1707.00 2896.00 L 1727.00 2897.00 L 1730.00 2897.00 L 1743.00 2792.00 L 1687.00 2792.00 L 1667.00 2791.00 L 1587.00 2791.00 L 1567.00 2790.00 L 1547.00 2810.00 L 1527.00 2810.00 L 1507.00 2790.00 L 1487.00 2790.00 L 1467.00 2789.00 L 1464.00 2789.00 L 1412.00 2889.25 Z" stroke-width="1" id="309-33-09" stroke="black"/>
  <path fill="none" d="M 1747.00 2897.00 L 1767.00 2898.00 L 1807.00 2898.00 L 1827.00 2899.00 L 1847.00 2899.00 L 1867.00 2900.00 L 1887.00 2900.00 L 1907.00 2901.00 L 1927.00 2901.00 L 1928.27 2901.06 L 1905.00 2817.00 L 1915.53 2794.00 L 1867.00 2794.00 L 1847.00 2793.00 L 1767.00 2793.00 L 1747.00 2792.00 L 1743.00 2792.00 L 1730.00 2897.00 Z" stroke-width="1" id="309-33-10" stroke="black"/>
  <path fill="none" d="M 173.68 2862.00 L 174.00 2884.00 L 142.20 2958.20 L 147.00 2963.00 L 167.00 2963.00 L 187.00 2964.00 L 207.00 2944.00 L 227.00 2945.00 L 247.00 2945.00 L 267.00 2946.00 L 307.00 2946.00 L 309.00 2946.10 L 345.00 2865.90 L 327.00 2865.00 L 307.00 2865.00 L 287.00 2864.00 L 267.00 2864.00 L 247.00 2863.00 L 227.00 2883.00 L 207.00 2883.00 L 187.00 2862.00 Z" stroke-width="1" id="309-34-01" stroke="black"/>
  <path fill="none" d="M 327.00 2947.00 L 347.00 2947.00 L 367.00 2948.00 L 387.00 2948.00 L 407.00 2949.00 L 413.00 2949.00 L 448.00 2868.00 L 447.00 2868.00 L 427.00 2867.00 L 387.00 2867.00 L 367.00 2866.00 L 347.00 2866.00 L 345.00 2865.90 L 309.00 2946.10 Z" stroke-width="1" id="309-34-02" stroke="black"/>
  <path fill="none" d="M 447.00 2949.00 L 467.00 2950.00 L 487.00 2950.00 L 507.00 2951.00 L 527.00 2951.00 L 547.00 2952.00 L 551.00 2952.00 L 556.00 2870.45 L 547.00 2870.00 L 527.00 2870.00 L 507.00 2869.00 L 487.00 2869.00 L 467.00 2868.00 L 448.00 2868.00 L 413.00 2949.00 Z" stroke-width="1" id="309-34-03" stroke="black"/>
  <path fill="none" d="M 587.00 2952.00 L 607.00 2953.00 L 627.00 2953.00 L 647.00 2954.00 L 667.00 2934.00 L 687.00 2935.00 L 707.00 2955.00 L 727.00 2955.00 L 741.00 2955.70 L 750.00 2875.00 L 747.00 2875.00 L 727.00 2874.00 L 707.00 2874.00 L 687.00 2873.00 L 667.00 2873.00 L 647.00 2852.00 L 627.00 2872.00 L 607.00 2852.00 L 587.00 2871.00 L 567.00 2871.00 L 556.00 2870.45 L 551.00 2952.00 Z" stroke-width="1" id="309-34-04" stroke="black"/>
  <path fill="none" d="M 867.00 2958.00 L 887.00 2959.00 L 907.00 2959.00 L 927.00 2960.00 L 947.00 2960.00 L 967.00 2961.00 L 1007.00 2961.00 L 1010.00 2961.15 L 1066.00 2881.95 L 1047.00 2881.00 L 1027.00 2901.00 L 1007.00 2900.00 L 987.00 2860.00 L 967.00 2880.00 L 947.00 2859.00 L 927.00 2859.00 L 907.00 2858.00 L 887.00 2878.00 L 867.00 2877.00 L 866.00 2877.00 L 859.00 2958.00 Z" stroke-width="1" id="309-34-05" stroke="black"/>
  <path fill="none" d="M 1027.00 2962.00 L 1047.00 2962.00 L 1067.00 2963.00 L 1087.00 2963.00 L 1107.00 2964.00 L 1147.00 2964.00 L 1167.00 2965.00 L 1187.00 2965.00 L 1207.00 2966.00 L 1227.00 2966.00 L 1247.00 2967.00 L 1287.00 2967.00 L 1307.00 2968.00 L 1327.00 2968.00 L 1347.00 2969.00 L 1367.00 2969.00 L 1387.00 2970.00 L 1398.00 2970.00 L 1416.00 2889.45 L 1407.00 2889.00 L 1367.00 2889.00 L 1347.00 2888.00 L 1327.00 2888.00 L 1307.00 2887.00 L 1287.00 2887.00 L 1267.00 2886.00 L 1247.00 2886.00 L 1227.00 2885.00 L 1187.00 2885.00 L 1167.00 2884.00 L 1147.00 2884.00 L 1127.00 2883.00 L 1107.00 2863.00 L 1087.00 2882.00 L 1067.00 2882.00 L 1066.00 2881.95 L 1010.00 2961.15 Z" stroke-width="1" id="309-34-06" stroke="black"/>
  <path fill="none" d="M 1427.00 2970.00 L 1447.00 2971.00 L 1467.00 2971.00 L 1487.00 2972.00 L 1527.00 2972.00 L 1547.00 2973.00 L 1567.00 2973.00 L 1575.00 2973.40 L 1588.00 2893.05 L 1587.00 2893.00 L 1547.00 2893.00 L 1527.00 2892.00 L 1507.00 2892.00 L 1487.00 2891.00 L 1467.00 2891.00 L 1447.00 2890.00 L 1427.00 2890.00 L 1416.00 2889.45 L 1398.00 2970.00 Z" stroke-width="1" id="309-34-07" stroke="black"/>
  <path fill="none" d="M 1587.00 2974.00 L 1607.00 2974.00 L 1627.00 2975.00 L 1667.00 2975.00 L 1687.00 2976.00 L 1707.00 2976.00 L 1727.00 2977.00 L 1742.00 2977.00 L 1798.00 2898.00 L 1767.00 2898.00 L 1747.00 2897.00 L 1727.00 2897.00 L 1707.00 2896.00 L 1687.00 2896.00 L 1667.00 2875.00 L 1647.00 2875.00 L 1627.00 2894.00 L 1607.00 2894.00 L 1588.00 2893.05 L 1575.00 2973.40 Z" stroke-width="1" id="309-34-08" stroke="black"/>
  <path fill="none" d="M 1747.00 2977.00 L 1767.00 2978.00 L 1807.00 2978.00 L 1827.00 2979.00 L 1847.00 2979.00 L 1867.00 2980.00 L 1887.00 2980.00 L 1907.00 2981.00 L 1923.68 2981.00 L 1936.00 2929.00 L 1928.27 2901.06 L 1927.00 2901.00 L 1907.00 2901.00 L 1887.00 2900.00 L 1867.00 2900.00 L 1847.00 2899.00 L 1827.00 2899.00 L 1807.00 2898.00 L 1798.00 2898.00 L 1742.00 2977.00 Z" stroke-width="1" id="309-34-09" stroke="black"/>
  <path fill="none" d="M 142.20 2958.20 L 141.00 2961.00 L 177.00 3030.00 L 176.07 3035.00 L 207.00 3035.00 L 227.00 3036.00 L 256.00 3036.00 L 292.00 2946.00 L 267.00 2946.00 L 247.00 2945.00 L 227.00 2945.00 L 207.00 2944.00 L 187.00 2964.00 L 167.00 2963.00 L 147.00 2963.00 Z" stroke-width="1" id="309-35-01" stroke="black"/>
  <path fill="none" d="M 307.00 3036.00 L 327.00 3037.00 L 407.00 3037.00 L 427.00 3038.00 L 468.00 3038.00 L 513.00 2951.00 L 507.00 2951.00 L 487.00 2950.00 L 467.00 2950.00 L 447.00 2949.00 L 407.00 2949.00 L 387.00 2948.00 L 367.00 2948.00 L 347.00 2947.00 L 327.00 2947.00 L 307.00 2946.00 L 292.00 2946.00 L 256.00 3036.00 Z" stroke-width="1" id="309-35-02" stroke="black"/>
  <path fill="none" d="M 507.00 3038.00 L 527.00 3039.00 L 587.00 3039.00 L 590.00 3039.15 L 628.00 2953.05 L 627.00 2953.00 L 607.00 2953.00 L 587.00 2952.00 L 547.00 2952.00 L 527.00 2951.00 L 513.00 2951.00 L 468.00 3038.00 Z" stroke-width="1" id="309-35-03" stroke="black"/>
  <path fill="none" d="M 607.00 3040.00 L 687.00 3040.00 L 707.00 3041.00 L 727.00 3041.00 L 747.00 3049.00 L 767.00 3049.00 L 787.00 3041.00 L 807.00 3035.00 L 827.00 3027.00 L 831.00 3027.00 L 853.00 2958.00 L 827.00 2958.00 L 807.00 2957.00 L 787.00 2957.00 L 767.00 2956.00 L 747.00 2956.00 L 727.00 2955.00 L 707.00 2955.00 L 687.00 2935.00 L 667.00 2934.00 L 647.00 2954.00 L 628.00 2953.05 L 590.00 3039.15 Z" stroke-width="1" id="309-35-04" stroke="black"/>
  <path fill="none" d="M 887.00 3027.00 L 907.00 3029.00 L 927.00 3029.00 L 945.68 3042.07 L 950.68 3042.07 L 953.00 2960.30 L 947.00 2960.00 L 927.00 2960.00 L 907.00 2959.00 L 887.00 2959.00 L 867.00 2958.00 L 853.00 2958.00 L 831.00 3027.00 Z" stroke-width="1" id="309-35-05" stroke="black"/>
  <path fill="none" d="M 1216.68 3042.33 L 1226.00 2966.00 L 1207.00 2966.00 L 1187.00 2965.00 L 1167.00 2965.00 L 1147.00 2964.00 L 1107.00 2964.00 L 1087.00 2963.00 L 1067.00 2963.00 L 1047.00 2962.00 L 1027.00 2962.00 L 1007.00 2961.00 L 967.00 2961.00 L 953.00 2960.30 L 950.68 3042.07 Z" stroke-width="1" id="309-35-06" stroke="black"/>
  <path fill="none" d="M 1384.68 3042.49 L 1392.00 2970.00 L 1387.00 2970.00 L 1367.00 2969.00 L 1347.00 2969.00 L 1327.00 2968.00 L 1307.00 2968.00 L 1287.00 2967.00 L 1247.00 2967.00 L 1227.00 2966.00 L 1226.00 2966.00 L 1216.68 3042.33 Z" stroke-width="1" id="309-35-07" stroke="black"/>
  <path fill="none" d="M 1707.68 3042.81 L 1715.00 2976.40 L 1707.00 2976.00 L 1687.00 2976.00 L 1667.00 2975.00 L 1627.00 2975.00 L 1607.00 2974.00 L 1587.00 2974.00 L 1567.00 2973.00 L 1547.00 2973.00 L 1527.00 2972.00 L 1487.00 2972.00 L 1467.00 2971.00 L 1447.00 2971.00 L 1427.00 2970.00 L 1392.00 2970.00 L 1384.68 3042.49 Z" stroke-width="1" id="309-35-08" stroke="black"/>
  <path fill="none" d="M 1793.68 3042.89 L 1819.00 2978.60 L 1807.00 2978.00 L 1767.00 2978.00 L 1747.00 2977.00 L 1727.00 2977.00 L 1715.00 2976.40 L 1707.68 3042.81 Z" stroke-width="1" id="309-35-09" stroke="black"/>
  <path fill="none" d="M 1909.00 3043.00 L 1923.68 2981.00 L 1907.00 2981.00 L 1887.00 2980.00 L 1867.00 2980.00 L 1847.00 2979.00 L 1827.00 2979.00 L 1819.00 2978.60 L 1793.68 3042.89 Z" stroke-width="1" id="309-35-10" stroke="black"/>
  <path fill="none" d="M 176.07 3035.00 L 163.00 3105.00 L 330.57 3122.00 L 407.00 3122.00 L 426.45 3131.73 L 429.14 3132.00 L 467.00 3132.00 L 487.00 3123.00 L 507.00 3123.00 L 527.00 3124.00 L 587.00 3124.00 L 607.00 3125.00 L 637.00 3125.00 L 662.00 3040.00 L 607.00 3040.00 L 587.00 3039.00 L 527.00 3039.00 L 507.00 3038.00 L 427.00 3038.00 L 407.00 3037.00 L 327.00 3037.00 L 307.00 3036.00 L 227.00 3036.00 L 207.00 3035.00 Z" stroke-width="1" id="309-36-01" stroke="black"/>
  <path fill="none" d="M 687.00 3125.00 L 698.41 3125.57 L 849.41 3121.25 L 865.00 3027.00 L 827.00 3027.00 L 807.00 3035.00 L 787.00 3041.00 L 767.00 3049.00 L 747.00 3049.00 L 727.00 3041.00 L 707.00 3041.00 L 687.00 3040.00 L 662.00 3040.00 L 637.00 3125.00 Z" stroke-width="1" id="309-36-02" stroke="black"/>
</svg>
